<?xml version="1.0" encoding="UTF-8" standalone="no"?>
<!DOCTYPE svg PUBLIC "-//W3C//DTD SVG 1.1//EN"
 "http://www.w3.org/Graphics/SVG/1.1/DTD/svg11.dtd">
<!-- Generated by graphviz version 2.40.1 (20161225.0304)
 -->
<!-- Title: dependencies Pages: 1 -->
<svg width="734pt" height="211pt"
 viewBox="0.00 0.00 734.00 211.00" xmlns="http://www.w3.org/2000/svg" xmlns:xlink="http://www.w3.org/1999/xlink">
<g id="graph0" class="graph" transform="scale(1 1) rotate(0) translate(4 207)">
<title>dependencies</title>
<polygon fill="#ffffff" stroke="transparent" points="-4,4 -4,-207 730,-207 730,4 -4,4"/>
<text text-anchor="start" x="342.0091" y="-42.4" font-family="sans-serif" font-weight="bold" font-size="14.00" fill="#000000">Legend</text>
<polygon fill="#ffffb3" stroke="transparent" points="129,-10 129,-30 149,-30 149,-10 129,-10"/>
<text text-anchor="start" x="152.629" y="-15.4" font-family="sans-serif" font-size="14.00" fill="#000000"> &#160;Declarations</text>
<polygon fill="#8dd3c7" stroke="transparent" points="242,-10 242,-30 262,-30 262,-10 242,-10"/>
<text text-anchor="start" x="265.7251" y="-15.4" font-family="sans-serif" font-size="14.00" fill="#000000"> &#160;Module</text>
<polygon fill="#80b1d3" stroke="transparent" points="328,-10 328,-30 348,-30 348,-10 328,-10"/>
<text text-anchor="start" x="351.7812" y="-15.4" font-family="sans-serif" font-size="14.00" fill="#000000"> &#160;Bootstrap</text>
<polygon fill="#fdb462" stroke="transparent" points="425,-10 425,-30 445,-30 445,-10 425,-10"/>
<text text-anchor="start" x="448.6732" y="-15.4" font-family="sans-serif" font-size="14.00" fill="#000000"> &#160;Providers</text>
<polygon fill="#fb8072" stroke="transparent" points="521,-10 521,-30 541,-30 541,-10 521,-10"/>
<text text-anchor="start" x="544.7258" y="-15.4" font-family="sans-serif" font-size="14.00" fill="#000000"> &#160;Exports</text>
<g id="clust1" class="cluster">
<title>cluster_AdminPanelModule</title>
<polygon fill="none" stroke="#000000" stroke-dasharray="1,5" points="8,-70 8,-195 718,-195 718,-70 8,-70"/>
</g>
<g id="clust2" class="cluster">
<title>cluster_AdminPanelModule_declarations</title>
<polygon fill="none" stroke="#000000" points="331,-78 331,-130 710,-130 710,-78 331,-78"/>
</g>
<g id="clust5" class="cluster">
<title>cluster_AdminPanelModule_imports</title>
<polygon fill="none" stroke="#000000" points="16,-78 16,-130 323,-130 323,-78 16,-78"/>
</g>
<!-- AdminPanelComponent -->
<g id="node1" class="node">
<title>AdminPanelComponent</title>
<polygon fill="#ffffb3" stroke="#000000" points="701.8229,-122 550.1771,-122 550.1771,-86 701.8229,-86 701.8229,-122"/>
<text text-anchor="middle" x="626" y="-99.8" font-family="Times,serif" font-size="14.00" fill="#000000">AdminPanelComponent</text>
</g>
<!-- AdminPanelModule -->
<g id="node3" class="node">
<title>AdminPanelModule</title>
<polygon fill="#8dd3c7" stroke="#000000" points="396.5408,-187 393.5408,-191 372.5408,-191 369.5408,-187 267.4592,-187 267.4592,-151 396.5408,-151 396.5408,-187"/>
<text text-anchor="middle" x="332" y="-164.8" font-family="Times,serif" font-size="14.00" fill="#000000">AdminPanelModule</text>
</g>
<!-- AdminPanelComponent&#45;&gt;AdminPanelModule -->
<g id="edge1" class="edge">
<title>AdminPanelComponent&#45;&gt;AdminPanelModule</title>
<path fill="none" stroke="#000000" d="M626,-122.1061C626,-141.3391 626,-169 626,-169 626,-169 406.8835,-169 406.8835,-169"/>
<polygon fill="#000000" stroke="#000000" points="406.8835,-165.5001 396.8835,-169 406.8835,-172.5001 406.8835,-165.5001"/>
</g>
<!-- AdminPanelFeatureComponent -->
<g id="node2" class="node">
<title>AdminPanelFeatureComponent</title>
<polygon fill="#ffffb3" stroke="#000000" points="532.8004,-122 339.1996,-122 339.1996,-86 532.8004,-86 532.8004,-122"/>
<text text-anchor="middle" x="436" y="-99.8" font-family="Times,serif" font-size="14.00" fill="#000000">AdminPanelFeatureComponent</text>
</g>
<!-- AdminPanelFeatureComponent&#45;&gt;AdminPanelModule -->
<g id="edge2" class="edge">
<title>AdminPanelFeatureComponent&#45;&gt;AdminPanelModule</title>
<path fill="none" stroke="#000000" d="M368.0599,-122.1061C368.0599,-122.1061 368.0599,-140.991 368.0599,-140.991"/>
<polygon fill="#000000" stroke="#000000" points="364.56,-140.9909 368.0599,-150.991 371.56,-140.991 364.56,-140.9909"/>
</g>
<!-- AdminPanelRoutingModule -->
<g id="node4" class="node">
<title>AdminPanelRoutingModule</title>
<polygon fill="#8dd3c7" stroke="#000000" points="315.1581,-122 312.1581,-126 291.1581,-126 288.1581,-122 140.8419,-122 140.8419,-86 315.1581,-86 315.1581,-122"/>
<text text-anchor="middle" x="228" y="-99.8" font-family="Times,serif" font-size="14.00" fill="#000000">AdminPanelRoutingModule</text>
</g>
<!-- AdminPanelRoutingModule&#45;&gt;AdminPanelModule -->
<g id="edge3" class="edge">
<title>AdminPanelRoutingModule&#45;&gt;AdminPanelModule</title>
<path fill="none" stroke="#000000" d="M291.2795,-122.1061C291.2795,-122.1061 291.2795,-140.991 291.2795,-140.991"/>
<polygon fill="#000000" stroke="#000000" points="287.7795,-140.9909 291.2795,-150.991 294.7795,-140.991 287.7795,-140.9909"/>
</g>
<!-- SharedModule -->
<g id="node5" class="node">
<title>SharedModule</title>
<polygon fill="#8dd3c7" stroke="#000000" points="122.4231,-122 119.4231,-126 98.4231,-126 95.4231,-122 23.5769,-122 23.5769,-86 122.4231,-86 122.4231,-122"/>
<text text-anchor="middle" x="73" y="-99.8" font-family="Times,serif" font-size="14.00" fill="#000000">SharedModule</text>
</g>
<!-- SharedModule&#45;&gt;AdminPanelModule -->
<g id="edge4" class="edge">
<title>SharedModule&#45;&gt;AdminPanelModule</title>
<path fill="none" stroke="#000000" d="M73,-122.1061C73,-141.3391 73,-169 73,-169 73,-169 257.3115,-169 257.3115,-169"/>
<polygon fill="#000000" stroke="#000000" points="257.3115,-172.5001 267.3115,-169 257.3114,-165.5001 257.3115,-172.5001"/>
</g>
</g>
</svg>
