<?xml version="1.0" encoding="UTF-8" standalone="no"?>
<!DOCTYPE svg PUBLIC "-//W3C//DTD SVG 1.1//EN"
 "http://www.w3.org/Graphics/SVG/1.1/DTD/svg11.dtd">
<!-- Generated by graphviz version 2.40.1 (20161225.0304)
 -->
<!-- Title: dependencies Pages: 1 -->
<svg width="504pt" height="211pt"
 viewBox="0.00 0.00 504.00 211.00" xmlns="http://www.w3.org/2000/svg" xmlns:xlink="http://www.w3.org/1999/xlink">
<g id="graph0" class="graph" transform="scale(1 1) rotate(0) translate(4 207)">
<title>dependencies</title>
<polygon fill="#ffffff" stroke="transparent" points="-4,4 -4,-207 500,-207 500,4 -4,4"/>
<text text-anchor="start" x="227.0091" y="-42.4" font-family="sans-serif" font-weight="bold" font-size="14.00" fill="#000000">Legend</text>
<polygon fill="#ffffb3" stroke="transparent" points="14,-10 14,-30 34,-30 34,-10 14,-10"/>
<text text-anchor="start" x="37.629" y="-15.4" font-family="sans-serif" font-size="14.00" fill="#000000"> &#160;Declarations</text>
<polygon fill="#8dd3c7" stroke="transparent" points="127,-10 127,-30 147,-30 147,-10 127,-10"/>
<text text-anchor="start" x="150.7251" y="-15.4" font-family="sans-serif" font-size="14.00" fill="#000000"> &#160;Module</text>
<polygon fill="#80b1d3" stroke="transparent" points="213,-10 213,-30 233,-30 233,-10 213,-10"/>
<text text-anchor="start" x="236.7812" y="-15.4" font-family="sans-serif" font-size="14.00" fill="#000000"> &#160;Bootstrap</text>
<polygon fill="#fdb462" stroke="transparent" points="310,-10 310,-30 330,-30 330,-10 310,-10"/>
<text text-anchor="start" x="333.6732" y="-15.4" font-family="sans-serif" font-size="14.00" fill="#000000"> &#160;Providers</text>
<polygon fill="#fb8072" stroke="transparent" points="406,-10 406,-30 426,-30 426,-10 406,-10"/>
<text text-anchor="start" x="429.7258" y="-15.4" font-family="sans-serif" font-size="14.00" fill="#000000"> &#160;Exports</text>
<g id="clust1" class="cluster">
<title>cluster_ProtectedModule</title>
<polygon fill="none" stroke="#000000" stroke-dasharray="1,5" points="16,-70 16,-195 480,-195 480,-70 16,-70"/>
</g>
<g id="clust2" class="cluster">
<title>cluster_ProtectedModule_declarations</title>
<polygon fill="none" stroke="#000000" points="322,-78 322,-130 472,-130 472,-78 322,-78"/>
</g>
<g id="clust4" class="cluster">
<title>cluster_ProtectedModule_imports</title>
<polygon fill="none" stroke="#000000" points="24,-78 24,-130 314,-130 314,-78 24,-78"/>
</g>
<!-- ProtectedComponent -->
<g id="node1" class="node">
<title>ProtectedComponent</title>
<polygon fill="#ffffb3" stroke="#000000" points="464.2008,-122 329.7992,-122 329.7992,-86 464.2008,-86 464.2008,-122"/>
<text text-anchor="middle" x="397" y="-99.8" font-family="Times,serif" font-size="14.00" fill="#000000">ProtectedComponent</text>
</g>
<!-- ProtectedModule -->
<g id="node2" class="node">
<title>ProtectedModule</title>
<polygon fill="#8dd3c7" stroke="#000000" points="283.4188,-187 280.4188,-191 259.4188,-191 256.4188,-187 170.5812,-187 170.5812,-151 283.4188,-151 283.4188,-187"/>
<text text-anchor="middle" x="227" y="-164.8" font-family="Times,serif" font-size="14.00" fill="#000000">ProtectedModule</text>
</g>
<!-- ProtectedComponent&#45;&gt;ProtectedModule -->
<g id="edge1" class="edge">
<title>ProtectedComponent&#45;&gt;ProtectedModule</title>
<path fill="none" stroke="#000000" d="M397,-122.1061C397,-141.3391 397,-169 397,-169 397,-169 293.6075,-169 293.6075,-169"/>
<polygon fill="#000000" stroke="#000000" points="293.6076,-165.5001 283.6075,-169 293.6075,-172.5001 293.6076,-165.5001"/>
</g>
<!-- ProtectedRoutingModule -->
<g id="node3" class="node">
<title>ProtectedRoutingModule</title>
<polygon fill="#8dd3c7" stroke="#000000" points="305.5365,-122 302.5365,-126 281.5365,-126 278.5365,-122 148.4635,-122 148.4635,-86 305.5365,-86 305.5365,-122"/>
<text text-anchor="middle" x="227" y="-99.8" font-family="Times,serif" font-size="14.00" fill="#000000">ProtectedRoutingModule</text>
</g>
<!-- ProtectedRoutingModule&#45;&gt;ProtectedModule -->
<g id="edge2" class="edge">
<title>ProtectedRoutingModule&#45;&gt;ProtectedModule</title>
<path fill="none" stroke="#000000" d="M227,-122.1061C227,-122.1061 227,-140.991 227,-140.991"/>
<polygon fill="#000000" stroke="#000000" points="223.5001,-140.9909 227,-150.991 230.5001,-140.991 223.5001,-140.9909"/>
</g>
<!-- SharedModule -->
<g id="node4" class="node">
<title>SharedModule</title>
<polygon fill="#8dd3c7" stroke="#000000" points="130.4231,-122 127.4231,-126 106.4231,-126 103.4231,-122 31.5769,-122 31.5769,-86 130.4231,-86 130.4231,-122"/>
<text text-anchor="middle" x="81" y="-99.8" font-family="Times,serif" font-size="14.00" fill="#000000">SharedModule</text>
</g>
<!-- SharedModule&#45;&gt;ProtectedModule -->
<g id="edge3" class="edge">
<title>SharedModule&#45;&gt;ProtectedModule</title>
<path fill="none" stroke="#000000" d="M81,-122.1061C81,-141.3391 81,-169 81,-169 81,-169 160.5526,-169 160.5526,-169"/>
<polygon fill="#000000" stroke="#000000" points="160.5526,-172.5001 170.5526,-169 160.5526,-165.5001 160.5526,-172.5001"/>
</g>
</g>
</svg>
