<?xml version="1.0" encoding="UTF-8" standalone="no"?>
<!DOCTYPE svg PUBLIC "-//W3C//DTD SVG 1.1//EN"
 "http://www.w3.org/Graphics/SVG/1.1/DTD/svg11.dtd">
<!-- Generated by graphviz version 2.40.1 (20161225.0304)
 -->
<!-- Title: dependencies Pages: 1 -->
<svg width="839pt" height="211pt"
 viewBox="0.00 0.00 839.00 211.00" xmlns="http://www.w3.org/2000/svg" xmlns:xlink="http://www.w3.org/1999/xlink">
<g id="graph0" class="graph" transform="scale(1 1) rotate(0) translate(4 207)">
<title>dependencies</title>
<polygon fill="#ffffff" stroke="transparent" points="-4,4 -4,-207 835,-207 835,4 -4,4"/>
<text text-anchor="start" x="394.5091" y="-42.4" font-family="sans-serif" font-weight="bold" font-size="14.00" fill="#000000">Legend</text>
<polygon fill="#ffffb3" stroke="transparent" points="181.5,-10 181.5,-30 201.5,-30 201.5,-10 181.5,-10"/>
<text text-anchor="start" x="205.129" y="-15.4" font-family="sans-serif" font-size="14.00" fill="#000000"> &#160;Declarations</text>
<polygon fill="#8dd3c7" stroke="transparent" points="294.5,-10 294.5,-30 314.5,-30 314.5,-10 294.5,-10"/>
<text text-anchor="start" x="318.2251" y="-15.4" font-family="sans-serif" font-size="14.00" fill="#000000"> &#160;Module</text>
<polygon fill="#80b1d3" stroke="transparent" points="380.5,-10 380.5,-30 400.5,-30 400.5,-10 380.5,-10"/>
<text text-anchor="start" x="404.2812" y="-15.4" font-family="sans-serif" font-size="14.00" fill="#000000"> &#160;Bootstrap</text>
<polygon fill="#fdb462" stroke="transparent" points="477.5,-10 477.5,-30 497.5,-30 497.5,-10 477.5,-10"/>
<text text-anchor="start" x="501.1732" y="-15.4" font-family="sans-serif" font-size="14.00" fill="#000000"> &#160;Providers</text>
<polygon fill="#fb8072" stroke="transparent" points="573.5,-10 573.5,-30 593.5,-30 593.5,-10 573.5,-10"/>
<text text-anchor="start" x="597.2258" y="-15.4" font-family="sans-serif" font-size="14.00" fill="#000000"> &#160;Exports</text>
<g id="clust1" class="cluster">
<title>cluster_PublicModule</title>
<polygon fill="none" stroke="#000000" stroke-dasharray="1,5" points="8,-70 8,-195 823,-195 823,-70 8,-70"/>
</g>
<g id="clust3" class="cluster">
<title>cluster_PublicModule_imports</title>
<polygon fill="none" stroke="#000000" points="16,-78 16,-130 815,-130 815,-78 16,-78"/>
</g>
<!-- AccessDeniedModule -->
<g id="node1" class="node">
<title>AccessDeniedModule</title>
<polygon fill="#8dd3c7" stroke="#000000" points="806.6163,-122 803.6163,-126 782.6163,-126 779.6163,-122 667.3837,-122 667.3837,-86 806.6163,-86 806.6163,-122"/>
<text text-anchor="middle" x="737" y="-99.8" font-family="Times,serif" font-size="14.00" fill="#000000">AccessDeniedModule</text>
</g>
<!-- PublicModule -->
<g id="node7" class="node">
<title>PublicModule</title>
<polygon fill="#8dd3c7" stroke="#000000" points="454.8288,-187 451.8288,-191 430.8288,-191 427.8288,-187 359.1712,-187 359.1712,-151 454.8288,-151 454.8288,-187"/>
<text text-anchor="middle" x="407" y="-164.8" font-family="Times,serif" font-size="14.00" fill="#000000">PublicModule</text>
</g>
<!-- AccessDeniedModule&#45;&gt;PublicModule -->
<g id="edge1" class="edge">
<title>AccessDeniedModule&#45;&gt;PublicModule</title>
<path fill="none" stroke="#000000" d="M737,-122.2843C737,-143.3211 737,-175 737,-175 737,-175 464.9848,-175 464.9848,-175"/>
<polygon fill="#000000" stroke="#000000" points="464.9849,-171.5001 454.9848,-175 464.9848,-178.5001 464.9849,-171.5001"/>
</g>
<!-- LoginModule -->
<g id="node2" class="node">
<title>LoginModule</title>
<polygon fill="#8dd3c7" stroke="#000000" points="649.493,-122 646.493,-126 625.493,-126 622.493,-122 556.507,-122 556.507,-86 649.493,-86 649.493,-122"/>
<text text-anchor="middle" x="603" y="-99.8" font-family="Times,serif" font-size="14.00" fill="#000000">LoginModule</text>
</g>
<!-- LoginModule&#45;&gt;PublicModule -->
<g id="edge2" class="edge">
<title>LoginModule&#45;&gt;PublicModule</title>
<path fill="none" stroke="#000000" d="M603,-122.0225C603,-139.3734 603,-163 603,-163 603,-163 464.6964,-163 464.6964,-163"/>
<polygon fill="#000000" stroke="#000000" points="464.6964,-159.5001 454.6964,-163 464.6963,-166.5001 464.6964,-159.5001"/>
</g>
<!-- NotFoundModule -->
<g id="node3" class="node">
<title>NotFoundModule</title>
<polygon fill="#8dd3c7" stroke="#000000" points="538.3301,-122 535.3301,-126 514.3301,-126 511.3301,-122 421.6699,-122 421.6699,-86 538.3301,-86 538.3301,-122"/>
<text text-anchor="middle" x="480" y="-99.8" font-family="Times,serif" font-size="14.00" fill="#000000">NotFoundModule</text>
</g>
<!-- NotFoundModule&#45;&gt;PublicModule -->
<g id="edge3" class="edge">
<title>NotFoundModule&#45;&gt;PublicModule</title>
<path fill="none" stroke="#000000" d="M438.2497,-122.1061C438.2497,-122.1061 438.2497,-140.991 438.2497,-140.991"/>
<polygon fill="#000000" stroke="#000000" points="434.7497,-140.9909 438.2497,-150.991 441.7497,-140.991 434.7497,-140.9909"/>
</g>
<!-- PublicRoutingModule -->
<g id="node4" class="node">
<title>PublicRoutingModule</title>
<polygon fill="#8dd3c7" stroke="#000000" points="404.4467,-122 401.4467,-126 380.4467,-126 377.4467,-122 263.5533,-122 263.5533,-86 404.4467,-86 404.4467,-122"/>
<text text-anchor="middle" x="334" y="-99.8" font-family="Times,serif" font-size="14.00" fill="#000000">PublicRoutingModule</text>
</g>
<!-- PublicRoutingModule&#45;&gt;PublicModule -->
<g id="edge4" class="edge">
<title>PublicRoutingModule&#45;&gt;PublicModule</title>
<path fill="none" stroke="#000000" d="M381.7795,-122.1061C381.7795,-122.1061 381.7795,-140.991 381.7795,-140.991"/>
<polygon fill="#000000" stroke="#000000" points="378.2795,-140.9909 381.7795,-150.991 385.2795,-140.991 378.2795,-140.9909"/>
</g>
<!-- RegisterModule -->
<g id="node5" class="node">
<title>RegisterModule</title>
<polygon fill="#8dd3c7" stroke="#000000" points="246.2022,-122 243.2022,-126 222.2022,-126 219.2022,-122 139.7978,-122 139.7978,-86 246.2022,-86 246.2022,-122"/>
<text text-anchor="middle" x="193" y="-99.8" font-family="Times,serif" font-size="14.00" fill="#000000">RegisterModule</text>
</g>
<!-- RegisterModule&#45;&gt;PublicModule -->
<g id="edge5" class="edge">
<title>RegisterModule&#45;&gt;PublicModule</title>
<path fill="none" stroke="#000000" d="M193,-122.0225C193,-139.3734 193,-163 193,-163 193,-163 349.2406,-163 349.2406,-163"/>
<polygon fill="#000000" stroke="#000000" points="349.2406,-166.5001 359.2406,-163 349.2405,-159.5001 349.2406,-166.5001"/>
</g>
<!-- SharedModule -->
<g id="node6" class="node">
<title>SharedModule</title>
<polygon fill="#8dd3c7" stroke="#000000" points="122.4231,-122 119.4231,-126 98.4231,-126 95.4231,-122 23.5769,-122 23.5769,-86 122.4231,-86 122.4231,-122"/>
<text text-anchor="middle" x="73" y="-99.8" font-family="Times,serif" font-size="14.00" fill="#000000">SharedModule</text>
</g>
<!-- SharedModule&#45;&gt;PublicModule -->
<g id="edge6" class="edge">
<title>SharedModule&#45;&gt;PublicModule</title>
<path fill="none" stroke="#000000" d="M73,-122.2843C73,-143.3211 73,-175 73,-175 73,-175 349.1459,-175 349.1459,-175"/>
<polygon fill="#000000" stroke="#000000" points="349.146,-178.5001 359.1459,-175 349.1459,-171.5001 349.146,-178.5001"/>
</g>
</g>
</svg>
