<?xml version="1.0" encoding="utf-8"?>
<!-- Generator: Adobe Illustrator 22.1.0, SVG Export Plug-In . SVG Version: 6.00 Build 0)  -->
<svg version="1.1" id="Layer_1" xmlns="http://www.w3.org/2000/svg" xmlns:xlink="http://www.w3.org/1999/xlink" x="0px" y="0px"
	 viewBox="0 0 1430 389" style="enable-background:new 0 0 1430 389;" xml:space="preserve">
<style type="text/css">
	.st0{fill:#F4E8C6;stroke:#C7B299;stroke-width:4;stroke-miterlimit:10;}
	.st1{fill:none;stroke:#C7B299;stroke-width:4;stroke-miterlimit:10;}
	.st2{fill:none;stroke:#808080;stroke-width:4;stroke-miterlimit:10;}
	.st3{fill:none;stroke:#6D6E70;stroke-width:5;stroke-miterlimit:10;}
	.st4{fill:#E6E6E6;stroke:#CCCCCC;stroke-width:5;stroke-miterlimit:10;}
	.st5{fill:#C7B299;stroke:#C7B299;stroke-width:2;stroke-miterlimit:10;}
	.st6{fill:#C7B299;stroke:#C7B299;stroke-miterlimit:10;}
	.st7{fill:#C7B299;}
	.st8{fill:none;stroke:#000000;stroke-width:6;stroke-miterlimit:10;}
	.st9{fill:#99272D;stroke:#7C272D;stroke-width:10;stroke-miterlimit:10;}
	.st10{fill:#B3B3B3;stroke:#808080;stroke-width:10;stroke-miterlimit:10;}
	.st11{fill:#FFFFFF;}
	.st12{fill:none;stroke:#808080;stroke-width:5;stroke-miterlimit:10;}
	.st13{fill:none;stroke:#000000;stroke-width:5;stroke-miterlimit:10;}
	.st14{fill:#C1272D;}
	.st15{fill:#B3B3B3;stroke:#808080;stroke-width:5;stroke-miterlimit:10;}
	.st16{fill:#B3B3B3;stroke:#999999;stroke-width:10;stroke-miterlimit:10;}
	.st17{fill:#A6DAF6;}
	.st18{fill:none;}
	.st19{fill:none;stroke:#808080;stroke-width:10;stroke-miterlimit:10;}
	.st20{fill:#B3B3B3;stroke:#808080;stroke-width:4;stroke-miterlimit:10;}
	.st21{fill:#EE2842;stroke:#C1272D;stroke-width:10;stroke-miterlimit:10;}
</style>
<g id="Layer_3">
</g>
<g id="Layer_1_1_">
</g>
<g id="Layer_2_1_">
	<path class="st0" d="M307.5,284v-9.9c0-1.2,0.9-2.1,2.1-2.1H373c1.1,0,2,0.9,2,2v10H307.5z"/>
	<path class="st0" d="M272,284V151h-16c-1.1,0-2-0.9-2-2v-18c0-1.1,0.9-2,2-2h21c1.1,0,2,0.9,2,2v20.5h21.9c1.2,0,2.1,0.9,2.1,2.1
		V284H272z"/>
	<path class="st0" d="M192,133l35-1l103-22.5l-205.9-1c-1.1,0-2.1,0.9-2.1,2v2.8c0,1,0.6,1.8,1.6,2.1L192,133z"/>
	<line class="st1" x1="76.2" y1="120.8" x2="192" y2="133"/>
	<line class="st1" x1="222.5" y1="132.5" x2="254" y2="137"/>
	<circle class="st0" cx="319.5" cy="102.5" r="19.5"/>
	<line class="st1" x1="279" y1="129" x2="304.8" y2="115"/>
	<path class="st0" d="M304,125h32.6c1.1,0,1.9-0.9,1.9-1.9v-2.5c0-1.1-0.9-1.9-1.9-1.9H304c-1.1,0-2,0.9-2,2v2.3
		C302,124.1,302.9,125,304,125z"/>
	<line class="st2" x1="8.5" y1="159.5" x2="8.5" y2="181.5"/>
	<line class="st2" x1="21.4" y1="154" x2="21.4" y2="186.5"/>
	<path class="st0" d="M7.7,160.2l79.1-70c0.2-0.1,0.4-0.2,0.6-0.2h41.3c0.7,0,1.1,0.7,0.8,1.3l-8.2,19.2c-0.1,0.3-0.5,0.6-0.8,0.6
		h-12.2c-0.1,0-0.2,0-0.3,0.1L97.4,115c-0.2,0.1-0.4,0.1-0.5,0l-7.4-1.8c-0.2-0.1-0.5,0-0.7,0.1L8.9,161.8
		C7.8,162.3,6.8,160.9,7.7,160.2z"/>
	<line class="st3" x1="759.8" y1="112.1" x2="759.8" y2="140.5"/>
	<line class="st3" x1="769.5" y1="122.5" x2="769.5" y2="156.5"/>
	<ellipse class="st4" cx="1066" cy="51" rx="16" ry="17"/>
	<polygon class="st5" points="1231,197 1231,123 1234,123 1234,199 	"/>
	<rect x="1281" y="126" class="st6" width="4" height="86"/>
	<polygon class="st7" points="1352,126 1320,217 1325,217 1357,122 	"/>
	<polygon class="st7" points="1371,126 1330,215 1334,215 1377,124 	"/>
	<rect x="1312" y="149" class="st7" width="113" height="3"/>
	<rect x="1312" y="135" class="st7" width="113" height="3"/>
	<polyline class="st5" points="1319.2,128 1319,217 1321.3,217 1321.3,126 1319.2,128 	"/>
	<path class="st0" d="M1060.5,129l-0.5-21.7h-6.8c-0.1,0-0.2-0.1-0.2-0.2v-4.7c0-0.1,0-0.1,0.1-0.1h6.9V70.5c0-0.3-0.2-0.5-0.5-0.5
		h-1.5c-1.1,0-2-0.9-2-2v-1.9c0-0.1,0.1-0.2,0.2-0.2h15.6c0.1,0,0.2,0.1,0.2,0.2v3.6c0,0.1-0.1,0.2-0.2,0.2h-7.4
		c-0.2,0-0.3,0.2-0.3,0.3l0.9,11.4c0.1,0.7,0.6,1.3,1.4,1.3L1080,83c0.1,0,0.1,0,0.1,0.1v2c0,0.5-0.4,0.9-0.9,0.9l-13.2,0l2,16.3
		h13.8c0.1,0,0.2,0.1,0.2,0.2v4.6c0,0.1-0.1,0.2-0.2,0.2H1069l4.5,21.7"/>
	<path class="st0" d="M983,245v-9c0-1.1,0.9-2,2-2l0,0h7c1.1,0,2,0.9,2,2v9H983z"/>
	<path class="st0" d="M972,277v-31c0-1.1,0.9-2,2-2h48v-70.5c0-0.9-0.6-1.7-1.4-1.9l-18.1-6c-0.9-0.3-1.5-1.1-1.5-2V156l-3.9-25.3
		c-0.1-0.5,0-1,0.3-1.4l3-4.5c0.4-0.5,1-0.9,1.6-0.9h76.9c1.1,0,2-0.9,2-2v-24c0-1.1,0.9-2,2-2h21c1.1,0,2,0.9,2,2v27
		c0,1.1,0.9,2,2,2h67c0.6,0,1.2,0.3,1.6,0.8l4.8,6.4c0.4,0.5,0.5,1.1,0.3,1.8l-5.7,22v5.7c0,0.8-0.5,1.5-1.2,1.9l-13.6,6
		c-0.7,0.3-1.2,1-1.2,1.8V194c0,1.1,0.9,2,2,2h103c1.1,0,2,0.9,2,2v80L972,277z"/>
	<path class="st0" d="M1423,128h-245c-1.1,0-2-0.9-2-2v-4c0-1.1,0.9-2,2-2h245c1.1,0,2,0.9,2,2v4C1425,127.1,1424.1,128,1423,128z"
		/>
	<path class="st8" d="M943.8,270"/>
	<path class="st8" d="M874.2,270"/>
	<path class="st9" d="M582,381H316c-0.6,0-1.2-0.3-1.6-0.8L283,338L582,381z"/>
	<path class="st10" d="M609.3,284c-3.8-11.3-5.8-23.4-5.8-36c0-62.7,50.8-113.5,113.5-113.5S830.5,185.3,830.5,248
		c0,7.5-3.1,36-3.1,36"/>
	<rect x="1124.5" y="226.5" class="st11" width="12" height="12"/>
	<path class="st12" d="M874.2,270c-14.4-10.7-23.7-27.7-23.7-47c0-32.3,26.2-58.5,58.5-58.5s58.5,26.2,58.5,58.5
		c0,19.3-9.3,36.3-23.7,47"/>
	<line class="st3" x1="603.5" y1="249.5" x2="830.5" y2="249.5"/>
	<path class="st13" d="M609.2,212.3"/>
	<path class="st13" d="M624.8,181.8"/>
	<circle class="st3" cx="716" cy="248" r="8.5"/>
	<line class="st3" x1="624.8" y1="181.8" x2="707.5" y2="243.5"/>
	<line class="st3" x1="809.2" y1="181.8" x2="723.2" y2="243.5"/>
	<line class="st3" x1="717.5" y1="134.5" x2="717.5" y2="186.5"/>
	<line class="st3" x1="681.5" y1="140.2" x2="713.3" y2="239.5"/>
	<line class="st3" x1="751.5" y1="140.2" x2="719.5" y2="239.5"/>
	<path class="st14" d="M825,438"/>
	<circle class="st15" cx="909.5" cy="222.5" r="42"/>
	<line class="st3" x1="887.4" y1="168.6" x2="933.5" y2="283.5"/>
	<path class="st16" d="M373.7,148.7c0,0,85.8,132.8,91.8,135.3"/>
	<line class="st3" x1="930.6" y1="168.6" x2="887.5" y2="277.5"/>
	<line class="st3" x1="950.2" y1="264.5" x2="867.5" y2="181.8"/>
	<line class="st3" x1="950.2" y1="181.8" x2="867.5" y2="264.5"/>
	<line class="st3" x1="856.1" y1="248" x2="964" y2="203"/>
	<line class="st3" x1="961.9" y1="248" x2="854" y2="203"/>
	<path class="st11" d="M1891,467"/>
	<path class="st7" d="M1107,96"/>
	
		<image style="display:none;overflow:visible;enable-background:new    ;" width="1603" height="481" xlink:href="EF7220DB.jpeg"  transform="matrix(1 0 0 1 -71 -31)">
	</image>
	<polygon class="st17" points="1022,141 1026,158 1030,158 1030,141 	"/>
	<rect x="1032" y="141" class="st17" width="7" height="17"/>
	<rect x="1041" y="141" class="st17" width="7" height="17"/>
	<rect x="1050" y="141" class="st17" width="7" height="17"/>
	<rect x="1059" y="141" class="st17" width="7" height="17"/>
	<rect x="1068" y="141" class="st17" width="7" height="17"/>
	<polygon class="st17" points="1166,141 1162.1,158 1158.2,158 1158.2,141 	"/>
	<rect x="1149.3" y="141" class="st17" width="6.9" height="17"/>
	<rect x="1140.5" y="141" class="st17" width="6.9" height="17"/>
	<rect x="1131.7" y="141" class="st17" width="6.9" height="17"/>
	<rect x="1122.8" y="141" class="st17" width="6.9" height="17"/>
	<rect x="1114" y="141" class="st17" width="6.9" height="17"/>
	<polygon class="st17" points="1003,137 1007,153 1011,153 1007,137 	"/>
	<polygon class="st17" points="1008,137 1012,153 1016,153 1012,137 	"/>
	<polygon class="st17" points="1013,137 1017,153 1021,153 1017,137 	"/>
	<polyline class="st1" points="1022,172 1022,160 1016,133 1022,124 	"/>
	<polygon class="st17" points="1175,141 1171,157 1167,157 1171,141 	"/>
	<line class="st3" x1="751.5" y1="198.5" x2="782.3" y2="155.2"/>
	<line class="st3" x1="681.5" y1="198.5" x2="649.2" y2="157"/>
	<line class="st3" x1="774.5" y1="226.5" x2="824.7" y2="212"/>
	<line class="st3" x1="658.5" y1="226.5" x2="609.5" y2="212.5"/>
	<polygon class="st18" points="800,723.3 978,415 622,415 	"/>
	<polyline class="st1" points="1106,124 1106,166.3 1114,176.1 1114,195 1081,195 1081,122 	"/>
	<path class="st1" d="M1105.5,96"/>
	<polyline class="st1" points="1056,16 1061.5,16 1073,16 	"/>
	<line class="st1" x1="1062" y1="69" x2="1062" y2="16"/>
	<line class="st1" x1="1081" y1="171.5" x2="1021.5" y2="171.5"/>
	<path class="st1" d="M1081,171.5"/>
	<line class="st1" x1="1162.5" y1="171.5" x2="1110.6" y2="171.5"/>
	<line class="st1" x1="1113.5" y1="192.5" x2="1160" y2="192.5"/>
	<path class="st19" d="M515,109c0,0-46-72-125-18"/>
	<path class="st2" d="M459.7,112.1l-57.2,7.4L240,284l89.5-38.5l131.6-130.6C462.2,113.8,461.2,111.9,459.7,112.1z"/>
	<path class="st2" d="M436.5,108.5v6.4c0,0.2,0,0.3-0.1,0.5l-7.2,28.7c-0.4,1.5-2.2,1.9-3.2,0.8l-23.5-25.3"/>
	<path class="st2" d="M425.3,144.1l-52.9,7.6c-0.8,0.1-1.2,1.1-0.6,1.7l23.4,24.8c0.4,0.4,0.1,1.1-0.4,1.2l-55.4,6.7
		c-1.3,0.2-1.8,1.7-0.9,2.6l23.4,23.2c0.3,0.3,0.1,0.8-0.3,0.8l-57.9,6.7"/>
	<line class="st2" x1="326.4" y1="246.8" x2="303.5" y2="222.5"/>
	<path class="st2" d="M280.8,266.5l-9.9-11.9c-0.3-0.4-0.1-1,0.4-1.1l55.2-6.9"/>
	<path class="st19" d="M407,80c0,0,28.2-54.4,76-12.8c1.1,1,1.2,2.7,0.2,3.7l-6.2,6.3"/>
	<path class="st19" d="M458,92l-60.4,8.6c-1.7,0.2-3.3,1-4.5,2.3L315,182"/>
	<line class="st2" x1="439" y1="104" x2="462" y2="115"/>
	<line class="st2" x1="432" y1="104" x2="406.6" y2="119"/>
	<path class="st20" d="M217.7,208.6l4.6-18.6c0.1-0.3,0.3-0.6,0.5-0.9l58.6-53.7c0.6-0.6,1.5-0.6,2.2-0.1l5.9,4.4
		c0.6,0.4,0.8,1.1,0.6,1.8l-3.4,12.9c-0.2,0.6,0,1.2,0.4,1.7l9.1,9.1c0.7,0.7,1.8,0.7,2.4,0l0.6-0.6c0.7-0.7,1.8-0.7,2.4,0
		l15.7,15.7c0.6,0.6,0.7,1.6,0.1,2.3l-7.8,9.6c-0.1,0.1-0.2,0.3-0.3,0.5l-2.7,7.3c-0.1,0.3-0.3,0.5-0.5,0.7l-13.2,11.4
		c-0.3,0.2-0.5,0.5-0.6,0.9l-0.5,2.2c-0.2,0.8-0.9,1.3-1.7,1.3l0,0c-0.4,0-0.8,0.2-1.1,0.4l-8.5,7.5c0,0,0,0-0.1,0.1l-5.7,5.7
		c-0.2,0.2-0.4,0.3-0.7,0.4l-5.2,1.7c-0.3,0.1-0.5,0.2-0.7,0.4l-16.6,17.5c-0.6,0.7-1.7,0.7-2.4,0.1l-16.5-14.7
		c-0.7-0.6-0.8-1.7-0.1-2.4l7.4-8.2c0.3-0.3,0.4-0.7,0.4-1.2v-6c0-1.9-2.3-2.8-3.6-1.4l-5.1,5.6c-0.7,0.7-1.9,0.8-2.5,0L218,210.1
		C217.7,209.8,217.6,209.2,217.7,208.6z"/>
	<line class="st2" x1="300" y1="164" x2="240.5" y2="224.5"/>
	<line class="st2" x1="292.5" y1="161.5" x2="238" y2="216"/>
	<line class="st2" x1="232" y1="182" x2="251.1" y2="202.1"/>
	<line class="st2" x1="251.1" y1="164" x2="270.7" y2="184.7"/>
	<line class="st2" x1="272" y1="144.1" x2="292.5" y2="163.5"/>
	<line class="st2" x1="285.2" y1="179.8" x2="306.5" y2="200.5"/>
	<line class="st2" x1="270.7" y1="194.3" x2="292.5" y2="216.5"/>
	<line class="st2" x1="259.6" y1="205.4" x2="279.2" y2="225.8"/>
	<line class="st3" x1="850.5" y1="225.5" x2="967.5" y2="225.5"/>
	<polyline class="st2" points="288.4,159.6 330,119 355,144 	"/>
	<polyline class="st2" points="300,164 349,115 358,106 	"/>
	<line class="st2" x1="363" y1="129" x2="349" y2="115"/>
	<line class="st2" x1="355" y1="109" x2="371.2" y2="125.1"/>
	<line class="st2" x1="317.2" y1="131.5" x2="341.2" y2="155.5"/>
	<line class="st2" x1="326.4" y1="122.5" x2="349" y2="145"/>
	<line class="st2" x1="302.9" y1="145.4" x2="326.4" y2="170.4"/>
	<line class="st2" x1="315.3" y1="148.7" x2="331.1" y2="165.7"/>
	<line class="st2" x1="209" y1="281" x2="244.9" y2="246.5"/>
	<polyline class="st2" points="203,274 212.8,264.8 219,259 203,242 197.2,247.8 192,253 209,271 	"/>
	<polyline class="st2" points="209,238 227,258 213,272 	"/>
	<line class="st2" x1="241" y1="224" x2="208" y2="258"/>
	<line class="st2" x1="197" y1="247" x2="213" y2="264"/>
	<polyline class="st2" points="240,274 381.7,130.4 390,122 381,112 	"/>
	<line class="st2" x1="373.8" y1="122.5" x2="382" y2="132"/>
	<line class="st2" x1="358" y1="141" x2="364.5" y2="148.7"/>
	<line class="st2" x1="346.5" y1="150.1" x2="354.5" y2="157.9"/>
	<line class="st2" x1="339.5" y1="157.2" x2="349" y2="166"/>
	<line class="st2" x1="329.2" y1="168.5" x2="336.7" y2="176"/>
	<line class="st2" x1="317.2" y1="183.1" x2="323.2" y2="189.7"/>
	<line class="st2" x1="311.4" y1="190.2" x2="317.2" y2="196.5"/>
	<line class="st2" x1="394" y1="112" x2="394" y2="127"/>
	<line class="st2" x1="399" y1="115" x2="406.6" y2="123.9"/>
	<polyline class="st2" points="444.2,94 443.2,106 436,115 428.6,106 426.8,96.5 442,73 	"/>
	<path class="st2" d="M361,115"/>
	<path class="st2" d="M390,87"/>
	<path class="st20" d="M361,117l29-30l16.5-7.5l-3.8-5.1c-1.4-1.8-3.5-3-5.8-3.2l-5.3-0.4c-1.9-0.2-3.9,0.5-5.3,1.8l-7.8,7.2
		c-1.9,1.7-3,4.2-3,6.7v0.4c0,1.7,0.6,3.4,1.6,4.7l3.7,4.9"/>
	<polyline class="st2" points="350.5,111.5 344.5,104.5 334.5,113.5 341.5,121.5 	"/>
	<path class="st2" d="M341.5,106.5l-18.5,2.8c-0.9,0.1-1.6,0.9-1.7,1.8l-2.8,19.2"/>
	<path class="st2" d="M317,132l-19.8,3.2c-1,0.2-1.8,1-1.8,2l-1,16.5"/>
	<line class="st3" x1="539.7" y1="132.9" x2="691.9" y2="12.1"/>
	<polygon class="st0" points="533.7,284 533.7,253.5 562.3,253.5 617.5,253.5 617.5,284 	"/>
	<polygon class="st0" points="563.5,200.5 585.7,200.5 593.5,200.5 593.5,253.5 563.5,253.5 	"/>
	<rect x="586.5" y="177.5" class="st0" width="26" height="23"/>
	<path class="st0" d="M572.5,170.5l89-74l31-67l-2.4-2.4c-0.8-0.8-2.2-0.8-3,0.1L572.5,164.5V170.5z"/>
	<line class="st1" x1="662.2" y1="95.1" x2="708.7" y2="41.5"/>
	<polyline class="st1" points="645.9,109.5 622.5,152.5 574,170.4 	"/>
	<circle class="st0" cx="543.5" cy="151.5" r="19"/>
	<polygon class="st0" points="520.5,170.5 531.5,174.5 562.5,174.5 562.5,168.5 520.5,168.5 	"/>
	<polyline class="st1" points="562.3,154 570.8,154 581.3,154 	"/>
	<polygon class="st0" points="570.3,200.5 563,200.5 563,154 570,154 	"/>
	<line class="st1" x1="575.6" y1="167.9" x2="586.5" y2="179.3"/>
	<line class="st1" x1="534.5" y1="174.5" x2="563" y2="200"/>
	<path class="st0" d="M688.5,13.5l6-6l36,22l39.7,93c0.6,1.3-1.3,2.4-2.1,1.2l-60.6-83.9L700,32l-12-5L688.5,13.5z"/>
	<line class="st3" x1="908.9" y1="271.5" x2="908.9" y2="164.5"/>
	<path class="st21" d="M798,284H178c-1.1,0-2,0.9-2,2v48c0,1.1,0.9,2,2,2l81-1l314,46h733.5c2.5,0,4.9-0.2,7.4-0.7
		c14-2.7,60.2-13.2,55.1-35.3c-2-9-13-24-38-21c-11,2-27.4,21-33,14c13-32,105-128,92-129c-12.4-1-283.1-0.1-309,0c-1.1,0-2,0.9-2,2
		v31c0,1.1-0.9,2-2,2h-66c-0.6,0-1.2,0.3-1.6,0.8l-17.8,24.4c-0.4,0.5-1,0.8-1.6,0.8H802c-1.1,0-2,0.9-2,2v10
		C800,283.1,799.1,284,798,284z"/>
	<rect x="1147.5" y="250.5" class="st11" width="12" height="12"/>
	<rect x="1170" y="250" class="st11" width="12" height="12"/>
	<rect x="1215.5" y="250.5" class="st11" width="12" height="12"/>
	<rect x="1238" y="250" class="st11" width="12" height="12"/>
	<rect x="1124.5" y="271.5" class="st11" width="12" height="12"/>
	<rect x="1147.5" y="271.5" class="st11" width="12" height="12"/>
	<rect x="1170" y="271" class="st11" width="12" height="12"/>
	<rect x="1192.5" y="271.5" class="st11" width="12" height="12"/>
	<rect x="1215.5" y="271.5" class="st11" width="12" height="12"/>
	<rect x="1238" y="271" class="st11" width="12" height="12"/>
	<rect x="1035" y="261" class="st11" width="12" height="12"/>
	<rect x="1147.5" y="226.5" class="st11" width="12" height="12"/>
	<rect x="1170" y="226" class="st11" width="12" height="12"/>
	<rect x="1192.5" y="226.5" class="st11" width="12" height="12"/>
	<rect x="1215.5" y="226.5" class="st11" width="12" height="12"/>
	<rect x="1238" y="226" class="st11" width="12" height="12"/>
	<rect x="1058" y="261" class="st11" width="12" height="12"/>
	<line class="st1" x1="1314" y1="136.5" x2="1314" y2="150.5"/>
	<line class="st1" x1="1423" y1="137" x2="1423" y2="151"/>
	<line class="st1" x1="1325" y1="136.5" x2="1325" y2="150.5"/>
	<path class="st0" d="M1325,151"/>
	<path class="st0" d="M1325,137"/>
	<line class="st1" x1="1336" y1="137" x2="1336" y2="151"/>
	<line class="st1" x1="1391" y1="136.5" x2="1391" y2="150.5"/>
	<line class="st1" x1="1402" y1="136.5" x2="1402" y2="150.5"/>
	<line class="st1" x1="1413" y1="137" x2="1413" y2="151"/>
	<line class="st1" x1="1358" y1="136.5" x2="1358" y2="150.5"/>
	<line class="st1" x1="1369" y1="136.5" x2="1369" y2="150.5"/>
	<line class="st1" x1="1380" y1="137" x2="1380" y2="151"/>
	<line class="st1" x1="1347" y1="136" x2="1347" y2="150"/>
	<path class="st1" d="M1339,128l24.5,21.5c0.5,0.6,1.5,0.6,2,0l19-19.8c1.9-2,5.1-2,7,0L1411,150"/>
	<line class="st1" x1="1021" y1="192.5" x2="1080" y2="192.5"/>
	<path class="st0" d="M984,224v10h8v-9l-2.2-4.9c-0.7-1.6-3-1.7-3.8-0.1l-0.7,1.3L984,224z"/>
	<path class="st0" d="M975.2,218.5l14.1,4c0.3,0.1,0.2,0.5-0.1,0.5H938l-56-2.9c-0.6,0-1-0.5-1-1.1l0,0c0-1.1,0.9-2,2-2h81.6
		C968.2,217,971.7,217.5,975.2,218.5z"/>
</g>
</svg>
