<?xml version="1.0" encoding="utf-8"?>
<!-- Generator: Adobe Illustrator 22.1.0, SVG Export Plug-In . SVG Version: 6.00 Build 0)  -->
<svg version="1.1" id="Layer_1" xmlns="http://www.w3.org/2000/svg" xmlns:xlink="http://www.w3.org/1999/xlink" x="0px" y="0px"
	 viewBox="0 0 1436 620" style="enable-background:new 0 0 1436 620;" xml:space="preserve">
<style type="text/css">
	.st0{display:none;}
	.st1{fill:#F4E8C6;stroke:#C7B299;stroke-width:4;stroke-miterlimit:10;}
	.st2{fill:none;stroke:#C7B299;stroke-width:4;stroke-miterlimit:10;}
	.st3{fill:none;stroke:#808080;stroke-width:4;stroke-miterlimit:10;}
	.st4{fill:none;stroke:#6D6E70;stroke-width:5;stroke-miterlimit:10;}
	.st5{fill:#E6E6E6;stroke:#CCCCCC;stroke-width:5;stroke-miterlimit:10;}
	.st6{fill:#604382;}
	.st7{fill:#C7B299;stroke:#C7B299;stroke-width:2;stroke-miterlimit:10;}
	.st8{fill:#C7B299;stroke:#C7B299;stroke-miterlimit:10;}
	.st9{fill:#C7B299;}
	.st10{fill:none;stroke:#000000;stroke-width:6;stroke-miterlimit:10;}
	.st11{fill:#99272D;stroke:#7C272D;stroke-width:10;stroke-miterlimit:10;}
	.st12{fill:#B3B3B3;stroke:#808080;stroke-width:10;stroke-miterlimit:10;}
	.st13{fill:#FFFFFF;}
	.st14{fill:none;stroke:#808080;stroke-width:5;stroke-miterlimit:10;}
	.st15{fill:none;stroke:#000000;stroke-width:5;stroke-miterlimit:10;}
	.st16{fill:#C1272D;}
	.st17{fill:#B3B3B3;stroke:#808080;stroke-width:5;stroke-miterlimit:10;}
	.st18{fill:#B3B3B3;stroke:#999999;stroke-width:10;stroke-miterlimit:10;}
	.st19{display:none;fill:#7C6699;}
	.st20{fill:#A6DAF6;}
	.st21{fill:none;}
	.st22{display:none;fill:none;stroke:#C6BDD4;stroke-width:10;stroke-miterlimit:10;}
	.st23{fill:none;stroke:#808080;stroke-width:10;stroke-miterlimit:10;}
	.st24{fill:#B3B3B3;stroke:#808080;stroke-width:4;stroke-miterlimit:10;}
	.st25{fill:#EE2842;stroke:#C1272D;stroke-width:10;stroke-miterlimit:10;}
</style>
<g id="Layer_3" class="st0">
	
		<image style="display:inline;overflow:visible;enable-background:new    ;" width="1296" height="729" xlink:href="95AB0D97.jpeg"  transform="matrix(4.8009 0 0 4.8009 -4328 -784)">
	</image>
</g>
<g id="Layer_1_1_">
</g>
<g id="Layer_2_1_">
	<path class="st1" d="M310.5,288v-9.9c0-1.2,0.9-2.1,2.1-2.1H376c1.1,0,2,0.9,2,2v10H310.5z"/>
	<path class="st1" d="M275,288V155h-16c-1.1,0-2-0.9-2-2v-18c0-1.1,0.9-2,2-2h21c1.1,0,2,0.9,2,2v20.5h21.9c1.2,0,2.1,0.9,2.1,2.1
		V288H275z"/>
	<path class="st1" d="M195,137l35-1l103-22.5l-205.9-1c-1.1,0-2.1,0.9-2.1,2v2.8c0,1,0.6,1.8,1.6,2.1L195,137z"/>
	<line class="st2" x1="79.2" y1="124.8" x2="195" y2="137"/>
	<line class="st2" x1="225.5" y1="136.5" x2="257" y2="141"/>
	<circle class="st1" cx="322.5" cy="106.5" r="19.5"/>
	<line class="st2" x1="282" y1="133" x2="307.8" y2="119"/>
	<path class="st1" d="M307,129h32.6c1.1,0,1.9-0.9,1.9-1.9v-2.5c0-1.1-0.9-1.9-1.9-1.9H307c-1.1,0-2,0.9-2,2v2.3
		C305,128.1,305.9,129,307,129z"/>
	<line class="st3" x1="11.5" y1="163.5" x2="11.5" y2="185.5"/>
	<line class="st3" x1="24.4" y1="158" x2="24.4" y2="190.5"/>
	<path class="st1" d="M10.7,164.2l79.1-70c0.2-0.1,0.4-0.2,0.6-0.2h41.3c0.7,0,1.1,0.7,0.8,1.3l-8.2,19.2c-0.1,0.3-0.5,0.6-0.8,0.6
		h-12.2c-0.1,0-0.2,0-0.3,0.1l-10.6,3.8c-0.2,0.1-0.4,0.1-0.5,0l-7.4-1.8c-0.2-0.1-0.5,0-0.7,0.1l-79.9,48.5
		C10.8,166.3,9.8,164.9,10.7,164.2z"/>
	<line class="st4" x1="762.8" y1="116.1" x2="762.8" y2="144.5"/>
	<line class="st4" x1="772.5" y1="126.5" x2="772.5" y2="160.5"/>
	<ellipse class="st5" cx="1069" cy="55" rx="16" ry="17"/>
	<path class="st6" d="M810.1,610l153.1-150.5c6.5-6.4,2-17.5-7.1-17.5H649.9c-9.1,0-13.7,11.1-7.1,17.5L795.9,610
		C799.8,613.9,806.2,613.9,810.1,610z"/>
	<polygon class="st7" points="1234,201 1234,127 1237,127 1237,203 	"/>
	<rect x="1284" y="130" class="st8" width="4" height="86"/>
	<polygon class="st9" points="1355,130 1323,221 1328,221 1360,126 	"/>
	<polygon class="st9" points="1374,130 1333,219 1337,219 1380,128 	"/>
	<rect x="1315" y="153" class="st9" width="113" height="3"/>
	<rect x="1315" y="139" class="st9" width="113" height="3"/>
	<polyline class="st7" points="1322.2,132 1322,221 1324.3,221 1324.3,130 1322.2,132 	"/>
	<path class="st1" d="M1063.5,133l-0.5-21.7h-6.8c-0.1,0-0.2-0.1-0.2-0.2v-4.7c0-0.1,0-0.1,0.1-0.1h6.9V74.5c0-0.3-0.2-0.5-0.5-0.5
		h-1.5c-1.1,0-2-0.9-2-2v-1.9c0-0.1,0.1-0.2,0.2-0.2h15.6c0.1,0,0.2,0.1,0.2,0.2v3.6c0,0.1-0.1,0.2-0.2,0.2h-7.4
		c-0.2,0-0.3,0.2-0.3,0.3l0.9,11.4c0.1,0.7,0.6,1.3,1.4,1.3L1083,87c0.1,0,0.1,0,0.1,0.1v2c0,0.5-0.4,0.9-0.9,0.9l-13.2,0l2,16.3
		h13.8c0.1,0,0.2,0.1,0.2,0.2v4.6c0,0.1-0.1,0.2-0.2,0.2H1072l4.5,21.7"/>
	<path class="st1" d="M986,249v-9c0-1.1,0.9-2,2-2l0,0h7c1.1,0,2,0.9,2,2v9H986z"/>
	<path class="st1" d="M975,281v-31c0-1.1,0.9-2,2-2h48v-70.5c0-0.9-0.6-1.7-1.4-1.9l-18.1-6c-0.9-0.3-1.5-1.1-1.5-2V160l-3.9-25.3
		c-0.1-0.5,0-1,0.3-1.4l3-4.5c0.4-0.5,1-0.9,1.6-0.9h76.9c1.1,0,2-0.9,2-2v-24c0-1.1,0.9-2,2-2h21c1.1,0,2,0.9,2,2v27
		c0,1.1,0.9,2,2,2h67c0.6,0,1.2,0.3,1.6,0.8l4.8,6.4c0.4,0.5,0.5,1.1,0.3,1.8l-5.7,22v5.7c0,0.8-0.5,1.5-1.2,1.9l-13.6,6
		c-0.7,0.3-1.2,1-1.2,1.8V198c0,1.1,0.9,2,2,2h103c1.1,0,2,0.9,2,2v80L975,281z"/>
	<path class="st1" d="M1426,132h-245c-1.1,0-2-0.9-2-2v-4c0-1.1,0.9-2,2-2h245c1.1,0,2,0.9,2,2v4C1428,131.1,1427.1,132,1426,132z"
		/>
	<path class="st10" d="M946.8,274"/>
	<path class="st10" d="M877.2,274"/>
	<path class="st11" d="M585,385H319c-0.6,0-1.2-0.3-1.6-0.8L286,342L585,385z"/>
	<path class="st12" d="M612.3,288c-3.8-11.3-5.8-23.4-5.8-36c0-62.7,50.8-113.5,113.5-113.5S833.5,189.3,833.5,252
		c0,7.5-3.1,36-3.1,36"/>
	<rect x="1127.5" y="230.5" class="st13" width="12" height="12"/>
	<path class="st14" d="M877.2,274c-14.4-10.7-23.7-27.7-23.7-47c0-32.3,26.2-58.5,58.5-58.5s58.5,26.2,58.5,58.5
		c0,19.3-9.3,36.3-23.7,47"/>
	<line class="st4" x1="606.5" y1="253.5" x2="833.5" y2="253.5"/>
	<path class="st15" d="M612.2,216.3"/>
	<path class="st15" d="M627.8,185.8"/>
	<circle class="st4" cx="719" cy="252" r="8.5"/>
	<line class="st4" x1="627.8" y1="185.8" x2="710.5" y2="247.5"/>
	<line class="st4" x1="812.2" y1="185.8" x2="726.2" y2="247.5"/>
	<line class="st4" x1="720.5" y1="138.5" x2="720.5" y2="190.5"/>
	<line class="st4" x1="684.5" y1="144.2" x2="716.3" y2="243.5"/>
	<line class="st4" x1="754.5" y1="144.2" x2="722.5" y2="243.5"/>
	<path class="st16" d="M828,442"/>
	<circle class="st17" cx="912.5" cy="226.5" r="42"/>
	<line class="st4" x1="890.4" y1="172.6" x2="936.5" y2="287.5"/>
	<path class="st18" d="M376.7,152.7c0,0,85.8,132.8,91.8,135.3"/>
	<line class="st4" x1="933.6" y1="172.6" x2="890.5" y2="281.5"/>
	<line class="st4" x1="953.2" y1="268.5" x2="870.5" y2="185.8"/>
	<line class="st4" x1="953.2" y1="185.8" x2="870.5" y2="268.5"/>
	<line class="st4" x1="859.1" y1="252" x2="967" y2="207"/>
	<line class="st4" x1="964.9" y1="252" x2="857" y2="207"/>
	<path class="st13" d="M1894,471"/>
	<path class="st19" d="M803,727.3L981,419H625C981,419,942,486,803,727.3z"/>
	<path class="st9" d="M1110,100"/>
	
		<image style="display:none;overflow:visible;enable-background:new    ;" width="1603" height="481" xlink:href="95AB0D95.jpeg"  transform="matrix(1 0 0 1 -68 -27)">
	</image>
	<polygon class="st20" points="1025,145 1029,162 1033,162 1033,145 	"/>
	<rect x="1035" y="145" class="st20" width="7" height="17"/>
	<rect x="1044" y="145" class="st20" width="7" height="17"/>
	<rect x="1053" y="145" class="st20" width="7" height="17"/>
	<rect x="1062" y="145" class="st20" width="7" height="17"/>
	<rect x="1071" y="145" class="st20" width="7" height="17"/>
	<polygon class="st20" points="1169,145 1165.1,162 1161.2,162 1161.2,145 	"/>
	<rect x="1152.3" y="145" class="st20" width="6.9" height="17"/>
	<rect x="1143.5" y="145" class="st20" width="6.9" height="17"/>
	<rect x="1134.7" y="145" class="st20" width="6.9" height="17"/>
	<rect x="1125.8" y="145" class="st20" width="6.9" height="17"/>
	<rect x="1117" y="145" class="st20" width="6.9" height="17"/>
	<polygon class="st20" points="1006,141 1010,157 1014,157 1010,141 	"/>
	<polygon class="st20" points="1011,141 1015,157 1019,157 1015,141 	"/>
	<polygon class="st20" points="1016,141 1020,157 1024,157 1020,141 	"/>
	<polyline class="st2" points="1025,176 1025,164 1019,137 1025,128 	"/>
	<polygon class="st20" points="1178,145 1174,161 1170,161 1174,145 	"/>
	<line class="st4" x1="754.5" y1="202.5" x2="785.3" y2="159.2"/>
	<line class="st4" x1="684.5" y1="202.5" x2="652.2" y2="161"/>
	<line class="st4" x1="777.5" y1="230.5" x2="827.7" y2="216"/>
	<line class="st4" x1="661.5" y1="230.5" x2="612.5" y2="216.5"/>
	<polygon class="st21" points="803,727.3 981,419 625,419 	"/>
	<path class="st22" d="M804.6,724.5l174.5-302.3c0.8-1.4-0.2-3.1-1.8-3.1H628.5c-1.6,0-2.6,1.7-1.8,3.1l174.6,302.4
		C802.1,725.7,803.9,725.7,804.6,724.5z"/>
	<polyline class="st2" points="1109,128 1109,170.3 1117,180.1 1117,199 1084,199 1084,126 	"/>
	<path class="st2" d="M1108.5,100"/>
	<polyline class="st2" points="1059,20 1064.5,20 1076,20 	"/>
	<line class="st2" x1="1065" y1="73" x2="1065" y2="20"/>
	<line class="st2" x1="1084" y1="175.5" x2="1024.5" y2="175.5"/>
	<path class="st2" d="M1084,175.5"/>
	<line class="st2" x1="1165.5" y1="175.5" x2="1113.6" y2="175.5"/>
	<line class="st2" x1="1116.5" y1="196.5" x2="1163" y2="196.5"/>
	<path class="st23" d="M518,113c0,0-46-72-125-18"/>
	<path class="st3" d="M462.7,116.1l-57.2,7.4L243,288l89.5-38.5l131.6-130.6C465.2,117.8,464.2,115.9,462.7,116.1z"/>
	<path class="st3" d="M439.5,112.5v6.4c0,0.2,0,0.3-0.1,0.5l-7.2,28.7c-0.4,1.5-2.2,1.9-3.2,0.8l-23.5-25.3"/>
	<path class="st3" d="M428.3,148.1l-52.9,7.6c-0.8,0.1-1.2,1.1-0.6,1.7l23.4,24.8c0.4,0.4,0.1,1.1-0.4,1.2l-55.4,6.7
		c-1.3,0.2-1.8,1.7-0.9,2.6l23.4,23.2c0.3,0.3,0.1,0.8-0.3,0.8l-57.9,6.7"/>
	<line class="st3" x1="329.4" y1="250.8" x2="306.5" y2="226.5"/>
	<path class="st3" d="M283.8,270.5l-9.9-11.9c-0.3-0.4-0.1-1,0.4-1.1l55.2-6.9"/>
	<path class="st23" d="M410,84c0,0,28.2-54.4,76-12.8c1.1,1,1.2,2.7,0.2,3.7l-6.2,6.3"/>
	<path class="st23" d="M461,96l-60.4,8.6c-1.7,0.2-3.3,1-4.5,2.3L318,186"/>
	<line class="st3" x1="442" y1="108" x2="465" y2="119"/>
	<line class="st3" x1="435" y1="108" x2="409.6" y2="123"/>
	<path class="st24" d="M220.7,212.6l4.6-18.6c0.1-0.3,0.3-0.6,0.5-0.9l58.6-53.7c0.6-0.6,1.5-0.6,2.2-0.1l5.9,4.4
		c0.6,0.4,0.8,1.1,0.6,1.8l-3.4,12.9c-0.2,0.6,0,1.2,0.4,1.7l9.1,9.1c0.7,0.7,1.8,0.7,2.4,0l0.6-0.6c0.7-0.7,1.8-0.7,2.4,0
		l15.7,15.7c0.6,0.6,0.7,1.6,0.1,2.3l-7.8,9.6c-0.1,0.1-0.2,0.3-0.3,0.5l-2.7,7.3c-0.1,0.3-0.3,0.5-0.5,0.7l-13.2,11.4
		c-0.3,0.2-0.5,0.5-0.6,0.9l-0.5,2.2c-0.2,0.8-0.9,1.3-1.7,1.3l0,0c-0.4,0-0.8,0.2-1.1,0.4l-8.5,7.5c0,0,0,0-0.1,0.1l-5.7,5.7
		c-0.2,0.2-0.4,0.3-0.7,0.4l-5.2,1.7c-0.3,0.1-0.5,0.2-0.7,0.4l-16.6,17.5c-0.6,0.7-1.7,0.7-2.4,0.1l-16.5-14.7
		c-0.7-0.6-0.8-1.7-0.1-2.4l7.4-8.2c0.3-0.3,0.4-0.7,0.4-1.2v-6c0-1.9-2.3-2.8-3.6-1.4l-5.1,5.6c-0.7,0.7-1.9,0.8-2.5,0L221,214.1
		C220.7,213.8,220.6,213.2,220.7,212.6z"/>
	<line class="st3" x1="303" y1="168" x2="243.5" y2="228.5"/>
	<line class="st3" x1="295.5" y1="165.5" x2="241" y2="220"/>
	<line class="st3" x1="235" y1="186" x2="254.1" y2="206.1"/>
	<line class="st3" x1="254.1" y1="168" x2="273.7" y2="188.7"/>
	<line class="st3" x1="275" y1="148.1" x2="295.5" y2="167.5"/>
	<line class="st3" x1="288.2" y1="183.8" x2="309.5" y2="204.5"/>
	<line class="st3" x1="273.7" y1="198.3" x2="295.5" y2="220.5"/>
	<line class="st3" x1="262.6" y1="209.4" x2="282.2" y2="229.8"/>
	<line class="st4" x1="853.5" y1="229.5" x2="970.5" y2="229.5"/>
	<polyline class="st3" points="291.4,163.6 333,123 358,148 	"/>
	<polyline class="st3" points="303,168 352,119 361,110 	"/>
	<line class="st3" x1="366" y1="133" x2="352" y2="119"/>
	<line class="st3" x1="358" y1="113" x2="374.2" y2="129.1"/>
	<line class="st3" x1="320.2" y1="135.5" x2="344.2" y2="159.5"/>
	<line class="st3" x1="329.4" y1="126.5" x2="352" y2="149"/>
	<line class="st3" x1="305.9" y1="149.4" x2="329.4" y2="174.4"/>
	<line class="st3" x1="318.3" y1="152.7" x2="334.1" y2="169.7"/>
	<line class="st3" x1="212" y1="285" x2="247.9" y2="250.5"/>
	<polyline class="st3" points="206,278 215.8,268.8 222,263 206,246 200.2,251.8 195,257 212,275 	"/>
	<polyline class="st3" points="212,242 230,262 216,276 	"/>
	<line class="st3" x1="244" y1="228" x2="211" y2="262"/>
	<line class="st3" x1="200" y1="251" x2="216" y2="268"/>
	<polyline class="st3" points="243,278 384.7,134.4 393,126 384,116 	"/>
	<line class="st3" x1="376.8" y1="126.5" x2="385" y2="136"/>
	<line class="st3" x1="361" y1="145" x2="367.5" y2="152.7"/>
	<line class="st3" x1="349.5" y1="154.1" x2="357.5" y2="161.9"/>
	<line class="st3" x1="342.5" y1="161.2" x2="352" y2="170"/>
	<line class="st3" x1="332.2" y1="172.5" x2="339.7" y2="180"/>
	<line class="st3" x1="320.2" y1="187.1" x2="326.2" y2="193.7"/>
	<line class="st3" x1="314.4" y1="194.2" x2="320.2" y2="200.5"/>
	<line class="st3" x1="397" y1="116" x2="397" y2="131"/>
	<line class="st3" x1="402" y1="119" x2="409.6" y2="127.9"/>
	<polyline class="st3" points="447.2,98 446.2,110 439,119 431.6,110 429.8,100.5 445,77 	"/>
	<path class="st3" d="M364,119"/>
	<path class="st3" d="M393,91"/>
	<path class="st24" d="M364,121l29-30l16.5-7.5l-3.8-5.1c-1.4-1.8-3.5-3-5.8-3.2l-5.3-0.4c-1.9-0.2-3.9,0.5-5.3,1.8l-7.8,7.2
		c-1.9,1.7-3,4.2-3,6.7v0.4c0,1.7,0.6,3.4,1.6,4.7l3.7,4.9"/>
	<polyline class="st3" points="353.5,115.5 347.5,108.5 337.5,117.5 344.5,125.5 	"/>
	<path class="st3" d="M344.5,110.5l-18.5,2.8c-0.9,0.1-1.6,0.9-1.7,1.8l-2.8,19.2"/>
	<path class="st3" d="M320,136l-19.8,3.2c-1,0.2-1.8,1-1.8,2l-1,16.5"/>
	<line class="st4" x1="542.7" y1="136.9" x2="694.9" y2="16.1"/>
	<polygon class="st1" points="536.7,288 536.7,257.5 565.3,257.5 620.5,257.5 620.5,288 	"/>
	<polygon class="st1" points="566.5,204.5 588.7,204.5 596.5,204.5 596.5,257.5 566.5,257.5 	"/>
	<rect x="589.5" y="181.5" class="st1" width="26" height="23"/>
	<path class="st1" d="M575.5,174.5l89-74l31-67l-2.4-2.4c-0.8-0.8-2.2-0.8-3,0.1L575.5,168.5V174.5z"/>
	<line class="st2" x1="665.2" y1="99.1" x2="711.7" y2="45.5"/>
	<polyline class="st2" points="648.9,113.5 625.5,156.5 577,174.4 	"/>
	<circle class="st1" cx="546.5" cy="155.5" r="19"/>
	<polygon class="st1" points="523.5,174.5 534.5,178.5 565.5,178.5 565.5,172.5 523.5,172.5 	"/>
	<polyline class="st2" points="565.3,158 573.8,158 584.3,158 	"/>
	<polygon class="st1" points="573.3,204.5 566,204.5 566,158 573,158 	"/>
	<line class="st2" x1="578.6" y1="171.9" x2="589.5" y2="183.3"/>
	<line class="st2" x1="537.5" y1="178.5" x2="566" y2="204"/>
	<path class="st1" d="M691.5,17.5l6-6l36,22l39.7,93c0.6,1.3-1.3,2.4-2.1,1.2l-60.6-83.9L703,36l-12-5L691.5,17.5z"/>
	<line class="st4" x1="911.9" y1="275.5" x2="911.9" y2="168.5"/>
	<path class="st25" d="M801,288H181c-1.1,0-2,0.9-2,2v48c0,1.1,0.9,2,2,2l81-1l314,46h733.5c2.5,0,4.9-0.2,7.4-0.7
		c14-2.7,60.2-13.2,55.1-35.3c-2-9-13-24-38-21c-11,2-27.4,21-33,14c13-32,105-128,92-129c-12.4-1-283.1-0.1-309,0c-1.1,0-2,0.9-2,2
		v31c0,1.1-0.9,2-2,2h-66c-0.6,0-1.2,0.3-1.6,0.8l-17.8,24.4c-0.4,0.5-1,0.8-1.6,0.8H805c-1.1,0-2,0.9-2,2v10
		C803,287.1,802.1,288,801,288z"/>
	<rect x="1150.5" y="254.5" class="st13" width="12" height="12"/>
	<rect x="1173" y="254" class="st13" width="12" height="12"/>
	<rect x="1218.5" y="254.5" class="st13" width="12" height="12"/>
	<rect x="1241" y="254" class="st13" width="12" height="12"/>
	<rect x="1127.5" y="275.5" class="st13" width="12" height="12"/>
	<rect x="1150.5" y="275.5" class="st13" width="12" height="12"/>
	<rect x="1173" y="275" class="st13" width="12" height="12"/>
	<rect x="1195.5" y="275.5" class="st13" width="12" height="12"/>
	<rect x="1218.5" y="275.5" class="st13" width="12" height="12"/>
	<rect x="1241" y="275" class="st13" width="12" height="12"/>
	<rect x="1038" y="265" class="st13" width="12" height="12"/>
	<rect x="1150.5" y="230.5" class="st13" width="12" height="12"/>
	<rect x="1173" y="230" class="st13" width="12" height="12"/>
	<rect x="1195.5" y="230.5" class="st13" width="12" height="12"/>
	<rect x="1218.5" y="230.5" class="st13" width="12" height="12"/>
	<rect x="1241" y="230" class="st13" width="12" height="12"/>
	<rect x="1061" y="265" class="st13" width="12" height="12"/>
	<line class="st2" x1="1317" y1="140.5" x2="1317" y2="154.5"/>
	<line class="st2" x1="1426" y1="141" x2="1426" y2="155"/>
	<line class="st2" x1="1328" y1="140.5" x2="1328" y2="154.5"/>
	<path class="st1" d="M1328,155"/>
	<path class="st1" d="M1328,141"/>
	<line class="st2" x1="1339" y1="141" x2="1339" y2="155"/>
	<line class="st2" x1="1394" y1="140.5" x2="1394" y2="154.5"/>
	<line class="st2" x1="1405" y1="140.5" x2="1405" y2="154.5"/>
	<line class="st2" x1="1416" y1="141" x2="1416" y2="155"/>
	<line class="st2" x1="1361" y1="140.5" x2="1361" y2="154.5"/>
	<line class="st2" x1="1372" y1="140.5" x2="1372" y2="154.5"/>
	<line class="st2" x1="1383" y1="141" x2="1383" y2="155"/>
	<line class="st2" x1="1350" y1="140" x2="1350" y2="154"/>
	<path class="st2" d="M1342,132l24.5,21.5c0.5,0.6,1.5,0.6,2,0l19-19.8c1.9-2,5.1-2,7,0L1414,154"/>
	<line class="st2" x1="1024" y1="196.5" x2="1083" y2="196.5"/>
	<path class="st1" d="M987,228v10h8v-9l-2.2-4.9c-0.7-1.6-3-1.7-3.8-0.1l-0.7,1.3L987,228z"/>
	<path class="st1" d="M978.2,222.5l14.1,4c0.3,0.1,0.2,0.5-0.1,0.5H941l-56-2.9c-0.6,0-1-0.5-1-1.1l0,0c0-1.1,0.9-2,2-2h81.6
		C971.2,221,974.7,221.5,978.2,222.5z"/>
</g>
</svg>
