<?xml version="1.0" encoding="UTF-8" standalone="no"?>
<svg
   xmlns:dc="http://purl.org/dc/elements/1.1/"
   xmlns:cc="http://creativecommons.org/ns#"
   xmlns:rdf="http://www.w3.org/1999/02/22-rdf-syntax-ns#"
   xmlns:svg="http://www.w3.org/2000/svg"
   xmlns="http://www.w3.org/2000/svg"
   xmlns:sodipodi="http://sodipodi.sourceforge.net/DTD/sodipodi-0.dtd"
   xmlns:inkscape="http://www.inkscape.org/namespaces/inkscape"
   id="Layer_1"
   data-name="Layer 1"
   viewBox="0 0 512 512"
   version="1.1"
   sodipodi:docname="mac-logo.svg"
   inkscape:version="0.92.4 (5da689c313, 2019-01-14)">
  <metadata
     id="metadata877">
    <rdf:RDF>
      <cc:Work
         rdf:about="">
        <dc:format>image/svg+xml</dc:format>
        <dc:type
           rdf:resource="http://purl.org/dc/dcmitype/StillImage" />
        <dc:title></dc:title>
      </cc:Work>
    </rdf:RDF>
  </metadata>
  <defs
     id="defs875" />
  <sodipodi:namedview
     pagecolor="#ffffff"
     bordercolor="#666666"
     borderopacity="1"
     objecttolerance="10"
     gridtolerance="10"
     guidetolerance="10"
     inkscape:pageopacity="0"
     inkscape:pageshadow="2"
     inkscape:window-width="1920"
     inkscape:window-height="1017"
     id="namedview873"
     showgrid="false"
     inkscape:zoom="0.72851563"
     inkscape:cx="100.97201"
     inkscape:cy="326.66066"
     inkscape:window-x="-8"
     inkscape:window-y="-8"
     inkscape:window-maximized="1"
     inkscape:current-layer="Layer_1" />
  <path
     d="m 168.46,122.74 c 8.25463,0.0203 16.48272,0.93569 24.54,2.73 8.04537,1.82286 15.94913,4.2224 23.65,7.18 4.82,1.37 9.51,3 14.19,4.57 4.68,1.57 9.34,3.24 14.14,4.72 8.41331,2.04888 17.1114,2.66752 25.73,1.83 8.60371,-0.88582 17.04933,-2.92407 25.11,-6.06 5.93,-2.22 11.8,-4.54 17.74,-6.67 5.92294,-2.18525 11.96216,-4.04141 18.09,-5.56 5.00627,-1.13036 9.94078,-1.95795 14.80471,-2.48756 4.91637,-0.53532 9.76061,-0.76621 14.53392,-0.69763 8.1345,0.11686 16.06299,1.10345 23.79137,2.93519 16.75,3.97 32.63,11.95 47.6,23.67 4.26641,2.91874 8.28049,6.19021 12,9.78 3.71089,3.58843 7.15973,7.4383 10.32,11.52 1.31,1.46 2,2.36 1.88,3.12 -0.12,0.76 -1,1.41 -2.72,2.37 -15.52,9.45 -27.79,21.09 -36.58,34.82 -8.79,13.73 -14.2,29.86 -15.74,47.88 -1.58,17 0.2,32.87 5.32,47.59 5.41525,15.22489 14.09861,29.07935 25.44,40.59 5.06534,5.33462 10.66088,10.13942 16.7,14.34 6.03152,4.19755 12.49093,7.74402 19.27,10.58 2,0.63 3,1.15 3.26,2 0.26,0.85 -0.09,1.92 -0.94,3.72 -7.51883,17.54876 -16.37837,34.49222 -26.5,50.68 -10.13374,16.20241 -21.5255,31.58312 -34.07,46 -4.35771,4.84713 -9.03482,9.39729 -14,13.62 -4.97723,4.22662 -10.37169,7.93573 -16.1,11.07 -17.10606,10.0413 -38.10901,10.83004 -55.92,2.1 -3.94,-1.38 -7.8,-3.14 -11.68,-4.89 -3.88,-1.75 -7.69,-3.45 -11.68,-4.81 -12.57931,-4.20893 -25.82973,-6.05002 -39.08,-5.43 -13.23689,0.74741 -26.25285,3.72249 -38.5,8.8 -3.3,1.47 -6.58,2.94 -9.88,4.3 -3.3,1.36 -6.7,2.66 -10.1,3.71 -12.29,4.43 -23.87,5.34 -34.9,3.19 -11.03,-2.15 -21.58,-7.38 -31.69,-15.2 -6.08762,-4.84941 -11.77284,-10.18348 -17,-15.95 -5.20893,-5.77082 -10.0549,-11.85918 -14.51,-18.23 -10.59301,-14.27309 -20.109282,-29.31461 -28.47,-45 -8.340867,-15.69092 -15.36498,-32.04706 -21,-48.9 -4.097684,-11.97791 -7.394947,-24.21487 -9.87,-36.63 -2.47264,-12.41379 -4.083155,-24.98382 -4.82,-37.62 -0.823618,-13.78455 -0.428752,-27.6149 1.18,-41.33 1.62354,-13.7036 5.234794,-27.09758 10.72,-39.76 8.853333,-20.55333 20.803333,-37.64667 35.85,-51.28 15.04667,-13.63333 33.32667,-23.69 54.84,-30.17 4.08533,-1.05594 8.23371,-1.85088 12.42,-2.38 4.18794,-0.5348 8.4184,-0.65539 12.63,-0.36 z"
     id="path868"
     style="fill:none;stroke:#512d6d;stroke-width:13.3;stroke-miterlimit:4;stroke-dasharray:none;stroke-opacity:1"
     inkscape:connector-curvature="0"
     sodipodi:nodetypes="cccscccccssscccscscccccsccccccscccscscccccccccsccc" />
  <path
     d="M352.28,16.84a106.88,106.88,0,0,1-5.19,32.49,121.44,121.44,0,0,1-14.58,29.54,107,107,0,0,1-24.78,26.55,112.07,112.07,0,0,1-32.3,16.7,49.86,49.86,0,0,1-11,2.71,84.26,84.26,0,0,1-11.32.66c-1.61,0-2.67-.16-3.37-.76s-1-1.58-1.17-3.24a77.89,77.89,0,0,1,1.2-25,107.94,107.94,0,0,1,8.1-23.74A117.49,117.49,0,0,1,286.62,34c11.87-10.45,25.9-18.4,41.88-24.12a71.09,71.09,0,0,1,9.8-2.75,92.06,92.06,0,0,1,10.07-1.48c1.41-.52,2.25-.22,2.76.48A5.63,5.63,0,0,1,351.86,9c.09,1.29.25,2.67.36,3.92A15.74,15.74,0,0,1,352.28,16.84Z"
     fill="none"
     stroke="#0072bf"
     stroke-width="13.3"
     id="path870"
     style="stroke:#512d6d;stroke-opacity:1" />
</svg>
