<?xml version="1.0" encoding="utf-8"?>
<!-- Generator: Adobe Illustrator 22.1.0, SVG Export Plug-In . SVG Version: 6.00 Build 0)  -->
<svg version="1.1" id="Layer_4" xmlns="http://www.w3.org/2000/svg" xmlns:xlink="http://www.w3.org/1999/xlink" x="0px" y="0px"
	 viewBox="0 0 1281 435" style="enable-background:new 0 0 1281 435;" xml:space="preserve">
<style type="text/css">
	.st0{fill:#481F6E;}
	.st1{display:none;fill:#604382;}
</style>
<path class="st0" d="M7.3,344.1l378.5,0.1c1.2,0,2.1-1,2.1-2.1l-0.1-8.5c0-1.2,0.9-2.1,2.1-2.1h150.8c1.2,0,2.1-0.9,2.1-2.1v-19.3
	c0-1.2,0.9-2.1,2.1-2.1l40.9,0c1.2,0,2.1-0.9,2.1-2.1v-61.3c0-0.9-0.6-1.7-1.4-2l-16.2-5.4c-0.9-0.3-1.5-1.1-1.4-2l0.1-6.4
	c0-0.1,0-0.2,0-0.4l-3.4-21.8c-0.1-0.5,0-1,0.3-1.5l2.8-4.4c0.4-0.6,1-1,1.8-1l68.7-0.2c1.2,0,2.1-0.9,2.1-2.1v-21
	c0-1.2,1-2.1,2.1-2.1l17.9,0.2c1.1,0,2.1,0.9,2.1,2.1l0.3,23.5c0,1.2,1,2.1,2.1,2.1h60c0.7,0,1.3,0.3,1.7,0.8l4.2,5.5
	c0.4,0.5,0.5,1.2,0.4,1.8l-5.3,20.3c-0.1,0.2-0.1,0.4-0.1,0.6l0.1,4.2c0,0.9-0.5,1.6-1.3,2l-12,5.2c-0.8,0.3-1.3,1.1-1.3,2l0.2,18.2
	c0,1.2,1,2.1,2.1,2.1h92.1c1.2,0,2.1,0.9,2.1,2.1v6.8c0,1.2,0.9,2.1,2.1,2.1l106,0.2c1.7,0,2,1.6,1.7,3.3
	c-3.7,21.2-81.4,113.2-81.4,113.2c-0.1,0.2-0.2,0.4-0.3,0.6l-12.4,37c-0.3,0.9-1.1,1.4-2,1.4l-690.8,0.1c-0.7,0-1.3-0.3-1.7-0.9
	l-26.4-35.6c-0.3-0.4-0.8-0.7-1.3-0.8l-21.8-4.3c-0.1,0-0.3,0-0.4,0l-72.5,1.2c-1.2,0-2.1-0.9-2.1-2.1v-42.9
	C5.2,345.1,6.1,344.1,7.3,344.1z"/>
<path class="st0" d="M771.3,216.1c1,0,1.9-0.8,1.9-1.9v-16.1c0-1,0.8-1.9,1.9-1.9l36.7,0c1,0,1.9-0.8,1.9-1.9V140
	c0-0.8-0.5-1.5-1.3-1.8l-14.6-4.8c-0.8-0.3-1.3-1-1.3-1.8l0.1-5.7c0-0.1,0-0.2,0-0.3l-3-19.4c-0.1-0.5,0-0.9,0.3-1.3l2.6-3.9
	c0.3-0.5,0.9-0.8,1.6-0.8l61.6-0.2c1,0,1.9-0.8,1.9-1.9V79.6c0-1,0.9-1.9,1.9-1.9l16.1,0.1c1,0,1.9,0.8,1.9,1.8l0.3,20.8
	c0,1,0.9,1.8,1.9,1.8h53.8c0.6,0,1.1,0.3,1.5,0.7l3.8,4.9c0.4,0.5,0.5,1.1,0.3,1.6l-4.8,18c0,0.2-0.1,0.3-0.1,0.5l0.1,3.7
	c0,0.8-0.4,1.5-1.1,1.8l-10.8,4.6c-0.7,0.3-1.1,1-1.1,1.7l0.2,16.2c0,1,0.9,1.9,1.9,1.9h82.6c1,0,1.9,0.8,1.9,1.9v6
	c0,1,0.8,1.9,1.9,1.9l95.1,0.1c1.5,0,1.8,1.5,1.5,3c-3.3,18.8-73,100.5-73,100.5c-0.1,0.2-0.2,0.3-0.3,0.5l-6.1,15.8
	c-0.3,0.8-1,1.3-1.8,1.3l-75,0.4c-1.6,0-2.5-1.7-1.6-3c8.1-11.8,13-23.6,17.7-35.4c0.5-1.3-0.4-2.6-1.8-2.6l-101.8-0.3
	c-1.1,0-1.9-0.9-1.9-1.9l0-7.6c0-1.1-0.9-2-2-2l-100.3,0.7c-1.1,0-0.2-17.8-0.2-17.8l0.4-1.5c0.2-0.9,1-1.5,1.9-1.5L771.3,216.1z"/>
<path class="st0" d="M985.4,124.8c0.9,0,1.6-0.7,1.6-1.6v-13.6c0-0.9,0.7-1.6,1.6-1.6l31,0c0.9,0,1.6-0.7,1.6-1.6V60.5
	c0-0.7-0.4-1.3-1.1-1.5l-12.3-4.1c-0.7-0.2-1.1-0.8-1.1-1.5l0.1-4.8c0-0.1,0-0.2,0-0.3l-2.5-16.3c-0.1-0.4,0-0.8,0.2-1.1l2.2-3.3
	c0.3-0.4,0.8-0.7,1.3-0.7l52-0.2c0.9,0,1.6-0.7,1.6-1.6V9.6c0-0.9,0.7-1.6,1.6-1.6l13.6,0.1c0.9,0,1.6,0.7,1.6,1.6l0.3,17.6
	c0,0.9,0.7,1.6,1.6,1.6h45.4c0.5,0,1,0.2,1.3,0.6l3.2,4.1c0.3,0.4,0.4,0.9,0.3,1.4l-4,15.2c0,0.1-0.1,0.3-0.1,0.4l0.1,3.1
	c0,0.6-0.4,1.2-1,1.5l-9.1,3.9c-0.6,0.3-1,0.8-0.9,1.5l0.1,13.6c0,0.9,0.7,1.6,1.6,1.6h69.7c0.9,0,1.6,0.7,1.6,1.6v5.1
	c0,0.9,0.7,1.6,1.6,1.6l80.3,0.1c1.3,0,1.5,1.2,1.3,2.5c-2.8,15.9-61.7,84.8-61.7,84.8c-0.1,0.1-0.2,0.3-0.2,0.4l-3.4,8
	c-0.2,0.6-0.8,1.1-1.5,1.1c0,0-71.3,0.9-70.7-0.2c7-12.4,11-23.2,11.9-33.9c0.1-1.1-1.4-2.2-2.5-2.2l-97.9-0.3
	c-0.9,0-1.6-0.7-1.6-1.6l0-6.5c0-0.9-0.8-1.7-1.7-1.7c0,0-65.4,0.9-64.8,0.7c0,0,0-3.2,0-3.8l0.2-3.9l0.3-1.3
	c0.2-0.7,0.9-1.3,1.6-1.3L985.4,124.8z"/>
<path class="st1" d="M663.9,651.9L817,501.4c6.5-6.4,2-17.5-7.1-17.5H503.7c-9.1,0-13.7,11.1-7.1,17.5l153.1,150.5
	C653.6,655.8,660,655.8,663.9,651.9z"/>
</svg>
