<?xml version="1.0" encoding="UTF-8" standalone="no"?>
<!DOCTYPE svg PUBLIC "-//W3C//DTD SVG 1.1//EN"
 "http://www.w3.org/Graphics/SVG/1.1/DTD/svg11.dtd">
<!-- Generated by graphviz version 2.40.1 (20161225.0304)
 -->
<!-- Title: dependencies Pages: 1 -->
<svg width="550pt" height="211pt"
 viewBox="0.00 0.00 550.00 211.00" xmlns="http://www.w3.org/2000/svg" xmlns:xlink="http://www.w3.org/1999/xlink">
<g id="graph0" class="graph" transform="scale(1 1) rotate(0) translate(4 207)">
<title>dependencies</title>
<polygon fill="#ffffff" stroke="transparent" points="-4,4 -4,-207 546,-207 546,4 -4,4"/>
<text text-anchor="start" x="250.0091" y="-42.4" font-family="sans-serif" font-weight="bold" font-size="14.00" fill="#000000">Legend</text>
<polygon fill="#ffffb3" stroke="transparent" points="37,-10 37,-30 57,-30 57,-10 37,-10"/>
<text text-anchor="start" x="60.629" y="-15.4" font-family="sans-serif" font-size="14.00" fill="#000000"> &#160;Declarations</text>
<polygon fill="#8dd3c7" stroke="transparent" points="150,-10 150,-30 170,-30 170,-10 150,-10"/>
<text text-anchor="start" x="173.7251" y="-15.4" font-family="sans-serif" font-size="14.00" fill="#000000"> &#160;Module</text>
<polygon fill="#80b1d3" stroke="transparent" points="236,-10 236,-30 256,-30 256,-10 236,-10"/>
<text text-anchor="start" x="259.7812" y="-15.4" font-family="sans-serif" font-size="14.00" fill="#000000"> &#160;Bootstrap</text>
<polygon fill="#fdb462" stroke="transparent" points="333,-10 333,-30 353,-30 353,-10 333,-10"/>
<text text-anchor="start" x="356.6732" y="-15.4" font-family="sans-serif" font-size="14.00" fill="#000000"> &#160;Providers</text>
<polygon fill="#fb8072" stroke="transparent" points="429,-10 429,-30 449,-30 449,-10 429,-10"/>
<text text-anchor="start" x="452.7258" y="-15.4" font-family="sans-serif" font-size="14.00" fill="#000000"> &#160;Exports</text>
<g id="clust1" class="cluster">
<title>cluster_AdminForecastersModule</title>
<polygon fill="none" stroke="#000000" stroke-dasharray="1,5" points="8,-70 8,-195 534,-195 534,-70 8,-70"/>
</g>
<g id="clust2" class="cluster">
<title>cluster_AdminForecastersModule_declarations</title>
<polygon fill="none" stroke="#000000" points="364,-78 364,-130 526,-130 526,-78 364,-78"/>
</g>
<g id="clust4" class="cluster">
<title>cluster_AdminForecastersModule_imports</title>
<polygon fill="none" stroke="#000000" points="16,-78 16,-130 356,-130 356,-78 16,-78"/>
</g>
<!-- ForecastersComponent -->
<g id="node1" class="node">
<title>ForecastersComponent</title>
<polygon fill="#ffffb3" stroke="#000000" points="517.5744,-122 372.4256,-122 372.4256,-86 517.5744,-86 517.5744,-122"/>
<text text-anchor="middle" x="445" y="-99.8" font-family="Times,serif" font-size="14.00" fill="#000000">ForecastersComponent</text>
</g>
<!-- AdminForecastersModule -->
<g id="node2" class="node">
<title>AdminForecastersModule</title>
<polygon fill="#8dd3c7" stroke="#000000" points="325.1797,-187 322.1797,-191 301.1797,-191 298.1797,-187 162.8203,-187 162.8203,-151 325.1797,-151 325.1797,-187"/>
<text text-anchor="middle" x="244" y="-164.8" font-family="Times,serif" font-size="14.00" fill="#000000">AdminForecastersModule</text>
</g>
<!-- ForecastersComponent&#45;&gt;AdminForecastersModule -->
<g id="edge1" class="edge">
<title>ForecastersComponent&#45;&gt;AdminForecastersModule</title>
<path fill="none" stroke="#000000" d="M445,-122.1061C445,-141.3391 445,-169 445,-169 445,-169 335.175,-169 335.175,-169"/>
<polygon fill="#000000" stroke="#000000" points="335.1751,-165.5001 325.175,-169 335.175,-172.5001 335.1751,-165.5001"/>
</g>
<!-- AdminForecastersRoutingModule -->
<g id="node3" class="node">
<title>AdminForecastersRoutingModule</title>
<polygon fill="#8dd3c7" stroke="#000000" points="347.7976,-122 344.7976,-126 323.7976,-126 320.7976,-122 140.2024,-122 140.2024,-86 347.7976,-86 347.7976,-122"/>
<text text-anchor="middle" x="244" y="-99.8" font-family="Times,serif" font-size="14.00" fill="#000000">AdminForecastersRoutingModule</text>
</g>
<!-- AdminForecastersRoutingModule&#45;&gt;AdminForecastersModule -->
<g id="edge2" class="edge">
<title>AdminForecastersRoutingModule&#45;&gt;AdminForecastersModule</title>
<path fill="none" stroke="#000000" d="M244,-122.1061C244,-122.1061 244,-140.991 244,-140.991"/>
<polygon fill="#000000" stroke="#000000" points="240.5001,-140.9909 244,-150.991 247.5001,-140.991 240.5001,-140.9909"/>
</g>
<!-- SharedModule -->
<g id="node4" class="node">
<title>SharedModule</title>
<polygon fill="#8dd3c7" stroke="#000000" points="122.4231,-122 119.4231,-126 98.4231,-126 95.4231,-122 23.5769,-122 23.5769,-86 122.4231,-86 122.4231,-122"/>
<text text-anchor="middle" x="73" y="-99.8" font-family="Times,serif" font-size="14.00" fill="#000000">SharedModule</text>
</g>
<!-- SharedModule&#45;&gt;AdminForecastersModule -->
<g id="edge3" class="edge">
<title>SharedModule&#45;&gt;AdminForecastersModule</title>
<path fill="none" stroke="#000000" d="M73,-122.1061C73,-141.3391 73,-169 73,-169 73,-169 152.7567,-169 152.7567,-169"/>
<polygon fill="#000000" stroke="#000000" points="152.7568,-172.5001 162.7567,-169 152.7567,-165.5001 152.7568,-172.5001"/>
</g>
</g>
</svg>
