<?xml version="1.0" encoding="UTF-8" standalone="no"?>
<!DOCTYPE svg PUBLIC "-//W3C//DTD SVG 1.1//EN"
 "http://www.w3.org/Graphics/SVG/1.1/DTD/svg11.dtd">
<!-- Generated by graphviz version 2.40.1 (20161225.0304)
 -->
<!-- Title: dependencies Pages: 1 -->
<svg width="845pt" height="211pt"
 viewBox="0.00 0.00 845.00 211.00" xmlns="http://www.w3.org/2000/svg" xmlns:xlink="http://www.w3.org/1999/xlink">
<g id="graph0" class="graph" transform="scale(1 1) rotate(0) translate(4 207)">
<title>dependencies</title>
<polygon fill="#ffffff" stroke="transparent" points="-4,4 -4,-207 841,-207 841,4 -4,4"/>
<text text-anchor="start" x="397.5091" y="-42.4" font-family="sans-serif" font-weight="bold" font-size="14.00" fill="#000000">Legend</text>
<polygon fill="#ffffb3" stroke="transparent" points="184.5,-10 184.5,-30 204.5,-30 204.5,-10 184.5,-10"/>
<text text-anchor="start" x="208.129" y="-15.4" font-family="sans-serif" font-size="14.00" fill="#000000"> &#160;Declarations</text>
<polygon fill="#8dd3c7" stroke="transparent" points="297.5,-10 297.5,-30 317.5,-30 317.5,-10 297.5,-10"/>
<text text-anchor="start" x="321.2251" y="-15.4" font-family="sans-serif" font-size="14.00" fill="#000000"> &#160;Module</text>
<polygon fill="#80b1d3" stroke="transparent" points="383.5,-10 383.5,-30 403.5,-30 403.5,-10 383.5,-10"/>
<text text-anchor="start" x="407.2812" y="-15.4" font-family="sans-serif" font-size="14.00" fill="#000000"> &#160;Bootstrap</text>
<polygon fill="#fdb462" stroke="transparent" points="480.5,-10 480.5,-30 500.5,-30 500.5,-10 480.5,-10"/>
<text text-anchor="start" x="504.1732" y="-15.4" font-family="sans-serif" font-size="14.00" fill="#000000"> &#160;Providers</text>
<polygon fill="#fb8072" stroke="transparent" points="576.5,-10 576.5,-30 596.5,-30 596.5,-10 576.5,-10"/>
<text text-anchor="start" x="600.2258" y="-15.4" font-family="sans-serif" font-size="14.00" fill="#000000"> &#160;Exports</text>
<g id="clust1" class="cluster">
<title>cluster_ProfileModule</title>
<polygon fill="none" stroke="#000000" stroke-dasharray="1,5" points="8,-70 8,-195 829,-195 829,-70 8,-70"/>
</g>
<g id="clust2" class="cluster">
<title>cluster_ProfileModule_declarations</title>
<polygon fill="none" stroke="#000000" points="299,-78 299,-130 821,-130 821,-78 299,-78"/>
</g>
<g id="clust6" class="cluster">
<title>cluster_ProfileModule_imports</title>
<polygon fill="none" stroke="#000000" points="16,-78 16,-130 291,-130 291,-78 16,-78"/>
</g>
<!-- ProfileComponent -->
<g id="node1" class="node">
<title>ProfileComponent</title>
<polygon fill="#ffffb3" stroke="#000000" points="812.9328,-122 693.0672,-122 693.0672,-86 812.9328,-86 812.9328,-122"/>
<text text-anchor="middle" x="753" y="-99.8" font-family="Times,serif" font-size="14.00" fill="#000000">ProfileComponent</text>
</g>
<!-- ProfileModule -->
<g id="node4" class="node">
<title>ProfileModule</title>
<polygon fill="#8dd3c7" stroke="#000000" points="436.65,-187 433.65,-191 412.65,-191 409.65,-187 339.35,-187 339.35,-151 436.65,-151 436.65,-187"/>
<text text-anchor="middle" x="388" y="-164.8" font-family="Times,serif" font-size="14.00" fill="#000000">ProfileModule</text>
</g>
<!-- ProfileComponent&#45;&gt;ProfileModule -->
<g id="edge1" class="edge">
<title>ProfileComponent&#45;&gt;ProfileModule</title>
<path fill="none" stroke="#000000" d="M753,-122.2843C753,-143.3211 753,-175 753,-175 753,-175 446.8468,-175 446.8468,-175"/>
<polygon fill="#000000" stroke="#000000" points="446.8468,-171.5001 436.8468,-175 446.8468,-178.5001 446.8468,-171.5001"/>
</g>
<!-- ProfileFeatureCardComponent -->
<g id="node2" class="node">
<title>ProfileFeatureCardComponent</title>
<polygon fill="#ffffb3" stroke="#000000" points="675.1218,-122 486.8782,-122 486.8782,-86 675.1218,-86 675.1218,-122"/>
<text text-anchor="middle" x="581" y="-99.8" font-family="Times,serif" font-size="14.00" fill="#000000">ProfileFeatureCardComponent</text>
</g>
<!-- ProfileFeatureCardComponent&#45;&gt;ProfileModule -->
<g id="edge2" class="edge">
<title>ProfileFeatureCardComponent&#45;&gt;ProfileModule</title>
<path fill="none" stroke="#000000" d="M581,-122.0225C581,-139.3734 581,-163 581,-163 581,-163 446.702,-163 446.702,-163"/>
<polygon fill="#000000" stroke="#000000" points="446.7021,-159.5001 436.702,-163 446.702,-166.5001 446.7021,-159.5001"/>
</g>
<!-- ProfileFeatureComponent -->
<g id="node3" class="node">
<title>ProfileFeatureComponent</title>
<polygon fill="#ffffb3" stroke="#000000" points="468.9101,-122 307.0899,-122 307.0899,-86 468.9101,-86 468.9101,-122"/>
<text text-anchor="middle" x="388" y="-99.8" font-family="Times,serif" font-size="14.00" fill="#000000">ProfileFeatureComponent</text>
</g>
<!-- ProfileFeatureComponent&#45;&gt;ProfileModule -->
<g id="edge3" class="edge">
<title>ProfileFeatureComponent&#45;&gt;ProfileModule</title>
<path fill="none" stroke="#000000" d="M388,-122.1061C388,-122.1061 388,-140.991 388,-140.991"/>
<polygon fill="#000000" stroke="#000000" points="384.5001,-140.9909 388,-150.991 391.5001,-140.991 384.5001,-140.9909"/>
</g>
<!-- ProfileRoutingModule -->
<g id="node5" class="node">
<title>ProfileRoutingModule</title>
<polygon fill="#8dd3c7" stroke="#000000" points="283.2674,-122 280.2674,-126 259.2674,-126 256.2674,-122 140.7326,-122 140.7326,-86 283.2674,-86 283.2674,-122"/>
<text text-anchor="middle" x="212" y="-99.8" font-family="Times,serif" font-size="14.00" fill="#000000">ProfileRoutingModule</text>
</g>
<!-- ProfileRoutingModule&#45;&gt;ProfileModule -->
<g id="edge4" class="edge">
<title>ProfileRoutingModule&#45;&gt;ProfileModule</title>
<path fill="none" stroke="#000000" d="M212,-122.0225C212,-139.3734 212,-163 212,-163 212,-163 328.9742,-163 328.9742,-163"/>
<polygon fill="#000000" stroke="#000000" points="328.9742,-166.5001 338.9742,-163 328.9742,-159.5001 328.9742,-166.5001"/>
</g>
<!-- SharedModule -->
<g id="node6" class="node">
<title>SharedModule</title>
<polygon fill="#8dd3c7" stroke="#000000" points="122.4231,-122 119.4231,-126 98.4231,-126 95.4231,-122 23.5769,-122 23.5769,-86 122.4231,-86 122.4231,-122"/>
<text text-anchor="middle" x="73" y="-99.8" font-family="Times,serif" font-size="14.00" fill="#000000">SharedModule</text>
</g>
<!-- SharedModule&#45;&gt;ProfileModule -->
<g id="edge5" class="edge">
<title>SharedModule&#45;&gt;ProfileModule</title>
<path fill="none" stroke="#000000" d="M73,-122.2843C73,-143.3211 73,-175 73,-175 73,-175 329.1269,-175 329.1269,-175"/>
<polygon fill="#000000" stroke="#000000" points="329.1269,-178.5001 339.1269,-175 329.1268,-171.5001 329.1269,-178.5001"/>
</g>
</g>
</svg>
