<?xml version="1.0" encoding="UTF-8" standalone="no"?>
<!DOCTYPE svg PUBLIC "-//W3C//DTD SVG 1.1//EN"
 "http://www.w3.org/Graphics/SVG/1.1/DTD/svg11.dtd">
<!-- Generated by graphviz version 2.40.1 (20161225.0304)
 -->
<!-- Title: dependencies Pages: 1 -->
<svg width="504pt" height="211pt"
 viewBox="0.00 0.00 504.00 211.00" xmlns="http://www.w3.org/2000/svg" xmlns:xlink="http://www.w3.org/1999/xlink">
<g id="graph0" class="graph" transform="scale(1 1) rotate(0) translate(4 207)">
<title>dependencies</title>
<polygon fill="#ffffff" stroke="transparent" points="-4,4 -4,-207 500,-207 500,4 -4,4"/>
<text text-anchor="start" x="227.0091" y="-42.4" font-family="sans-serif" font-weight="bold" font-size="14.00" fill="#000000">Legend</text>
<polygon fill="#ffffb3" stroke="transparent" points="14,-10 14,-30 34,-30 34,-10 14,-10"/>
<text text-anchor="start" x="37.629" y="-15.4" font-family="sans-serif" font-size="14.00" fill="#000000"> &#160;Declarations</text>
<polygon fill="#8dd3c7" stroke="transparent" points="127,-10 127,-30 147,-30 147,-10 127,-10"/>
<text text-anchor="start" x="150.7251" y="-15.4" font-family="sans-serif" font-size="14.00" fill="#000000"> &#160;Module</text>
<polygon fill="#80b1d3" stroke="transparent" points="213,-10 213,-30 233,-30 233,-10 213,-10"/>
<text text-anchor="start" x="236.7812" y="-15.4" font-family="sans-serif" font-size="14.00" fill="#000000"> &#160;Bootstrap</text>
<polygon fill="#fdb462" stroke="transparent" points="310,-10 310,-30 330,-30 330,-10 310,-10"/>
<text text-anchor="start" x="333.6732" y="-15.4" font-family="sans-serif" font-size="14.00" fill="#000000"> &#160;Providers</text>
<polygon fill="#fb8072" stroke="transparent" points="406,-10 406,-30 426,-30 426,-10 406,-10"/>
<text text-anchor="start" x="429.7258" y="-15.4" font-family="sans-serif" font-size="14.00" fill="#000000"> &#160;Exports</text>
<g id="clust1" class="cluster">
<title>cluster_AdminRequestsModule</title>
<polygon fill="none" stroke="#000000" stroke-dasharray="1,5" points="77,-70 77,-195 419,-195 419,-70 77,-70"/>
</g>
<g id="clust3" class="cluster">
<title>cluster_AdminRequestsModule_imports</title>
<polygon fill="none" stroke="#000000" points="85,-78 85,-130 411,-130 411,-78 85,-78"/>
</g>
<!-- AdminRequestsRoutingModule -->
<g id="node1" class="node">
<title>AdminRequestsRoutingModule</title>
<polygon fill="#8dd3c7" stroke="#000000" points="403.101,-122 400.101,-126 379.101,-126 376.101,-122 208.899,-122 208.899,-86 403.101,-86 403.101,-122"/>
<text text-anchor="middle" x="306" y="-99.8" font-family="Times,serif" font-size="14.00" fill="#000000">AdminRequestsRoutingModule</text>
</g>
<!-- AdminRequestsModule -->
<g id="node3" class="node">
<title>AdminRequestsModule</title>
<polygon fill="#8dd3c7" stroke="#000000" points="306.4832,-187 303.4832,-191 282.4832,-191 279.4832,-187 157.5168,-187 157.5168,-151 306.4832,-151 306.4832,-187"/>
<text text-anchor="middle" x="232" y="-164.8" font-family="Times,serif" font-size="14.00" fill="#000000">AdminRequestsModule</text>
</g>
<!-- AdminRequestsRoutingModule&#45;&gt;AdminRequestsModule -->
<g id="edge1" class="edge">
<title>AdminRequestsRoutingModule&#45;&gt;AdminRequestsModule</title>
<path fill="none" stroke="#000000" d="M257.7206,-122.1061C257.7206,-122.1061 257.7206,-140.991 257.7206,-140.991"/>
<polygon fill="#000000" stroke="#000000" points="254.2206,-140.9909 257.7206,-150.991 261.2206,-140.991 254.2206,-140.9909"/>
</g>
<!-- SharedModule -->
<g id="node2" class="node">
<title>SharedModule</title>
<polygon fill="#8dd3c7" stroke="#000000" points="191.4231,-122 188.4231,-126 167.4231,-126 164.4231,-122 92.5769,-122 92.5769,-86 191.4231,-86 191.4231,-122"/>
<text text-anchor="middle" x="142" y="-99.8" font-family="Times,serif" font-size="14.00" fill="#000000">SharedModule</text>
</g>
<!-- SharedModule&#45;&gt;AdminRequestsModule -->
<g id="edge2" class="edge">
<title>SharedModule&#45;&gt;AdminRequestsModule</title>
<path fill="none" stroke="#000000" d="M174.3598,-122.1061C174.3598,-122.1061 174.3598,-140.991 174.3598,-140.991"/>
<polygon fill="#000000" stroke="#000000" points="170.8598,-140.9909 174.3598,-150.991 177.8598,-140.991 170.8598,-140.9909"/>
</g>
</g>
</svg>
