<?xml version="1.0" encoding="UTF-8" standalone="no"?>
<!DOCTYPE svg PUBLIC "-//W3C//DTD SVG 1.1//EN"
 "http://www.w3.org/Graphics/SVG/1.1/DTD/svg11.dtd">
<!-- Generated by graphviz version 2.40.1 (20161225.0304)
 -->
<!-- Title: dependencies Pages: 1 -->
<svg width="572pt" height="211pt"
 viewBox="0.00 0.00 572.00 211.00" xmlns="http://www.w3.org/2000/svg" xmlns:xlink="http://www.w3.org/1999/xlink">
<g id="graph0" class="graph" transform="scale(1 1) rotate(0) translate(4 207)">
<title>dependencies</title>
<polygon fill="#ffffff" stroke="transparent" points="-4,4 -4,-207 568,-207 568,4 -4,4"/>
<text text-anchor="start" x="261.0091" y="-42.4" font-family="sans-serif" font-weight="bold" font-size="14.00" fill="#000000">Legend</text>
<polygon fill="#ffffb3" stroke="transparent" points="48,-10 48,-30 68,-30 68,-10 48,-10"/>
<text text-anchor="start" x="71.629" y="-15.4" font-family="sans-serif" font-size="14.00" fill="#000000"> &#160;Declarations</text>
<polygon fill="#8dd3c7" stroke="transparent" points="161,-10 161,-30 181,-30 181,-10 161,-10"/>
<text text-anchor="start" x="184.7251" y="-15.4" font-family="sans-serif" font-size="14.00" fill="#000000"> &#160;Module</text>
<polygon fill="#80b1d3" stroke="transparent" points="247,-10 247,-30 267,-30 267,-10 247,-10"/>
<text text-anchor="start" x="270.7812" y="-15.4" font-family="sans-serif" font-size="14.00" fill="#000000"> &#160;Bootstrap</text>
<polygon fill="#fdb462" stroke="transparent" points="344,-10 344,-30 364,-30 364,-10 344,-10"/>
<text text-anchor="start" x="367.6732" y="-15.4" font-family="sans-serif" font-size="14.00" fill="#000000"> &#160;Providers</text>
<polygon fill="#fb8072" stroke="transparent" points="440,-10 440,-30 460,-30 460,-10 440,-10"/>
<text text-anchor="start" x="463.7258" y="-15.4" font-family="sans-serif" font-size="14.00" fill="#000000"> &#160;Exports</text>
<g id="clust1" class="cluster">
<title>cluster_DownloadCenterModule</title>
<polygon fill="none" stroke="#000000" stroke-dasharray="1,5" points="8,-70 8,-195 556,-195 556,-70 8,-70"/>
</g>
<g id="clust2" class="cluster">
<title>cluster_DownloadCenterModule_declarations</title>
<polygon fill="none" stroke="#000000" points="356,-78 356,-130 548,-130 548,-78 356,-78"/>
</g>
<g id="clust4" class="cluster">
<title>cluster_DownloadCenterModule_imports</title>
<polygon fill="none" stroke="#000000" points="16,-78 16,-130 348,-130 348,-78 16,-78"/>
</g>
<!-- DownloadCenterComponent -->
<g id="node1" class="node">
<title>DownloadCenterComponent</title>
<polygon fill="#ffffb3" stroke="#000000" points="540.4678,-122 363.5322,-122 363.5322,-86 540.4678,-86 540.4678,-122"/>
<text text-anchor="middle" x="452" y="-99.8" font-family="Times,serif" font-size="14.00" fill="#000000">DownloadCenterComponent</text>
</g>
<!-- DownloadCenterModule -->
<g id="node2" class="node">
<title>DownloadCenterModule</title>
<polygon fill="#8dd3c7" stroke="#000000" points="317.6853,-187 314.6853,-191 293.6853,-191 290.6853,-187 162.3147,-187 162.3147,-151 317.6853,-151 317.6853,-187"/>
<text text-anchor="middle" x="240" y="-164.8" font-family="Times,serif" font-size="14.00" fill="#000000">DownloadCenterModule</text>
</g>
<!-- DownloadCenterComponent&#45;&gt;DownloadCenterModule -->
<g id="edge1" class="edge">
<title>DownloadCenterComponent&#45;&gt;DownloadCenterModule</title>
<path fill="none" stroke="#000000" d="M452,-122.1061C452,-141.3391 452,-169 452,-169 452,-169 327.7372,-169 327.7372,-169"/>
<polygon fill="#000000" stroke="#000000" points="327.7372,-165.5001 317.7372,-169 327.7371,-172.5001 327.7372,-165.5001"/>
</g>
<!-- DownloadCenterRoutingModule -->
<g id="node3" class="node">
<title>DownloadCenterRoutingModule</title>
<polygon fill="#8dd3c7" stroke="#000000" points="340.3032,-122 337.3032,-126 316.3032,-126 313.3032,-122 139.6968,-122 139.6968,-86 340.3032,-86 340.3032,-122"/>
<text text-anchor="middle" x="240" y="-99.8" font-family="Times,serif" font-size="14.00" fill="#000000">DownloadCenterRoutingModule</text>
</g>
<!-- DownloadCenterRoutingModule&#45;&gt;DownloadCenterModule -->
<g id="edge2" class="edge">
<title>DownloadCenterRoutingModule&#45;&gt;DownloadCenterModule</title>
<path fill="none" stroke="#000000" d="M240,-122.1061C240,-122.1061 240,-140.991 240,-140.991"/>
<polygon fill="#000000" stroke="#000000" points="236.5001,-140.9909 240,-150.991 243.5001,-140.991 236.5001,-140.9909"/>
</g>
<!-- SharedModule -->
<g id="node4" class="node">
<title>SharedModule</title>
<polygon fill="#8dd3c7" stroke="#000000" points="122.4231,-122 119.4231,-126 98.4231,-126 95.4231,-122 23.5769,-122 23.5769,-86 122.4231,-86 122.4231,-122"/>
<text text-anchor="middle" x="73" y="-99.8" font-family="Times,serif" font-size="14.00" fill="#000000">SharedModule</text>
</g>
<!-- SharedModule&#45;&gt;DownloadCenterModule -->
<g id="edge3" class="edge">
<title>SharedModule&#45;&gt;DownloadCenterModule</title>
<path fill="none" stroke="#000000" d="M73,-122.1061C73,-141.3391 73,-169 73,-169 73,-169 152.3668,-169 152.3668,-169"/>
<polygon fill="#000000" stroke="#000000" points="152.3668,-172.5001 162.3668,-169 152.3668,-165.5001 152.3668,-172.5001"/>
</g>
</g>
</svg>
