<?xml version="1.0" encoding="UTF-8" standalone="no"?>
<!DOCTYPE svg PUBLIC "-//W3C//DTD SVG 1.1//EN"
 "http://www.w3.org/Graphics/SVG/1.1/DTD/svg11.dtd">
<!-- Generated by graphviz version 2.40.1 (20161225.0304)
 -->
<!-- Title: dependencies Pages: 1 -->
<svg width="1382pt" height="211pt"
 viewBox="0.00 0.00 1382.00 211.00" xmlns="http://www.w3.org/2000/svg" xmlns:xlink="http://www.w3.org/1999/xlink">
<g id="graph0" class="graph" transform="scale(1 1) rotate(0) translate(4 207)">
<title>dependencies</title>
<polygon fill="#ffffff" stroke="transparent" points="-4,4 -4,-207 1378,-207 1378,4 -4,4"/>
<text text-anchor="start" x="666.0091" y="-42.4" font-family="sans-serif" font-weight="bold" font-size="14.00" fill="#000000">Legend</text>
<polygon fill="#ffffb3" stroke="transparent" points="453,-10 453,-30 473,-30 473,-10 453,-10"/>
<text text-anchor="start" x="476.629" y="-15.4" font-family="sans-serif" font-size="14.00" fill="#000000"> &#160;Declarations</text>
<polygon fill="#8dd3c7" stroke="transparent" points="566,-10 566,-30 586,-30 586,-10 566,-10"/>
<text text-anchor="start" x="589.7251" y="-15.4" font-family="sans-serif" font-size="14.00" fill="#000000"> &#160;Module</text>
<polygon fill="#80b1d3" stroke="transparent" points="652,-10 652,-30 672,-30 672,-10 652,-10"/>
<text text-anchor="start" x="675.7812" y="-15.4" font-family="sans-serif" font-size="14.00" fill="#000000"> &#160;Bootstrap</text>
<polygon fill="#fdb462" stroke="transparent" points="749,-10 749,-30 769,-30 769,-10 749,-10"/>
<text text-anchor="start" x="772.6732" y="-15.4" font-family="sans-serif" font-size="14.00" fill="#000000"> &#160;Providers</text>
<polygon fill="#fb8072" stroke="transparent" points="845,-10 845,-30 865,-30 865,-10 845,-10"/>
<text text-anchor="start" x="868.7258" y="-15.4" font-family="sans-serif" font-size="14.00" fill="#000000"> &#160;Exports</text>
<g id="clust1" class="cluster">
<title>cluster_SchedulerModule</title>
<polygon fill="none" stroke="#000000" stroke-dasharray="1,5" points="8,-70 8,-195 1366,-195 1366,-70 8,-70"/>
</g>
<g id="clust2" class="cluster">
<title>cluster_SchedulerModule_declarations</title>
<polygon fill="none" stroke="#000000" points="317,-78 317,-130 1358,-130 1358,-78 317,-78"/>
</g>
<g id="clust8" class="cluster">
<title>cluster_SchedulerModule_imports</title>
<polygon fill="none" stroke="#000000" points="16,-78 16,-130 309,-130 309,-78 16,-78"/>
</g>
<!-- SchedulerComponent -->
<g id="node1" class="node">
<title>SchedulerComponent</title>
<polygon fill="#ffffb3" stroke="#000000" points="1349.8104,-122 1212.1896,-122 1212.1896,-86 1349.8104,-86 1349.8104,-122"/>
<text text-anchor="middle" x="1281" y="-99.8" font-family="Times,serif" font-size="14.00" fill="#000000">SchedulerComponent</text>
</g>
<!-- SchedulerModule -->
<g id="node6" class="node">
<title>SchedulerModule</title>
<polygon fill="#8dd3c7" stroke="#000000" points="689.5284,-187 686.5284,-191 665.5284,-191 662.5284,-187 574.4716,-187 574.4716,-151 689.5284,-151 689.5284,-187"/>
<text text-anchor="middle" x="632" y="-164.8" font-family="Times,serif" font-size="14.00" fill="#000000">SchedulerModule</text>
</g>
<!-- SchedulerComponent&#45;&gt;SchedulerModule -->
<g id="edge1" class="edge">
<title>SchedulerComponent&#45;&gt;SchedulerModule</title>
<path fill="none" stroke="#000000" d="M1281,-122.2921C1281,-144.2057 1281,-178 1281,-178 1281,-178 699.5944,-178 699.5944,-178"/>
<polygon fill="#000000" stroke="#000000" points="699.5945,-174.5001 689.5944,-178 699.5944,-181.5001 699.5945,-174.5001"/>
</g>
<!-- SchedulerFeatureGanttComponent -->
<g id="node2" class="node">
<title>SchedulerFeatureGanttComponent</title>
<polygon fill="#ffffb3" stroke="#000000" points="1194.3904,-122 983.6096,-122 983.6096,-86 1194.3904,-86 1194.3904,-122"/>
<text text-anchor="middle" x="1089" y="-99.8" font-family="Times,serif" font-size="14.00" fill="#000000">SchedulerFeatureGanttComponent</text>
</g>
<!-- SchedulerFeatureGanttComponent&#45;&gt;SchedulerModule -->
<g id="edge2" class="edge">
<title>SchedulerFeatureGanttComponent&#45;&gt;SchedulerModule</title>
<path fill="none" stroke="#000000" d="M1089,-122.1061C1089,-141.3391 1089,-169 1089,-169 1089,-169 699.8794,-169 699.8794,-169"/>
<polygon fill="#000000" stroke="#000000" points="699.8794,-165.5001 689.8794,-169 699.8793,-172.5001 699.8794,-165.5001"/>
</g>
<!-- SchedulerFeatureTableComponent -->
<g id="node3" class="node">
<title>SchedulerFeatureTableComponent</title>
<polygon fill="#ffffb3" stroke="#000000" points="965.6601,-122 754.3399,-122 754.3399,-86 965.6601,-86 965.6601,-122"/>
<text text-anchor="middle" x="860" y="-99.8" font-family="Times,serif" font-size="14.00" fill="#000000">SchedulerFeatureTableComponent</text>
</g>
<!-- SchedulerFeatureTableComponent&#45;&gt;SchedulerModule -->
<g id="edge3" class="edge">
<title>SchedulerFeatureTableComponent&#45;&gt;SchedulerModule</title>
<path fill="none" stroke="#000000" d="M860,-122.027C860,-138.3976 860,-160 860,-160 860,-160 699.534,-160 699.534,-160"/>
<polygon fill="#000000" stroke="#000000" points="699.5341,-156.5001 689.534,-160 699.534,-163.5001 699.5341,-156.5001"/>
</g>
<!-- SchedulerFeatureViewComponent -->
<g id="node4" class="node">
<title>SchedulerFeatureViewComponent</title>
<polygon fill="#ffffb3" stroke="#000000" points="736.6064,-122 527.3936,-122 527.3936,-86 736.6064,-86 736.6064,-122"/>
<text text-anchor="middle" x="632" y="-99.8" font-family="Times,serif" font-size="14.00" fill="#000000">SchedulerFeatureViewComponent</text>
</g>
<!-- SchedulerFeatureViewComponent&#45;&gt;SchedulerModule -->
<g id="edge4" class="edge">
<title>SchedulerFeatureViewComponent&#45;&gt;SchedulerModule</title>
<path fill="none" stroke="#000000" d="M632,-122.1061C632,-122.1061 632,-140.991 632,-140.991"/>
<polygon fill="#000000" stroke="#000000" points="628.5001,-140.9909 632,-150.991 635.5001,-140.991 628.5001,-140.9909"/>
</g>
<!-- SchedulerFeaturesComponent -->
<g id="node5" class="node">
<title>SchedulerFeaturesComponent</title>
<polygon fill="#ffffb3" stroke="#000000" points="509.2324,-122 324.7676,-122 324.7676,-86 509.2324,-86 509.2324,-122"/>
<text text-anchor="middle" x="417" y="-99.8" font-family="Times,serif" font-size="14.00" fill="#000000">SchedulerFeaturesComponent</text>
</g>
<!-- SchedulerFeaturesComponent&#45;&gt;SchedulerModule -->
<g id="edge5" class="edge">
<title>SchedulerFeaturesComponent&#45;&gt;SchedulerModule</title>
<path fill="none" stroke="#000000" d="M417,-122.027C417,-138.3976 417,-160 417,-160 417,-160 564.3839,-160 564.3839,-160"/>
<polygon fill="#000000" stroke="#000000" points="564.384,-163.5001 574.3839,-160 564.3839,-156.5001 564.384,-163.5001"/>
</g>
<!-- SchedulerRoutingModule -->
<g id="node7" class="node">
<title>SchedulerRoutingModule</title>
<polygon fill="#8dd3c7" stroke="#000000" points="301.1456,-122 298.1456,-126 277.1456,-126 274.1456,-122 140.8544,-122 140.8544,-86 301.1456,-86 301.1456,-122"/>
<text text-anchor="middle" x="221" y="-99.8" font-family="Times,serif" font-size="14.00" fill="#000000">SchedulerRoutingModule</text>
</g>
<!-- SchedulerRoutingModule&#45;&gt;SchedulerModule -->
<g id="edge6" class="edge">
<title>SchedulerRoutingModule&#45;&gt;SchedulerModule</title>
<path fill="none" stroke="#000000" d="M221,-122.1061C221,-141.3391 221,-169 221,-169 221,-169 564.4195,-169 564.4195,-169"/>
<polygon fill="#000000" stroke="#000000" points="564.4195,-172.5001 574.4195,-169 564.4194,-165.5001 564.4195,-172.5001"/>
</g>
<!-- SharedModule -->
<g id="node8" class="node">
<title>SharedModule</title>
<polygon fill="#8dd3c7" stroke="#000000" points="122.4231,-122 119.4231,-126 98.4231,-126 95.4231,-122 23.5769,-122 23.5769,-86 122.4231,-86 122.4231,-122"/>
<text text-anchor="middle" x="73" y="-99.8" font-family="Times,serif" font-size="14.00" fill="#000000">SharedModule</text>
</g>
<!-- SharedModule&#45;&gt;SchedulerModule -->
<g id="edge7" class="edge">
<title>SharedModule&#45;&gt;SchedulerModule</title>
<path fill="none" stroke="#000000" d="M73,-122.2921C73,-144.2057 73,-178 73,-178 73,-178 564.2826,-178 564.2826,-178"/>
<polygon fill="#000000" stroke="#000000" points="564.2827,-181.5001 574.2826,-178 564.2826,-174.5001 564.2827,-181.5001"/>
</g>
</g>
</svg>
