<?xml version="1.0" encoding="UTF-8" standalone="no"?>
<!DOCTYPE svg PUBLIC "-//W3C//DTD SVG 1.1//EN"
 "http://www.w3.org/Graphics/SVG/1.1/DTD/svg11.dtd">
<!-- Generated by graphviz version 2.40.1 (20161225.0304)
 -->
<!-- Title: dependencies Pages: 1 -->
<svg width="664pt" height="211pt"
 viewBox="0.00 0.00 664.00 211.00" xmlns="http://www.w3.org/2000/svg" xmlns:xlink="http://www.w3.org/1999/xlink">
<g id="graph0" class="graph" transform="scale(1 1) rotate(0) translate(4 207)">
<title>dependencies</title>
<polygon fill="#ffffff" stroke="transparent" points="-4,4 -4,-207 660,-207 660,4 -4,4"/>
<text text-anchor="start" x="307.0091" y="-42.4" font-family="sans-serif" font-weight="bold" font-size="14.00" fill="#000000">Legend</text>
<polygon fill="#ffffb3" stroke="transparent" points="94,-10 94,-30 114,-30 114,-10 94,-10"/>
<text text-anchor="start" x="117.629" y="-15.4" font-family="sans-serif" font-size="14.00" fill="#000000"> &#160;Declarations</text>
<polygon fill="#8dd3c7" stroke="transparent" points="207,-10 207,-30 227,-30 227,-10 207,-10"/>
<text text-anchor="start" x="230.7251" y="-15.4" font-family="sans-serif" font-size="14.00" fill="#000000"> &#160;Module</text>
<polygon fill="#80b1d3" stroke="transparent" points="293,-10 293,-30 313,-30 313,-10 293,-10"/>
<text text-anchor="start" x="316.7812" y="-15.4" font-family="sans-serif" font-size="14.00" fill="#000000"> &#160;Bootstrap</text>
<polygon fill="#fdb462" stroke="transparent" points="390,-10 390,-30 410,-30 410,-10 390,-10"/>
<text text-anchor="start" x="413.6732" y="-15.4" font-family="sans-serif" font-size="14.00" fill="#000000"> &#160;Providers</text>
<polygon fill="#fb8072" stroke="transparent" points="486,-10 486,-30 506,-30 506,-10 486,-10"/>
<text text-anchor="start" x="509.7258" y="-15.4" font-family="sans-serif" font-size="14.00" fill="#000000"> &#160;Exports</text>
<g id="clust1" class="cluster">
<title>cluster_RegisterModule</title>
<polygon fill="none" stroke="#000000" stroke-dasharray="1,5" points="8,-70 8,-195 648,-195 648,-70 8,-70"/>
</g>
<g id="clust2" class="cluster">
<title>cluster_RegisterModule_declarations</title>
<polygon fill="none" stroke="#000000" points="308,-78 308,-130 640,-130 640,-78 308,-78"/>
</g>
<g id="clust5" class="cluster">
<title>cluster_RegisterModule_imports</title>
<polygon fill="none" stroke="#000000" points="16,-78 16,-130 300,-130 300,-78 16,-78"/>
</g>
<!-- RegisterComponent -->
<g id="node1" class="node">
<title>RegisterComponent</title>
<polygon fill="#ffffb3" stroke="#000000" points="631.9846,-122 504.0154,-122 504.0154,-86 631.9846,-86 631.9846,-122"/>
<text text-anchor="middle" x="568" y="-99.8" font-family="Times,serif" font-size="14.00" fill="#000000">RegisterComponent</text>
</g>
<!-- RegisterModule -->
<g id="node3" class="node">
<title>RegisterModule</title>
<polygon fill="#8dd3c7" stroke="#000000" points="361.2022,-187 358.2022,-191 337.2022,-191 334.2022,-187 254.7978,-187 254.7978,-151 361.2022,-151 361.2022,-187"/>
<text text-anchor="middle" x="308" y="-164.8" font-family="Times,serif" font-size="14.00" fill="#000000">RegisterModule</text>
</g>
<!-- RegisterComponent&#45;&gt;RegisterModule -->
<g id="edge1" class="edge">
<title>RegisterComponent&#45;&gt;RegisterModule</title>
<path fill="none" stroke="#000000" d="M568,-122.1061C568,-141.3391 568,-169 568,-169 568,-169 371.2423,-169 371.2423,-169"/>
<polygon fill="#000000" stroke="#000000" points="371.2423,-165.5001 361.2423,-169 371.2422,-172.5001 371.2423,-165.5001"/>
</g>
<!-- RegisterFeatureComponent -->
<g id="node2" class="node">
<title>RegisterFeatureComponent</title>
<polygon fill="#ffffb3" stroke="#000000" points="485.9622,-122 316.0378,-122 316.0378,-86 485.9622,-86 485.9622,-122"/>
<text text-anchor="middle" x="401" y="-99.8" font-family="Times,serif" font-size="14.00" fill="#000000">RegisterFeatureComponent</text>
</g>
<!-- RegisterFeatureComponent&#45;&gt;RegisterModule -->
<g id="edge2" class="edge">
<title>RegisterFeatureComponent&#45;&gt;RegisterModule</title>
<path fill="none" stroke="#000000" d="M338.56,-122.1061C338.56,-122.1061 338.56,-140.991 338.56,-140.991"/>
<polygon fill="#000000" stroke="#000000" points="335.06,-140.9909 338.56,-150.991 342.06,-140.991 335.06,-140.9909"/>
</g>
<!-- RegisterRoutingModule -->
<g id="node4" class="node">
<title>RegisterRoutingModule</title>
<polygon fill="#8dd3c7" stroke="#000000" points="291.8201,-122 288.8201,-126 267.8201,-126 264.8201,-122 140.1799,-122 140.1799,-86 291.8201,-86 291.8201,-122"/>
<text text-anchor="middle" x="216" y="-99.8" font-family="Times,serif" font-size="14.00" fill="#000000">RegisterRoutingModule</text>
</g>
<!-- RegisterRoutingModule&#45;&gt;RegisterModule -->
<g id="edge3" class="edge">
<title>RegisterRoutingModule&#45;&gt;RegisterModule</title>
<path fill="none" stroke="#000000" d="M273.2795,-122.1061C273.2795,-122.1061 273.2795,-140.991 273.2795,-140.991"/>
<polygon fill="#000000" stroke="#000000" points="269.7795,-140.9909 273.2795,-150.991 276.7795,-140.991 269.7795,-140.9909"/>
</g>
<!-- SharedModule -->
<g id="node5" class="node">
<title>SharedModule</title>
<polygon fill="#8dd3c7" stroke="#000000" points="122.4231,-122 119.4231,-126 98.4231,-126 95.4231,-122 23.5769,-122 23.5769,-86 122.4231,-86 122.4231,-122"/>
<text text-anchor="middle" x="73" y="-99.8" font-family="Times,serif" font-size="14.00" fill="#000000">SharedModule</text>
</g>
<!-- SharedModule&#45;&gt;RegisterModule -->
<g id="edge4" class="edge">
<title>SharedModule&#45;&gt;RegisterModule</title>
<path fill="none" stroke="#000000" d="M73,-122.1061C73,-141.3391 73,-169 73,-169 73,-169 244.6749,-169 244.6749,-169"/>
<polygon fill="#000000" stroke="#000000" points="244.6749,-172.5001 254.6749,-169 244.6748,-165.5001 244.6749,-172.5001"/>
</g>
</g>
</svg>
