<?xml version="1.0" encoding="UTF-8" standalone="no"?>
<!DOCTYPE svg PUBLIC "-//W3C//DTD SVG 1.1//EN"
 "http://www.w3.org/Graphics/SVG/1.1/DTD/svg11.dtd">
<!-- Generated by graphviz version 2.40.1 (20161225.0304)
 -->
<!-- Title: dependencies Pages: 1 -->
<svg width="5230pt" height="211pt"
 viewBox="0.00 0.00 5230.00 211.00" xmlns="http://www.w3.org/2000/svg" xmlns:xlink="http://www.w3.org/1999/xlink">
<g id="graph0" class="graph" transform="scale(1 1) rotate(0) translate(4 207)">
<title>dependencies</title>
<polygon fill="#ffffff" stroke="transparent" points="-4,4 -4,-207 5226,-207 5226,4 -4,4"/>
<text text-anchor="start" x="2590.0091" y="-42.4" font-family="sans-serif" font-weight="bold" font-size="14.00" fill="#000000">Legend</text>
<polygon fill="#ffffb3" stroke="transparent" points="2377,-10 2377,-30 2397,-30 2397,-10 2377,-10"/>
<text text-anchor="start" x="2400.629" y="-15.4" font-family="sans-serif" font-size="14.00" fill="#000000"> &#160;Declarations</text>
<polygon fill="#8dd3c7" stroke="transparent" points="2490,-10 2490,-30 2510,-30 2510,-10 2490,-10"/>
<text text-anchor="start" x="2513.7251" y="-15.4" font-family="sans-serif" font-size="14.00" fill="#000000"> &#160;Module</text>
<polygon fill="#80b1d3" stroke="transparent" points="2576,-10 2576,-30 2596,-30 2596,-10 2576,-10"/>
<text text-anchor="start" x="2599.7812" y="-15.4" font-family="sans-serif" font-size="14.00" fill="#000000"> &#160;Bootstrap</text>
<polygon fill="#fdb462" stroke="transparent" points="2673,-10 2673,-30 2693,-30 2693,-10 2673,-10"/>
<text text-anchor="start" x="2696.6732" y="-15.4" font-family="sans-serif" font-size="14.00" fill="#000000"> &#160;Providers</text>
<polygon fill="#fb8072" stroke="transparent" points="2769,-10 2769,-30 2789,-30 2789,-10 2769,-10"/>
<text text-anchor="start" x="2792.7258" y="-15.4" font-family="sans-serif" font-size="14.00" fill="#000000"> &#160;Exports</text>
<g id="clust1" class="cluster">
<title>cluster_CoreModule</title>
<polygon fill="none" stroke="#000000" stroke-dasharray="1,5" points="8,-70 8,-195 5214,-195 5214,-70 8,-70"/>
</g>
<g id="clust3" class="cluster">
<title>cluster_CoreModule_imports</title>
<polygon fill="none" stroke="#000000" points="4964,-78 4964,-130 5206,-130 5206,-78 4964,-78"/>
</g>
<g id="clust6" class="cluster">
<title>cluster_CoreModule_providers</title>
<polygon fill="none" stroke="#000000" points="16,-78 16,-130 4956,-130 4956,-78 16,-78"/>
</g>
<!-- ProtectedModule -->
<g id="node1" class="node">
<title>ProtectedModule</title>
<polygon fill="#8dd3c7" stroke="#000000" points="5198.4188,-122 5195.4188,-126 5174.4188,-126 5171.4188,-122 5085.5812,-122 5085.5812,-86 5198.4188,-86 5198.4188,-122"/>
<text text-anchor="middle" x="5142" y="-99.8" font-family="Times,serif" font-size="14.00" fill="#000000">ProtectedModule</text>
</g>
<!-- CoreModule -->
<g id="node3" class="node">
<title>CoreModule</title>
<polygon fill="#8dd3c7" stroke="#000000" points="2727.2619,-187 2724.2619,-191 2703.2619,-191 2700.2619,-187 2640.7381,-187 2640.7381,-151 2727.2619,-151 2727.2619,-187"/>
<text text-anchor="middle" x="2684" y="-164.8" font-family="Times,serif" font-size="14.00" fill="#000000">CoreModule</text>
</g>
<!-- ProtectedModule&#45;&gt;CoreModule -->
<g id="edge1" class="edge">
<title>ProtectedModule&#45;&gt;CoreModule</title>
<path fill="none" stroke="#000000" d="M5142,-122.3802C5142,-146.2785 5142,-185 5142,-185 5142,-185 2737.4445,-185 2737.4445,-185"/>
<polygon fill="#000000" stroke="#000000" points="2737.4445,-181.5001 2727.4445,-185 2737.4445,-188.5001 2737.4445,-181.5001"/>
</g>
<!-- PublicModule -->
<g id="node2" class="node">
<title>PublicModule</title>
<polygon fill="#8dd3c7" stroke="#000000" points="5067.8288,-122 5064.8288,-126 5043.8288,-126 5040.8288,-122 4972.1712,-122 4972.1712,-86 5067.8288,-86 5067.8288,-122"/>
<text text-anchor="middle" x="5020" y="-99.8" font-family="Times,serif" font-size="14.00" fill="#000000">PublicModule</text>
</g>
<!-- PublicModule&#45;&gt;CoreModule -->
<g id="edge2" class="edge">
<title>PublicModule&#45;&gt;CoreModule</title>
<path fill="none" stroke="#000000" d="M5020,-122.3228C5020,-145.6602 5020,-183 5020,-183 5020,-183 2737.2991,-183 2737.2991,-183"/>
<polygon fill="#000000" stroke="#000000" points="2737.2992,-179.5001 2727.2991,-183 2737.2991,-186.5001 2737.2992,-179.5001"/>
</g>
<!-- AnalysisService -->
<g id="node4" class="node">
<title>AnalysisService</title>
<ellipse fill="#fdb462" stroke="#000000" cx="4874" cy="-104" rx="73.5714" ry="18"/>
<text text-anchor="middle" x="4874" y="-99.8" font-family="Times,serif" font-size="14.00" fill="#000000">AnalysisService</text>
</g>
<!-- AnalysisService&#45;&gt;CoreModule -->
<g id="edge3" class="edge">
<title>AnalysisService&#45;&gt;CoreModule</title>
<path fill="none" stroke="#000000" d="M4874,-122.0109C4874,-144.4852 4874,-180 4874,-180 4874,-180 2737.7461,-180 2737.7461,-180"/>
<polygon fill="#000000" stroke="#000000" points="2737.7461,-176.5001 2727.7461,-180 2737.746,-183.5001 2737.7461,-176.5001"/>
</g>
<!-- ApplicationsAccessesService -->
<g id="node5" class="node">
<title>ApplicationsAccessesService</title>
<ellipse fill="#fdb462" stroke="#000000" cx="4657" cy="-104" rx="124.952" ry="18"/>
<text text-anchor="middle" x="4657" y="-99.8" font-family="Times,serif" font-size="14.00" fill="#000000">ApplicationsAccessesService</text>
</g>
<!-- ApplicationsAccessesService&#45;&gt;CoreModule -->
<g id="edge4" class="edge">
<title>ApplicationsAccessesService&#45;&gt;CoreModule</title>
<path fill="none" stroke="#000000" d="M4657,-122.2921C4657,-144.2057 4657,-178 4657,-178 4657,-178 2737.5083,-178 2737.5083,-178"/>
<polygon fill="#000000" stroke="#000000" points="2737.5084,-174.5001 2727.5083,-178 2737.5083,-181.5001 2737.5084,-174.5001"/>
</g>
<!-- AuthenticationService -->
<g id="node6" class="node">
<title>AuthenticationService</title>
<ellipse fill="#fdb462" stroke="#000000" cx="4417" cy="-104" rx="97.2683" ry="18"/>
<text text-anchor="middle" x="4417" y="-99.8" font-family="Times,serif" font-size="14.00" fill="#000000">AuthenticationService</text>
</g>
<!-- AuthenticationService&#45;&gt;CoreModule -->
<g id="edge5" class="edge">
<title>AuthenticationService&#45;&gt;CoreModule</title>
<path fill="none" stroke="#000000" d="M4417,-122.2843C4417,-143.3211 4417,-175 4417,-175 4417,-175 2737.2708,-175 2737.2708,-175"/>
<polygon fill="#000000" stroke="#000000" points="2737.2708,-171.5001 2727.2708,-175 2737.2708,-178.5001 2737.2708,-171.5001"/>
</g>
<!-- CacheService -->
<g id="node7" class="node">
<title>CacheService</title>
<ellipse fill="#fdb462" stroke="#000000" cx="4237" cy="-104" rx="64.2417" ry="18"/>
<text text-anchor="middle" x="4237" y="-99.8" font-family="Times,serif" font-size="14.00" fill="#000000">CacheService</text>
</g>
<!-- CacheService&#45;&gt;CoreModule -->
<g id="edge6" class="edge">
<title>CacheService&#45;&gt;CoreModule</title>
<path fill="none" stroke="#000000" d="M4237,-122.1289C4237,-142.5724 4237,-173 4237,-173 4237,-173 2737.5659,-173 2737.5659,-173"/>
<polygon fill="#000000" stroke="#000000" points="2737.566,-169.5001 2727.5659,-173 2737.5659,-176.5001 2737.566,-169.5001"/>
</g>
<!-- ClientsService -->
<g id="node8" class="node">
<title>ClientsService</title>
<ellipse fill="#fdb462" stroke="#000000" cx="4088" cy="-104" rx="67.2081" ry="18"/>
<text text-anchor="middle" x="4088" y="-99.8" font-family="Times,serif" font-size="14.00" fill="#000000">ClientsService</text>
</g>
<!-- ClientsService&#45;&gt;CoreModule -->
<g id="edge7" class="edge">
<title>ClientsService&#45;&gt;CoreModule</title>
<path fill="none" stroke="#000000" d="M4088,-122.308C4088,-142.1455 4088,-171 4088,-171 4088,-171 2737.5585,-171 2737.5585,-171"/>
<polygon fill="#000000" stroke="#000000" points="2737.5585,-167.5001 2727.5585,-171 2737.5585,-174.5001 2737.5585,-167.5001"/>
</g>
<!-- CountriesService -->
<g id="node9" class="node">
<title>CountriesService</title>
<ellipse fill="#fdb462" stroke="#000000" cx="3925" cy="-104" rx="77.5839" ry="18"/>
<text text-anchor="middle" x="3925" y="-99.8" font-family="Times,serif" font-size="14.00" fill="#000000">CountriesService</text>
</g>
<!-- CountriesService&#45;&gt;CoreModule -->
<g id="edge8" class="edge">
<title>CountriesService&#45;&gt;CoreModule</title>
<path fill="none" stroke="#000000" d="M3925,-122.1686C3925,-141.0898 3925,-168 3925,-168 3925,-168 2737.4402,-168 2737.4402,-168"/>
<polygon fill="#000000" stroke="#000000" points="2737.4402,-164.5001 2727.4402,-168 2737.4401,-171.5001 2737.4402,-164.5001"/>
</g>
<!-- ErrorService -->
<g id="node10" class="node">
<title>ErrorService</title>
<ellipse fill="#fdb462" stroke="#000000" cx="3769" cy="-104" rx="60.2287" ry="18"/>
<text text-anchor="middle" x="3769" y="-99.8" font-family="Times,serif" font-size="14.00" fill="#000000">ErrorService</text>
</g>
<!-- ErrorService&#45;&gt;CoreModule -->
<g id="edge9" class="edge">
<title>ErrorService&#45;&gt;CoreModule</title>
<path fill="none" stroke="#000000" d="M3769,-122.2667C3769,-140.5552 3769,-166 3769,-166 3769,-166 2737.5394,-166 2737.5394,-166"/>
<polygon fill="#000000" stroke="#000000" points="2737.5394,-162.5001 2727.5394,-166 2737.5393,-169.5001 2737.5394,-162.5001"/>
</g>
<!-- EventsService -->
<g id="node11" class="node">
<title>EventsService</title>
<ellipse fill="#fdb462" stroke="#000000" cx="3624" cy="-104" rx="66.0492" ry="18"/>
<text text-anchor="middle" x="3624" y="-99.8" font-family="Times,serif" font-size="14.00" fill="#000000">EventsService</text>
</g>
<!-- EventsService&#45;&gt;CoreModule -->
<g id="edge10" class="edge">
<title>EventsService&#45;&gt;CoreModule</title>
<path fill="none" stroke="#000000" d="M3624,-122.0225C3624,-139.3734 3624,-163 3624,-163 3624,-163 2737.4529,-163 2737.4529,-163"/>
<polygon fill="#000000" stroke="#000000" points="2737.453,-159.5001 2727.4529,-163 2737.4529,-166.5001 2737.453,-159.5001"/>
</g>
<!-- ExplanationsService -->
<g id="node12" class="node">
<title>ExplanationsService</title>
<ellipse fill="#fdb462" stroke="#000000" cx="3449" cy="-104" rx="90.3275" ry="18"/>
<text text-anchor="middle" x="3449" y="-99.8" font-family="Times,serif" font-size="14.00" fill="#000000">ExplanationsService</text>
</g>
<!-- ExplanationsService&#45;&gt;CoreModule -->
<g id="edge11" class="edge">
<title>ExplanationsService&#45;&gt;CoreModule</title>
<path fill="none" stroke="#000000" d="M3449,-122.0352C3449,-138.7344 3449,-161 3449,-161 3449,-161 2737.3216,-161 2737.3216,-161"/>
<polygon fill="#000000" stroke="#000000" points="2737.3216,-157.5001 2727.3216,-161 2737.3216,-164.5001 2737.3216,-157.5001"/>
</g>
<!-- ForecastersService -->
<g id="node13" class="node">
<title>ForecastersService</title>
<ellipse fill="#fdb462" stroke="#000000" cx="3257" cy="-104" rx="83.9199" ry="18"/>
<text text-anchor="middle" x="3257" y="-99.8" font-family="Times,serif" font-size="14.00" fill="#000000">ForecastersService</text>
</g>
<!-- ForecastersService&#45;&gt;CoreModule -->
<g id="edge12" class="edge">
<title>ForecastersService&#45;&gt;CoreModule</title>
<path fill="none" stroke="#000000" d="M3257,-122.0091C3257,-138.0494 3257,-159 3257,-159 3257,-159 2737.5384,-159 2737.5384,-159"/>
<polygon fill="#000000" stroke="#000000" points="2737.5385,-155.5001 2727.5384,-159 2737.5384,-162.5001 2737.5385,-155.5001"/>
</g>
<!-- LoaderService -->
<g id="node14" class="node">
<title>LoaderService</title>
<ellipse fill="#fdb462" stroke="#000000" cx="3088" cy="-104" rx="67.1734" ry="18"/>
<text text-anchor="middle" x="3088" y="-99.8" font-family="Times,serif" font-size="14.00" fill="#000000">LoaderService</text>
</g>
<!-- LoaderService&#45;&gt;CoreModule -->
<g id="edge13" class="edge">
<title>LoaderService&#45;&gt;CoreModule</title>
<path fill="none" stroke="#000000" d="M3088,-122.1871C3088,-137.1824 3088,-156 3088,-156 3088,-156 2737.6189,-156 2737.6189,-156"/>
<polygon fill="#000000" stroke="#000000" points="2737.619,-152.5001 2727.6189,-156 2737.6189,-159.5001 2737.619,-152.5001"/>
</g>
<!-- LogsService -->
<g id="node15" class="node">
<title>LogsService</title>
<ellipse fill="#fdb462" stroke="#000000" cx="2943" cy="-104" rx="59.1083" ry="18"/>
<text text-anchor="middle" x="2943" y="-99.8" font-family="Times,serif" font-size="14.00" fill="#000000">LogsService</text>
</g>
<!-- LogsService&#45;&gt;CoreModule -->
<g id="edge14" class="edge">
<title>LogsService&#45;&gt;CoreModule</title>
<path fill="none" stroke="#000000" d="M2943,-122.0511C2943,-136.373 2943,-154 2943,-154 2943,-154 2737.3508,-154 2737.3508,-154"/>
<polygon fill="#000000" stroke="#000000" points="2737.3508,-150.5001 2727.3508,-154 2737.3507,-157.5001 2737.3508,-150.5001"/>
</g>
<!-- NotificationsService -->
<g id="node16" class="node">
<title>NotificationsService</title>
<ellipse fill="#fdb462" stroke="#000000" cx="2775" cy="-104" rx="90.3217" ry="18"/>
<text text-anchor="middle" x="2775" y="-99.8" font-family="Times,serif" font-size="14.00" fill="#000000">NotificationsService</text>
</g>
<!-- NotificationsService&#45;&gt;CoreModule -->
<g id="edge15" class="edge">
<title>NotificationsService&#45;&gt;CoreModule</title>
<path fill="none" stroke="#000000" d="M2705.985,-115.922C2705.985,-115.922 2705.985,-140.7669 2705.985,-140.7669"/>
<polygon fill="#000000" stroke="#000000" points="2702.4851,-140.7669 2705.985,-150.7669 2709.4851,-140.7669 2702.4851,-140.7669"/>
</g>
<!-- ProductsService -->
<g id="node17" class="node">
<title>ProductsService</title>
<ellipse fill="#fdb462" stroke="#000000" cx="2593" cy="-104" rx="73.5734" ry="18"/>
<text text-anchor="middle" x="2593" y="-99.8" font-family="Times,serif" font-size="14.00" fill="#000000">ProductsService</text>
</g>
<!-- ProductsService&#45;&gt;CoreModule -->
<g id="edge16" class="edge">
<title>ProductsService&#45;&gt;CoreModule</title>
<path fill="none" stroke="#000000" d="M2653.7028,-114.4434C2653.7028,-114.4434 2653.7028,-140.9681 2653.7028,-140.9681"/>
<polygon fill="#000000" stroke="#000000" points="2650.2029,-140.968 2653.7028,-150.9681 2657.2029,-140.9681 2650.2029,-140.968"/>
</g>
<!-- ProfilerService -->
<g id="node18" class="node">
<title>ProfilerService</title>
<ellipse fill="#fdb462" stroke="#000000" cx="2432" cy="-104" rx="69.4742" ry="18"/>
<text text-anchor="middle" x="2432" y="-99.8" font-family="Times,serif" font-size="14.00" fill="#000000">ProfilerService</text>
</g>
<!-- ProfilerService&#45;&gt;CoreModule -->
<g id="edge17" class="edge">
<title>ProfilerService&#45;&gt;CoreModule</title>
<path fill="none" stroke="#000000" d="M2432,-122.0511C2432,-136.373 2432,-154 2432,-154 2432,-154 2630.6797,-154 2630.6797,-154"/>
<polygon fill="#000000" stroke="#000000" points="2630.6797,-157.5001 2640.6797,-154 2630.6796,-150.5001 2630.6797,-157.5001"/>
</g>
<!-- ProjectsService -->
<g id="node19" class="node">
<title>ProjectsService</title>
<ellipse fill="#fdb462" stroke="#000000" cx="2273" cy="-104" rx="71.1998" ry="18"/>
<text text-anchor="middle" x="2273" y="-99.8" font-family="Times,serif" font-size="14.00" fill="#000000">ProjectsService</text>
</g>
<!-- ProjectsService&#45;&gt;CoreModule -->
<g id="edge18" class="edge">
<title>ProjectsService&#45;&gt;CoreModule</title>
<path fill="none" stroke="#000000" d="M2273,-122.1871C2273,-137.1824 2273,-156 2273,-156 2273,-156 2630.4049,-156 2630.4049,-156"/>
<polygon fill="#000000" stroke="#000000" points="2630.4049,-159.5001 2640.4049,-156 2630.4049,-152.5001 2630.4049,-159.5001"/>
</g>
<!-- PushNotificationService -->
<g id="node20" class="node">
<title>PushNotificationService</title>
<ellipse fill="#fdb462" stroke="#000000" cx="2078" cy="-104" rx="105.3721" ry="18"/>
<text text-anchor="middle" x="2078" y="-99.8" font-family="Times,serif" font-size="14.00" fill="#000000">PushNotificationService</text>
</g>
<!-- PushNotificationService&#45;&gt;CoreModule -->
<g id="edge19" class="edge">
<title>PushNotificationService&#45;&gt;CoreModule</title>
<path fill="none" stroke="#000000" d="M2078,-122.0091C2078,-138.0494 2078,-159 2078,-159 2078,-159 2630.418,-159 2630.418,-159"/>
<polygon fill="#000000" stroke="#000000" points="2630.418,-162.5001 2640.418,-159 2630.4179,-155.5001 2630.418,-162.5001"/>
</g>
<!-- RegionsService -->
<g id="node21" class="node">
<title>RegionsService</title>
<ellipse fill="#fdb462" stroke="#000000" cx="1883" cy="-104" rx="71.7873" ry="18"/>
<text text-anchor="middle" x="1883" y="-99.8" font-family="Times,serif" font-size="14.00" fill="#000000">RegionsService</text>
</g>
<!-- RegionsService&#45;&gt;CoreModule -->
<g id="edge20" class="edge">
<title>RegionsService&#45;&gt;CoreModule</title>
<path fill="none" stroke="#000000" d="M1883,-122.0352C1883,-138.7344 1883,-161 1883,-161 1883,-161 2630.6508,-161 2630.6508,-161"/>
<polygon fill="#000000" stroke="#000000" points="2630.6508,-164.5001 2640.6508,-161 2630.6507,-157.5001 2630.6508,-164.5001"/>
</g>
<!-- RequestsService -->
<g id="node22" class="node">
<title>RequestsService</title>
<ellipse fill="#fdb462" stroke="#000000" cx="1718" cy="-104" rx="74.7149" ry="18"/>
<text text-anchor="middle" x="1718" y="-99.8" font-family="Times,serif" font-size="14.00" fill="#000000">RequestsService</text>
</g>
<!-- RequestsService&#45;&gt;CoreModule -->
<g id="edge21" class="edge">
<title>RequestsService&#45;&gt;CoreModule</title>
<path fill="none" stroke="#000000" d="M1718,-122.0225C1718,-139.3734 1718,-163 1718,-163 1718,-163 2630.6163,-163 2630.6163,-163"/>
<polygon fill="#000000" stroke="#000000" points="2630.6164,-166.5001 2640.6163,-163 2630.6163,-159.5001 2630.6164,-166.5001"/>
</g>
<!-- SchedulersService -->
<g id="node23" class="node">
<title>SchedulersService</title>
<ellipse fill="#fdb462" stroke="#000000" cx="1543" cy="-104" rx="82.2198" ry="18"/>
<text text-anchor="middle" x="1543" y="-99.8" font-family="Times,serif" font-size="14.00" fill="#000000">SchedulersService</text>
</g>
<!-- SchedulersService&#45;&gt;CoreModule -->
<g id="edge22" class="edge">
<title>SchedulersService&#45;&gt;CoreModule</title>
<path fill="none" stroke="#000000" d="M1543,-122.2667C1543,-140.5552 1543,-166 1543,-166 1543,-166 2630.6647,-166 2630.6647,-166"/>
<polygon fill="#000000" stroke="#000000" points="2630.6648,-169.5001 2640.6647,-166 2630.6647,-162.5001 2630.6648,-169.5001"/>
</g>
<!-- TitlePageService -->
<g id="node24" class="node">
<title>TitlePageService</title>
<ellipse fill="#fdb462" stroke="#000000" cx="1366" cy="-104" rx="76.9985" ry="18"/>
<text text-anchor="middle" x="1366" y="-99.8" font-family="Times,serif" font-size="14.00" fill="#000000">TitlePageService</text>
</g>
<!-- TitlePageService&#45;&gt;CoreModule -->
<g id="edge23" class="edge">
<title>TitlePageService&#45;&gt;CoreModule</title>
<path fill="none" stroke="#000000" d="M1366,-122.1686C1366,-141.0898 1366,-168 1366,-168 1366,-168 2630.5232,-168 2630.5232,-168"/>
<polygon fill="#000000" stroke="#000000" points="2630.5232,-171.5001 2640.5232,-168 2630.5231,-164.5001 2630.5232,-171.5001"/>
</g>
<!-- UploadService -->
<g id="node25" class="node">
<title>UploadService</title>
<ellipse fill="#fdb462" stroke="#000000" cx="1203" cy="-104" rx="68.3382" ry="18"/>
<text text-anchor="middle" x="1203" y="-99.8" font-family="Times,serif" font-size="14.00" fill="#000000">UploadService</text>
</g>
<!-- UploadService&#45;&gt;CoreModule -->
<g id="edge24" class="edge">
<title>UploadService&#45;&gt;CoreModule</title>
<path fill="none" stroke="#000000" d="M1203,-122.308C1203,-142.1455 1203,-171 1203,-171 1203,-171 2630.4785,-171 2630.4785,-171"/>
<polygon fill="#000000" stroke="#000000" points="2630.4786,-174.5001 2640.4785,-171 2630.4785,-167.5001 2630.4786,-174.5001"/>
</g>
<!-- UserSharingService -->
<g id="node26" class="node">
<title>UserSharingService</title>
<ellipse fill="#fdb462" stroke="#000000" cx="1028" cy="-104" rx="88.0191" ry="18"/>
<text text-anchor="middle" x="1028" y="-99.8" font-family="Times,serif" font-size="14.00" fill="#000000">UserSharingService</text>
</g>
<!-- UserSharingService&#45;&gt;CoreModule -->
<g id="edge25" class="edge">
<title>UserSharingService&#45;&gt;CoreModule</title>
<path fill="none" stroke="#000000" d="M1028,-122.1289C1028,-142.5724 1028,-173 1028,-173 1028,-173 2630.5572,-173 2630.5572,-173"/>
<polygon fill="#000000" stroke="#000000" points="2630.5573,-176.5001 2640.5572,-173 2630.5572,-169.5001 2630.5573,-176.5001"/>
</g>
<!-- UsersService -->
<g id="node27" class="node">
<title>UsersService</title>
<ellipse fill="#fdb462" stroke="#000000" cx="860" cy="-104" rx="61.9519" ry="18"/>
<text text-anchor="middle" x="860" y="-99.8" font-family="Times,serif" font-size="14.00" fill="#000000">UsersService</text>
</g>
<!-- UsersService&#45;&gt;CoreModule -->
<g id="edge26" class="edge">
<title>UsersService&#45;&gt;CoreModule</title>
<path fill="none" stroke="#000000" d="M860,-122.2843C860,-143.3211 860,-175 860,-175 860,-175 2630.7112,-175 2630.7112,-175"/>
<polygon fill="#000000" stroke="#000000" points="2630.7112,-178.5001 2640.7112,-175 2630.7111,-171.5001 2630.7112,-178.5001"/>
</g>
<!-- VesselsService -->
<g id="node28" class="node">
<title>VesselsService</title>
<ellipse fill="#fdb462" stroke="#000000" cx="711" cy="-104" rx="69.4742" ry="18"/>
<text text-anchor="middle" x="711" y="-99.8" font-family="Times,serif" font-size="14.00" fill="#000000">VesselsService</text>
</g>
<!-- VesselsService&#45;&gt;CoreModule -->
<g id="edge27" class="edge">
<title>VesselsService&#45;&gt;CoreModule</title>
<path fill="none" stroke="#000000" d="M711,-122.2921C711,-144.2057 711,-178 711,-178 711,-178 2630.4917,-178 2630.4917,-178"/>
<polygon fill="#000000" stroke="#000000" points="2630.4917,-181.5001 2640.4917,-178 2630.4916,-174.5001 2630.4917,-181.5001"/>
</g>
<!-- VesselsTypesService -->
<g id="node29" class="node">
<title>VesselsTypesService</title>
<ellipse fill="#fdb462" stroke="#000000" cx="530" cy="-104" rx="93.1716" ry="18"/>
<text text-anchor="middle" x="530" y="-99.8" font-family="Times,serif" font-size="14.00" fill="#000000">VesselsTypesService</text>
</g>
<!-- VesselsTypesService&#45;&gt;CoreModule -->
<g id="edge28" class="edge">
<title>VesselsTypesService&#45;&gt;CoreModule</title>
<path fill="none" stroke="#000000" d="M530,-122.0109C530,-144.4852 530,-180 530,-180 530,-180 2630.4863,-180 2630.4863,-180"/>
<polygon fill="#000000" stroke="#000000" points="2630.4863,-183.5001 2640.4863,-180 2630.4862,-176.5001 2630.4863,-183.5001"/>
</g>
<!-- WeatherService -->
<g id="node30" class="node">
<title>WeatherService</title>
<ellipse fill="#fdb462" stroke="#000000" cx="346" cy="-104" rx="72.8889" ry="18"/>
<text text-anchor="middle" x="346" y="-99.8" font-family="Times,serif" font-size="14.00" fill="#000000">WeatherService</text>
</g>
<!-- WeatherService&#45;&gt;CoreModule -->
<g id="edge29" class="edge">
<title>WeatherService&#45;&gt;CoreModule</title>
<path fill="none" stroke="#000000" d="M346,-122.3228C346,-145.6602 346,-183 346,-183 346,-183 2630.6638,-183 2630.6638,-183"/>
<polygon fill="#000000" stroke="#000000" points="2630.6638,-186.5001 2640.6638,-183 2630.6638,-179.5001 2630.6638,-186.5001"/>
</g>
<!-- WebsocketsServiceService -->
<g id="node31" class="node">
<title>WebsocketsServiceService</title>
<ellipse fill="#fdb462" stroke="#000000" cx="140" cy="-104" rx="115.7058" ry="18"/>
<text text-anchor="middle" x="140" y="-99.8" font-family="Times,serif" font-size="14.00" fill="#000000">WebsocketsServiceService</text>
</g>
<!-- WebsocketsServiceService&#45;&gt;CoreModule -->
<g id="edge30" class="edge">
<title>WebsocketsServiceService&#45;&gt;CoreModule</title>
<path fill="none" stroke="#000000" d="M140,-122.3802C140,-146.2785 140,-185 140,-185 140,-185 2630.6458,-185 2630.6458,-185"/>
<polygon fill="#000000" stroke="#000000" points="2630.6459,-188.5001 2640.6458,-185 2630.6458,-181.5001 2630.6459,-188.5001"/>
</g>
</g>
</svg>
