<?xml version="1.0" encoding="UTF-8" standalone="no"?>
<!DOCTYPE svg PUBLIC "-//W3C//DTD SVG 1.1//EN"
 "http://www.w3.org/Graphics/SVG/1.1/DTD/svg11.dtd">
<!-- Generated by graphviz version 2.40.1 (20161225.0304)
 -->
<!-- Title: dependencies Pages: 1 -->
<svg width="504pt" height="211pt"
 viewBox="0.00 0.00 504.00 211.00" xmlns="http://www.w3.org/2000/svg" xmlns:xlink="http://www.w3.org/1999/xlink">
<g id="graph0" class="graph" transform="scale(1 1) rotate(0) translate(4 207)">
<title>dependencies</title>
<polygon fill="#ffffff" stroke="transparent" points="-4,4 -4,-207 500,-207 500,4 -4,4"/>
<text text-anchor="start" x="227.0091" y="-42.4" font-family="sans-serif" font-weight="bold" font-size="14.00" fill="#000000">Legend</text>
<polygon fill="#ffffb3" stroke="transparent" points="14,-10 14,-30 34,-30 34,-10 14,-10"/>
<text text-anchor="start" x="37.629" y="-15.4" font-family="sans-serif" font-size="14.00" fill="#000000"> &#160;Declarations</text>
<polygon fill="#8dd3c7" stroke="transparent" points="127,-10 127,-30 147,-30 147,-10 127,-10"/>
<text text-anchor="start" x="150.7251" y="-15.4" font-family="sans-serif" font-size="14.00" fill="#000000"> &#160;Module</text>
<polygon fill="#80b1d3" stroke="transparent" points="213,-10 213,-30 233,-30 233,-10 213,-10"/>
<text text-anchor="start" x="236.7812" y="-15.4" font-family="sans-serif" font-size="14.00" fill="#000000"> &#160;Bootstrap</text>
<polygon fill="#fdb462" stroke="transparent" points="310,-10 310,-30 330,-30 330,-10 310,-10"/>
<text text-anchor="start" x="333.6732" y="-15.4" font-family="sans-serif" font-size="14.00" fill="#000000"> &#160;Providers</text>
<polygon fill="#fb8072" stroke="transparent" points="406,-10 406,-30 426,-30 426,-10 406,-10"/>
<text text-anchor="start" x="429.7258" y="-15.4" font-family="sans-serif" font-size="14.00" fill="#000000"> &#160;Exports</text>
<g id="clust1" class="cluster">
<title>cluster_AdminClientsModule</title>
<polygon fill="none" stroke="#000000" stroke-dasharray="1,5" points="9,-70 9,-195 487,-195 487,-70 9,-70"/>
</g>
<g id="clust2" class="cluster">
<title>cluster_AdminClientsModule_declarations</title>
<polygon fill="none" stroke="#000000" points="341,-78 341,-130 479,-130 479,-78 341,-78"/>
</g>
<g id="clust4" class="cluster">
<title>cluster_AdminClientsModule_imports</title>
<polygon fill="none" stroke="#000000" points="17,-78 17,-130 333,-130 333,-78 17,-78"/>
</g>
<!-- ClientsComponent -->
<g id="node1" class="node">
<title>ClientsComponent</title>
<polygon fill="#ffffb3" stroke="#000000" points="470.5,-122 349.5,-122 349.5,-86 470.5,-86 470.5,-122"/>
<text text-anchor="middle" x="410" y="-99.8" font-family="Times,serif" font-size="14.00" fill="#000000">ClientsComponent</text>
</g>
<!-- AdminClientsModule -->
<g id="node2" class="node">
<title>AdminClientsModule</title>
<polygon fill="#8dd3c7" stroke="#000000" points="302.1052,-187 299.1052,-191 278.1052,-191 275.1052,-187 163.8948,-187 163.8948,-151 302.1052,-151 302.1052,-187"/>
<text text-anchor="middle" x="233" y="-164.8" font-family="Times,serif" font-size="14.00" fill="#000000">AdminClientsModule</text>
</g>
<!-- ClientsComponent&#45;&gt;AdminClientsModule -->
<g id="edge1" class="edge">
<title>ClientsComponent&#45;&gt;AdminClientsModule</title>
<path fill="none" stroke="#000000" d="M410,-122.1061C410,-141.3391 410,-169 410,-169 410,-169 312.1933,-169 312.1933,-169"/>
<polygon fill="#000000" stroke="#000000" points="312.1933,-165.5001 302.1933,-169 312.1933,-172.5001 312.1933,-165.5001"/>
</g>
<!-- AdminClientsRoutingModule -->
<g id="node3" class="node">
<title>AdminClientsRoutingModule</title>
<polygon fill="#8dd3c7" stroke="#000000" points="324.7231,-122 321.7231,-126 300.7231,-126 297.7231,-122 141.2769,-122 141.2769,-86 324.7231,-86 324.7231,-122"/>
<text text-anchor="middle" x="233" y="-99.8" font-family="Times,serif" font-size="14.00" fill="#000000">AdminClientsRoutingModule</text>
</g>
<!-- AdminClientsRoutingModule&#45;&gt;AdminClientsModule -->
<g id="edge2" class="edge">
<title>AdminClientsRoutingModule&#45;&gt;AdminClientsModule</title>
<path fill="none" stroke="#000000" d="M233,-122.1061C233,-122.1061 233,-140.991 233,-140.991"/>
<polygon fill="#000000" stroke="#000000" points="229.5001,-140.9909 233,-150.991 236.5001,-140.991 229.5001,-140.9909"/>
</g>
<!-- SharedModule -->
<g id="node4" class="node">
<title>SharedModule</title>
<polygon fill="#8dd3c7" stroke="#000000" points="123.4231,-122 120.4231,-126 99.4231,-126 96.4231,-122 24.5769,-122 24.5769,-86 123.4231,-86 123.4231,-122"/>
<text text-anchor="middle" x="74" y="-99.8" font-family="Times,serif" font-size="14.00" fill="#000000">SharedModule</text>
</g>
<!-- SharedModule&#45;&gt;AdminClientsModule -->
<g id="edge3" class="edge">
<title>SharedModule&#45;&gt;AdminClientsModule</title>
<path fill="none" stroke="#000000" d="M74,-122.1061C74,-141.3391 74,-169 74,-169 74,-169 153.7228,-169 153.7228,-169"/>
<polygon fill="#000000" stroke="#000000" points="153.7229,-172.5001 163.7228,-169 153.7228,-165.5001 153.7229,-172.5001"/>
</g>
</g>
</svg>
