<?xml version="1.0" encoding="UTF-8" standalone="no"?>
<!DOCTYPE svg PUBLIC "-//W3C//DTD SVG 1.1//EN"
 "http://www.w3.org/Graphics/SVG/1.1/DTD/svg11.dtd">
<!-- Generated by graphviz version 2.40.1 (20161225.0304)
 -->
<!-- Title: dependencies Pages: 1 -->
<svg width="2093pt" height="211pt"
 viewBox="0.00 0.00 2093.00 211.00" xmlns="http://www.w3.org/2000/svg" xmlns:xlink="http://www.w3.org/1999/xlink">
<g id="graph0" class="graph" transform="scale(1 1) rotate(0) translate(4 207)">
<title>dependencies</title>
<polygon fill="#ffffff" stroke="transparent" points="-4,4 -4,-207 2089,-207 2089,4 -4,4"/>
<text text-anchor="start" x="1021.5091" y="-42.4" font-family="sans-serif" font-weight="bold" font-size="14.00" fill="#000000">Legend</text>
<polygon fill="#ffffb3" stroke="transparent" points="808.5,-10 808.5,-30 828.5,-30 828.5,-10 808.5,-10"/>
<text text-anchor="start" x="832.129" y="-15.4" font-family="sans-serif" font-size="14.00" fill="#000000"> &#160;Declarations</text>
<polygon fill="#8dd3c7" stroke="transparent" points="921.5,-10 921.5,-30 941.5,-30 941.5,-10 921.5,-10"/>
<text text-anchor="start" x="945.2251" y="-15.4" font-family="sans-serif" font-size="14.00" fill="#000000"> &#160;Module</text>
<polygon fill="#80b1d3" stroke="transparent" points="1007.5,-10 1007.5,-30 1027.5,-30 1027.5,-10 1007.5,-10"/>
<text text-anchor="start" x="1031.2812" y="-15.4" font-family="sans-serif" font-size="14.00" fill="#000000"> &#160;Bootstrap</text>
<polygon fill="#fdb462" stroke="transparent" points="1104.5,-10 1104.5,-30 1124.5,-30 1124.5,-10 1104.5,-10"/>
<text text-anchor="start" x="1128.1732" y="-15.4" font-family="sans-serif" font-size="14.00" fill="#000000"> &#160;Providers</text>
<polygon fill="#fb8072" stroke="transparent" points="1200.5,-10 1200.5,-30 1220.5,-30 1220.5,-10 1200.5,-10"/>
<text text-anchor="start" x="1224.2258" y="-15.4" font-family="sans-serif" font-size="14.00" fill="#000000"> &#160;Exports</text>
<g id="clust1" class="cluster">
<title>cluster_DashboardModule</title>
<polygon fill="none" stroke="#000000" stroke-dasharray="1,5" points="8,-70 8,-195 2077,-195 2077,-70 8,-70"/>
</g>
<g id="clust2" class="cluster">
<title>cluster_DashboardModule_declarations</title>
<polygon fill="none" stroke="#000000" points="322,-78 322,-130 2069,-130 2069,-78 322,-78"/>
</g>
<g id="clust10" class="cluster">
<title>cluster_DashboardModule_imports</title>
<polygon fill="none" stroke="#000000" points="16,-78 16,-130 314,-130 314,-78 16,-78"/>
</g>
<!-- DashboardComponent -->
<g id="node1" class="node">
<title>DashboardComponent</title>
<polygon fill="#ffffb3" stroke="#000000" points="2060.9734,-122 1919.0266,-122 1919.0266,-86 2060.9734,-86 2060.9734,-122"/>
<text text-anchor="middle" x="1990" y="-99.8" font-family="Times,serif" font-size="14.00" fill="#000000">DashboardComponent</text>
</g>
<!-- DashboardModule -->
<g id="node8" class="node">
<title>DashboardModule</title>
<polygon fill="#8dd3c7" stroke="#000000" points="955.191,-187 952.191,-191 931.191,-191 928.191,-187 834.809,-187 834.809,-151 955.191,-151 955.191,-187"/>
<text text-anchor="middle" x="895" y="-164.8" font-family="Times,serif" font-size="14.00" fill="#000000">DashboardModule</text>
</g>
<!-- DashboardComponent&#45;&gt;DashboardModule -->
<g id="edge1" class="edge">
<title>DashboardComponent&#45;&gt;DashboardModule</title>
<path fill="none" stroke="#000000" d="M1990,-122.0109C1990,-144.4852 1990,-180 1990,-180 1990,-180 965.4317,-180 965.4317,-180"/>
<polygon fill="#000000" stroke="#000000" points="965.4317,-176.5001 955.4317,-180 965.4317,-183.5001 965.4317,-176.5001"/>
</g>
<!-- DashboardFeatureProjectCardComponent -->
<g id="node2" class="node">
<title>DashboardFeatureProjectCardComponent</title>
<polygon fill="#ffffb3" stroke="#000000" points="1901.3165,-122 1650.6835,-122 1650.6835,-86 1901.3165,-86 1901.3165,-122"/>
<text text-anchor="middle" x="1776" y="-99.8" font-family="Times,serif" font-size="14.00" fill="#000000">DashboardFeatureProjectCardComponent</text>
</g>
<!-- DashboardFeatureProjectCardComponent&#45;&gt;DashboardModule -->
<g id="edge2" class="edge">
<title>DashboardFeatureProjectCardComponent&#45;&gt;DashboardModule</title>
<path fill="none" stroke="#000000" d="M1776,-122.1289C1776,-142.5724 1776,-173 1776,-173 1776,-173 965.208,-173 965.208,-173"/>
<polygon fill="#000000" stroke="#000000" points="965.208,-169.5001 955.208,-173 965.2079,-176.5001 965.208,-169.5001"/>
</g>
<!-- DashboardFeatureProjectProductComponent -->
<g id="node3" class="node">
<title>DashboardFeatureProjectProductComponent</title>
<polygon fill="#ffffb3" stroke="#000000" points="1632.653,-122 1365.347,-122 1365.347,-86 1632.653,-86 1632.653,-122"/>
<text text-anchor="middle" x="1499" y="-99.8" font-family="Times,serif" font-size="14.00" fill="#000000">DashboardFeatureProjectProductComponent</text>
</g>
<!-- DashboardFeatureProjectProductComponent&#45;&gt;DashboardModule -->
<g id="edge3" class="edge">
<title>DashboardFeatureProjectProductComponent&#45;&gt;DashboardModule</title>
<path fill="none" stroke="#000000" d="M1499,-122.2667C1499,-140.5552 1499,-166 1499,-166 1499,-166 965.122,-166 965.122,-166"/>
<polygon fill="#000000" stroke="#000000" points="965.122,-162.5001 955.122,-166 965.122,-169.5001 965.122,-162.5001"/>
</g>
<!-- DashboardFeatureProjectProgressbarComponent -->
<g id="node4" class="node">
<title>DashboardFeatureProjectProgressbarComponent</title>
<polygon fill="#ffffb3" stroke="#000000" points="1347.6876,-122 1058.3124,-122 1058.3124,-86 1347.6876,-86 1347.6876,-122"/>
<text text-anchor="middle" x="1203" y="-99.8" font-family="Times,serif" font-size="14.00" fill="#000000">DashboardFeatureProjectProgressbarComponent</text>
</g>
<!-- DashboardFeatureProjectProgressbarComponent&#45;&gt;DashboardModule -->
<g id="edge4" class="edge">
<title>DashboardFeatureProjectProgressbarComponent&#45;&gt;DashboardModule</title>
<path fill="none" stroke="#000000" d="M1203,-122.0091C1203,-138.0494 1203,-159 1203,-159 1203,-159 965.1167,-159 965.1167,-159"/>
<polygon fill="#000000" stroke="#000000" points="965.1167,-155.5001 955.1167,-159 965.1166,-162.5001 965.1167,-155.5001"/>
</g>
<!-- DashboardFeatureProjectUpatedDateComponent -->
<g id="node5" class="node">
<title>DashboardFeatureProjectUpatedDateComponent</title>
<polygon fill="#ffffb3" stroke="#000000" points="1040.4578,-122 749.5422,-122 749.5422,-86 1040.4578,-86 1040.4578,-122"/>
<text text-anchor="middle" x="895" y="-99.8" font-family="Times,serif" font-size="14.00" fill="#000000">DashboardFeatureProjectUpatedDateComponent</text>
</g>
<!-- DashboardFeatureProjectUpatedDateComponent&#45;&gt;DashboardModule -->
<g id="edge5" class="edge">
<title>DashboardFeatureProjectUpatedDateComponent&#45;&gt;DashboardModule</title>
<path fill="none" stroke="#000000" d="M895,-122.1061C895,-122.1061 895,-140.991 895,-140.991"/>
<polygon fill="#000000" stroke="#000000" points="891.5001,-140.9909 895,-150.991 898.5001,-140.991 891.5001,-140.9909"/>
</g>
<!-- DashboardFeaturesComponent -->
<g id="node6" class="node">
<title>DashboardFeaturesComponent</title>
<polygon fill="#ffffb3" stroke="#000000" points="731.896,-122 542.104,-122 542.104,-86 731.896,-86 731.896,-122"/>
<text text-anchor="middle" x="637" y="-99.8" font-family="Times,serif" font-size="14.00" fill="#000000">DashboardFeaturesComponent</text>
</g>
<!-- DashboardFeaturesComponent&#45;&gt;DashboardModule -->
<g id="edge6" class="edge">
<title>DashboardFeaturesComponent&#45;&gt;DashboardModule</title>
<path fill="none" stroke="#000000" d="M637,-122.0091C637,-138.0494 637,-159 637,-159 637,-159 824.8361,-159 824.8361,-159"/>
<polygon fill="#000000" stroke="#000000" points="824.8361,-162.5001 834.8361,-159 824.836,-155.5001 824.8361,-162.5001"/>
</g>
<!-- DashboardMapCardComponent -->
<g id="node7" class="node">
<title>DashboardMapCardComponent</title>
<polygon fill="#ffffb3" stroke="#000000" points="524.3445,-122 329.6555,-122 329.6555,-86 524.3445,-86 524.3445,-122"/>
<text text-anchor="middle" x="427" y="-99.8" font-family="Times,serif" font-size="14.00" fill="#000000">DashboardMapCardComponent</text>
</g>
<!-- DashboardMapCardComponent&#45;&gt;DashboardModule -->
<g id="edge7" class="edge">
<title>DashboardMapCardComponent&#45;&gt;DashboardModule</title>
<path fill="none" stroke="#000000" d="M427,-122.2667C427,-140.5552 427,-166 427,-166 427,-166 824.7753,-166 824.7753,-166"/>
<polygon fill="#000000" stroke="#000000" points="824.7753,-169.5001 834.7753,-166 824.7752,-162.5001 824.7753,-169.5001"/>
</g>
<!-- DashboardRoutingModule -->
<g id="node9" class="node">
<title>DashboardRoutingModule</title>
<polygon fill="#8dd3c7" stroke="#000000" points="305.8089,-122 302.8089,-126 281.8089,-126 278.8089,-122 140.1911,-122 140.1911,-86 305.8089,-86 305.8089,-122"/>
<text text-anchor="middle" x="223" y="-99.8" font-family="Times,serif" font-size="14.00" fill="#000000">DashboardRoutingModule</text>
</g>
<!-- DashboardRoutingModule&#45;&gt;DashboardModule -->
<g id="edge8" class="edge">
<title>DashboardRoutingModule&#45;&gt;DashboardModule</title>
<path fill="none" stroke="#000000" d="M223,-122.1289C223,-142.5724 223,-173 223,-173 223,-173 824.7731,-173 824.7731,-173"/>
<polygon fill="#000000" stroke="#000000" points="824.7731,-176.5001 834.7731,-173 824.7731,-169.5001 824.7731,-176.5001"/>
</g>
<!-- SharedModule -->
<g id="node10" class="node">
<title>SharedModule</title>
<polygon fill="#8dd3c7" stroke="#000000" points="122.4231,-122 119.4231,-126 98.4231,-126 95.4231,-122 23.5769,-122 23.5769,-86 122.4231,-86 122.4231,-122"/>
<text text-anchor="middle" x="73" y="-99.8" font-family="Times,serif" font-size="14.00" fill="#000000">SharedModule</text>
</g>
<!-- SharedModule&#45;&gt;DashboardModule -->
<g id="edge9" class="edge">
<title>SharedModule&#45;&gt;DashboardModule</title>
<path fill="none" stroke="#000000" d="M73,-122.0109C73,-144.4852 73,-180 73,-180 73,-180 824.8894,-180 824.8894,-180"/>
<polygon fill="#000000" stroke="#000000" points="824.8894,-183.5001 834.8894,-180 824.8894,-176.5001 824.8894,-183.5001"/>
</g>
</g>
</svg>
