<?xml version="1.0" encoding="utf-8"?>
<!-- Generator: Adobe Illustrator 22.1.0, SVG Export Plug-In . SVG Version: 6.00 Build 0)  -->
<svg version="1.1" xmlns="http://www.w3.org/2000/svg" xmlns:xlink="http://www.w3.org/1999/xlink" x="0px" y="0px"
	 viewBox="0 0 1399.4 696.9" style="enable-background:new 0 0 1399.4 696.9;" xml:space="preserve">
<style type="text/css">
	.st0{display:none;}
	.st1{display:inline;}
	.st2{fill:#F4E8C6;stroke:#C7B299;stroke-width:4;stroke-miterlimit:10;}
	.st3{fill:none;stroke:#C7B299;stroke-width:4;stroke-miterlimit:10;}
	.st4{fill:none;stroke:#808080;stroke-width:4;stroke-miterlimit:10;}
	.st5{fill:none;stroke:#6D6E70;stroke-width:5;stroke-miterlimit:10;}
	.st6{fill:#E6E6E6;stroke:#CCCCCC;stroke-width:5;stroke-miterlimit:10;}
	.st7{fill:#C7B299;stroke:#C7B299;stroke-width:2;stroke-miterlimit:10;}
	.st8{fill:#C7B299;stroke:#C7B299;stroke-miterlimit:10;}
	.st9{fill:#C7B299;}
	.st10{fill:none;stroke:#000000;stroke-width:6;stroke-miterlimit:10;}
	.st11{fill:#99272D;stroke:#7C272D;stroke-width:10;stroke-miterlimit:10;}
	.st12{fill:#B3B3B3;stroke:#808080;stroke-width:10;stroke-miterlimit:10;}
	.st13{fill:#FFFFFF;}
	.st14{fill:none;stroke:#808080;stroke-width:5;stroke-miterlimit:10;}
	.st15{fill:none;stroke:#000000;stroke-width:5;stroke-miterlimit:10;}
	.st16{fill:#C1272D;}
	.st17{fill:#B3B3B3;stroke:#808080;stroke-width:5;stroke-miterlimit:10;}
	.st18{fill:#B3B3B3;stroke:#999999;stroke-width:10;stroke-miterlimit:10;}
	.st19{display:none;fill:#7C6699;}
	.st20{fill:#A6DAF6;}
	.st21{fill:none;}
	.st22{display:none;fill:none;stroke:#C6BDD4;stroke-width:10;stroke-miterlimit:10;}
	.st23{fill:none;stroke:#808080;stroke-width:10;stroke-miterlimit:10;}
	.st24{fill:#B3B3B3;stroke:#808080;stroke-width:4;stroke-miterlimit:10;}
	.st25{fill:#EE2842;stroke:#C1272D;stroke-width:10;stroke-miterlimit:10;}
	.st26{fill:#F4E8C6;stroke:#C7B299;stroke-width:10;stroke-miterlimit:10;}
	.st27{fill:#B3B3B3;}
	.st28{fill:#808080;}
	.st29{fill:#E6E6E6;stroke:#CCCCCC;stroke-width:4;stroke-miterlimit:10;}
	.st30{fill:#99272D;stroke:#7C272D;stroke-width:4;stroke-miterlimit:10;}
	.st31{fill:#604382;}
</style>
<g id="Layer_1" class="st0">
	<g id="Layer_3">
	</g>
	<g id="Layer_1_1_" class="st1">
	</g>
	<g id="Layer_2_1_" class="st1">
		<path class="st2" d="M251.9,364.9V355c0-1.2,0.9-2.1,2.1-2.1h63.4c1.1,0,2,0.9,2,2v10H251.9z"/>
		<path class="st2" d="M216.4,364.9v-133h-16c-1.1,0-2-0.9-2-2v-18c0-1.1,0.9-2,2-2h21c1.1,0,2,0.9,2,2v20.5h21.9
			c1.2,0,2.1,0.9,2.1,2.1v130.4H216.4z"/>
		<path class="st2" d="M136.4,213.9l35-1l103-22.5l-205.9-1c-1.1,0-2.1,0.9-2.1,2v2.8c0,1,0.6,1.8,1.6,2.1L136.4,213.9z"/>
		<line class="st3" x1="20.6" y1="201.7" x2="136.4" y2="213.9"/>
		<line class="st3" x1="166.9" y1="213.4" x2="198.4" y2="217.9"/>
		<circle class="st2" cx="263.9" cy="183.4" r="19.5"/>
		<line class="st3" x1="223.4" y1="209.9" x2="249.2" y2="195.9"/>
		<path class="st2" d="M248.4,205.9H281c1.1,0,1.9-0.9,1.9-1.9v-2.5c0-1.1-0.9-1.9-1.9-1.9h-32.6c-1.1,0-2,0.9-2,2v2.3
			C246.4,205,247.3,205.9,248.4,205.9z"/>
		<line class="st4" x1="-47.1" y1="240.4" x2="-47.1" y2="262.4"/>
		<line class="st4" x1="-34.2" y1="234.9" x2="-34.2" y2="267.4"/>
		<path class="st2" d="M-47.9,241.1l79.1-70c0.2-0.1,0.4-0.2,0.6-0.2h41.3c0.7,0,1.1,0.7,0.8,1.3l-8.2,19.2
			c-0.1,0.3-0.5,0.6-0.8,0.6H52.7c-0.1,0-0.2,0-0.3,0.1l-10.6,3.8c-0.2,0.1-0.4,0.1-0.5,0l-7.4-1.8c-0.2-0.1-0.5,0-0.7,0.1
			l-79.9,48.5C-47.8,243.2-48.8,241.8-47.9,241.1z"/>
		<line class="st5" x1="704.2" y1="193" x2="704.2" y2="221.4"/>
		<line class="st5" x1="713.9" y1="203.4" x2="713.9" y2="237.4"/>
		<ellipse class="st6" cx="1010.4" cy="131.9" rx="16" ry="17"/>
		<polygon class="st7" points="1175.4,277.9 1175.4,203.9 1178.4,203.9 1178.4,279.9 		"/>
		<rect x="1225.4" y="206.9" class="st8" width="4" height="86"/>
		<polygon class="st9" points="1296.4,206.9 1264.4,297.9 1269.4,297.9 1301.4,202.9 		"/>
		<polygon class="st9" points="1315.4,206.9 1274.4,295.9 1278.4,295.9 1321.4,204.9 		"/>
		<rect x="1256.4" y="229.9" class="st9" width="113" height="3"/>
		<rect x="1256.4" y="215.9" class="st9" width="113" height="3"/>
		<polyline class="st7" points="1263.6,208.9 1263.4,297.9 1265.7,297.9 1265.7,206.9 1263.6,208.9 		"/>
		<path class="st2" d="M1004.9,209.9l-0.5-21.7h-6.8c-0.1,0-0.2-0.1-0.2-0.2v-4.7c0-0.1,0-0.1,0.1-0.1h6.9v-31.8
			c0-0.3-0.2-0.5-0.5-0.5h-1.5c-1.1,0-2-0.9-2-2V147c0-0.1,0.1-0.2,0.2-0.2h15.6c0.1,0,0.2,0.1,0.2,0.2v3.6c0,0.1-0.1,0.2-0.2,0.2
			h-7.4c-0.2,0-0.3,0.2-0.3,0.3l0.9,11.4c0.1,0.7,0.6,1.3,1.4,1.3l13.6,0.1c0.1,0,0.1,0,0.1,0.1v2c0,0.5-0.4,0.9-0.9,0.9h-13.2
			l2,16.3h13.8c0.1,0,0.2,0.1,0.2,0.2v4.6c0,0.1-0.1,0.2-0.2,0.2h-12.8l4.5,21.7"/>
		<path class="st2" d="M927.4,325.9v-9c0-1.1,0.9-2,2-2l0,0h7c1.1,0,2,0.9,2,2v9H927.4z"/>
		<path class="st2" d="M916.4,357.9v-31c0-1.1,0.9-2,2-2h48v-70.5c0-0.9-0.6-1.7-1.4-1.9l-18.1-6c-0.9-0.3-1.5-1.1-1.5-2v-7.6
			l-3.9-25.3c-0.1-0.5,0-1,0.3-1.4l3-4.5c0.4-0.5,1-0.9,1.6-0.9h76.9c1.1,0,2-0.9,2-2v-24c0-1.1,0.9-2,2-2h21c1.1,0,2,0.9,2,2v27
			c0,1.1,0.9,2,2,2h67c0.6,0,1.2,0.3,1.6,0.8l4.8,6.4c0.4,0.5,0.5,1.1,0.3,1.8l-5.7,22v5.7c0,0.8-0.5,1.5-1.2,1.9l-13.6,6
			c-0.7,0.3-1.2,1-1.2,1.8v20.7c0,1.1,0.9,2,2,2h103c1.1,0,2,0.9,2,2v80L916.4,357.9z"/>
		<path class="st2" d="M1367.4,208.9h-245c-1.1,0-2-0.9-2-2v-4c0-1.1,0.9-2,2-2h245c1.1,0,2,0.9,2,2v4
			C1369.4,208,1368.5,208.9,1367.4,208.9z"/>
		<path class="st10" d="M888.2,350.9"/>
		<path class="st10" d="M818.6,350.9"/>
		<path class="st11" d="M526.4,461.9h-266c-0.6,0-1.2-0.3-1.6-0.8l-31.4-42.2L526.4,461.9z"/>
		<path class="st12" d="M553.7,364.9c-3.8-11.3-5.8-23.4-5.8-36c0-62.7,50.8-113.5,113.5-113.5s113.5,50.8,113.5,113.5
			c0,7.5-3.1,36-3.1,36"/>
		<rect x="1068.9" y="307.4" class="st13" width="12" height="12"/>
		<path class="st14" d="M818.6,350.9c-14.4-10.7-23.7-27.7-23.7-47c0-32.3,26.2-58.5,58.5-58.5s58.5,26.2,58.5,58.5
			c0,19.3-9.3,36.3-23.7,47"/>
		<line class="st5" x1="547.9" y1="330.4" x2="774.9" y2="330.4"/>
		<path class="st15" d="M553.6,293.2"/>
		<path class="st15" d="M569.2,262.7"/>
		<circle class="st5" cx="660.4" cy="328.9" r="8.5"/>
		<line class="st5" x1="569.2" y1="262.7" x2="651.9" y2="324.4"/>
		<line class="st5" x1="753.6" y1="262.7" x2="667.6" y2="324.4"/>
		<line class="st5" x1="661.9" y1="215.4" x2="661.9" y2="267.4"/>
		<line class="st5" x1="625.9" y1="221.1" x2="657.7" y2="320.4"/>
		<line class="st5" x1="695.9" y1="221.1" x2="663.9" y2="320.4"/>
		<path class="st16" d="M769.4,518.9"/>
		<circle class="st17" cx="853.9" cy="303.4" r="42"/>
		<line class="st5" x1="831.8" y1="249.5" x2="877.9" y2="364.4"/>
		<path class="st18" d="M318.1,229.6c0,0,85.8,132.8,91.8,135.3"/>
		<line class="st5" x1="875" y1="249.5" x2="831.9" y2="358.4"/>
		<line class="st5" x1="894.6" y1="345.4" x2="811.9" y2="262.7"/>
		<line class="st5" x1="894.6" y1="262.7" x2="811.9" y2="345.4"/>
		<line class="st5" x1="800.5" y1="328.9" x2="908.4" y2="283.9"/>
		<line class="st5" x1="906.3" y1="328.9" x2="798.4" y2="283.9"/>
		<path class="st13" d="M1835.4,547.9"/>
		<path class="st19" d="M744.4,804.2l178-308.3h-356C922.4,495.9,883.4,562.9,744.4,804.2z"/>
		<path class="st9" d="M1051.4,176.9"/>
		<polygon class="st20" points="966.4,221.9 970.4,238.9 974.4,238.9 974.4,221.9 		"/>
		<rect x="976.4" y="221.9" class="st20" width="7" height="17"/>
		<rect x="985.4" y="221.9" class="st20" width="7" height="17"/>
		<rect x="994.4" y="221.9" class="st20" width="7" height="17"/>
		<rect x="1003.4" y="221.9" class="st20" width="7" height="17"/>
		<rect x="1012.4" y="221.9" class="st20" width="7" height="17"/>
		<polygon class="st20" points="1110.4,221.9 1106.5,238.9 1102.6,238.9 1102.6,221.9 		"/>
		<rect x="1093.7" y="221.9" class="st20" width="6.9" height="17"/>
		<rect x="1084.9" y="221.9" class="st20" width="6.9" height="17"/>
		<rect x="1076.1" y="221.9" class="st20" width="6.9" height="17"/>
		<rect x="1067.2" y="221.9" class="st20" width="6.9" height="17"/>
		<rect x="1058.4" y="221.9" class="st20" width="6.9" height="17"/>
		<polygon class="st20" points="947.4,217.9 951.4,233.9 955.4,233.9 951.4,217.9 		"/>
		<polygon class="st20" points="952.4,217.9 956.4,233.9 960.4,233.9 956.4,217.9 		"/>
		<polygon class="st20" points="957.4,217.9 961.4,233.9 965.4,233.9 961.4,217.9 		"/>
		<polyline class="st3" points="966.4,252.9 966.4,240.9 960.4,213.9 966.4,204.9 		"/>
		<polygon class="st20" points="1119.4,221.9 1115.4,237.9 1111.4,237.9 1115.4,221.9 		"/>
		<line class="st5" x1="695.9" y1="279.4" x2="726.7" y2="236.1"/>
		<line class="st5" x1="625.9" y1="279.4" x2="593.6" y2="237.9"/>
		<line class="st5" x1="718.9" y1="307.4" x2="769.1" y2="292.9"/>
		<line class="st5" x1="602.9" y1="307.4" x2="553.9" y2="293.4"/>
		<polygon class="st21" points="744.4,804.2 922.4,495.9 566.4,495.9 		"/>
		<path class="st22" d="M746,801.4l174.5-302.3c0.8-1.4-0.2-3.1-1.8-3.1H569.9c-1.6,0-2.6,1.7-1.8,3.1l174.6,302.4
			C743.5,802.6,745.3,802.6,746,801.4z"/>
		<polyline class="st3" points="1050.4,204.9 1050.4,247.2 1058.4,257 1058.4,275.9 1025.4,275.9 1025.4,202.9 		"/>
		<path class="st3" d="M1049.9,176.9"/>
		<polyline class="st3" points="1000.4,96.9 1005.9,96.9 1017.4,96.9 		"/>
		<line class="st3" x1="1006.4" y1="149.9" x2="1006.4" y2="96.9"/>
		<line class="st3" x1="1025.4" y1="252.4" x2="965.9" y2="252.4"/>
		<path class="st3" d="M1025.4,252.4"/>
		<line class="st3" x1="1106.9" y1="252.4" x2="1055" y2="252.4"/>
		<line class="st3" x1="1057.9" y1="273.4" x2="1104.4" y2="273.4"/>
		<path class="st23" d="M459.4,189.9c0,0-46-72-125-18"/>
		<path class="st4" d="M404.1,193l-57.2,7.4L184.4,364.9l89.5-38.5l131.6-130.6C406.6,194.7,405.6,192.8,404.1,193z"/>
		<path class="st4" d="M380.9,189.4v6.4c0,0.2,0,0.3-0.1,0.5l-7.2,28.7c-0.4,1.5-2.2,1.9-3.2,0.8l-23.5-25.3"/>
		<path class="st4" d="M369.7,225l-52.9,7.6c-0.8,0.1-1.2,1.1-0.6,1.7l23.4,24.8c0.4,0.4,0.1,1.1-0.4,1.2l-55.4,6.7
			c-1.3,0.2-1.8,1.7-0.9,2.6l23.4,23.2c0.3,0.3,0.1,0.8-0.3,0.8l-57.9,6.7"/>
		<line class="st4" x1="270.8" y1="327.7" x2="247.9" y2="303.4"/>
		<path class="st4" d="M225.2,347.4l-9.9-11.9c-0.3-0.4-0.1-1,0.4-1.1l55.2-6.9"/>
		<path class="st23" d="M351.4,160.9c0,0,28.2-54.4,76-12.8c1.1,1,1.2,2.7,0.2,3.7l-6.2,6.3"/>
		<path class="st23" d="M402.4,172.9l-60.4,8.6c-1.7,0.2-3.3,1-4.5,2.3l-78.1,79.1"/>
		<line class="st4" x1="383.4" y1="184.9" x2="406.4" y2="195.9"/>
		<line class="st4" x1="376.4" y1="184.9" x2="351" y2="199.9"/>
		<path class="st24" d="M162.1,289.5l4.6-18.6c0.1-0.3,0.3-0.6,0.5-0.9l58.6-53.7c0.6-0.6,1.5-0.6,2.2-0.1l5.9,4.4
			c0.6,0.4,0.8,1.1,0.6,1.8l-3.4,12.9c-0.2,0.6,0,1.2,0.4,1.7l9.1,9.1c0.7,0.7,1.8,0.7,2.4,0l0.6-0.6c0.7-0.7,1.8-0.7,2.4,0
			l15.7,15.7c0.6,0.6,0.7,1.6,0.1,2.3l-7.8,9.6c-0.1,0.1-0.2,0.3-0.3,0.5l-2.7,7.3c-0.1,0.3-0.3,0.5-0.5,0.7L237.3,293
			c-0.3,0.2-0.5,0.5-0.6,0.9l-0.5,2.2c-0.2,0.8-0.9,1.3-1.7,1.3l0,0c-0.4,0-0.8,0.2-1.1,0.4l-8.5,7.5c0,0,0,0-0.1,0.1l-5.7,5.7
			c-0.2,0.2-0.4,0.3-0.7,0.4l-5.2,1.7c-0.3,0.1-0.5,0.2-0.7,0.4l-16.6,17.5c-0.6,0.7-1.7,0.7-2.4,0.1L177,316.5
			c-0.7-0.6-0.8-1.7-0.1-2.4l7.4-8.2c0.3-0.3,0.4-0.7,0.4-1.2v-6c0-1.9-2.3-2.8-3.6-1.4l-5.1,5.6c-0.7,0.7-1.9,0.8-2.5,0L162.4,291
			C162.1,290.7,162,290.1,162.1,289.5z"/>
		<line class="st4" x1="244.4" y1="244.9" x2="184.9" y2="305.4"/>
		<line class="st4" x1="236.9" y1="242.4" x2="182.4" y2="296.9"/>
		<line class="st4" x1="176.4" y1="262.9" x2="195.5" y2="283"/>
		<line class="st4" x1="195.5" y1="244.9" x2="215.1" y2="265.6"/>
		<line class="st4" x1="216.4" y1="225" x2="236.9" y2="244.4"/>
		<line class="st4" x1="229.6" y1="260.7" x2="250.9" y2="281.4"/>
		<line class="st4" x1="215.1" y1="275.2" x2="236.9" y2="297.4"/>
		<line class="st4" x1="204" y1="286.3" x2="223.6" y2="306.7"/>
		<line class="st5" x1="794.9" y1="306.4" x2="911.9" y2="306.4"/>
		<polyline class="st4" points="232.8,240.5 274.4,199.9 299.4,224.9 		"/>
		<polyline class="st4" points="244.4,244.9 293.4,195.9 302.4,186.9 		"/>
		<line class="st4" x1="307.4" y1="209.9" x2="293.4" y2="195.9"/>
		<line class="st4" x1="299.4" y1="189.9" x2="315.6" y2="206"/>
		<line class="st4" x1="261.6" y1="212.4" x2="285.6" y2="236.4"/>
		<line class="st4" x1="270.8" y1="203.4" x2="293.4" y2="225.9"/>
		<line class="st4" x1="247.3" y1="226.3" x2="270.8" y2="251.3"/>
		<line class="st4" x1="259.7" y1="229.6" x2="275.5" y2="246.6"/>
		<line class="st4" x1="153.4" y1="361.9" x2="189.3" y2="327.4"/>
		<polyline class="st4" points="147.4,354.9 157.2,345.7 163.4,339.9 147.4,322.9 141.6,328.7 136.4,333.9 153.4,351.9 		"/>
		<polyline class="st4" points="153.4,318.9 171.4,338.9 157.4,352.9 		"/>
		<line class="st4" x1="185.4" y1="304.9" x2="152.4" y2="338.9"/>
		<line class="st4" x1="141.4" y1="327.9" x2="157.4" y2="344.9"/>
		<polyline class="st4" points="184.4,354.9 326.1,211.3 334.4,202.9 325.4,192.9 		"/>
		<line class="st4" x1="318.2" y1="203.4" x2="326.4" y2="212.9"/>
		<line class="st4" x1="302.4" y1="221.9" x2="308.9" y2="229.6"/>
		<line class="st4" x1="290.9" y1="231" x2="298.9" y2="238.8"/>
		<line class="st4" x1="283.9" y1="238.1" x2="293.4" y2="246.9"/>
		<line class="st4" x1="273.6" y1="249.4" x2="281.1" y2="256.9"/>
		<line class="st4" x1="261.6" y1="264" x2="267.6" y2="270.6"/>
		<line class="st4" x1="255.8" y1="271.1" x2="261.6" y2="277.4"/>
		<line class="st4" x1="338.4" y1="192.9" x2="338.4" y2="207.9"/>
		<line class="st4" x1="343.4" y1="195.9" x2="351" y2="204.8"/>
		<polyline class="st4" points="388.6,174.9 387.6,186.9 380.4,195.9 373,186.9 371.2,177.4 386.4,153.9 		"/>
		<path class="st4" d="M305.4,195.9"/>
		<path class="st4" d="M334.4,167.9"/>
		<path class="st24" d="M305.4,197.9l29-30l16.5-7.5l-3.8-5.1c-1.4-1.8-3.5-3-5.8-3.2l-5.3-0.4c-1.9-0.2-3.9,0.5-5.3,1.8l-7.8,7.2
			c-1.9,1.7-3,4.2-3,6.7v0.4c0,1.7,0.6,3.4,1.6,4.7l3.7,4.9"/>
		<polyline class="st4" points="294.9,192.4 288.9,185.4 278.9,194.4 285.9,202.4 		"/>
		<path class="st4" d="M285.9,187.4l-18.5,2.8c-0.9,0.1-1.6,0.9-1.7,1.8l-2.8,19.2"/>
		<path class="st4" d="M261.4,212.9l-19.8,3.2c-1,0.2-1.8,1-1.8,2l-1,16.5"/>
		<line class="st5" x1="484.1" y1="213.8" x2="636.3" y2="93"/>
		<polygon class="st2" points="478.1,364.9 478.1,334.4 506.7,334.4 561.9,334.4 561.9,364.9 		"/>
		<polygon class="st2" points="507.9,281.4 530.1,281.4 537.9,281.4 537.9,334.4 507.9,334.4 		"/>
		<rect x="530.9" y="258.4" class="st2" width="26" height="23"/>
		<path class="st2" d="M516.9,251.4l89-74l31-67l-2.4-2.4c-0.8-0.8-2.2-0.8-3,0.1L516.9,245.4V251.4z"/>
		<line class="st3" x1="606.6" y1="176" x2="653.1" y2="122.4"/>
		<polyline class="st3" points="590.3,190.4 566.9,233.4 518.4,251.3 		"/>
		<circle class="st2" cx="487.9" cy="232.4" r="19"/>
		<polygon class="st2" points="464.9,251.4 475.9,255.4 506.9,255.4 506.9,249.4 464.9,249.4 		"/>
		<polyline class="st3" points="506.7,234.9 515.2,234.9 525.7,234.9 		"/>
		<polygon class="st2" points="514.7,281.4 507.4,281.4 507.4,234.9 514.4,234.9 		"/>
		<line class="st3" x1="520" y1="248.8" x2="530.9" y2="260.2"/>
		<line class="st3" x1="478.9" y1="255.4" x2="507.4" y2="280.9"/>
		<path class="st2" d="M632.9,94.4l6-6l36,22l39.7,93c0.6,1.3-1.3,2.4-2.1,1.2l-60.6-83.9l-7.5-7.8l-12-5L632.9,94.4z"/>
		<line class="st5" x1="853.3" y1="352.4" x2="853.3" y2="245.4"/>
		<path class="st25" d="M742.4,364.9h-620c-1.1,0-2,0.9-2,2v48c0,1.1,0.9,2,2,2l81-1l314,46h733.5c2.5,0,4.9-0.2,7.4-0.7
			c14-2.7,60.2-13.2,55.1-35.3c-2-9-13-24-38-21c-11,2-27.4,21-33,14c13-32,105-128,92-129c-12.4-1-283.1-0.1-309,0
			c-1.1,0-2,0.9-2,2v31c0,1.1-0.9,2-2,2h-66c-0.6,0-1.2,0.3-1.6,0.8L936,350.1c-0.4,0.5-1,0.8-1.6,0.8h-188c-1.1,0-2,0.9-2,2v10
			C744.4,364,743.5,364.9,742.4,364.9z"/>
		<rect x="1091.9" y="331.4" class="st13" width="12" height="12"/>
		<rect x="1114.4" y="330.9" class="st13" width="12" height="12"/>
		<rect x="1159.9" y="331.4" class="st13" width="12" height="12"/>
		<rect x="1182.4" y="330.9" class="st13" width="12" height="12"/>
		<rect x="1068.9" y="352.4" class="st13" width="12" height="12"/>
		<rect x="1091.9" y="352.4" class="st13" width="12" height="12"/>
		<rect x="1114.4" y="351.9" class="st13" width="12" height="12"/>
		<rect x="1136.9" y="352.4" class="st13" width="12" height="12"/>
		<rect x="1159.9" y="352.4" class="st13" width="12" height="12"/>
		<rect x="1182.4" y="351.9" class="st13" width="12" height="12"/>
		<rect x="979.4" y="341.9" class="st13" width="12" height="12"/>
		<rect x="1091.9" y="307.4" class="st13" width="12" height="12"/>
		<rect x="1114.4" y="306.9" class="st13" width="12" height="12"/>
		<rect x="1136.9" y="307.4" class="st13" width="12" height="12"/>
		<rect x="1159.9" y="307.4" class="st13" width="12" height="12"/>
		<rect x="1182.4" y="306.9" class="st13" width="12" height="12"/>
		<rect x="1002.4" y="341.9" class="st13" width="12" height="12"/>
		<line class="st3" x1="1258.4" y1="217.4" x2="1258.4" y2="231.4"/>
		<line class="st3" x1="1367.4" y1="217.9" x2="1367.4" y2="231.9"/>
		<line class="st3" x1="1269.4" y1="217.4" x2="1269.4" y2="231.4"/>
		<path class="st2" d="M1269.4,231.9"/>
		<path class="st2" d="M1269.4,217.9"/>
		<line class="st3" x1="1280.4" y1="217.9" x2="1280.4" y2="231.9"/>
		<line class="st3" x1="1335.4" y1="217.4" x2="1335.4" y2="231.4"/>
		<line class="st3" x1="1346.4" y1="217.4" x2="1346.4" y2="231.4"/>
		<line class="st3" x1="1357.4" y1="217.9" x2="1357.4" y2="231.9"/>
		<line class="st3" x1="1302.4" y1="217.4" x2="1302.4" y2="231.4"/>
		<line class="st3" x1="1313.4" y1="217.4" x2="1313.4" y2="231.4"/>
		<line class="st3" x1="1324.4" y1="217.9" x2="1324.4" y2="231.9"/>
		<line class="st3" x1="1291.4" y1="216.9" x2="1291.4" y2="230.9"/>
		<path class="st3" d="M1283.4,208.9l24.5,21.5c0.5,0.6,1.5,0.6,2,0l19-19.8c1.9-2,5.1-2,7,0l19.5,20.3"/>
		<line class="st3" x1="965.4" y1="273.4" x2="1024.4" y2="273.4"/>
		<path class="st2" d="M928.4,304.9v10h8v-9l-2.2-4.9c-0.7-1.6-3-1.7-3.8-0.1l-0.7,1.3L928.4,304.9z"/>
		<path class="st2" d="M919.6,299.4l14.1,4c0.3,0.1,0.2,0.5-0.1,0.5h-51.2l-56-2.9c-0.6,0-1-0.5-1-1.1l0,0c0-1.1,0.9-2,2-2H909
			C912.6,297.9,916.1,298.4,919.6,299.4z"/>
	</g>
</g>
<g id="Layer_2">
	<g id="Layer_2_3_">
		<line class="st4" x1="358.6" y1="203.9" x2="358.6" y2="234.7"/>
		<path class="st2" d="M273.5,151.2l232.6,0.9c3,0,4.8,3.3,3.2,5.8l-0.3,0.4L344.2,166l-66.8-8.2
			C277.4,157.7,271.5,155.3,273.5,151.2z"/>
		<path class="st2" d="M359.6,200.5l134.3-27.2c0,0,12-8,13.6-15.6c0-0.2,0.1-0.6,0.2-0.8c0.7-2.6,4.6-1.7,4,0.9l-2.1,10.5
			c-1.2,5.9-5.9,10.5-11.8,11.6l-139.3,25.9c0,0-4-0.3-1.8-3.6C357.3,201.4,358.4,200.7,359.6,200.5z"/>
		<path class="st2" d="M498.6,151.2l17.6-10.4c1.7-1,3.5,1.2,2.1,2.6l-4,4.2c-2.1,2.2-5.1,3.6-8.1,3.6H498.6z"/>
		<polyline class="st2" points="439.1,166 487.8,166 500.1,168.3 		"/>
		<polygon class="st2" points="329.4,166 291.3,172.2 291.3,178.3 367.3,164.9 344.2,166 		"/>
		<path class="st2" d="M298.5,364.3v-35.4l-2.8-22.6v-14h-64.7l-6.8-18.7v18.7h-18.9v-11.5c0-1.8-2.4-2.3-3.2-0.8l-6,12.1h-15.5
			c-1.9,0-3.5,1.6-3.5,3.5l0,0c0,1.9,1.6,3.5,3.5,3.5h50.4v65.1l2.9-40.3l5.5-24.8l32.1,7h9.2l-2.1,4.1l3.8,20.5v35.5L298.5,364.3z"
			/>
		<path class="st2" d="M264.6,158.5l7.5-11.2c3-4.6,9.8-4.5,12.6,0.3l6.6,11v213.6H263L264.6,158.5z"/>
		<line class="st4" x1="387.8" y1="222" x2="387.8" y2="252.8"/>
		<line class="st4" x1="1006.8" y1="155.9" x2="1006.8" y2="191.5"/>
		<line class="st4" x1="1013.6" y1="155.9" x2="1013.6" y2="191.5"/>
		<line class="st4" x1="1023.3" y1="155.5" x2="1023.3" y2="191.1"/>
		<line class="st4" x1="1029.9" y1="155.2" x2="1029.9" y2="190.8"/>
		<path class="st4" d="M921.7,274l3.7-8.1c4.8-10.8,20.3-10.4,24.5,0.7l2.9,7.5v67.5"/>
		<path class="st24" d="M92.6,337.5h47.8c1.3,0,2.3-1,2.3-2.3v-15.4c0-1.3-1-2.3-2.3-2.3H103L92.6,337.5z"/>
		<path class="st24" d="M95.2,337.5H110v18c0,1.4-1.1,2.6-2.6,2.6h-25c-1,0-1.7-1.1-1.1-2l10.4-17.3C92.2,338,91.3,337.5,95.2,337.5
			z"/>
		<line class="st4" x1="15.6" y1="391.2" x2="150" y2="158.5"/>
		<path class="st24" d="M134.3,262.1c0,0,23.8-11,15.7,4.1c-7.3,13.7-22,7.5-22,7.5"/>
		<circle class="st23" cx="254.9" cy="123" r="70.7"/>
		<line class="st4" x1="254.9" y1="52.3" x2="254.9" y2="193.7"/>
		<line class="st4" x1="211.7" y1="123" x2="328.2" y2="123"/>
		<line class="st4" x1="291.3" y1="60.6" x2="635.5" y2="260.5"/>
		<line class="st4" x1="291.3" y1="62.5" x2="219.8" y2="182.2"/>
		<line class="st4" x1="195.3" y1="157.2" x2="318.2" y2="87.6"/>
		<line class="st4" x1="226" y1="73.1" x2="291.3" y2="185.9"/>
		<line class="st4" x1="315.4" y1="159.6" x2="218.1" y2="101"/>
		<path class="st2" d="M994.3,301.9h148.1l31.4-0.7h34.3l-32.2-47.3c-0.4-0.7-1.2-1-2-1l-177.3,0.7c-1.2,0-2.2,1-2.2,2.2V301.9z"/>
		<path class="st2" d="M1072.8,252.9v-23.4h72.4c0.8,0,1.6,0.3,2,1l16.7,22.4H1072.8z"/>
		<path class="st2" d="M998.8,252.9v-13.4l-11.7-23.9l10.2-7.5l79.4,0.8l6.1,6.7l-3.9,13.9h-3.3c-1.6,0-2.8,1.2-2.8,2.8v20.6H998.8z
			"/>
		<path class="st2" d="M1121.2,229.6l2.8-15.3c0.1-0.6-0.1-1.1-0.6-1.3l-7-4.7l-39.7,0.7l5.6,6.1c0.3,0.3,0.4,0.8,0.3,1.2l-3.7,13.2
			H1121.2z"/>
		<path class="st2" d="M1132.1,229.6l6.3-12.8c0.3-0.6,0.1-1.3-0.4-1.7l-10.1-6.8h-11.5l7.8,5.2l-3,16.1h10.9V229.6z"/>
		<path class="st2" d="M997.7,239.6h-21.5l-10.7-22.9c-0.3-0.6-0.1-1.3,0.4-1.7l10.1-6.8h21.2l-9.4,6.8c-0.6,0.3-0.7,1-0.4,1.7
			L997.7,239.6z"/>
		<path class="st2" d="M1137.2,215.6"/>
		<path class="st2" d="M531.2,364.3V250.2l3-30.1l14.6,5.3c2.1,0.8,3.6,2.9,3.6,5.1v133.6h-21.2V364.3z"/>
		<path class="st2" d="M444.7,221.9v82.8c0,0.8,0.7,1.4,1.4,1.4h3.7v-84.4"/>
		<path class="st2" d="M531.2,226.4l-125-6.3l-16.9,5.1c-2,0.6-4-0.9-4-3v-7.9c0-1.3,0.9-2.4,2.2-2.7l17.1-3.2h120.7
			c3.3,0,6,2.7,6,6v12H531.2z"/>
		<polygon class="st2" points="402.8,208.4 395.9,198.9 413.7,195.7 413.7,208.4 		"/>
		<path class="st2" d="M447.4,364.3v-59.8c0-4,3.2-7.2,7.2-7.2h35.6c3.3,0,6.1,2.8,6.1,6.1v11.7h34.8v4.1h-34.8v45.1H447.4z"/>
		<path class="st26" d="M757.5,365.9V219.5l6.3-16.1c1.3-3.5,6.2-3.5,7.6,0l6.6,16.3v151.2L757.5,365.9z"/>
		<path class="st24" d="M22.8,409.1l134.9-230.8l17.6,11.7l-116,204.8H47.1c-0.7,0-1.1,0.7-0.9,1.3l2.3,6.2c0.3,0.8,0.1,1.8-0.6,2.3
			l-5.7,5.3c-0.9,0.8-2.2,0.7-3-0.2l-3.2-3.9c-0.1-0.2-0.4-0.1-0.4,0.1l0.2,13.1c0.1,4.3-5.5,6-7.9,2.4l-5.3-7.9
			C21.9,412.5,21.9,410.7,22.8,409.1z"/>
		<path class="st24" d="M156.7,160l30.9,16.8c1.1,0.6,1.4,1.9,0.9,3l-4.8,9.2c-0.6,1.2-2,1.7-3.2,1l-31.4-16.3
			c-1.1-0.6-1.6-2-0.9-3.1l5.5-9.9C154.2,159.8,155.6,159.3,156.7,160z"/>
		<polygon class="st24" points="147.1,94.3 152.7,92.4 276.3,372.3 268.1,377.1 		"/>
		<path class="st24" d="M167.5,163l43.1-123.4c0.2-0.6-0.1-1.1-0.7-1.2l-6.6-1.6c-1-0.2-1.7-1.2-1.4-2.3l1.6-7.6
			c0.2-1,1.1-1.7,2.1-1.7h8.3l10.6,6.7c1,0.7,1.3,1.9,0.8,2.9l-3.6,7.2l-30.4,132.8c-0.3,1.4-2,2.2-3.3,1.4l-19.4-10.6
			C167.6,165.3,167.2,164.1,167.5,163z"/>
		<path class="st24" d="M192.8,183.1l60.6-61.5c0.8-0.8,1.9,0.2,1.3,1.1l-54.2,75.8L192.8,183.1z"/>
		<path class="st24" d="M236.1,37.8l-23.3,82l-15.5,24.9l11.6-50.5l25.6-57.1C235,36.2,236.4,36.7,236.1,37.8z"/>
		<path class="st24" d="M36.9,384.9l-19.3-11.5c-1.1-0.7-1.4-2-0.8-3l12.8-21c0.6-1,1.9-1.2,2.8-0.6l18.1,12.7L36.9,384.9z"/>
		<path class="st24" d="M28.4,399.3L6.8,385.5c-0.6-0.3-0.7-1.1-0.2-1.6l1.9-1.9c0.3-0.3,0.9-0.4,1.3-0.2l21.9,11.8L28.4,399.3z"/>
		<path class="st24" d="M37.3,339.8h25.3v-15.7c0-1.2-0.7-2.3-1.8-2.8l-3.2-1.6H37.2c-1.1,0-2.1,0.9-2.1,2.1v15.7
			C35.1,338.8,36.1,339.8,37.3,339.8z"/>
		<path class="st24" d="M58.8,301.9h23.7v-13.6c0-0.9-0.6-1.8-1.3-2.1l-5.9-2.7H58.7c-1.2,0-2.2,1-2.2,2.2v13.8
			C56.5,300.9,57.5,301.9,58.8,301.9z"/>
		<path class="st24" d="M104.8,268.9l-12.6-9c-1-0.8-1.2-2.1-0.6-3.1l8.2-12.6c0.7-1,1.9-1.3,3-0.8l12.9,6.8L104.8,268.9z"/>
		<path class="st24" d="M123.6,236.6l-12,3.5c-0.4,0.1-1,0.1-1.4-0.1l-10.8-5.2c-0.7-0.3-1.1-1-1.1-1.8v-8.3l-3.5-3.7
			c-0.7-0.8-0.8-1.9-0.3-2.8l10.1-17.4c0.7-1.2,2.2-1.6,3.3-0.8l2.9,1.8c0.3,0.2,0.8,0.2,1.1-0.1l2.4-2.1c0.7-0.6,1.7-0.7,2.4-0.2
			l12.2,7.3l7.9,6.7L123.6,236.6z"/>
		<path class="st24" d="M144.9,198.5l-10.9,3.2c-0.6,0.1-1.1,0.1-1.6-0.1l-10-5.5c-0.6-0.3-1-0.9-1-1.6v-7.3l-6.1-8.3l7.2-16
			c0.6-1.2,2.1-1.8,3.2-1.1l6.8,3.7c0.6,0.3,1.3,0.1,1.7-0.4l2.7-4.6c0.7-1,2-1.4,3-0.8l9.5,5.3c1,0.6,0.2,1.8-0.3,2.9l-1.1,4
			c-0.6,1.1-0.1,2.4,1,2.9l8.5,3.6L144.9,198.5z"/>
		<path class="st24" d="M1193.2,252.9l183.2-0.6c2.3,0,3.1,3,1.1,4.1l-2.6,1.4c-1.3,0.7-2.8,1.1-4.2,1.1h-173
			c-2.2,0-4.3-0.8-5.9-2.3l0,0C1190.1,255.4,1191.2,252.9,1193.2,252.9z"/>
		<polygon class="st24" points="1209.2,261.3 1208.1,294.7 1213.6,294.7 1213.6,261.3 		"/>
		<rect x="1273.8" y="259.1" class="st24" width="6.7" height="35.6"/>
		<rect x="1299.4" y="259.1" class="st24" width="5.6" height="35.6"/>
		<rect x="1353.4" y="259.1" class="st24" width="4.5" height="37.9"/>
		<path class="st27" d="M533.9,372.4c-3.1-9.5-4.8-19.5-4.8-29.9c0-53.4,43.3-96.6,96.6-96.6c53.4,0,96.6,43.3,96.6,96.6
			c0,9.6-1.3,18.8-4,27.5"/>
		<polygon class="st28" points="583,283.3 592.8,277.4 584.4,259.6 571.1,267.6 		"/>
		<polygon class="st28" points="587.6,258.3 595.8,276.1 607.8,271.5 603.3,252.4 		"/>
		<path class="st24" d="M177.2,356v-14.1c0-1.2,1-2.1,2.1-2.1h33.2c1.2,0,2.1,1,2.1,2.1V356c0,1.2-1,2.1-2.1,2.1h-33.2
			C178.2,358.1,177.2,357.1,177.2,356z"/>
		<polygon class="st28" points="607.8,251.3 610.8,270.7 622.8,269.9 622.8,250.2 		"/>
		<polygon class="st28" points="580,285.6 568.7,269.3 556.8,280 571.1,293 		"/>
		<polygon class="st28" points="568.4,295.6 554.4,282.2 545.1,293.7 562.4,305 		"/>
		<polygon class="st28" points="559.8,308.4 544,297.8 537,312.5 555.5,319.4 		"/>
		<polygon class="st28" points="554.4,322.2 535.6,316.1 532.1,330.6 552,333.9 		"/>
		<polygon class="st28" points="680.2,293.1 687.5,301.9 703.9,291 694,279 		"/>
		<polygon class="st28" points="705.6,294 689.3,304.7 695.6,315.9 713.9,308.7 		"/>
		<polygon class="st28" points="715.7,312.9 696.9,318.7 699.5,330.5 719,327.6 		"/>
		<polygon class="st28" points="677.5,290.6 692,276.9 679.6,266.7 668.9,282.8 		"/>
		<polygon class="st28" points="665.9,280.5 677,264.7 664.3,257.3 655.7,276 		"/>
		<polygon class="st28" points="652,274 660,256.7 644.5,251.9 640.5,271.3 		"/>
		<polygon class="st28" points="637.5,270.6 640.9,251.3 625.8,249.9 625.6,270 		"/>
		<polygon class="st28" points="535.6,370.7 554.4,364.9 551.3,352.3 531.8,354.4 		"/>
		<polygon class="st28" points="531.2,349.8 550.9,349.2 551.6,337.2 532,334.8 		"/>
		<polygon class="st28" points="715.9,366.5 697.2,360.7 700.3,348.1 719.8,350.1 		"/>
		<polygon class="st28" points="720.3,345.6 700.6,345.1 700.1,333 719.6,330.5 		"/>
		<path class="st27" d="M758.4,373.9c-3.1-9.5-4.8-19.5-4.8-29.9c0-53.4,43.3-96.6,96.6-96.6c53.4,0,96.6,43.3,96.6,96.6
			c0,9.6-1.3,18.8-4,27.5"/>
		<polygon class="st28" points="807.5,285 817.3,279.1 809,261.3 795.6,269.2 		"/>
		<polygon class="st28" points="812.2,259.9 820.3,277.8 832.3,273.1 827.9,254 		"/>
		<polygon class="st28" points="832.3,252.9 835.3,272.4 847.4,271.4 847.4,251.8 		"/>
		<polygon class="st28" points="804.5,287.2 793.3,270.9 781.4,281.7 795.6,294.7 		"/>
		<polygon class="st28" points="792.9,297.2 778.9,283.9 769.7,295.3 786.9,306.7 		"/>
		<polygon class="st28" points="784.4,310 768.5,299.5 761.5,314.2 780,321 		"/>
		<polygon class="st28" points="778.9,323.7 760.2,317.6 756.6,332.3 776.6,335.4 		"/>
		<polygon class="st28" points="904.7,294.8 912,303.6 928.4,292.7 918.5,280.7 		"/>
		<polygon class="st28" points="930.2,295.6 913.8,306.4 920.2,317.6 938.4,310.3 		"/>
		<polygon class="st28" points="940.2,314.5 921.4,320.4 924.1,332.2 943.6,329.2 		"/>
		<polygon class="st28" points="902,292.1 916.5,278.5 904.1,268.4 893.5,284.4 		"/>
		<polygon class="st28" points="890.5,282.2 901.6,266.3 888.9,258.8 880.2,277.6 		"/>
		<polygon class="st28" points="876.5,275.5 884.6,258.4 869.1,253.6 865.1,273 		"/>
		<polygon class="st28" points="862.1,272.3 865.4,252.8 850.4,251.6 850.2,271.6 		"/>
		<polygon class="st28" points="760.2,372.4 778.9,366.5 775.9,354 756.3,356 		"/>
		<polygon class="st28" points="755.7,351.5 775.5,350.9 776.1,338.9 756.5,336.4 		"/>
		<polygon class="st28" points="940.4,368.2 921.7,362.4 924.9,349.8 944.3,351.8 		"/>
		<polygon class="st28" points="944.9,347.2 925.2,346.8 924.6,334.6 944.1,332.2 		"/>
		<line class="st4" x1="147.1" y1="163.5" x2="188.7" y2="92.4"/>
		<path class="st4" d="M210.2,25.3c0,0,21.4-38.5,40.7,12.4c1.3,3.3,2.6,7.1,3.9,11.4"/>
		<polygon class="st24" points="192.8,43.4 187.2,43.4 184.2,8.6 211.7,6.3 211.7,20 205.6,25.3 206.9,11.4 188.7,13.8 188.7,40.1 
			192.8,40.5 		"/>
		<line class="st4" x1="216.7" y1="20" x2="251.8" y2="39.9"/>
		<line class="st4" x1="242" y1="20" x2="236.2" y2="31.1"/>
		<line class="st4" x1="229.6" y1="11.4" x2="222" y2="23"/>
		<path class="st24" d="M152.7,91.6l12.2-17.4c0,0,5.6-0.3,5.9,3.3S157.7,101,157.7,101L152.7,91.6z"/>
		<path class="st24" d="M72.3,274.5h-5.6l-3-34.8l27.5-2.2v19.3l-3,5.6c-0.3,1-1.8,0.8-1.8-0.2v-19.6l-18,2.4v26.4l4,0.3v2.9H72.3z"
			/>
		<path class="st2" d="M674.8,257.2H706l28.9,4.3c0.6,0.1,0.4,0.8,0,0.9l-31.1,1.9l-29.1-6.3C674.4,257.7,674.4,257.2,674.8,257.2z"
			/>
		<polyline class="st3" points="694.1,274 706,274 747.5,335.4 		"/>
		<line class="st3" x1="703.9" y1="264.3" x2="703.9" y2="273.1"/>
		<polyline class="st2" points="694.1,270.5 731.9,270.5 739,270.5 		"/>
		<line class="st3" x1="731.9" y1="270.5" x2="731.9" y2="262.5"/>
		<line class="st3" x1="726.4" y1="271.5" x2="726.4" y2="333.9"/>
		<polyline class="st3" points="749.1,333.9 749.1,306.1 724.9,273.1 		"/>
		<line class="st3" x1="728.2" y1="307.8" x2="749.1" y2="307.3"/>
		<path class="st3" d="M456.3,222.7l8.9,29.7v43.3c0,0.4-0.6,0.6-0.7,0.1l-13.7-27.6c-0.3-0.8,0.2-1.7,1-1.7l13.4,0.2"/>
		<line class="st3" x1="449.9" y1="230.1" x2="460.7" y2="237.5"/>
		<line class="st3" x1="449.9" y1="239" x2="461.2" y2="239"/>
		<path class="st3" d="M449.9,252.4h14.4c0.2,0,0.3-0.3,0.1-0.4l-14.5-9.6"/>
		<line class="st3" x1="449.9" y1="257.2" x2="465.2" y2="264.5"/>
		<line class="st3" x1="465.2" y1="271.5" x2="449.9" y2="292.2"/>
		<line class="st3" x1="449.9" y1="188.9" x2="449.9" y2="208.4"/>
		<line class="st3" x1="489.2" y1="158.5" x2="487.8" y2="166"/>
		<line class="st3" x1="978" y1="239.6" x2="978" y2="339.7"/>
		<path class="st2" d="M994.3,262.5l-31.4,8.6c-0.7,0.2-0.6,1.2,0.1,1.2l31.2,0.8v-10.6H994.3z"/>
		<path class="st2" d="M963.1,337v-26.1c0-0.1,0-0.2,0-0.4l-2.1-14.6c0-0.2,0-0.3,0-0.6l1-19.6c0.1-1.4,1.2-2.6,2.8-2.6h2.2
			c1.3,0,2.4,0.9,2.7,2.2l2.1,11.2c0,0.2,0,0.3,0,0.6v11.9c0,0.2,0,0.4-0.1,0.8l-3.5,12.7c-0.1,0.2-0.1,0.6-0.1,0.8l0.7,23.6
			c0,1.6-1.2,2.8-2.8,2.8l0,0C964.4,339.7,963.1,338.4,963.1,337z"/>
		<line class="st3" x1="991.8" y1="274" x2="971.7" y2="286.9"/>
		<line class="st3" x1="994.3" y1="283.9" x2="978" y2="283.9"/>
		<rect x="1170.7" y="280.5" class="st28" width="6.8" height="6.8"/>
		<path class="st2" d="M1078.6,208.2V187l-54.1-3.9c-1.4-0.1-2.7,1-2.7,2.4v22.8L1078.6,208.2z"/>
		<path class="st2" d="M1000.7,208.2l3.5-19.4c0.2-1,1.1-1.8,2.1-1.8h15.7v21.4L1000.7,208.2z"/>
		<path class="st3" d="M1071.1,112.4v15.3c0,0.8-0.7,1.4-1.4,1.4H1046"/>
		<path class="st3" d="M1045.9,120.8v60.8c0,1.1,1.3,1.7,2.1,0.8l19.6-21.4"/>
		<line class="st3" x1="1056.3" y1="129.1" x2="1076.7" y2="186.9"/>
		<path class="st3" d="M1045.9,161.1h34.1c1.6,0,2.7,1.3,2.4,2.9l-3.8,23.2"/>
		<path class="st3" d="M1071.1,134.7v7.8c0,1.7-1.3,3-3,3h-22.3"/>
		<path class="st3" d="M1045.9,152.7"/>
		<circle class="st29" cx="1041.4" cy="191.5" r="11.5"/>
		<circle class="st29" cx="1111" cy="192" r="11.5"/>
		<polygon class="st20" points="975.2,217.3 969.5,217.3 977.1,233.5 982.9,233.5 		"/>
		<polygon class="st20" points="984.6,217.3 977.8,217.3 985.4,233.5 992.3,233.5 		"/>
		<polygon class="st20" points="992.9,216.2 1004,216.2 1006.8,227.9 996.4,227.9 		"/>
		<polygon class="st20" points="1042.2,216.2 1052.4,216.2 1050.2,227.9 1040.3,227.9 		"/>
		<polygon class="st20" points="1006.8,216.2 1022.2,216.2 1022.2,227.9 1008.8,227.9 		"/>
		<polygon class="st20" points="1039.9,216.2 1024.5,216.2 1024.5,227.9 1037.9,227.9 		"/>
		<polygon class="st20" points="1085.7,216.2 1083.5,226.8 1089,226.8 1091.5,216.2 		"/>
		<polygon class="st20" points="1092.7,216.2 1090.5,226.8 1096,226.8 1098.5,216.2 		"/>
		<polygon class="st20" points="1100,216.2 1097.7,226.8 1103.2,226.8 1105.8,216.2 		"/>
		<polygon class="st20" points="1107.1,216.2 1104.9,226.8 1110.3,226.8 1112.8,216.2 		"/>
		<polygon class="st20" points="1114.3,216.2 1112.1,226.8 1117.6,226.8 1120,216.2 		"/>
		<polygon class="st20" points="1127.5,216.2 1125.2,226.8 1130.7,226.8 1133.1,216.2 		"/>
		<polygon class="st20" points="1057,216.2 1055.1,226.8 1059.6,226.8 1061.7,216.2 		"/>
		<polygon class="st20" points="1062.9,216.2 1061,226.8 1065.6,226.8 1067.6,216.2 		"/>
		<polygon class="st20" points="1068.5,216.2 1066.6,226.8 1071.1,226.8 1073.1,216.2 		"/>
		<polygon class="st20" points="1074.1,216.2 1072.4,226.8 1076.8,226.8 1078.8,216.2 		"/>
		<rect x="1095.9" y="239" class="st28" width="6.8" height="6.8"/>
		<rect x="1112.7" y="239" class="st28" width="6.8" height="6.8"/>
		<rect x="1129.3" y="239" class="st28" width="6.8" height="6.8"/>
		<rect x="1088.1" y="259.9" class="st28" width="6.8" height="6.8"/>
		<rect x="1104.5" y="259.9" class="st28" width="6.8" height="6.8"/>
		<rect x="1119.5" y="259.9" class="st28" width="6.8" height="6.8"/>
		<rect x="1130.5" y="259.9" class="st28" width="6.8" height="6.8"/>
		<rect x="1150.4" y="259.9" class="st28" width="6.8" height="6.8"/>
		<rect x="1067.4" y="259.9" class="st28" width="6.8" height="6.8"/>
		<rect x="1050.9" y="259.9" class="st28" width="6.8" height="6.8"/>
		<rect x="1154.4" y="280.5" class="st28" width="6.8" height="6.8"/>
		<rect x="1137.9" y="280.5" class="st28" width="6.8" height="6.8"/>
		<rect x="1126.2" y="280.5" class="st28" width="6.8" height="6.8"/>
		<rect x="1113" y="280.5" class="st28" width="6.8" height="6.8"/>
		<rect x="1096.3" y="280.5" class="st28" width="6.8" height="6.8"/>
		<rect x="1084.1" y="280.5" class="st28" width="6.8" height="6.8"/>
		<rect x="1067.6" y="280.5" class="st28" width="6.8" height="6.8"/>
		<rect x="1046.6" y="280.5" class="st28" width="6.8" height="6.8"/>
		<rect x="1025.9" y="259.9" class="st28" width="6.8" height="6.8"/>
		<rect x="1006.8" y="259.5" class="st28" width="6.8" height="6.8"/>
		<rect x="1025.9" y="280.5" class="st28" width="6.8" height="6.8"/>
		<rect x="1006.8" y="280.5" class="st28" width="6.8" height="6.8"/>
		<line class="st4" x1="213.9" y1="24.2" x2="236.1" y2="36.7"/>
		<polygon class="st2" points="715.7,334.8 770.8,334.8 771.9,361.5 715.2,361.5 		"/>
		<path class="st11" d="M162.7,426.4l11.7,34.8c0.3,1,1.2,1.6,2.2,1.6h255.5L162.7,426.4"/>
		<rect x="508.6" y="312.9" class="st2" width="10" height="45.2"/>
		<path class="st25" d="M1320.4,399.3c18-57.2,52.8-93.7,64.8-105.2c1.4-1.4,0.4-3.9-1.6-3.9h-209.4l-30.4,10H996.8
			c-1.3,0-2.4,1.1-2.4,2.4v36.5c0,1.2-1,2.2-2.2,2.2H863c-1.2,0-2.2,1-2.2,2.2v15.6c0,1.2-1,2.2-2.2,2.2H56.7
			c-1.3,0-2.4,1.1-2.4,2.4v25.9c0,1,0.7,1.8,1.7,2l36.6,7.5V414c0,1.1,0.8,2.1,1.9,2.3c38.7,6.8,337.7,46.4,337.7,46.4H1325
			c0,0,69-5.6,65.7-43.4c-2.9-32.3-51.9-19.3-66.2-14.7c-2,0.7-4-0.9-4-2.9V399.3z"/>
		<path class="st30" d="M1066.5,312.5h38.5c1.2,0,2.3,1,2.3,2.3v4.7c0,1.2-1,2.3-2.3,2.3h-38.5c-1.2,0-2.3-1-2.3-2.3v-4.7
			C1064.1,313.5,1065.1,312.5,1066.5,312.5z"/>
		<path class="st30" d="M1118.7,312.5h47.5c1.2,0,2.3,1,2.3,2.3v4.7c0,1.2-1,2.3-2.3,2.3h-47.5c-1.2,0-2.3-1-2.3-2.3v-4.7
			C1116.4,313.5,1117.5,312.5,1118.7,312.5z"/>
		<path class="st30" d="M1043.6,344.7h-34.8c-1.2,0-2.2-1-2.2-2.2v-27.7c0-1.2,1-2.2,2.2-2.2h34.8c1.2,0,2.2,1,2.2,2.2v27.7
			C1045.9,343.7,1044.9,344.7,1043.6,344.7z"/>
		<path class="st30" d="M993.9,371.2h-63.1c-1.3,0-2.3-1-2.3-2.3v-11.4c0-1.3,1-2.3,2.3-2.3h63.1c1.3,0,2.3,1,2.3,2.3v11.4
			C996.2,370.2,995.1,371.2,993.9,371.2z"/>
		<rect x="1051.3" y="327" class="st13" width="6.8" height="6.8"/>
		<rect x="1066.9" y="327" class="st13" width="6.8" height="6.8"/>
		<rect x="1083.6" y="327" class="st13" width="6.8" height="6.8"/>
		<rect x="1111.4" y="327" class="st13" width="6.8" height="6.8"/>
		<rect x="1128.1" y="327" class="st13" width="6.8" height="6.8"/>
		<rect x="1003.5" y="349.2" class="st13" width="6.8" height="6.8"/>
		<rect x="1032.4" y="349.2" class="st13" width="6.8" height="6.8"/>
		<rect x="1051.3" y="349.2" class="st13" width="6.8" height="6.8"/>
		<rect x="1181.6" y="327" class="st13" width="6.8" height="6.8"/>
		<rect x="1202.7" y="327" class="st13" width="6.8" height="6.8"/>
		<rect x="1262.8" y="327" class="st13" width="6.8" height="6.8"/>
	</g>
	<path class="st31" d="M751.5,686.9l153.1-150.5c6.5-6.4,2-17.5-7.1-17.5H591.3c-9.1,0-13.7,11.1-7.1,17.5l153.1,150.5
		C741.2,690.8,747.6,690.8,751.5,686.9z"/>
</g>
</svg>
