<?xml version="1.0" encoding="utf-8"?>
<!-- Generator: Adobe Illustrator 22.1.0, SVG Export Plug-In . SVG Version: 6.00 Build 0)  -->
<svg version="1.1" xmlns="http://www.w3.org/2000/svg" xmlns:xlink="http://www.w3.org/1999/xlink" x="0px" y="0px"
	 viewBox="0 0 1231.4 857.4" style="enable-background:new 0 0 1231.4 857.4;" xml:space="preserve">
<style type="text/css">
	.st0{display:none;}
	.st1{display:inline;}
	.st2{fill:#F4E8C6;stroke:#C7B299;stroke-width:4;stroke-miterlimit:10;}
	.st3{fill:none;stroke:#C7B299;stroke-width:4;stroke-miterlimit:10;}
	.st4{fill:none;stroke:#808080;stroke-width:4;stroke-miterlimit:10;}
	.st5{fill:none;stroke:#6D6E70;stroke-width:5;stroke-miterlimit:10;}
	.st6{fill:#E6E6E6;stroke:#CCCCCC;stroke-width:5;stroke-miterlimit:10;}
	.st7{fill:#C7B299;stroke:#C7B299;stroke-width:2;stroke-miterlimit:10;}
	.st8{fill:#C7B299;stroke:#C7B299;stroke-miterlimit:10;}
	.st9{fill:#C7B299;}
	.st10{fill:none;stroke:#000000;stroke-width:6;stroke-miterlimit:10;}
	.st11{fill:#99272D;stroke:#7C272D;stroke-width:10;stroke-miterlimit:10;}
	.st12{fill:#B3B3B3;stroke:#808080;stroke-width:10;stroke-miterlimit:10;}
	.st13{fill:#FFFFFF;}
	.st14{fill:none;stroke:#808080;stroke-width:5;stroke-miterlimit:10;}
	.st15{fill:none;stroke:#000000;stroke-width:5;stroke-miterlimit:10;}
	.st16{fill:#C1272D;}
	.st17{fill:#B3B3B3;stroke:#808080;stroke-width:5;stroke-miterlimit:10;}
	.st18{fill:#B3B3B3;stroke:#999999;stroke-width:10;stroke-miterlimit:10;}
	.st19{display:none;fill:#7C6699;}
	.st20{fill:#A6DAF6;}
	.st21{fill:none;}
	.st22{display:none;fill:none;stroke:#C6BDD4;stroke-width:10;stroke-miterlimit:10;}
	.st23{fill:none;stroke:#808080;stroke-width:10;stroke-miterlimit:10;}
	.st24{fill:#B3B3B3;stroke:#808080;stroke-width:4;stroke-miterlimit:10;}
	.st25{fill:#EE2842;stroke:#C1272D;stroke-width:10;stroke-miterlimit:10;}
	.st26{display:inline;fill:#F1DF00;stroke:#CDB42D;stroke-width:4;stroke-miterlimit:10;}
	.st27{display:inline;fill:#F4E8C6;stroke:#C7B299;stroke-width:4;stroke-miterlimit:10;}
	.st28{display:inline;fill:none;stroke:#808080;stroke-width:4;stroke-miterlimit:10;}
	.st29{display:inline;fill:#99272D;stroke:#7C272D;stroke-width:10;stroke-miterlimit:10;}
	.st30{display:inline;fill:none;stroke:#CDB42D;stroke-width:10;stroke-miterlimit:10;}
	.st31{display:inline;fill:none;stroke:#CDB42D;stroke-width:4;stroke-miterlimit:10;}
	.st32{display:inline;fill:#B3B3B3;stroke:#808080;stroke-width:4;stroke-miterlimit:10;}
	.st33{display:inline;fill:#EE2842;stroke:#C1272D;stroke-width:10;stroke-miterlimit:10;}
	.st34{display:inline;fill:#A6DAF6;}
	.st35{display:inline;fill:#E6E6E6;stroke:#CCCCCC;stroke-width:4;stroke-miterlimit:10;}
	.st36{fill:#E6E6E6;stroke:#CCCCCC;stroke-width:4;stroke-miterlimit:10;}
	.st37{fill:#808080;}
	.st38{fill:#431D68;}
	.st39{fill:#02AADC;}
	.st40{fill:#CD242C;}
	.st41{fill:#99272D;stroke:#7C272D;stroke-width:4;stroke-miterlimit:10;}
	.st42{fill:#604382;}
</style>
<g id="Layer_1" class="st0">
	<g id="Layer_3">
	</g>
	<g id="Layer_1_1_" class="st1">
	</g>
	<g id="Layer_2_1_" class="st1">
		<path class="st2" d="M139.4,525.4v-9.9c0-1.2,0.9-2.1,2.1-2.1h63.4c1.1,0,2,0.9,2,2v10H139.4z"/>
		<path class="st2" d="M103.9,525.4v-133h-16c-1.1,0-2-0.9-2-2v-18c0-1.1,0.9-2,2-2h21c1.1,0,2,0.9,2,2v20.5h21.9
			c1.2,0,2.1,0.9,2.1,2.1v130.4H103.9z"/>
		<path class="st2" d="M23.9,374.4l35-1l103-22.5l-205.9-1c-1.1,0-2.1,0.9-2.1,2v2.8c0,1,0.6,1.8,1.6,2.1L23.9,374.4z"/>
		<line class="st3" x1="-91.9" y1="362.2" x2="23.9" y2="374.4"/>
		<line class="st3" x1="54.4" y1="373.9" x2="85.9" y2="378.4"/>
		<circle class="st2" cx="151.4" cy="343.9" r="19.5"/>
		<line class="st3" x1="110.9" y1="370.4" x2="136.7" y2="356.4"/>
		<path class="st2" d="M135.9,366.4h32.6c1.1,0,1.9-0.9,1.9-1.9V362c0-1.1-0.9-1.9-1.9-1.9h-32.6c-1.1,0-2,0.9-2,2v2.3
			C133.9,365.5,134.8,366.4,135.9,366.4z"/>
		<line class="st4" x1="-159.6" y1="400.9" x2="-159.6" y2="422.9"/>
		<line class="st4" x1="-146.7" y1="395.4" x2="-146.7" y2="427.9"/>
		<path class="st2" d="M-160.4,401.6l79.1-70c0.2-0.1,0.4-0.2,0.6-0.2h41.3c0.7,0,1.1,0.7,0.8,1.3l-8.2,19.2
			c-0.1,0.3-0.5,0.6-0.8,0.6h-12.2c-0.1,0-0.2,0-0.3,0.1l-10.6,3.8c-0.2,0.1-0.4,0.1-0.5,0l-7.4-1.8c-0.2-0.1-0.5,0-0.7,0.1
			l-79.9,48.5C-160.3,403.7-161.3,402.3-160.4,401.6z"/>
		<line class="st5" x1="591.7" y1="353.5" x2="591.7" y2="381.9"/>
		<line class="st5" x1="601.4" y1="363.9" x2="601.4" y2="397.9"/>
		<ellipse class="st6" cx="897.9" cy="292.4" rx="16" ry="17"/>
		<polygon class="st7" points="1062.9,438.4 1062.9,364.4 1065.9,364.4 1065.9,440.4 		"/>
		<rect x="1112.9" y="367.4" class="st8" width="4" height="86"/>
		<polygon class="st9" points="1183.9,367.4 1151.9,458.4 1156.9,458.4 1188.9,363.4 		"/>
		<polygon class="st9" points="1202.9,367.4 1161.9,456.4 1165.9,456.4 1208.9,365.4 		"/>
		<rect x="1143.9" y="390.4" class="st9" width="113" height="3"/>
		<rect x="1143.9" y="376.4" class="st9" width="113" height="3"/>
		<polyline class="st7" points="1151.1,369.4 1150.9,458.4 1153.2,458.4 1153.2,367.4 1151.1,369.4 		"/>
		<path class="st2" d="M892.4,370.4l-0.5-21.7h-6.8c-0.1,0-0.2-0.1-0.2-0.2v-4.7c0-0.1,0-0.1,0.1-0.1h6.9v-31.8
			c0-0.3-0.2-0.5-0.5-0.5h-1.5c-1.1,0-2-0.9-2-2v-1.9c0-0.1,0.1-0.2,0.2-0.2h15.6c0.1,0,0.2,0.1,0.2,0.2v3.6c0,0.1-0.1,0.2-0.2,0.2
			h-7.4c-0.2,0-0.3,0.2-0.3,0.3l0.9,11.4c0.1,0.7,0.6,1.3,1.4,1.3l13.6,0.1c0.1,0,0.1,0,0.1,0.1v2c0,0.5-0.4,0.9-0.9,0.9h-13.2
			l2,16.3h13.8c0.1,0,0.2,0.1,0.2,0.2v4.6c0,0.1-0.1,0.2-0.2,0.2h-12.8l4.5,21.7"/>
		<path class="st2" d="M814.9,486.4v-9c0-1.1,0.9-2,2-2l0,0h7c1.1,0,2,0.9,2,2v9H814.9z"/>
		<path class="st2" d="M803.9,518.4v-31c0-1.1,0.9-2,2-2h48v-70.5c0-0.9-0.6-1.7-1.4-1.9l-18.1-6c-0.9-0.3-1.5-1.1-1.5-2v-7.6
			l-3.9-25.3c-0.1-0.5,0-1,0.3-1.4l3-4.5c0.4-0.5,1-0.9,1.6-0.9h76.9c1.1,0,2-0.9,2-2v-24c0-1.1,0.9-2,2-2h21c1.1,0,2,0.9,2,2v27
			c0,1.1,0.9,2,2,2h67c0.6,0,1.2,0.3,1.6,0.8l4.8,6.4c0.4,0.5,0.5,1.1,0.3,1.8l-5.7,22v5.7c0,0.8-0.5,1.5-1.2,1.9l-13.6,6
			c-0.7,0.3-1.2,1-1.2,1.8v20.7c0,1.1,0.9,2,2,2h103c1.1,0,2,0.9,2,2v80L803.9,518.4z"/>
		<path class="st2" d="M1254.9,369.4h-245c-1.1,0-2-0.9-2-2v-4c0-1.1,0.9-2,2-2h245c1.1,0,2,0.9,2,2v4
			C1256.9,368.5,1256,369.4,1254.9,369.4z"/>
		<path class="st10" d="M775.7,511.4"/>
		<path class="st10" d="M706.1,511.4"/>
		<path class="st11" d="M413.9,622.4h-266c-0.6,0-1.2-0.3-1.6-0.8l-31.4-42.2L413.9,622.4z"/>
		<path class="st12" d="M441.2,525.4c-3.8-11.3-5.8-23.4-5.8-36c0-62.7,50.8-113.5,113.5-113.5s113.5,50.8,113.5,113.5
			c0,7.5-3.1,36-3.1,36"/>
		<rect x="956.4" y="467.9" class="st13" width="12" height="12"/>
		<path class="st14" d="M706.1,511.4c-14.4-10.7-23.7-27.7-23.7-47c0-32.3,26.2-58.5,58.5-58.5s58.5,26.2,58.5,58.5
			c0,19.3-9.3,36.3-23.7,47"/>
		<line class="st5" x1="435.4" y1="490.9" x2="662.4" y2="490.9"/>
		<path class="st15" d="M441.1,453.7"/>
		<path class="st15" d="M456.7,423.2"/>
		<circle class="st5" cx="547.9" cy="489.4" r="8.5"/>
		<line class="st5" x1="456.7" y1="423.2" x2="539.4" y2="484.9"/>
		<line class="st5" x1="641.1" y1="423.2" x2="555.1" y2="484.9"/>
		<line class="st5" x1="549.4" y1="375.9" x2="549.4" y2="427.9"/>
		<line class="st5" x1="513.4" y1="381.6" x2="545.2" y2="480.9"/>
		<line class="st5" x1="583.4" y1="381.6" x2="551.4" y2="480.9"/>
		<path class="st16" d="M656.9,679.4"/>
		<circle class="st17" cx="741.4" cy="463.9" r="42"/>
		<line class="st5" x1="719.3" y1="410" x2="765.4" y2="524.9"/>
		<path class="st18" d="M205.6,390.1c0,0,85.8,132.8,91.8,135.3"/>
		<line class="st5" x1="762.5" y1="410" x2="719.4" y2="518.9"/>
		<line class="st5" x1="782.1" y1="505.9" x2="699.4" y2="423.2"/>
		<line class="st5" x1="782.1" y1="423.2" x2="699.4" y2="505.9"/>
		<line class="st5" x1="688" y1="489.4" x2="795.9" y2="444.4"/>
		<line class="st5" x1="793.8" y1="489.4" x2="685.9" y2="444.4"/>
		<path class="st13" d="M1722.9,708.4"/>
		<path class="st19" d="M631.9,964.7l178-308.3h-356C809.9,656.4,770.9,723.4,631.9,964.7z"/>
		<path class="st9" d="M938.9,337.4"/>
		<polygon class="st20" points="853.9,382.4 857.9,399.4 861.9,399.4 861.9,382.4 		"/>
		<rect x="863.9" y="382.4" class="st20" width="7" height="17"/>
		<rect x="872.9" y="382.4" class="st20" width="7" height="17"/>
		<rect x="881.9" y="382.4" class="st20" width="7" height="17"/>
		<rect x="890.9" y="382.4" class="st20" width="7" height="17"/>
		<rect x="899.9" y="382.4" class="st20" width="7" height="17"/>
		<polygon class="st20" points="997.9,382.4 994,399.4 990.1,399.4 990.1,382.4 		"/>
		<rect x="981.2" y="382.4" class="st20" width="6.9" height="17"/>
		<rect x="972.4" y="382.4" class="st20" width="6.9" height="17"/>
		<rect x="963.6" y="382.4" class="st20" width="6.9" height="17"/>
		<rect x="954.7" y="382.4" class="st20" width="6.9" height="17"/>
		<rect x="945.9" y="382.4" class="st20" width="6.9" height="17"/>
		<polygon class="st20" points="834.9,378.4 838.9,394.4 842.9,394.4 838.9,378.4 		"/>
		<polygon class="st20" points="839.9,378.4 843.9,394.4 847.9,394.4 843.9,378.4 		"/>
		<polygon class="st20" points="844.9,378.4 848.9,394.4 852.9,394.4 848.9,378.4 		"/>
		<polyline class="st3" points="853.9,413.4 853.9,401.4 847.9,374.4 853.9,365.4 		"/>
		<polygon class="st20" points="1006.9,382.4 1002.9,398.4 998.9,398.4 1002.9,382.4 		"/>
		<line class="st5" x1="583.4" y1="439.9" x2="614.2" y2="396.6"/>
		<line class="st5" x1="513.4" y1="439.9" x2="481.1" y2="398.4"/>
		<line class="st5" x1="606.4" y1="467.9" x2="656.6" y2="453.4"/>
		<line class="st5" x1="490.4" y1="467.9" x2="441.4" y2="453.9"/>
		<polygon class="st21" points="631.9,964.7 809.9,656.4 453.9,656.4 		"/>
		<path class="st22" d="M633.5,961.9L808,659.6c0.8-1.4-0.2-3.1-1.8-3.1H457.4c-1.6,0-2.6,1.7-1.8,3.1L630.2,962
			C631,963.1,632.8,963.1,633.5,961.9z"/>
		<polyline class="st3" points="937.9,365.4 937.9,407.7 945.9,417.5 945.9,436.4 912.9,436.4 912.9,363.4 		"/>
		<path class="st3" d="M937.4,337.4"/>
		<polyline class="st3" points="887.9,257.4 893.4,257.4 904.9,257.4 		"/>
		<line class="st3" x1="893.9" y1="310.4" x2="893.9" y2="257.4"/>
		<line class="st3" x1="912.9" y1="412.9" x2="853.4" y2="412.9"/>
		<path class="st3" d="M912.9,412.9"/>
		<line class="st3" x1="994.4" y1="412.9" x2="942.5" y2="412.9"/>
		<line class="st3" x1="945.4" y1="433.9" x2="991.9" y2="433.9"/>
		<path class="st23" d="M346.9,350.4c0,0-46-72-125-18"/>
		<path class="st4" d="M291.6,353.5l-57.2,7.4L71.9,525.4l89.5-38.5L293,356.3C294.1,355.2,293.1,353.3,291.6,353.5z"/>
		<path class="st4" d="M268.4,349.9v6.4c0,0.2,0,0.3-0.1,0.5l-7.2,28.7c-0.4,1.5-2.2,1.9-3.2,0.8L234.4,361"/>
		<path class="st4" d="M257.2,385.5l-52.9,7.6c-0.8,0.1-1.2,1.1-0.6,1.7l23.4,24.8c0.4,0.4,0.1,1.1-0.4,1.2l-55.4,6.7
			c-1.3,0.2-1.8,1.7-0.9,2.6l23.4,23.2c0.3,0.3,0.1,0.8-0.3,0.8l-57.9,6.7"/>
		<line class="st4" x1="158.3" y1="488.2" x2="135.4" y2="463.9"/>
		<path class="st4" d="M112.7,507.9l-9.9-11.9c-0.3-0.4-0.1-1,0.4-1.1l55.2-6.9"/>
		<path class="st23" d="M238.9,321.4c0,0,28.2-54.4,76-12.8c1.1,1,1.2,2.7,0.2,3.7l-6.2,6.3"/>
		<path class="st23" d="M289.9,333.4l-60.4,8.6c-1.7,0.2-3.3,1-4.5,2.3l-78.1,79.1"/>
		<line class="st4" x1="270.9" y1="345.4" x2="293.9" y2="356.4"/>
		<line class="st4" x1="263.9" y1="345.4" x2="238.5" y2="360.4"/>
		<path class="st24" d="M49.6,450l4.6-18.6c0.1-0.3,0.3-0.6,0.5-0.9l58.6-53.7c0.6-0.6,1.5-0.6,2.2-0.1l5.9,4.4
			c0.6,0.4,0.8,1.1,0.6,1.8l-3.4,12.9c-0.2,0.6,0,1.2,0.4,1.7l9.1,9.1c0.7,0.7,1.8,0.7,2.4,0l0.6-0.6c0.7-0.7,1.8-0.7,2.4,0
			l15.7,15.7c0.6,0.6,0.7,1.6,0.1,2.3l-7.8,9.6c-0.1,0.1-0.2,0.3-0.3,0.5l-2.7,7.3c-0.1,0.3-0.3,0.5-0.5,0.7l-13.2,11.4
			c-0.3,0.2-0.5,0.5-0.6,0.9l-0.5,2.2c-0.2,0.8-0.9,1.3-1.7,1.3l0,0c-0.4,0-0.8,0.2-1.1,0.4l-8.5,7.5c0,0,0,0-0.1,0.1l-5.7,5.7
			c-0.2,0.2-0.4,0.3-0.7,0.4l-5.2,1.7c-0.3,0.1-0.5,0.2-0.7,0.4l-16.6,17.5c-0.6,0.7-1.7,0.7-2.4,0.1L64.5,477
			c-0.7-0.6-0.8-1.7-0.1-2.4l7.4-8.2c0.3-0.3,0.4-0.7,0.4-1.2v-6c0-1.9-2.3-2.8-3.6-1.4l-5.1,5.6c-0.7,0.7-1.9,0.8-2.5,0l-11.1-11.9
			C49.6,451.2,49.5,450.6,49.6,450z"/>
		<line class="st4" x1="131.9" y1="405.4" x2="72.4" y2="465.9"/>
		<line class="st4" x1="124.4" y1="402.9" x2="69.9" y2="457.4"/>
		<line class="st4" x1="63.9" y1="423.4" x2="83" y2="443.5"/>
		<line class="st4" x1="83" y1="405.4" x2="102.6" y2="426.1"/>
		<line class="st4" x1="103.9" y1="385.5" x2="124.4" y2="404.9"/>
		<line class="st4" x1="117.1" y1="421.2" x2="138.4" y2="441.9"/>
		<line class="st4" x1="102.6" y1="435.7" x2="124.4" y2="457.9"/>
		<line class="st4" x1="91.5" y1="446.8" x2="111.1" y2="467.2"/>
		<line class="st5" x1="682.4" y1="466.9" x2="799.4" y2="466.9"/>
		<polyline class="st4" points="120.3,401 161.9,360.4 186.9,385.4 		"/>
		<polyline class="st4" points="131.9,405.4 180.9,356.4 189.9,347.4 		"/>
		<line class="st4" x1="194.9" y1="370.4" x2="180.9" y2="356.4"/>
		<line class="st4" x1="186.9" y1="350.4" x2="203.1" y2="366.5"/>
		<line class="st4" x1="149.1" y1="372.9" x2="173.1" y2="396.9"/>
		<line class="st4" x1="158.3" y1="363.9" x2="180.9" y2="386.4"/>
		<line class="st4" x1="134.8" y1="386.8" x2="158.3" y2="411.8"/>
		<line class="st4" x1="147.2" y1="390.1" x2="163" y2="407.1"/>
		<line class="st4" x1="40.9" y1="522.4" x2="76.8" y2="487.9"/>
		<polyline class="st4" points="34.9,515.4 44.7,506.2 50.9,500.4 34.9,483.4 29.1,489.2 23.9,494.4 40.9,512.4 		"/>
		<polyline class="st4" points="40.9,479.4 58.9,499.4 44.9,513.4 		"/>
		<line class="st4" x1="72.9" y1="465.4" x2="39.9" y2="499.4"/>
		<line class="st4" x1="28.9" y1="488.4" x2="44.9" y2="505.4"/>
		<polyline class="st4" points="71.9,515.4 213.6,371.8 221.9,363.4 212.9,353.4 		"/>
		<line class="st4" x1="205.7" y1="363.9" x2="213.9" y2="373.4"/>
		<line class="st4" x1="189.9" y1="382.4" x2="196.4" y2="390.1"/>
		<line class="st4" x1="178.4" y1="391.5" x2="186.4" y2="399.3"/>
		<line class="st4" x1="171.4" y1="398.6" x2="180.9" y2="407.4"/>
		<line class="st4" x1="161.1" y1="409.9" x2="168.6" y2="417.4"/>
		<line class="st4" x1="149.1" y1="424.5" x2="155.1" y2="431.1"/>
		<line class="st4" x1="143.3" y1="431.6" x2="149.1" y2="437.9"/>
		<line class="st4" x1="225.9" y1="353.4" x2="225.9" y2="368.4"/>
		<line class="st4" x1="230.9" y1="356.4" x2="238.5" y2="365.3"/>
		<polyline class="st4" points="276.1,335.4 275.1,347.4 267.9,356.4 260.5,347.4 258.7,337.9 273.9,314.4 		"/>
		<path class="st4" d="M192.9,356.4"/>
		<path class="st4" d="M221.9,328.4"/>
		<path class="st24" d="M192.9,358.4l29-30l16.5-7.5l-3.8-5.1c-1.4-1.8-3.5-3-5.8-3.2l-5.3-0.4c-1.9-0.2-3.9,0.5-5.3,1.8l-7.8,7.2
			c-1.9,1.7-3,4.2-3,6.7v0.4c0,1.7,0.6,3.4,1.6,4.7l3.7,4.9"/>
		<polyline class="st4" points="182.4,352.9 176.4,345.9 166.4,354.9 173.4,362.9 		"/>
		<path class="st4" d="M173.4,347.9l-18.5,2.8c-0.9,0.1-1.6,0.9-1.7,1.8l-2.8,19.2"/>
		<path class="st4" d="M148.9,373.4l-19.8,3.2c-1,0.2-1.8,1-1.8,2l-1,16.5"/>
		<line class="st5" x1="371.6" y1="374.3" x2="523.8" y2="253.5"/>
		<polygon class="st2" points="365.6,525.4 365.6,494.9 394.2,494.9 449.4,494.9 449.4,525.4 		"/>
		<polygon class="st2" points="395.4,441.9 417.6,441.9 425.4,441.9 425.4,494.9 395.4,494.9 		"/>
		<rect x="418.4" y="418.9" class="st2" width="26" height="23"/>
		<path class="st2" d="M404.4,411.9l89-74l31-67l-2.4-2.4c-0.8-0.8-2.2-0.8-3,0.1L404.4,405.9V411.9z"/>
		<line class="st3" x1="494.1" y1="336.5" x2="540.6" y2="282.9"/>
		<polyline class="st3" points="477.8,350.9 454.4,393.9 405.9,411.8 		"/>
		<circle class="st2" cx="375.4" cy="392.9" r="19"/>
		<polygon class="st2" points="352.4,411.9 363.4,415.9 394.4,415.9 394.4,409.9 352.4,409.9 		"/>
		<polyline class="st3" points="394.2,395.4 402.7,395.4 413.2,395.4 		"/>
		<polygon class="st2" points="402.2,441.9 394.9,441.9 394.9,395.4 401.9,395.4 		"/>
		<line class="st3" x1="407.5" y1="409.3" x2="418.4" y2="420.7"/>
		<line class="st3" x1="366.4" y1="415.9" x2="394.9" y2="441.4"/>
		<path class="st2" d="M520.4,254.9l6-6l36,22l39.7,93c0.6,1.3-1.3,2.4-2.1,1.2l-60.6-83.9l-7.5-7.8l-12-5L520.4,254.9z"/>
		<line class="st5" x1="740.8" y1="512.9" x2="740.8" y2="405.9"/>
		<path class="st25" d="M629.9,525.4H9.9c-1.1,0-2,0.9-2,2v48c0,1.1,0.9,2,2,2l81-1l314,46h733.5c2.5,0,4.9-0.2,7.4-0.7
			c14-2.7,60.2-13.2,55.1-35.3c-2-9-13-24-38-21c-11,2-27.4,21-33,14c13-32,105-128,92-129c-12.4-1-283.1-0.1-309,0
			c-1.1,0-2,0.9-2,2v31c0,1.1-0.9,2-2,2h-66c-0.6,0-1.2,0.3-1.6,0.8l-17.8,24.4c-0.4,0.5-1,0.8-1.6,0.8h-188c-1.1,0-2,0.9-2,2v10
			C631.9,524.5,631,525.4,629.9,525.4z"/>
		<rect x="979.4" y="491.9" class="st13" width="12" height="12"/>
		<rect x="1001.9" y="491.4" class="st13" width="12" height="12"/>
		<rect x="1047.4" y="491.9" class="st13" width="12" height="12"/>
		<rect x="1069.9" y="491.4" class="st13" width="12" height="12"/>
		<rect x="956.4" y="512.9" class="st13" width="12" height="12"/>
		<rect x="979.4" y="512.9" class="st13" width="12" height="12"/>
		<rect x="1001.9" y="512.4" class="st13" width="12" height="12"/>
		<rect x="1024.4" y="512.9" class="st13" width="12" height="12"/>
		<rect x="1047.4" y="512.9" class="st13" width="12" height="12"/>
		<rect x="1069.9" y="512.4" class="st13" width="12" height="12"/>
		<rect x="866.9" y="502.4" class="st13" width="12" height="12"/>
		<rect x="979.4" y="467.9" class="st13" width="12" height="12"/>
		<rect x="1001.9" y="467.4" class="st13" width="12" height="12"/>
		<rect x="1024.4" y="467.9" class="st13" width="12" height="12"/>
		<rect x="1047.4" y="467.9" class="st13" width="12" height="12"/>
		<rect x="1069.9" y="467.4" class="st13" width="12" height="12"/>
		<rect x="889.9" y="502.4" class="st13" width="12" height="12"/>
		<line class="st3" x1="1145.9" y1="377.9" x2="1145.9" y2="391.9"/>
		<line class="st3" x1="1254.9" y1="378.4" x2="1254.9" y2="392.4"/>
		<line class="st3" x1="1156.9" y1="377.9" x2="1156.9" y2="391.9"/>
		<path class="st2" d="M1156.9,392.4"/>
		<path class="st2" d="M1156.9,378.4"/>
		<line class="st3" x1="1167.9" y1="378.4" x2="1167.9" y2="392.4"/>
		<line class="st3" x1="1222.9" y1="377.9" x2="1222.9" y2="391.9"/>
		<line class="st3" x1="1233.9" y1="377.9" x2="1233.9" y2="391.9"/>
		<line class="st3" x1="1244.9" y1="378.4" x2="1244.9" y2="392.4"/>
		<line class="st3" x1="1189.9" y1="377.9" x2="1189.9" y2="391.9"/>
		<line class="st3" x1="1200.9" y1="377.9" x2="1200.9" y2="391.9"/>
		<line class="st3" x1="1211.9" y1="378.4" x2="1211.9" y2="392.4"/>
		<line class="st3" x1="1178.9" y1="377.4" x2="1178.9" y2="391.4"/>
		<path class="st3" d="M1170.9,369.4l24.5,21.5c0.5,0.6,1.5,0.6,2,0l19-19.8c1.9-2,5.1-2,7,0l19.5,20.3"/>
		<line class="st3" x1="852.9" y1="433.9" x2="911.9" y2="433.9"/>
		<path class="st2" d="M815.9,465.4v10h8v-9l-2.2-4.9c-0.7-1.6-3-1.7-3.8-0.1l-0.7,1.3L815.9,465.4z"/>
		<path class="st2" d="M807.1,459.9l14.1,4c0.3,0.1,0.2,0.5-0.1,0.5h-51.2l-56-2.9c-0.6,0-1-0.5-1-1.1l0,0c0-1.1,0.9-2,2-2h81.6
			C800.1,458.4,803.6,458.9,807.1,459.9z"/>
	</g>
</g>
<g id="Layer_2" class="st0">
	<path class="st26" d="M636.6,437.4l-27.1-59c-0.2-0.5-0.2-1.1,0.1-1.6l22.4-33.3c0.5-0.8,1.6-0.9,2.3-0.4l4,3.1
		c0.7,0.5,0.8,1.4,0.4,2.2l-19,28.9c-0.3,0.5-0.3,1.1-0.1,1.6l20,42.4c0.1,0.2,0.2,0.5,0.2,0.7l-0.2,14.8
		C639.6,438.4,637.3,438.9,636.6,437.4z"/>
	<path class="st27" d="M332.5,530.7h-42c-1.1,0-2-0.9-2-2v-21.5c0-1.1,0.9-2,2-2h42c1.1,0,2,0.9,2,2v21.5
		C334.5,529.8,333.6,530.7,332.5,530.7z"/>
	<path class="st27" d="M386.9,531h29.5c1.1,0,2-0.9,2-2v-31.1c0-1.1-0.9-2-2-2h-29.5c-1.1,0-2,0.9-2,2V529
		C384.9,530.1,385.8,531,386.9,531z"/>
	<path class="st27" d="M383,531h-20.3c-1.1,0-1.9-0.9-1.9-1.9v-38.4c0-1.1,0.9-1.9,1.9-1.9H383c1.1,0,1.9,0.9,1.9,1.9v38.4
		C384.9,530.1,384.1,531,383,531z"/>
	<line class="st28" x1="349.3" y1="296.2" x2="582.8" y2="346.9"/>
	<polygon class="st28" points="290.7,199.9 591.6,317.2 588.9,324.2 290.7,206.5 	"/>
	<path class="st29" d="M61.6,586.4c0,0-14,43,37.8,40.6c39.3-1.9,152.1-0.6,195.1-0.2c3,0,3.5-4.2,0.6-4.9l-226.1-50L61.6,586.4z"/>
	<path class="st27" d="M637.3,523.9h-46.5c-1.2,0-2.2-1-2.2-2.2v-38.9c0-1.2,1-2.2,2.2-2.2h46.5c1.2,0,2.2,1,2.2,2.2v38.9
		C639.6,522.9,638.6,523.9,637.3,523.9z"/>
	<polygon class="st26" points="499,533.7 566.7,383.5 576,387.2 508.3,536.5 	"/>
	<path class="st26" d="M595,305.1L562.7,382c-0.4,0.9,0.1,1.9,0.9,2.2l13.6,5.4c0.8,0.3,1.8-0.1,2.2-0.9l34.9-82.2
		c0.5-1.1-0.3-2.3-1.5-2.3h-16.2C595.9,304.1,595.3,304.5,595,305.1z"/>
	<path class="st27" d="M304.9,534.6v-71.3c0-0.1,0-0.3,0-0.4l7.6-32.7c0-0.1,0-0.3,0-0.4v-13.2c0-0.1,0-0.2,0-0.2l-28.4-211.2
		c0-0.2,0-0.4,0-0.6l0.3-1.3c1.1-5.4,8.2-6.7,11.1-2.1l2.7,4.1c0.1,0.1,0.1,0.3,0.2,0.4l62.3,177.6c0.1,0.3,0.1,0.5,0.1,0.8l-2.7,30
		c0,0.2,0,0.3,0,0.5l2.7,15.5c0,0,0,0.1,0,0.1l7.6,32.8c0,0.1,0,0.3,0,0.4v71.3c0,1-0.8,1.9-1.9,1.9h-59.9
		C305.8,536.5,304.9,535.6,304.9,534.6z"/>
	<polygon class="st27" points="312.6,416.4 358.5,416.4 360.8,430 312.6,430 	"/>
	<line class="st27" x1="360.8" y1="383.5" x2="308.2" y2="383.5"/>
	<polygon class="st26" points="639.6,93.6 656.8,93.6 656.8,118.8 661.2,165.9 661.2,523.9 639.6,523.9 	"/>
	<path class="st26" d="M632.1,184.6h40.7c0.9,0,1.6,0.7,1.6,1.6v0.7c0,0.9-0.7,1.6-1.6,1.6h-40.7c-0.9,0-1.6-0.7-1.6-1.6v-0.7
		C630.5,185.3,631.2,184.6,632.1,184.6z"/>
	<path class="st27" d="M639.6,443.8"/>
	<polygon class="st27" points="402.5,536.5 402.5,449.1 433.7,449.7 433.7,536.5 	"/>
	<path class="st27" d="M394.8,443.8h51c0.9,0,1.7,0.7,1.7,1.7v2c0,0.9-0.7,1.6-1.6,1.7l-51,0.6c-0.9,0-1.7-0.7-1.7-1.7v-2.6
		C393.2,444.6,393.9,443.8,394.8,443.8z"/>
	<rect x="403" y="426.5" class="st27" width="30.7" height="17.3"/>
	<rect x="562" y="441.7" class="st27" width="11.6" height="85.6"/>
	<path class="st27" d="M518.2,453l61.2-23c0.1,0,0.2-0.1,0.3-0.2l14.5-12.8c0.4-0.4,1-0.3,1.4,0.1l7,8.5c0.3,0.4,0.3,1-0.2,1.4
		l-21.5,16.6c-0.1,0.1-0.3,0.2-0.4,0.2l-61.7,11C517.5,455.1,517.1,453.4,518.2,453z"/>
	<path class="st27" d="M485.3,430h39.9c0.1,0,0.2,0,0.2,0l68.8-10.2c0.1,0,0.2,0,0.2,0h26.8c0.9,0,1.6-0.7,1.6-1.6v-2.3
		c0-0.9-0.7-1.6-1.6-1.6l-216.6,2.2c-0.9,0-1.6,0.7-1.6,1.6v7c0,0.8,0.7,1.6,1.5,1.6L485.3,430C485.2,430,485.3,430,485.3,430z"/>
	<circle class="st30" cx="576" cy="74.7" r="41.7"/>
	<circle class="st31" cx="576" cy="74.7" r="21.7"/>
	<path class="st26" d="M490,28.4h89.2c0.8,0,1.5,0.7,1.5,1.5V68c0,0.8-0.7,1.5-1.5,1.5h-3.3c-0.8,0-1.5-0.7-1.5-1.5V38.5
		c0-0.8-0.6-1.5-1.4-1.5l-75.5-4c-0.7,0-1.3,0.4-1.5,1.1l-3.6,11.7c-0.8,2.7-4.7,2.5-5.2-0.3l-1.8-9.6c-0.1-0.3,0-0.7,0.2-1l3.2-5.9
		C488.9,28.7,489.4,28.4,490,28.4z"/>
	<path class="st26" d="M603.7,66.8v28c0,0.8,0.7,1.5,1.5,1.5h10.9c0.8,0,1.5,0.7,1.5,1.5V109c0,0.8,0.7,1.5,1.5,1.5h19.2
		c0.8,0,1.5-0.6,1.5-1.5l0.2-3.7c0-0.8,0.7-1.5,1.5-1.5l23.1-0.5c0.8,0,1.5-0.7,1.5-1.5V91.8c0-0.6,0.3-1.1,0.9-1.4l5.3-2.4
		c4.4-2,3.8-8.4-0.8-9.6l-14.1-3.7L623,65.3c-0.1,0-0.3-0.1-0.4-0.1l-17.4,0C604.4,65.3,603.7,65.9,603.7,66.8z"/>
	<circle class="st26" cx="676.4" cy="82.5" r="9.5"/>
	<polygon class="st26" points="639.8,312.2 635.1,302.1 609.1,246.5 609.1,240.5 615.3,244.3 639.6,289.8 	"/>
	<path class="st26" d="M628.3,289.8h-37.8c-0.9,0-1.7,0.7-1.7,1.7v11c0,0.9,0.7,1.7,1.7,1.7l42.8-0.4c1.2,0,2-1.3,1.5-2.4l-5-10.6
		C629.6,290.2,629,289.8,628.3,289.8z"/>
	<rect x="588.9" y="236.6" class="st26" width="8.8" height="53.2"/>
	<path class="st26" d="M630.5,211v-4.6c0-0.8,0.7-1.5,1.5-1.5h6.2c0.9,0,1.5,0.7,1.5,1.6l-0.2,9.5c0,0.8-0.7,1.5-1.5,1.5h-4.3
		c-0.5,0-1,0.3-1.3,0.7l-32.1,48.8c-0.8,1.3-2.8,0.7-2.8-0.8V261c0-0.3,0.1-0.6,0.3-0.9l32.4-48.3
		C630.4,211.6,630.5,211.3,630.5,211z"/>
	<polygon class="st26" points="630.5,204.9 605.8,204.9 605.8,195.3 639.8,195.3 639.8,204.9 	"/>
	<path class="st31" d="M526.4,73.1l57.9,1.6c0.9,0,1.6,0.8,1.6,1.7l-3,55l-2.1,48.7c0,0.9,0.7,1.7,1.6,1.7h4.9
		c0.9,0,1.6,0.7,1.6,1.6v3.3c0,0.9-0.7,1.6-1.6,1.6h-0.8c-1.4,0-2.2,1.7-1.2,2.7l2.5,2.8c0.6,0.7,0.5,1.8-0.2,2.4l-4.2,3.4
		c-0.3,0.2-0.7,0.4-1,0.4h-13.9c-0.4,0-0.8-0.1-1-0.4l-3.8-3.2c-0.8-0.7-0.8-1.9,0-2.5l3.2-2.7c1.2-1,0.5-2.9-1.1-2.9h-2.1
		c-0.9,0-1.6-0.7-1.6-1.6v-2.9c0-0.9,0.7-1.6,1.5-1.6l5-0.3c0.9-0.1,1.6-0.9,1.5-1.8l-5.9-69.6l-2-21.2c-0.1-0.8-0.8-1.5-1.6-1.5
		h-30.1c-0.5,0-0.9-0.2-1.2-0.5l-4-4.4c-0.3-0.3-0.4-0.7-0.4-1.1v-7.1C524.7,73.8,525.5,73,526.4,73.1z"/>
	<path class="st26" d="M703.7,516.3h-40.6c-1.1,0-1.9-0.9-1.9-1.9v-52.5c0-1.1,0.9-1.9,1.9-1.9h40.6c1.1,0,1.9,0.9,1.9,1.9v52.5
		C705.6,515.5,704.8,516.3,703.7,516.3z"/>
	<polyline class="st31" points="674.4,188.4 695.7,209.2 696.8,210.3 703.4,210.3 670,232.3 694.3,253.6 696.8,255.8 703.4,255.8 
		674.4,275.6 694.6,293.9 699,293.9 691.9,293.9 674.4,312.2 703.4,340.5 707.8,340.5 699.6,340.5 674.4,361.6 699.6,387.2 
		702.9,387.2 696.8,387.2 674.4,411.2 695,425.2 696.8,426.5 701.2,426.5 661.2,460 	"/>
	<line class="st26" x1="661.2" y1="312.2" x2="689.7" y2="312.2"/>
	<line class="st26" x1="661.2" y1="398.8" x2="705.6" y2="398.8"/>
	<line class="st26" x1="661.2" y1="443.8" x2="702.3" y2="443.8"/>
	<line class="st26" x1="674.4" y1="411.2" x2="661.2" y2="411.2"/>
	<line class="st26" x1="568.6" y1="181.9" x2="582.3" y2="181.8"/>
	<line class="st26" x1="545.4" y1="103" x2="605.8" y2="45.4"/>
	<line class="st26" x1="545.4" y1="46.4" x2="606.5" y2="103"/>
	<path class="st26" d="M630.5,184.6L567.8,79.3L567,76c-1.8-7.6,6.5-13.5,13.1-9.4l2.8,1.7l57.9,116.2H630.5z"/>
	<path class="st26" d="M577.5,65.3H612c0.8,0,1.5-0.7,1.5-1.5V27.1c0-0.8-0.7-1.5-1.5-1.5h-12.9c-0.8,0-1.5,0.7-1.5,1.5v28.8
		c0,0.8-0.7,1.5-1.5,1.5h-18.6c-0.8,0-1.5,0.7-1.5,1.5v4.9C576,64.6,576.6,65.3,577.5,65.3z"/>
	<path class="st26" d="M590.8,361.6h104.2c1.1,0,1.9,0.9,1.9,1.9v0.8c0,1.1-0.9,1.9-1.9,1.9H590.8c-1.1,0-1.9-0.9-1.9-1.9v-0.8
		C588.9,362.5,589.7,361.6,590.8,361.6z"/>
	<path class="st26" d="M607.2,275.6H673c0.7,0,1.3,0.6,1.3,1.3v0.6c0,0.7-0.6,1.3-1.3,1.3h-65.9c-0.7,0-1.3-0.6-1.3-1.3v-0.6
		C605.8,276.2,606.4,275.6,607.2,275.6z"/>
	<path class="st26" d="M695,232.3H584.6c-1,0-1.8,0.8-1.8,1.8v0.8c0,1,0.8,1.8,1.8,1.8H695c1,0,1.8-0.8,1.8-1.8v-0.8
		C696.8,233.1,696,232.3,695,232.3z"/>
	<path class="st27" d="M810.6,405.7v-14c0-0.9,0.7-1.6,1.6-1.6h205.9c0.3,0,0.6,0.1,0.9,0.2l22.6,14c1.4,0.9,0.8,3-0.9,3H812.2
		C811.3,407.4,810.6,406.7,810.6,405.7z"/>
	<path class="st27" d="M804,369.2h182.8c0.3,0,0.6,0.1,0.9,0.3l30.8,20.7H811.7c-0.7,0-1.2-0.4-1.5-1l-7.6-17.7
		C802.1,370.4,802.9,369.2,804,369.2z"/>
	<path class="st27" d="M796.3,344.5h176.9c0.2,0,0.3,0,0.4,0.1l15,4c0.9,0.2,1.5,1.2,1.2,2.1l-4.4,16.2c-0.3,1,0.4,2,1.4,2.2
		l0.6,0.1H802.8c-0.7,0-1.4-0.5-1.6-1.2l-6.5-18.3c-0.1-0.2-0.1-0.4-0.1-0.6v-2.9C794.5,345.3,795.3,344.5,796.3,344.5z"/>
	<line class="st27" x1="988.6" y1="349.8" x2="794.5" y2="349.8"/>
	<path class="st27" d="M822.9,322.7h51.4c0.9,0,1.6,0.7,1.6,1.6v18.5c0,0.9-0.7,1.6-1.6,1.6h-51.4c-0.9,0-1.6-0.7-1.6-1.6v-18.5
		C821.3,323.4,822,322.7,822.9,322.7z"/>
	<path class="st27" d="M809.6,265.4l34.6,56.6c0.2,0.3,0,0.8-0.4,0.8h-22.1c-0.2,0-0.5-0.2-0.5-0.4l-12.7-56.5
		C808.3,265.1,809.2,264.8,809.6,265.4z"/>
	<path class="st32" d="M1285.9,403.7h-238.1c-1.1,0-2-0.9-2-2v-4.6c0-1.1,0.9-2,2-2h238.1c1.1,0,2,0.9,2,2v4.6
		C1287.9,402.8,1287,403.7,1285.9,403.7z"/>
	<path class="st32" d="M1107.6,423H1284c0.8,0,1.4,0.6,1.4,1.4v0.6c0,0.8-0.6,1.4-1.4,1.4h-176.4c-0.8,0-1.4-0.6-1.4-1.4v-0.6
		C1106.2,423.7,1106.8,423,1107.6,423z"/>
	<line class="st28" x1="1110.3" y1="403.7" x2="1164.1" y2="424.8"/>
	<line class="st28" x1="1165.4" y1="403.7" x2="1220" y2="424.8"/>
	<line class="st28" x1="1261.6" y1="403.7" x2="1220" y2="424.8"/>
	<line class="st28" x1="1219.6" y1="403.7" x2="1220" y2="424.8"/>
	<line class="st28" x1="1165.4" y1="403.7" x2="1165.4" y2="424.8"/>
	<line class="st28" x1="1110.3" y1="403.7" x2="1110.3" y2="424.8"/>
	<path class="st33" d="M-2,518.4h68.5c0.5,0,0.9,0.2,1.2,0.6l7.4,11.1c0.3,0.4,0.7,0.6,1.2,0.6h415.9c0.6,0,1.1-0.4,1.3-0.9
		l4.2-10.5c0.2-0.5,0.7-0.9,1.3-0.9h111.4c0.2,0,0.4,0,0.6-0.1l24.1-10.5c0.2-0.1,0.4-0.1,0.6-0.1h124.9c0.8,0,1.4-0.6,1.4-1.4
		v-15.9c0-0.5-0.2-0.9-0.6-1.2l-11-7.4c-0.4-0.3-0.7-0.7-0.6-1.2l0.8-43.1c0-0.3,0.1-0.7,0.3-0.9l26.4-31.2c0.3-0.3,0.7-0.5,1.1-0.5
		h55.4c0.8,0,1.4-0.6,1.4-1.4V385c0-0.8,0.6-1.4,1.4-1.4h80.7c0,0,0.1,0,0.1,0l84.5,7.4c0.1,0,0.2,0,0.2,0l223,59
		c0.3,0.1,0.6,0.3,0.8,0.5l7.6,9.8c0.2,0.3,0.3,0.7,0.3,1.1l-10.5,75.1c-0.1,0.5-0.4,0.9-0.8,1.1c-5.4,2.4-39.5,18-48.6,30.1
		c-9.9,13.2,45.2-22.2,51,14c5.7,35.7-104.1,45-106.8,45.2c0,0-0.1,0-0.1,0H297.6c-0.1,0-0.2,0-0.3,0L71.5,586.7c-0.1,0-0.1,0-0.2,0
		L12.2,585c-0.5,0-1-0.3-1.2-0.7L-3.2,559c-0.1-0.2-0.2-0.5-0.2-0.7v-38.5C-3.4,519-2.8,518.4-2,518.4z"/>
	<path class="st27" d="M937.2,419.7h63.4c1.1,0,1.9,1.1,1.5,2.2l-5,14c-0.2,0.7-0.9,1.1-1.5,1.1h-58.5c-0.9,0-1.6-0.7-1.6-1.6v-14
		C935.6,420.5,936.3,419.7,937.2,419.7z"/>
	<path class="st27" d="M845.1,445.6h148.4c1.2,0,2,1.2,1.5,2.3l-5.1,11.2c-0.3,0.6-0.9,1-1.5,1h-4.7c-0.9,0-1.6,0.7-1.6,1.6v2
		c0,0.9,0.7,1.6,1.6,1.6h2.4c1.2,0,2,1.2,1.5,2.3l-5.2,11.9c-0.3,0.6-0.9,1-1.5,1H845.1c-0.9,0-1.6-0.7-1.6-1.6v-31.7
		C843.4,446.4,844.2,445.6,845.1,445.6z"/>
	<path class="st27" d="M839.4,508.1h97.4c0.9,0,1.6-0.7,1.6-1.6v-16c0-0.9-0.7-1.6-1.6-1.6h-97.4c-0.9,0-1.6,0.7-1.6,1.6v16
		C837.7,507.4,838.4,508.1,839.4,508.1z"/>
	<rect x="892" y="423" class="st34" width="8.2" height="14"/>
	<rect x="906.4" y="423" class="st34" width="8.2" height="14"/>
	<rect x="919.2" y="423" class="st34" width="8.2" height="14"/>
	<rect x="1018.2" y="423" class="st34" width="8.2" height="7"/>
	<rect x="1045.7" y="423" class="st34" width="8.2" height="7"/>
	<rect x="1010.7" y="445.6" class="st34" width="4.1" height="7"/>
	<rect x="1029.6" y="445.6" class="st34" width="4.1" height="7"/>
	<rect x="1052.9" y="445.6" class="st34" width="4.1" height="7"/>
	<rect x="1071.2" y="445.6" class="st34" width="4.1" height="7"/>
	<rect x="1094" y="445.6" class="st34" width="4.1" height="7"/>
	<rect x="1117" y="445.6" class="st34" width="4.1" height="7"/>
	<rect x="1010.7" y="468.9" class="st34" width="4.1" height="7"/>
	<rect x="1029.6" y="468.9" class="st34" width="4.1" height="7"/>
	<rect x="1052.9" y="468.9" class="st34" width="4.1" height="7"/>
	<rect x="1071.2" y="468.9" class="st34" width="4.1" height="7"/>
	<rect x="1094" y="468.9" class="st34" width="4.1" height="7"/>
	<rect x="1117" y="468.9" class="st34" width="4.1" height="7"/>
	<rect x="951.6" y="492.5" class="st34" width="8.2" height="7"/>
	<rect x="967.4" y="492.5" class="st34" width="8.2" height="7"/>
	<rect x="983.7" y="492.5" class="st34" width="8.2" height="7"/>
	<rect x="1027.6" y="492.5" class="st34" width="8.2" height="7"/>
	<rect x="1050.8" y="492.5" class="st34" width="8.2" height="7"/>
	<rect x="872.8" y="516.3" class="st34" width="4.1" height="4.3"/>
	<rect x="894" y="516.3" class="st34" width="4.1" height="4.3"/>
	<rect x="916" y="516.3" class="st34" width="4.1" height="4.3"/>
	<rect x="932.5" y="516.3" class="st34" width="4.1" height="4.3"/>
	<rect x="947.5" y="516.3" class="st34" width="4.1" height="4.3"/>
	<rect x="964.8" y="516.3" class="st34" width="4.1" height="4.3"/>
	<rect x="980.6" y="516.3" class="st34" width="4.1" height="4.3"/>
	<rect x="996.7" y="516.3" class="st34" width="4.1" height="4.3"/>
	<rect x="1011.5" y="516.3" class="st34" width="4.1" height="4.3"/>
	<path class="st27" d="M642.3,514.6h3.5c0.9,0,1.7,0.7,1.7,1.7v12.8c0,0.9-0.7,1.7-1.7,1.7h-3.5c-0.9,0-1.7-0.7-1.7-1.7v-12.8
		C640.7,515.3,641.4,514.6,642.3,514.6z"/>
	<path class="st27" d="M620.1,523.9h11.2c0.9,0,1.7,0.7,1.7,1.7v3.5c0,0.9-0.7,1.7-1.7,1.7h-11.2c-0.9,0-1.7-0.7-1.7-1.7v-3.5
		C618.5,524.6,619.2,523.9,620.1,523.9z"/>
	<circle class="st35" cx="808.8" cy="260" r="6.4"/>
	<circle class="st35" cx="834.6" cy="306.1" r="16.2"/>
	<circle class="st35" cx="858.1" cy="312.2" r="8"/>
	<polygon class="st34" points="798.8,352.7 814.3,352.7 819.2,366.3 803.6,366.3 	"/>
	<polygon class="st34" points="817.5,352.7 841.6,352.7 841.6,366.3 822.8,366.3 	"/>
	<polygon class="st34" points="867.9,352.7 843.5,352.7 843.5,366.3 862.5,366.3 	"/>
	<polygon class="st34" points="883.5,352.7 870.4,352.7 865.3,366.3 878.7,366.3 	"/>
	<polygon class="st34" points="900.6,352.7 886.7,352.7 884.1,361.6 900,361.6 	"/>
	<polygon class="st34" points="917.1,352.7 902.4,352.7 902.2,361.6 916.4,361.6 	"/>
	<polygon class="st34" points="933.3,352.7 918.5,352.7 918.4,361.6 932.6,361.6 	"/>
	<polygon class="st34" points="950.1,352.7 935.4,352.7 935.2,361.6 949.4,361.6 	"/>
	<polygon class="st34" points="966.4,352.7 951.7,352.7 951.6,361.6 965.8,361.6 	"/>
	<polygon class="st34" points="984.7,352.7 967.5,352.7 967.4,361.6 981.6,361.6 	"/>
	<polygon class="st34" points="806,372.4 822.3,372.4 827.2,387.2 812.4,387.2 	"/>
	<path class="st27" d="M887.9,396.7h76.8c0.1,0,0.2,0,0.3,0l41,6.7c1,0.2,1.6,1.2,1.3,2.2l-2.6,7.6c-0.2,0.7-0.9,1.1-1.6,1.1H887.9
		c-0.9,0-1.6-0.7-1.6-1.6v-14.2C886.2,397.4,887,396.7,887.9,396.7z"/>
	<rect x="941.3" y="423" class="st34" width="8.2" height="10.7"/>
	<rect x="956.6" y="423" class="st34" width="8.2" height="10.7"/>
	<rect x="983.7" y="423" class="st34" width="8.2" height="10.7"/>
	<rect x="905.6" y="400.4" class="st34" width="8.2" height="10.8"/>
	<rect x="941.3" y="400.4" class="st34" width="8.2" height="10.8"/>
	<rect x="972.4" y="401.9" class="st34" width="8.2" height="9.3"/>
	<rect x="988.6" y="405.5" class="st34" width="8.2" height="5.8"/>
	<rect x="843.4" y="492.5" class="st34" width="8.2" height="7"/>
	<rect x="870.8" y="492.5" class="st34" width="8.2" height="7"/>
	<rect x="903.4" y="492.5" class="st34" width="8.2" height="7"/>
	<rect x="919.2" y="492.5" class="st34" width="8.2" height="7"/>
	<rect x="967.1" y="449.7" class="st34" width="4.1" height="7"/>
	<rect x="951" y="449.7" class="st34" width="4.1" height="7"/>
	<rect x="924.4" y="449.7" class="st34" width="4.1" height="7"/>
	<rect x="902.7" y="449.7" class="st34" width="4.1" height="7"/>
	<rect x="854.6" y="449.7" class="st34" width="4.1" height="7"/>
	<rect x="854.6" y="467.6" class="st34" width="4.1" height="7"/>
	<rect x="902.7" y="467.6" class="st34" width="4.1" height="7"/>
	<rect x="924.4" y="467.6" class="st34" width="4.1" height="7"/>
	<rect x="951" y="467.6" class="st34" width="4.1" height="7"/>
	<rect x="967.1" y="467.6" class="st34" width="4.1" height="7"/>
	<path class="st27" d="M875.9,322.7l15.1,0.4c0.4,0,0.7,0.1,1,0.4l21.7,18.2c1.1,1,0.5,2.8-1,2.8h-36.8c-0.9,0-1.6-0.7-1.6-1.6
		v-18.6C874.3,323.4,875,322.7,875.9,322.7z"/>
	<circle class="st27" cx="351" cy="311" r="14.8"/>
	<path class="st27" d="M358.9,375.2l45.1,4.5c0.1,0,0.1,0,0.2,0l185.7,0.2c0.9,0,1.7-0.8,1.7-1.7v-12.5c0-0.9-0.8-1.7-1.7-1.7H404.8
		c-0.1,0-0.1,0-0.2,0l-46.7,5c-1.1,0.1-1.8,1.2-1.4,2.3l1,2.8C357.7,374.7,358.3,375.1,358.9,375.2z"/>
</g>
<g id="Layer_3_1_">
	<line class="st4" x1="899.9" y1="318.8" x2="899.9" y2="268.8"/>
	<circle class="st36" cx="945.4" cy="313" r="15"/>
	<path class="st2" d="M899.9,353.3v-32.5c0-1.1,0.9-2,2-2h47.5c1.1,0,2,0.9,2,2v32.5c0,1.1-0.9,2-2,2h-47.5
		C900.8,355.3,899.9,354.4,899.9,353.3z"/>
	<path class="st4" d="M795.1,444.4l0.2,10.1l-56.3,1l-217.7,4l-51.6-10.2c-1.5-0.3-1.4-2.4,0.1-2.6l51.1-6.9l217.7-4.1L795.1,444.4z
		"/>
	<path class="st4" d="M474.6,446.5l6.1,4.8c0.2,0.2,0.6,0.2,0.8,0l7-6.7c0.3-0.2,0.7-0.2,0.9,0.1l6.9,9.4c0.2,0.3,0.7,0.3,0.9,0
		l9.2-11.6c0.3-0.3,0.8-0.3,1,0.1l6.5,14.3c0.2,0.5,0.9,0.4,1.1,0l5-13.4c0.2-0.6,1.1-0.4,1.1,0.2l0.3,15.9"/>
	<path class="st4" d="M520.9,440.5l6.5,18.5c0,0.1,0.2,0.1,0.3,0l6.4-18.3c0-0.1,0.2-0.1,0.3,0l5.5,18c0,0.1,0.2,0.1,0.3,0l5.2-18.5
		c0-0.1,0.2-0.1,0.3,0l6.3,18.3c0,0.1,0.2,0.1,0.3,0l4.9-18.2c0-0.1,0.2-0.1,0.3,0l6.7,18c0,0.1,0.2,0.1,0.3,0l5.6-18.5
		c0-0.1,0.2-0.1,0.3,0l6.3,18.3c0,0.1,0.2,0.1,0.3,0l5.6-18.3c0-0.1,0.2-0.1,0.3,0l6.7,18.1c0,0.1,0.2,0.1,0.3,0l6-19.1
		c0-0.1,0.2-0.1,0.3,0l6.3,18.9c0,0.1,0.2,0.1,0.3,0l6.8-19.2c0-0.1,0.2-0.1,0.3,0l6.7,18.9c0,0.1,0.2,0.1,0.3,0l6-18.3
		c0-0.1,0.2-0.1,0.3,0l7.1,18.1c0,0.1,0.2,0.1,0.3,0l6-18.6c0-0.1,0.2-0.1,0.3,0l6.7,18.3c0,0.1,0.2,0.1,0.3,0l5.7-18.3
		c0-0.1,0.2-0.1,0.3,0l7.5,18.1c0,0.1,0.2,0.1,0.3,0l6-18.4c0-0.1,0.2-0.1,0.3,0l7.1,18.1c0,0.1,0.2,0.1,0.3,0l6.4-19.2
		c0-0.1,0.2-0.1,0.3,0l7.5,19.2c0,0.1,0.2,0.1,0.3,0l6.4-18.9c0-0.1,0.2-0.1,0.3,0l7.5,18.4c0,0.1,0.2,0.1,0.3,0l6.8-18.4
		c0-0.1,0.2-0.1,0.3,0l6.3,18.1c0,0.1,0.2,0.1,0.3,0l6.8-18.4c0-0.1,0.2-0.1,0.3,0l6.3,18.1c0,0.1,0.2,0.1,0.3,0l6-18.3
		c0-0.1,0.2-0.1,0.3,0l5.6,17.5c0,0.2,0.3,0.1,0.3,0l-0.3-17.5c0-0.2,0.2-0.2,0.3-0.1l7.1,18c0,0.1,0.2,0.1,0.3,0l4.2-17
		c0-0.1,0.2-0.1,0.3,0l8.2,17c0.1,0.1,0.2,0.1,0.2,0l6.7-13.4c0.4-0.8,1.6-0.8,1.9,0.1l5.5,13.1c0,0.1,0.2,0.1,0.2,0l7.4-12.2
		c0.1-0.1,0.2-0.1,0.2,0l6.9,11.9c0.1,0.1,0.2,0.1,0.3,0L793,444"/>
	<path class="st24" d="M796.1,444.7l39.1,13.6c0.8,0.3,0.5,1.5-0.4,1.4l-38.9-5.2c-0.4,0-0.6-0.3-0.6-0.7l-0.2-8.4
		C795.1,444.9,795.6,444.6,796.1,444.7z"/>
	<path class="st4" d="M461,444.8l-0.8,10l-54.5-4.5l-210.6-17.5l-48.8-15.2c-1.4-0.4-1.2-2.6,0.3-2.6l50-1.8l210.6,17.4L461,444.8z"
		/>
	<path class="st4" d="M151.4,415.2l5.4,5.4c0.2,0.2,0.5,0.2,0.7,0l7.5-5.9c0.3-0.2,0.7-0.1,0.8,0.2l5.7,10c0.2,0.3,0.6,0.4,0.9,0.1
		l10-10.7c0.3-0.3,0.8-0.2,0.9,0.2l4.8,14.9c0.2,0.5,0.8,0.5,1,0.1l6.2-12.9c0.3-0.6,1.1-0.3,1.1,0.3l-1.3,15.9"/>
	<path class="st4" d="M196.7,413.9l4.4,19c0,0.1,0.2,0.1,0.3,0l8-17.6c0.1-0.1,0.2-0.1,0.3,0l3.5,18.5c0,0.1,0.2,0.1,0.3,0l6.9-17.8
		c0-0.1,0.2-0.1,0.3,0l4.2,18.8c0,0.1,0.2,0.1,0.3,0l6.5-17.6c0-0.1,0.2-0.1,0.3,0l4.6,18.6c0,0.1,0.2,0.1,0.3,0l7.3-17.9
		c0-0.1,0.2-0.1,0.3,0l4.3,18.8c0,0.1,0.2,0.1,0.3,0l7.3-17.6c0-0.1,0.2-0.1,0.3,0l4.6,18.6c0,0.1,0.2,0.1,0.3,0l7.7-18.4
		c0.1-0.1,0.2-0.1,0.3,0l4.2,19.4c0,0.1,0.2,0.1,0.3,0l8.5-18.4c0.1-0.1,0.2-0.1,0.3,0l4.6,19.5c0,0.1,0.2,0.1,0.3,0l7.7-17.6
		c0.1-0.1,0.2-0.1,0.3,0l5,18.7c0,0.1,0.2,0.1,0.3,0l7.7-17.9c0.1-0.1,0.2-0.1,0.3,0l4.6,18.9c0,0.1,0.2,0.1,0.3,0l7.3-17.7
		c0-0.1,0.2-0.1,0.3,0L327,443c0,0.1,0.2,0.1,0.3,0l7.7-17.7c0.1-0.1,0.2-0.1,0.3,0l5,18.7c0,0.1,0.2,0.1,0.3,0l8.1-18.5
		c0.1-0.1,0.2-0.1,0.3,0l5.3,19.9c0,0.1,0.2,0.1,0.3,0l8.1-18.2c0.1-0.1,0.2-0.1,0.3,0l5.4,19.1c0,0.1,0.2,0.1,0.3,0l8.4-17.6
		c0.1-0.1,0.2-0.1,0.3,0l4.3,18.6c0,0.1,0.2,0.1,0.3,0l8.4-17.6c0.1-0.1,0.2-0.1,0.3,0l4.3,18.6c0,0.1,0.2,0.1,0.3,0l7.6-17.6
		c0.1-0.1,0.2-0.1,0.3,0l3.6,18c0,0.2,0.3,0.1,0.3,0l1.5-17.5c0-0.1,0.2-0.2,0.3,0l5.1,18.6c0,0.1,0.2,0.1,0.3,0l5.8-16.5
		c0-0.1,0.2-0.1,0.3,0l6.2,17.7c0,0.1,0.2,0.1,0.2,0l8-13c0.4-0.6,1.4-0.5,1.6,0.2l4.1,13.9c0,0.1,0.2,0.1,0.2,0l8.3-11.4
		c0.1-0.1,0.2-0.1,0.2,0l5.5,12.5c0,0.1,0.2,0.1,0.2,0l4.5-10"/>
	<path class="st24" d="M461.9,445.2l36.4,17.4c0.8,0.4,0.4,1.6-0.5,1.3l-37.1-9c-0.3-0.1-0.6-0.4-0.5-0.8l0.7-8.4
		C460.9,445.3,461.4,445,461.9,445.2z"/>
	<line class="st4" x1="22.8" y1="517.9" x2="54.3" y2="478.5"/>
	<path class="st4" d="M130.2,21.4c0,0,360.5,262.8,494.5,332"/>
	<path class="st4" d="M122.3,28.3c0,0,349.4,251.4,475.6,323.4"/>
	<path class="st24" d="M43.6,515.2l23.1-99c0.2-0.9,1-1.5,1.9-1.5H145c1,0,1.8,0.7,2,1.6l19.9,99c0.2,1.2-0.7,2.4-2,2.4H45.6
		C44.3,517.6,43.3,516.4,43.6,515.2z"/>
	<polygon class="st36" points="817.9,327.8 827.1,327.8 827.1,345.8 817.4,345.8 	"/>
	<circle class="st36" cx="821.9" cy="313.3" r="15"/>
	<path class="st2" d="M1088.9,475.8V424c0-1.2-0.9-2.1-2.1-2.1h-11.9v-76.2H888.4v130L1088.9,475.8L1088.9,475.8z"/>
	<path class="st2" d="M842.4,345.8h-24.2c-0.5,0-1,0.2-1.4,0.5l-5.9,5.5l5.5,19l-0.5,7l12.8,3.5v44.3h13.8v-79.8H842.4z"/>
	<path class="st24" d="M869.1,342.8l4.6-74.8c0.1-1.5,1.3-2.7,2.8-2.7h9c1.6,0,2.8,1.3,2.8,2.8v74.8c0,1.6-1.3,2.8-2.8,2.8h-13.7
		C870.3,345.8,869,344.4,869.1,342.8z"/>
	<line class="st4" x1="882.4" y1="204.8" x2="882.4" y2="265.3"/>
	<line class="st4" x1="908.4" y1="268.8" x2="888.4" y2="268.8"/>
	<line class="st4" x1="912.9" y1="294.3" x2="888.4" y2="294.3"/>
	<line class="st4" x1="864.9" y1="294.3" x2="872.1" y2="294.3"/>
	<path class="st2" d="M1013.9,318.8h175.5c1.1,0,2,0.9,2,2v2c0,1.1-0.9,2-2,2h-175.5c-1.1,0-2-0.9-2-2v-2
		C1011.9,319.7,1012.8,318.8,1013.9,318.8z"/>
	<path class="st3" d="M1019.9,324.8l20.7,19.8c0.6,0.6,1.6,0.4,2-0.4l7.8-18.1c0.3-0.6,1.1-0.8,1.6-0.4l24.9,20.1l30.4-20
		c0.7-0.4,1.6,0,1.6,0.9v26.8"/>
	<path class="st2" d="M1173.9,324.8"/>
	<polyline class="st3" points="1108.9,324.8 1142.9,345.8 1204.9,345.8 	"/>
	<path class="st3" d="M1173.9,324.8l-29.3,19.9c-0.7,0.5-1.7,0-1.7-0.9v-19"/>
	<line class="st3" x1="1181.4" y1="332.8" x2="1204.9" y2="332.8"/>
	<path class="st3" d="M1198.9,335.3l-12.9,10c-0.3,0.2-0.6,0-0.6-0.3v-12.2"/>
	<line class="st3" x1="1166.3" y1="329.9" x2="1185.4" y2="345.8"/>
	<rect x="924" y="385.2" class="st37" width="6.1" height="6.1"/>
	<rect x="936.5" y="385.2" class="st37" width="6.1" height="6.1"/>
	<rect x="924.3" y="408.5" class="st37" width="6.1" height="6.1"/>
	<rect x="936.8" y="408.5" class="st37" width="6.1" height="6.1"/>
	<rect x="924.3" y="431.8" class="st37" width="6.1" height="6.1"/>
	<rect x="936.8" y="431.8" class="st37" width="6.1" height="6.1"/>
	<rect x="980.4" y="385.2" class="st37" width="6.1" height="6.1"/>
	<rect x="1002" y="385.2" class="st37" width="6.1" height="6.1"/>
	<rect x="980.4" y="408.5" class="st37" width="6.1" height="6.1"/>
	<rect x="992.9" y="408.5" class="st37" width="6.1" height="6.1"/>
	<rect x="980.4" y="431.8" class="st37" width="6.1" height="6.1"/>
	<rect x="992.9" y="431.8" class="st37" width="6.1" height="6.1"/>
	<rect x="1021.2" y="385.2" class="st37" width="6.1" height="6.1"/>
	<rect x="1021.2" y="408.5" class="st37" width="6.1" height="6.1"/>
	<rect x="1021.2" y="431.8" class="st37" width="6.1" height="6.1"/>
	<rect x="924" y="354.7" class="st37" width="6.1" height="6.1"/>
	<rect x="975.2" y="355.3" class="st37" width="6.1" height="6.1"/>
	<rect x="995.9" y="355.3" class="st37" width="6.1" height="6.1"/>
	<rect x="1038" y="355.3" class="st37" width="6.1" height="6.1"/>
	<polygon class="st20" points="814.4,355.3 824.1,355.3 826.7,370 818.4,369.8 	"/>
	<polygon class="st20" points="827.1,355.3 840.4,355.3 840.4,370 830.1,370 	"/>
	<path class="st2" d="M1050.8,346.6l-4.2,4.2c-0.4,0.4-0.6,0.9-0.6,1.4v24.1c0,1.1,0.9,2,2,2h8.3c1.1,0,2-0.9,2-2v-23.8
		c0-0.6,0.2-1.1,0.6-1.5l1.7-1.6c1.3-1.2,0.4-3.5-1.4-3.5h-7.1C1051.7,346,1051.2,346.2,1050.8,346.6z"/>
	<path class="st2" d="M1083.6,376.3v-3.8c0-0.1,0-0.2,0-0.3l2.9-19.9c0.1-0.4,0-0.9-0.2-1.2l-2.2-4c-0.3-0.7-1-1.1-1.8-1.1h-17.2
		c-0.5,0-1,0.2-1.4,0.5l-4.8,4.5c-0.4,0.4-0.6,0.9-0.6,1.5v23.8c0,1.1,0.9,2,2,2h21.2C1082.7,378.3,1083.6,377.4,1083.6,376.3z"/>
	<path class="st2" d="M1101.3,378.3h-15.7c-1.1,0-2-0.9-2-2v-3.8c0-0.1,0-0.2,0-0.3l2.9-19.9c0.1-0.4,0-0.9-0.2-1.2l-1.1-2.1
		c-0.7-1.3,0.3-3,1.8-3h16.6c0.7,0,1.4,0.4,1.8,1l3.2,5.7c0.3,0.5,0.3,1,0.2,1.5l-5.3,17.7c-0.1,0.2-0.1,0.4-0.1,0.6v3.7
		C1103.3,377.4,1102.4,378.3,1101.3,378.3z"/>
	<rect x="1048.7" y="354.7" class="st20" width="6.5" height="12.3"/>
	<rect x="1061.4" y="354.7" class="st20" width="6" height="12.3"/>
	<rect x="1068.6" y="354.7" class="st20" width="3.5" height="6.7"/>
	<rect x="1072.7" y="354.7" class="st20" width="3.7" height="6.7"/>
	<polygon class="st20" points="1077.6,354.7 1077.6,361.4 1081.6,361.4 1082.9,354.7 	"/>
	<polygon class="st20" points="1089.9,354.7 1087.6,367 1093.7,367 1096.2,354.7 	"/>
	<polygon class="st20" points="1098.2,354.7 1096.2,367 1100.9,367 1104.9,354.7 	"/>
	<path class="st38" d="M874.7,343.2l-8.7-7.6c-0.9-0.7-2.2-0.1-2.2,1l-0.1,16.8L874.7,343.2z"/>
	<path class="st2" d="M97.7,29.6h24c1.1,0,2,0.9,2,2v50.6c0,0.1,0,0.2,0,0.3l8,57.5c0,0.1,0,0.2,0,0.3v143.9c0,0.1,0,0.2,0,0.2
		l4,34.1c0,0.1,0,0.2,0,0.2v29.6c0,1.1-0.9,2-2,2H81c-1.1,0-2-0.9-2-2v-29c0-0.1,0-0.2,0-0.3l4.6-33.4c0-0.1,0-0.2,0-0.3V140.9
		c0-0.1,0-0.2,0-0.3l8-57.5c0-0.1,0-0.2,0-0.3V31.6c0-1.1,0.9-2,2-2H97.7z"/>
	<path class="st4" d="M703.7,367.4v17.7h-96.3H235.1l-87.8-19.5c-2.6-0.6-2.4-4.3,0.2-4.6l87.6-10.5l372.3-0.2L703.7,367.4z"/>
	<path class="st4" d="M155.7,360.8l10.3,8.6c0.4,0.3,0.9,0.3,1.3,0l12.2-11.5c0.4-0.4,1.1-0.3,1.5,0.2l11.5,16.8
		c0.4,0.5,1.2,0.6,1.6,0.1l16-20.2c0.5-0.6,1.4-0.5,1.7,0.2l10.6,25.3c0.3,0.8,1.5,0.8,1.8,0l8.9-23.5c0.4-1,1.9-0.7,1.9,0.3v28.1"
		/>
	<path class="st4" d="M235.1,351.8l10.5,32.8c0.1,0.2,0.4,0.2,0.4,0l11.5-32.1c0.1-0.2,0.4-0.2,0.5,0l8.9,31.9
		c0.1,0.2,0.4,0.2,0.5,0l9.5-32.3c0.1-0.2,0.4-0.2,0.5,0l10.2,32.4c0.1,0.2,0.4,0.2,0.5,0l8.9-31.9c0.1-0.2,0.4-0.2,0.5,0l10.9,32
		c0.1,0.2,0.4,0.2,0.4,0l10.2-32.5c0.1-0.2,0.4-0.2,0.5,0l10.2,32.4c0.1,0.2,0.4,0.2,0.5,0l10.2-32c0.1-0.2,0.4-0.2,0.4,0l10.9,32.1
		c0.1,0.2,0.4,0.2,0.4,0l10.9-33.5c0.1-0.2,0.4-0.2,0.5,0l10.2,33.5c0.1,0.2,0.4,0.2,0.4,0l12.2-33.6c0.1-0.2,0.4-0.2,0.4,0
		l10.9,33.5c0.1,0.2,0.4,0.2,0.4,0l10.9-32.1c0.1-0.2,0.4-0.2,0.4,0l11.5,32.1c0.1,0.2,0.4,0.2,0.4,0l10.9-32.6
		c0.1-0.2,0.4-0.2,0.4,0l10.9,32.5c0.1,0.2,0.4,0.2,0.4,0l10.2-32.1c0.1-0.2,0.4-0.2,0.4,0l12.2,32.2c0.1,0.2,0.4,0.2,0.4,0
		l10.9-32.2c0.1-0.2,0.4-0.2,0.4,0l11.5,32.1c0.1,0.2,0.4,0.2,0.4,0l11.6-33.6c0.1-0.2,0.4-0.2,0.4,0l12.2,34.2
		c0.1,0.2,0.4,0.2,0.4,0l11.6-33.2c0.1-0.2,0.4-0.2,0.4,0l12.2,32.7c0.1,0.2,0.4,0.2,0.4,0l12.2-32.2c0.1-0.2,0.4-0.2,0.4,0
		l10.3,32.1c0.1,0.2,0.4,0.2,0.4,0l12.2-32.1c0.1-0.2,0.4-0.2,0.4,0l10.2,32.1c0.1,0.2,0.4,0.2,0.4,0l10.9-32c0.1-0.2,0.4-0.2,0.5,0
		l9,31.1c0.1,0.3,0.5,0.2,0.5-0.1v-30.9c0-0.3,0.4-0.3,0.5-0.1l11.6,31.9c0.1,0.2,0.4,0.2,0.5,0l7.7-29.9c0.1-0.2,0.4-0.2,0.4,0
		l13.5,30.2c0.1,0.2,0.3,0.2,0.4,0l12.7-24.9c0.4-0.8,1.6-0.7,1.9,0.1l9.7,24.8c0.1,0.2,0.3,0.2,0.4,0l13-21.2
		c0.1-0.2,0.3-0.1,0.4,0l11.5,21.2c0.1,0.2,0.4,0.2,0.4,0l6.5-18.2"/>
	<path class="st24" d="M705.4,368.1l66.4,25.2c1.4,0.5,0.9,2.7-0.6,2.4l-66.4-10.4c-0.6-0.1-1.1-0.6-1.1-1.3v-14.7
		C703.7,368.4,704.6,367.8,705.4,368.1z"/>
	<path class="st24" d="M143.4,370H69.1c-1.1,0-2-0.9-2-2v-20.2c0-1.1,0.9-2,2-2h74.3c1.1,0,2,0.9,2,2V368
		C145.4,369.1,144.5,370,143.4,370z"/>
	<path class="st24" d="M146.4,405.6H65.1c-1.1,0-2-0.9-2-2v-31.7c0-1.1,0.9-2,2-2h81.3c1.1,0,2,0.9,2,2v31.7
		C148.4,404.7,147.5,405.6,146.4,405.6z"/>
	<path class="st24" d="M164.5,414.6H41.9c-1,0-1.9-0.8-2-1.8l-0.6-5c-0.1-1.2,0.8-2.2,2-2.2h122.6c1,0,1.9,0.8,2,1.8l0.6,5
		C166.6,413.6,165.7,414.6,164.5,414.6z"/>
	<path class="st2" d="M93.7,27.7V8.3c0-1.1,0.8-2,1.9-2h20.5c0.4,0,0.9,0.2,1.2,0.5l9.3,8c2,1.7,2.1,4.8,0.2,6.6l-7.6,7.7
		c-0.4,0.4-0.8,0.6-1.3,0.6H95.5C94.6,29.6,93.7,28.8,93.7,27.7z"/>
	<path class="st2" d="M168.6,451.9"/>
	<path class="st24" d="M477.1,482.3h-50.5c-1.1,0-2-0.9-2-2v-8c0-1.1,0.9-2,2-2h50.5c1.1,0,2,0.9,2,2v8
		C479.1,481.4,478.2,482.3,477.1,482.3z"/>
	<path class="st24" d="M466.7,482.3H437c-1.1,0-2,0.9-2,2v21.3c0,1.1,0.9,2,2,2h29.7c1.1,0,2-0.9,2-2v-21.3
		C468.7,483.2,467.8,482.3,466.7,482.3z"/>
	<path class="st4" d="M439.1,470.3v-139c0-0.8,1.1-0.9,1.3-0.1l28.3,139.1"/>
	<line class="st4" x1="439.1" y1="444.6" x2="463.5" y2="444.6"/>
	<line class="st4" x1="439.1" y1="399" x2="454.2" y2="399"/>
	<line class="st4" x1="439.1" y1="363.6" x2="447" y2="363.6"/>
	<path class="st4" d="M544.1,386.6l14.2,20.1c0.2,0.2,0,0.6-0.3,0.6l-15.6-0.3c-0.3,0-0.5,0.3-0.3,0.6l22,36.5
		c0.1,0.2,0,0.6-0.3,0.6h-25.4c-0.3,0-0.5,0.4-0.3,0.6l29.7,28.4c0.2,0.2,0.1,0.6-0.3,0.6l-32.7-0.3c-0.3,0-0.5,0.4-0.2,0.7
		l40.1,32.4c0.3,0.2,0.6,0,0.6-0.3l-18-120.2l-7.8-52.1c-0.1-0.4-0.7-0.4-0.7,0l-20.2,170.4c0,0.3,0.3,0.5,0.6,0.3l40.2-28.9"/>
	<path class="st4" d="M544.1,386.6"/>
	<polyline class="st4" points="555.1,386.6 547,366 554.2,366 547,353.4 	"/>
	<line class="st4" x1="558.7" y1="409.3" x2="537.4" y2="443"/>
	<line class="st4" x1="564.7" y1="446" x2="534.4" y2="473.3"/>
	<line class="st4" x1="542.4" y1="405" x2="557.1" y2="386.6"/>
	<line class="st4" x1="439.4" y1="417" x2="457.8" y2="417"/>
	<line class="st4" x1="439.4" y1="433.8" x2="460.2" y2="433.8"/>
	<line class="st4" x1="438.3" y1="450.8" x2="464.7" y2="450.8"/>
	<line class="st23" x1="847.9" y1="288.4" x2="847.9" y2="318.7"/>
	<line class="st23" x1="859.9" y1="288.4" x2="859.9" y2="318.7"/>
	<line class="st23" x1="871.7" y1="288.4" x2="871.7" y2="318.7"/>
	<path class="st2" d="M827.1,480.2v-52.4c0-1.2,0.9-2.1,2.1-2.1h11.1c1.2,0,2.1-0.9,2.1-2.1V318.3c0-1.1,0.9-2,2-2.1l41.8-3
		c1.2-0.1,2.3,0.9,2.3,2.1v164.9c0,1.2-0.9,2.1-2.1,2.1h-57.1C828,482.3,827.1,481.4,827.1,480.2z"/>
	<path class="st39" d="M865.8,353.3l13.9-15.8c0.8-0.9,0.2-2.3-1-2.3H851c-1.2,0-1.8,1.4-1,2.3l13.9,15.8
		C864.3,353.9,865.3,353.9,865.8,353.3z"/>
	<path class="st40" d="M881.9,349.5l-15.7-13.8c-0.9-0.8-2.4-0.2-2.4,1.1v29.6c0,0.4,0.5,0.6,0.8,0.4l17.3-15.2
		C882.5,351,882.5,350,881.9,349.5z"/>
	<path class="st11" d="M77.1,599.2l5,25.9c0.2,1.1,1.2,1.9,2.3,1.9h182.7L77.1,599.2z"/>
	<path class="st25" d="M8.4,509.5v79.2c0,0.9,0.7,1.7,1.6,1.8c86,10.6,171.6,23.3,256.9,36.4c0.1,0,0.2,0,0.3,0h926
		c0.1,0,0.3,0,0.4,0c27.8-6.1,36.1-36.6,23.5-44c-9.5-5.5-27.8-1.6-36.2,0.7c-1.6,0.4-2.9-1.3-2-2.7l44-72.9
		c0.2-0.3,0.3-0.6,0.3-0.9v-43c0-1-0.8-1.8-1.8-1.8h-144c-0.5,0-1,0.2-1.4,0.6l-8.9,10.1c-0.3,0.4-0.8,0.6-1.4,0.6H827.3
		c-0.5,0-1,0.2-1.3,0.5L793.1,507c-0.3,0.3-0.8,0.5-1.3,0.5H10.2C9.2,507.6,8.4,508.5,8.4,509.5z"/>
	<path class="st41" d="M45.6,532.8H29.1c-1,0-1.8-0.8-1.8-1.8v-6.9c0-1,0.8-1.8,1.8-1.8h16.5c1,0,1.8,0.8,1.8,1.8v6.9
		C47.4,532,46.6,532.8,45.6,532.8z"/>
	<path class="st41" d="M71.6,532.8H55.1c-1,0-1.8-0.8-1.8-1.8v-6.9c0-1,0.8-1.8,1.8-1.8h16.5c1,0,1.8,0.8,1.8,1.8v6.9
		C73.4,532,72.6,532.8,71.6,532.8z"/>
	<path class="st41" d="M1094.4,521.1h-21.7c-1,0-1.8-0.8-1.8-1.8v-21.7c0-1,0.8-1.8,1.8-1.8h21.7c1,0,1.8,0.8,1.8,1.8v21.7
		C1096.2,520.3,1095.4,521.1,1094.4,521.1z"/>
	<path class="st41" d="M1132.4,521.1h-21.7c-1,0-1.8-0.8-1.8-1.8v-21.7c0-1,0.8-1.8,1.8-1.8h21.7c1,0,1.8,0.8,1.8,1.8v21.7
		C1134.2,520.3,1133.4,521.1,1132.4,521.1z"/>
	<path class="st4" d="M440.4,343.5c104.4,60.6,230.7,93,386.7,112"/>
	<path class="st4" d="M440.6,329.8c104.4,60.6,199.5,95.9,355.5,114.9"/>
	<path class="st42" d="M639,847.4l153.1-150.5c6.5-6.4,2-17.5-7.1-17.5H478.8c-9.1,0-13.7,11.1-7.1,17.5l153.1,150.5
		C628.7,851.3,635.1,851.3,639,847.4z"/>
</g>
</svg>
