<?xml version="1.0" encoding="utf-8"?>
<!-- Generator: Adobe Illustrator 22.1.0, SVG Export Plug-In . SVG Version: 6.00 Build 0)  -->
<svg version="1.1" id="Layer_1" xmlns="http://www.w3.org/2000/svg" xmlns:xlink="http://www.w3.org/1999/xlink" x="0px" y="0px"
	 viewBox="0 0 1306.4 836.4" style="enable-background:new 0 0 1306.4 836.4;" xml:space="preserve">
<style type="text/css">
	.st0{display:none;}
	.st1{display:inline;}
	.st2{fill:#F4E8C6;stroke:#C7B299;stroke-width:4;stroke-miterlimit:10;}
	.st3{fill:none;stroke:#C7B299;stroke-width:4;stroke-miterlimit:10;}
	.st4{fill:none;stroke:#808080;stroke-width:4;stroke-miterlimit:10;}
	.st5{fill:none;stroke:#6D6E70;stroke-width:5;stroke-miterlimit:10;}
	.st6{fill:#E6E6E6;stroke:#CCCCCC;stroke-width:5;stroke-miterlimit:10;}
	.st7{fill:#C7B299;stroke:#C7B299;stroke-width:2;stroke-miterlimit:10;}
	.st8{fill:#C7B299;stroke:#C7B299;stroke-miterlimit:10;}
	.st9{fill:#C7B299;}
	.st10{fill:none;stroke:#000000;stroke-width:6;stroke-miterlimit:10;}
	.st11{fill:#99272D;stroke:#7C272D;stroke-width:10;stroke-miterlimit:10;}
	.st12{fill:#B3B3B3;stroke:#808080;stroke-width:10;stroke-miterlimit:10;}
	.st13{fill:#FFFFFF;}
	.st14{fill:none;stroke:#808080;stroke-width:5;stroke-miterlimit:10;}
	.st15{fill:none;stroke:#000000;stroke-width:5;stroke-miterlimit:10;}
	.st16{fill:#C1272D;}
	.st17{fill:#B3B3B3;stroke:#808080;stroke-width:5;stroke-miterlimit:10;}
	.st18{fill:#B3B3B3;stroke:#999999;stroke-width:10;stroke-miterlimit:10;}
	.st19{display:none;fill:#7C6699;}
	.st20{fill:#A6DAF6;}
	.st21{fill:none;}
	.st22{display:none;fill:none;stroke:#C6BDD4;stroke-width:10;stroke-miterlimit:10;}
	.st23{fill:none;stroke:#808080;stroke-width:10;stroke-miterlimit:10;}
	.st24{fill:#B3B3B3;stroke:#808080;stroke-width:4;stroke-miterlimit:10;}
	.st25{fill:#EE2842;stroke:#C1272D;stroke-width:10;stroke-miterlimit:10;}
	.st26{fill:#F1DF00;stroke:#CDB42D;stroke-width:4;stroke-miterlimit:10;}
	.st27{fill:none;stroke:#CDB42D;stroke-width:10;stroke-miterlimit:10;}
	.st28{fill:none;stroke:#CDB42D;stroke-width:4;stroke-miterlimit:10;}
	.st29{fill:#E6E6E6;stroke:#CCCCCC;stroke-width:4;stroke-miterlimit:10;}
	.st30{fill:#604382;}
</style>
<g id="Layer_1_2_" class="st0">
	<g id="Layer_3" class="st1">
	</g>
	<g id="Layer_1_1_" class="st1">
	</g>
	<g id="Layer_2_1_" class="st1">
		<path class="st2" d="M151.4,504.4v-9.9c0-1.2,0.9-2.1,2.1-2.1h63.4c1.1,0,2,0.9,2,2v10H151.4z"/>
		<path class="st2" d="M115.9,504.4v-133h-16c-1.1,0-2-0.9-2-2v-18c0-1.1,0.9-2,2-2h21c1.1,0,2,0.9,2,2v20.5h21.9
			c1.2,0,2.1,0.9,2.1,2.1v130.4H115.9z"/>
		<path class="st2" d="M35.9,353.4l35-1l103-22.5l-205.9-1c-1.1,0-2.1,0.9-2.1,2v2.8c0,1,0.6,1.8,1.6,2.1L35.9,353.4z"/>
		<line class="st3" x1="-79.9" y1="341.2" x2="35.9" y2="353.4"/>
		<line class="st3" x1="66.4" y1="352.9" x2="97.9" y2="357.4"/>
		<circle class="st2" cx="163.4" cy="322.9" r="19.5"/>
		<line class="st3" x1="122.9" y1="349.4" x2="148.7" y2="335.4"/>
		<path class="st2" d="M147.9,345.4h32.6c1.1,0,1.9-0.9,1.9-1.9V341c0-1.1-0.9-1.9-1.9-1.9h-32.6c-1.1,0-2,0.9-2,2v2.3
			C145.9,344.5,146.8,345.4,147.9,345.4z"/>
		<line class="st4" x1="-147.6" y1="379.9" x2="-147.6" y2="401.9"/>
		<line class="st4" x1="-134.7" y1="374.4" x2="-134.7" y2="406.9"/>
		<path class="st2" d="M-148.4,380.6l79.1-70c0.2-0.1,0.4-0.2,0.6-0.2h41.3c0.7,0,1.1,0.7,0.8,1.3l-8.2,19.2
			c-0.1,0.3-0.5,0.6-0.8,0.6h-12.2c-0.1,0-0.2,0-0.3,0.1l-10.6,3.8c-0.2,0.1-0.4,0.1-0.5,0l-7.4-1.8c-0.2-0.1-0.5,0-0.7,0.1
			l-79.9,48.5C-148.3,382.7-149.3,381.3-148.4,380.6z"/>
		<line class="st5" x1="603.7" y1="332.5" x2="603.7" y2="360.9"/>
		<line class="st5" x1="613.4" y1="342.9" x2="613.4" y2="376.9"/>
		<ellipse class="st6" cx="909.9" cy="271.4" rx="16" ry="17"/>
		<polygon class="st7" points="1074.9,417.4 1074.9,343.4 1077.9,343.4 1077.9,419.4 		"/>
		<rect x="1124.9" y="346.4" class="st8" width="4" height="86"/>
		<polygon class="st9" points="1195.9,346.4 1163.9,437.4 1168.9,437.4 1200.9,342.4 		"/>
		<polygon class="st9" points="1214.9,346.4 1173.9,435.4 1177.9,435.4 1220.9,344.4 		"/>
		<rect x="1155.9" y="369.4" class="st9" width="113" height="3"/>
		<rect x="1155.9" y="355.4" class="st9" width="113" height="3"/>
		<polyline class="st7" points="1163.1,348.4 1162.9,437.4 1165.2,437.4 1165.2,346.4 1163.1,348.4 		"/>
		<path class="st2" d="M904.4,349.4l-0.5-21.7h-6.8c-0.1,0-0.2-0.1-0.2-0.2v-4.7c0-0.1,0-0.1,0.1-0.1h6.9v-31.8
			c0-0.3-0.2-0.5-0.5-0.5h-1.5c-1.1,0-2-0.9-2-2v-1.9c0-0.1,0.1-0.2,0.2-0.2h15.6c0.1,0,0.2,0.1,0.2,0.2v3.6c0,0.1-0.1,0.2-0.2,0.2
			h-7.4c-0.2,0-0.3,0.2-0.3,0.3l0.9,11.4c0.1,0.7,0.6,1.3,1.4,1.3l13.6,0.1c0.1,0,0.1,0,0.1,0.1v2c0,0.5-0.4,0.9-0.9,0.9h-13.2
			l2,16.3h13.8c0.1,0,0.2,0.1,0.2,0.2v4.6c0,0.1-0.1,0.2-0.2,0.2h-12.8l4.5,21.7"/>
		<path class="st2" d="M826.9,465.4v-9c0-1.1,0.9-2,2-2l0,0h7c1.1,0,2,0.9,2,2v9H826.9z"/>
		<path class="st2" d="M815.9,497.4v-31c0-1.1,0.9-2,2-2h48v-70.5c0-0.9-0.6-1.7-1.4-1.9l-18.1-6c-0.9-0.3-1.5-1.1-1.5-2v-7.6
			l-3.9-25.3c-0.1-0.5,0-1,0.3-1.4l3-4.5c0.4-0.5,1-0.9,1.6-0.9h76.9c1.1,0,2-0.9,2-2v-24c0-1.1,0.9-2,2-2h21c1.1,0,2,0.9,2,2v27
			c0,1.1,0.9,2,2,2h67c0.6,0,1.2,0.3,1.6,0.8l4.8,6.4c0.4,0.5,0.5,1.1,0.3,1.8l-5.7,22v5.7c0,0.8-0.5,1.5-1.2,1.9l-13.6,6
			c-0.7,0.3-1.2,1-1.2,1.8v20.7c0,1.1,0.9,2,2,2h103c1.1,0,2,0.9,2,2v80L815.9,497.4z"/>
		<path class="st2" d="M1266.9,348.4h-245c-1.1,0-2-0.9-2-2v-4c0-1.1,0.9-2,2-2h245c1.1,0,2,0.9,2,2v4
			C1268.9,347.5,1268,348.4,1266.9,348.4z"/>
		<path class="st10" d="M787.7,490.4"/>
		<path class="st10" d="M718.1,490.4"/>
		<path class="st11" d="M425.9,601.4h-266c-0.6,0-1.2-0.3-1.6-0.8l-31.4-42.2L425.9,601.4z"/>
		<path class="st12" d="M453.2,504.4c-3.8-11.3-5.8-23.4-5.8-36c0-62.7,50.8-113.5,113.5-113.5s113.5,50.8,113.5,113.5
			c0,7.5-3.1,36-3.1,36"/>
		<rect x="968.4" y="446.9" class="st13" width="12" height="12"/>
		<path class="st14" d="M718.1,490.4c-14.4-10.7-23.7-27.7-23.7-47c0-32.3,26.2-58.5,58.5-58.5s58.5,26.2,58.5,58.5
			c0,19.3-9.3,36.3-23.7,47"/>
		<line class="st5" x1="447.4" y1="469.9" x2="674.4" y2="469.9"/>
		<path class="st15" d="M453.1,432.7"/>
		<path class="st15" d="M468.7,402.2"/>
		<circle class="st5" cx="559.9" cy="468.4" r="8.5"/>
		<line class="st5" x1="468.7" y1="402.2" x2="551.4" y2="463.9"/>
		<line class="st5" x1="653.1" y1="402.2" x2="567.1" y2="463.9"/>
		<line class="st5" x1="561.4" y1="354.9" x2="561.4" y2="406.9"/>
		<line class="st5" x1="525.4" y1="360.6" x2="557.2" y2="459.9"/>
		<line class="st5" x1="595.4" y1="360.6" x2="563.4" y2="459.9"/>
		<path class="st16" d="M668.9,658.4"/>
		<circle class="st17" cx="753.4" cy="442.9" r="42"/>
		<line class="st5" x1="731.3" y1="389" x2="777.4" y2="503.9"/>
		<path class="st18" d="M217.6,369.1c0,0,85.8,132.8,91.8,135.3"/>
		<line class="st5" x1="774.5" y1="389" x2="731.4" y2="497.9"/>
		<line class="st5" x1="794.1" y1="484.9" x2="711.4" y2="402.2"/>
		<line class="st5" x1="794.1" y1="402.2" x2="711.4" y2="484.9"/>
		<line class="st5" x1="700" y1="468.4" x2="807.9" y2="423.4"/>
		<line class="st5" x1="805.8" y1="468.4" x2="697.9" y2="423.4"/>
		<path class="st13" d="M1734.9,687.4"/>
		<path class="st19" d="M643.9,943.7l178-308.3h-356C821.9,635.4,782.9,702.4,643.9,943.7z"/>
		<path class="st9" d="M950.9,316.4"/>
		<polygon class="st20" points="865.9,361.4 869.9,378.4 873.9,378.4 873.9,361.4 		"/>
		<rect x="875.9" y="361.4" class="st20" width="7" height="17"/>
		<rect x="884.9" y="361.4" class="st20" width="7" height="17"/>
		<rect x="893.9" y="361.4" class="st20" width="7" height="17"/>
		<rect x="902.9" y="361.4" class="st20" width="7" height="17"/>
		<rect x="911.9" y="361.4" class="st20" width="7" height="17"/>
		<polygon class="st20" points="1009.9,361.4 1006,378.4 1002.1,378.4 1002.1,361.4 		"/>
		<rect x="993.2" y="361.4" class="st20" width="6.9" height="17"/>
		<rect x="984.4" y="361.4" class="st20" width="6.9" height="17"/>
		<rect x="975.6" y="361.4" class="st20" width="6.9" height="17"/>
		<rect x="966.7" y="361.4" class="st20" width="6.9" height="17"/>
		<rect x="957.9" y="361.4" class="st20" width="6.9" height="17"/>
		<polygon class="st20" points="846.9,357.4 850.9,373.4 854.9,373.4 850.9,357.4 		"/>
		<polygon class="st20" points="851.9,357.4 855.9,373.4 859.9,373.4 855.9,357.4 		"/>
		<polygon class="st20" points="856.9,357.4 860.9,373.4 864.9,373.4 860.9,357.4 		"/>
		<polyline class="st3" points="865.9,392.4 865.9,380.4 859.9,353.4 865.9,344.4 		"/>
		<polygon class="st20" points="1018.9,361.4 1014.9,377.4 1010.9,377.4 1014.9,361.4 		"/>
		<line class="st5" x1="595.4" y1="418.9" x2="626.2" y2="375.6"/>
		<line class="st5" x1="525.4" y1="418.9" x2="493.1" y2="377.4"/>
		<line class="st5" x1="618.4" y1="446.9" x2="668.6" y2="432.4"/>
		<line class="st5" x1="502.4" y1="446.9" x2="453.4" y2="432.9"/>
		<polygon class="st21" points="643.9,943.7 821.9,635.4 465.9,635.4 		"/>
		<path class="st22" d="M645.5,940.9L820,638.6c0.8-1.4-0.2-3.1-1.8-3.1H469.4c-1.6,0-2.6,1.7-1.8,3.1L642.2,941
			C643,942.1,644.8,942.1,645.5,940.9z"/>
		<polyline class="st3" points="949.9,344.4 949.9,386.7 957.9,396.5 957.9,415.4 924.9,415.4 924.9,342.4 		"/>
		<path class="st3" d="M949.4,316.4"/>
		<polyline class="st3" points="899.9,236.4 905.4,236.4 916.9,236.4 		"/>
		<line class="st3" x1="905.9" y1="289.4" x2="905.9" y2="236.4"/>
		<line class="st3" x1="924.9" y1="391.9" x2="865.4" y2="391.9"/>
		<path class="st3" d="M924.9,391.9"/>
		<line class="st3" x1="1006.4" y1="391.9" x2="954.5" y2="391.9"/>
		<line class="st3" x1="957.4" y1="412.9" x2="1003.9" y2="412.9"/>
		<path class="st23" d="M358.9,329.4c0,0-46-72-125-18"/>
		<path class="st4" d="M303.6,332.5l-57.2,7.4L83.9,504.4l89.5-38.5L305,335.3C306.1,334.2,305.1,332.3,303.6,332.5z"/>
		<path class="st4" d="M280.4,328.9v6.4c0,0.2,0,0.3-0.1,0.5l-7.2,28.7c-0.4,1.5-2.2,1.9-3.2,0.8L246.4,340"/>
		<path class="st4" d="M269.2,364.5l-52.9,7.6c-0.8,0.1-1.2,1.1-0.6,1.7l23.4,24.8c0.4,0.4,0.1,1.1-0.4,1.2l-55.4,6.7
			c-1.3,0.2-1.8,1.7-0.9,2.6l23.4,23.2c0.3,0.3,0.1,0.8-0.3,0.8l-57.9,6.7"/>
		<line class="st4" x1="170.3" y1="467.2" x2="147.4" y2="442.9"/>
		<path class="st4" d="M124.7,486.9l-9.9-11.9c-0.3-0.4-0.1-1,0.4-1.1l55.2-6.9"/>
		<path class="st23" d="M250.9,300.4c0,0,28.2-54.4,76-12.8c1.1,1,1.2,2.7,0.2,3.7l-6.2,6.3"/>
		<path class="st23" d="M301.9,312.4l-60.4,8.6c-1.7,0.2-3.3,1-4.5,2.3l-78.1,79.1"/>
		<line class="st4" x1="282.9" y1="324.4" x2="305.9" y2="335.4"/>
		<line class="st4" x1="275.9" y1="324.4" x2="250.5" y2="339.4"/>
		<path class="st24" d="M61.6,429l4.6-18.6c0.1-0.3,0.3-0.6,0.5-0.9l58.6-53.7c0.6-0.6,1.5-0.6,2.2-0.1l5.9,4.4
			c0.6,0.4,0.8,1.1,0.6,1.8l-3.4,12.9c-0.2,0.6,0,1.2,0.4,1.7l9.1,9.1c0.7,0.7,1.8,0.7,2.4,0l0.6-0.6c0.7-0.7,1.8-0.7,2.4,0
			l15.7,15.7c0.6,0.6,0.7,1.6,0.1,2.3l-7.8,9.6c-0.1,0.1-0.2,0.3-0.3,0.5l-2.7,7.3c-0.1,0.3-0.3,0.5-0.5,0.7l-13.2,11.4
			c-0.3,0.2-0.5,0.5-0.6,0.9l-0.5,2.2c-0.2,0.8-0.9,1.3-1.7,1.3l0,0c-0.4,0-0.8,0.2-1.1,0.4l-8.5,7.5c0,0,0,0-0.1,0.1l-5.7,5.7
			c-0.2,0.2-0.4,0.3-0.7,0.4l-5.2,1.7c-0.3,0.1-0.5,0.2-0.7,0.4l-16.6,17.5c-0.6,0.7-1.7,0.7-2.4,0.1L76.5,456
			c-0.7-0.6-0.8-1.7-0.1-2.4l7.4-8.2c0.3-0.3,0.4-0.7,0.4-1.2v-6c0-1.9-2.3-2.8-3.6-1.4l-5.1,5.6c-0.7,0.7-1.9,0.8-2.5,0l-11.1-11.9
			C61.6,430.2,61.5,429.6,61.6,429z"/>
		<line class="st4" x1="143.9" y1="384.4" x2="84.4" y2="444.9"/>
		<line class="st4" x1="136.4" y1="381.9" x2="81.9" y2="436.4"/>
		<line class="st4" x1="75.9" y1="402.4" x2="95" y2="422.5"/>
		<line class="st4" x1="95" y1="384.4" x2="114.6" y2="405.1"/>
		<line class="st4" x1="115.9" y1="364.5" x2="136.4" y2="383.9"/>
		<line class="st4" x1="129.1" y1="400.2" x2="150.4" y2="420.9"/>
		<line class="st4" x1="114.6" y1="414.7" x2="136.4" y2="436.9"/>
		<line class="st4" x1="103.5" y1="425.8" x2="123.1" y2="446.2"/>
		<line class="st5" x1="694.4" y1="445.9" x2="811.4" y2="445.9"/>
		<polyline class="st4" points="132.3,380 173.9,339.4 198.9,364.4 		"/>
		<polyline class="st4" points="143.9,384.4 192.9,335.4 201.9,326.4 		"/>
		<line class="st4" x1="206.9" y1="349.4" x2="192.9" y2="335.4"/>
		<line class="st4" x1="198.9" y1="329.4" x2="215.1" y2="345.5"/>
		<line class="st4" x1="161.1" y1="351.9" x2="185.1" y2="375.9"/>
		<line class="st4" x1="170.3" y1="342.9" x2="192.9" y2="365.4"/>
		<line class="st4" x1="146.8" y1="365.8" x2="170.3" y2="390.8"/>
		<line class="st4" x1="159.2" y1="369.1" x2="175" y2="386.1"/>
		<line class="st4" x1="52.9" y1="501.4" x2="88.8" y2="466.9"/>
		<polyline class="st4" points="46.9,494.4 56.7,485.2 62.9,479.4 46.9,462.4 41.1,468.2 35.9,473.4 52.9,491.4 		"/>
		<polyline class="st4" points="52.9,458.4 70.9,478.4 56.9,492.4 		"/>
		<line class="st4" x1="84.9" y1="444.4" x2="51.9" y2="478.4"/>
		<line class="st4" x1="40.9" y1="467.4" x2="56.9" y2="484.4"/>
		<polyline class="st4" points="83.9,494.4 225.6,350.8 233.9,342.4 224.9,332.4 		"/>
		<line class="st4" x1="217.7" y1="342.9" x2="225.9" y2="352.4"/>
		<line class="st4" x1="201.9" y1="361.4" x2="208.4" y2="369.1"/>
		<line class="st4" x1="190.4" y1="370.5" x2="198.4" y2="378.3"/>
		<line class="st4" x1="183.4" y1="377.6" x2="192.9" y2="386.4"/>
		<line class="st4" x1="173.1" y1="388.9" x2="180.6" y2="396.4"/>
		<line class="st4" x1="161.1" y1="403.5" x2="167.1" y2="410.1"/>
		<line class="st4" x1="155.3" y1="410.6" x2="161.1" y2="416.9"/>
		<line class="st4" x1="237.9" y1="332.4" x2="237.9" y2="347.4"/>
		<line class="st4" x1="242.9" y1="335.4" x2="250.5" y2="344.3"/>
		<polyline class="st4" points="288.1,314.4 287.1,326.4 279.9,335.4 272.5,326.4 270.7,316.9 285.9,293.4 		"/>
		<path class="st4" d="M204.9,335.4"/>
		<path class="st4" d="M233.9,307.4"/>
		<path class="st24" d="M204.9,337.4l29-30l16.5-7.5l-3.8-5.1c-1.4-1.8-3.5-3-5.8-3.2l-5.3-0.4c-1.9-0.2-3.9,0.5-5.3,1.8l-7.8,7.2
			c-1.9,1.7-3,4.2-3,6.7v0.4c0,1.7,0.6,3.4,1.6,4.7l3.7,4.9"/>
		<polyline class="st4" points="194.4,331.9 188.4,324.9 178.4,333.9 185.4,341.9 		"/>
		<path class="st4" d="M185.4,326.9l-18.5,2.8c-0.9,0.1-1.6,0.9-1.7,1.8l-2.8,19.2"/>
		<path class="st4" d="M160.9,352.4l-19.8,3.2c-1,0.2-1.8,1-1.8,2l-1,16.5"/>
		<line class="st5" x1="383.6" y1="353.3" x2="535.8" y2="232.5"/>
		<polygon class="st2" points="377.6,504.4 377.6,473.9 406.2,473.9 461.4,473.9 461.4,504.4 		"/>
		<polygon class="st2" points="407.4,420.9 429.6,420.9 437.4,420.9 437.4,473.9 407.4,473.9 		"/>
		<rect x="430.4" y="397.9" class="st2" width="26" height="23"/>
		<path class="st2" d="M416.4,390.9l89-74l31-67l-2.4-2.4c-0.8-0.8-2.2-0.8-3,0.1L416.4,384.9V390.9z"/>
		<line class="st3" x1="506.1" y1="315.5" x2="552.6" y2="261.9"/>
		<polyline class="st3" points="489.8,329.9 466.4,372.9 417.9,390.8 		"/>
		<circle class="st2" cx="387.4" cy="371.9" r="19"/>
		<polygon class="st2" points="364.4,390.9 375.4,394.9 406.4,394.9 406.4,388.9 364.4,388.9 		"/>
		<polyline class="st3" points="406.2,374.4 414.7,374.4 425.2,374.4 		"/>
		<polygon class="st2" points="414.2,420.9 406.9,420.9 406.9,374.4 413.9,374.4 		"/>
		<line class="st3" x1="419.5" y1="388.3" x2="430.4" y2="399.7"/>
		<line class="st3" x1="378.4" y1="394.9" x2="406.9" y2="420.4"/>
		<path class="st2" d="M532.4,233.9l6-6l36,22l39.7,93c0.6,1.3-1.3,2.4-2.1,1.2l-60.6-83.9l-7.5-7.8l-12-5L532.4,233.9z"/>
		<line class="st5" x1="752.8" y1="491.9" x2="752.8" y2="384.9"/>
		<path class="st25" d="M641.9,504.4h-620c-1.1,0-2,0.9-2,2v48c0,1.1,0.9,2,2,2l81-1l314,46h733.5c2.5,0,4.9-0.2,7.4-0.7
			c14-2.7,60.2-13.2,55.1-35.3c-2-9-13-24-38-21c-11,2-27.4,21-33,14c13-32,105-128,92-129c-12.4-1-283.1-0.1-309,0
			c-1.1,0-2,0.9-2,2v31c0,1.1-0.9,2-2,2h-66c-0.6,0-1.2,0.3-1.6,0.8l-17.8,24.4c-0.4,0.5-1,0.8-1.6,0.8h-188c-1.1,0-2,0.9-2,2v10
			C643.9,503.5,643,504.4,641.9,504.4z"/>
		<rect x="991.4" y="470.9" class="st13" width="12" height="12"/>
		<rect x="1013.9" y="470.4" class="st13" width="12" height="12"/>
		<rect x="1059.4" y="470.9" class="st13" width="12" height="12"/>
		<rect x="1081.9" y="470.4" class="st13" width="12" height="12"/>
		<rect x="968.4" y="491.9" class="st13" width="12" height="12"/>
		<rect x="991.4" y="491.9" class="st13" width="12" height="12"/>
		<rect x="1013.9" y="491.4" class="st13" width="12" height="12"/>
		<rect x="1036.4" y="491.9" class="st13" width="12" height="12"/>
		<rect x="1059.4" y="491.9" class="st13" width="12" height="12"/>
		<rect x="1081.9" y="491.4" class="st13" width="12" height="12"/>
		<rect x="878.9" y="481.4" class="st13" width="12" height="12"/>
		<rect x="991.4" y="446.9" class="st13" width="12" height="12"/>
		<rect x="1013.9" y="446.4" class="st13" width="12" height="12"/>
		<rect x="1036.4" y="446.9" class="st13" width="12" height="12"/>
		<rect x="1059.4" y="446.9" class="st13" width="12" height="12"/>
		<rect x="1081.9" y="446.4" class="st13" width="12" height="12"/>
		<rect x="901.9" y="481.4" class="st13" width="12" height="12"/>
		<line class="st3" x1="1157.9" y1="356.9" x2="1157.9" y2="370.9"/>
		<line class="st3" x1="1266.9" y1="357.4" x2="1266.9" y2="371.4"/>
		<line class="st3" x1="1168.9" y1="356.9" x2="1168.9" y2="370.9"/>
		<path class="st2" d="M1168.9,371.4"/>
		<path class="st2" d="M1168.9,357.4"/>
		<line class="st3" x1="1179.9" y1="357.4" x2="1179.9" y2="371.4"/>
		<line class="st3" x1="1234.9" y1="356.9" x2="1234.9" y2="370.9"/>
		<line class="st3" x1="1245.9" y1="356.9" x2="1245.9" y2="370.9"/>
		<line class="st3" x1="1256.9" y1="357.4" x2="1256.9" y2="371.4"/>
		<line class="st3" x1="1201.9" y1="356.9" x2="1201.9" y2="370.9"/>
		<line class="st3" x1="1212.9" y1="356.9" x2="1212.9" y2="370.9"/>
		<line class="st3" x1="1223.9" y1="357.4" x2="1223.9" y2="371.4"/>
		<line class="st3" x1="1190.9" y1="356.4" x2="1190.9" y2="370.4"/>
		<path class="st3" d="M1182.9,348.4l24.5,21.5c0.5,0.6,1.5,0.6,2,0l19-19.8c1.9-2,5.1-2,7,0l19.5,20.3"/>
		<line class="st3" x1="864.9" y1="412.9" x2="923.9" y2="412.9"/>
		<path class="st2" d="M827.9,444.4v10h8v-9l-2.2-4.9c-0.7-1.6-3-1.7-3.8-0.1l-0.7,1.3L827.9,444.4z"/>
		<path class="st2" d="M819.1,438.9l14.1,4c0.3,0.1,0.2,0.5-0.1,0.5h-51.2l-56-2.9c-0.6,0-1-0.5-1-1.1l0,0c0-1.1,0.9-2,2-2h81.6
			C812.1,437.4,815.6,437.9,819.1,438.9z"/>
	</g>
</g>
<g id="Layer_2_2_">
	<path class="st26" d="M648.6,416.4l-27.1-59c-0.2-0.5-0.2-1.1,0.1-1.6l22.4-33.3c0.5-0.8,1.6-0.9,2.3-0.4l4,3.1
		c0.7,0.5,0.8,1.4,0.4,2.2l-19,28.9c-0.3,0.5-0.3,1.1-0.1,1.6l20,42.4c0.1,0.2,0.2,0.5,0.2,0.7l-0.2,14.8
		C651.6,417.4,649.3,417.9,648.6,416.4z"/>
	<path class="st2" d="M344.5,509.7h-42c-1.1,0-2-0.9-2-2v-21.5c0-1.1,0.9-2,2-2h42c1.1,0,2,0.9,2,2v21.5
		C346.5,508.8,345.6,509.7,344.5,509.7z"/>
	<path class="st2" d="M398.9,510h29.5c1.1,0,2-0.9,2-2v-31.1c0-1.1-0.9-2-2-2h-29.5c-1.1,0-2,0.9-2,2V508
		C396.9,509.1,397.8,510,398.9,510z"/>
	<path class="st2" d="M395,510h-20.3c-1.1,0-1.9-0.9-1.9-1.9v-38.4c0-1.1,0.9-1.9,1.9-1.9H395c1.1,0,1.9,0.9,1.9,1.9v38.4
		C396.9,509.1,396.1,510,395,510z"/>
	<line class="st4" x1="361.3" y1="275.2" x2="594.8" y2="325.9"/>
	<polygon class="st4" points="302.7,178.9 603.6,296.2 600.9,303.2 302.7,185.5 	"/>
	<path class="st11" d="M73.6,565.4c0,0-14,43,37.8,40.6c39.3-1.9,152.1-0.6,195.1-0.2c3,0,3.5-4.2,0.6-4.9L81,550.9L73.6,565.4z"/>
	<path class="st2" d="M649.3,502.9h-46.5c-1.2,0-2.2-1-2.2-2.2v-38.9c0-1.2,1-2.2,2.2-2.2h46.5c1.2,0,2.2,1,2.2,2.2v38.9
		C651.6,501.9,650.6,502.9,649.3,502.9z"/>
	<polygon class="st26" points="511,512.7 578.7,362.6 588,366.3 520.3,515.5 	"/>
	<path class="st26" d="M607,284.1L574.7,361c-0.4,0.9,0.1,1.9,0.9,2.2l13.6,5.4c0.8,0.3,1.8-0.1,2.2-0.9l34.9-82.2
		c0.5-1.1-0.3-2.3-1.5-2.3h-16.2C607.9,283.1,607.3,283.5,607,284.1z"/>
	<path class="st2" d="M316.9,513.6v-71.3c0-0.1,0-0.3,0-0.4l7.6-32.7c0-0.1,0-0.3,0-0.4v-13.2c0-0.1,0-0.2,0-0.2l-28.4-211.2
		c0-0.2,0-0.4,0-0.6l0.3-1.3c1.1-5.4,8.2-6.7,11.1-2.1l2.7,4.1c0.1,0.1,0.1,0.3,0.2,0.4l62.3,177.6c0.1,0.3,0.1,0.5,0.1,0.8l-2.7,30
		c0,0.2,0,0.3,0,0.5l2.7,15.5v0.1l7.6,32.8c0,0.1,0,0.3,0,0.4v71.3c0,1-0.8,1.9-1.9,1.9h-59.9C317.8,515.5,316.9,514.6,316.9,513.6z
		"/>
	<polygon class="st2" points="324.6,395.4 370.5,395.4 372.8,409 324.6,409 	"/>
	<line class="st3" x1="372.8" y1="362.6" x2="320.2" y2="362.6"/>
	<polygon class="st26" points="651.6,72.6 668.8,72.6 668.8,97.8 673.2,144.9 673.2,502.9 651.6,502.9 	"/>
	<path class="st26" d="M644.1,163.6h40.7c0.9,0,1.6,0.7,1.6,1.6v0.7c0,0.9-0.7,1.6-1.6,1.6h-40.7c-0.9,0-1.6-0.7-1.6-1.6v-0.7
		C642.5,164.3,643.2,163.6,644.1,163.6z"/>
	<path class="st2" d="M651.6,422.8"/>
	<polygon class="st2" points="414.5,515.5 414.5,428.1 445.7,428.7 445.7,515.5 	"/>
	<path class="st2" d="M406.8,422.8h51c0.9,0,1.7,0.7,1.7,1.7v2c0,0.9-0.7,1.6-1.6,1.7l-51,0.6c-0.9,0-1.7-0.7-1.7-1.7v-2.6
		C405.2,423.6,405.9,422.8,406.8,422.8z"/>
	<rect x="415" y="405.5" class="st2" width="30.7" height="17.3"/>
	<rect x="574" y="420.7" class="st2" width="11.6" height="85.6"/>
	<path class="st2" d="M530.2,432l61.2-23c0.1,0,0.2-0.1,0.3-0.2l14.5-12.8c0.4-0.4,1-0.3,1.4,0.1l7,8.5c0.3,0.4,0.3,1-0.2,1.4
		l-21.5,16.6c-0.1,0.1-0.3,0.2-0.4,0.2l-61.7,11C529.5,434.1,529.1,432.4,530.2,432z"/>
	<path class="st2" d="M497.3,409h39.9c0.1,0,0.2,0,0.2,0l68.8-10.2c0.1,0,0.2,0,0.2,0h26.8c0.9,0,1.6-0.7,1.6-1.6v-2.3
		c0-0.9-0.7-1.6-1.6-1.6l-216.6,2.2c-0.9,0-1.6,0.7-1.6,1.6v7c0,0.8,0.7,1.6,1.5,1.6L497.3,409C497.2,409,497.3,409,497.3,409z"/>
	<circle class="st27" cx="588" cy="53.7" r="41.7"/>
	<circle class="st28" cx="588" cy="53.7" r="21.7"/>
	<path class="st26" d="M502,7.4h89.2c0.8,0,1.5,0.7,1.5,1.5V47c0,0.8-0.7,1.5-1.5,1.5h-3.3c-0.8,0-1.5-0.7-1.5-1.5V17.5
		c0-0.8-0.6-1.5-1.4-1.5l-75.5-4c-0.7,0-1.3,0.4-1.5,1.1l-3.6,11.7c-0.8,2.7-4.7,2.5-5.2-0.3l-1.8-9.6c-0.1-0.3,0-0.7,0.2-1l3.2-5.9
		C500.9,7.7,501.4,7.4,502,7.4z"/>
	<path class="st26" d="M615.7,45.8v28c0,0.8,0.7,1.5,1.5,1.5h10.9c0.8,0,1.5,0.7,1.5,1.5V88c0,0.8,0.7,1.5,1.5,1.5h19.2
		c0.8,0,1.5-0.6,1.5-1.5l0.2-3.7c0-0.8,0.7-1.5,1.5-1.5l23.1-0.5c0.8,0,1.5-0.7,1.5-1.5v-10c0-0.6,0.3-1.1,0.9-1.4l5.3-2.4
		c4.4-2,3.8-8.4-0.8-9.6l-14.1-3.7L635,44.3c-0.1,0-0.3-0.1-0.4-0.1h-17.4C616.4,44.3,615.7,44.9,615.7,45.8z"/>
	<circle class="st26" cx="688.4" cy="61.5" r="9.5"/>
	<polygon class="st26" points="651.8,291.2 647.1,281.1 621.1,225.5 621.1,219.5 627.3,223.3 651.6,268.8 	"/>
	<path class="st26" d="M640.3,268.8h-37.8c-0.9,0-1.7,0.7-1.7,1.7v11c0,0.9,0.7,1.7,1.7,1.7l42.8-0.4c1.2,0,2-1.3,1.5-2.4l-5-10.6
		C641.6,269.2,641,268.8,640.3,268.8z"/>
	<rect x="600.9" y="215.6" class="st26" width="8.8" height="53.2"/>
	<path class="st26" d="M642.5,190v-4.6c0-0.8,0.7-1.5,1.5-1.5h6.2c0.9,0,1.5,0.7,1.5,1.6l-0.2,9.5c0,0.8-0.7,1.5-1.5,1.5h-4.3
		c-0.5,0-1,0.3-1.3,0.7L612.3,246c-0.8,1.3-2.8,0.7-2.8-0.8V240c0-0.3,0.1-0.6,0.3-0.9l32.4-48.3C642.4,190.6,642.5,190.3,642.5,190
		z"/>
	<polygon class="st26" points="642.5,183.9 617.8,183.9 617.8,174.3 651.8,174.3 651.8,183.9 	"/>
	<path class="st28" d="M538.4,52.1l57.9,1.6c0.9,0,1.6,0.8,1.6,1.7l-3,55l-2.1,48.7c0,0.9,0.7,1.7,1.6,1.7h4.9
		c0.9,0,1.6,0.7,1.6,1.6v3.3c0,0.9-0.7,1.6-1.6,1.6h-0.8c-1.4,0-2.2,1.7-1.2,2.7l2.5,2.8c0.6,0.7,0.5,1.8-0.2,2.4l-4.2,3.4
		c-0.3,0.2-0.7,0.4-1,0.4h-13.9c-0.4,0-0.8-0.1-1-0.4l-3.8-3.2c-0.8-0.7-0.8-1.9,0-2.5l3.2-2.7c1.2-1,0.5-2.9-1.1-2.9h-2.1
		c-0.9,0-1.6-0.7-1.6-1.6v-2.9c0-0.9,0.7-1.6,1.5-1.6l5-0.3c0.9-0.1,1.6-0.9,1.5-1.8l-5.9-69.6l-2-21.2c-0.1-0.8-0.8-1.5-1.6-1.5
		h-30.1c-0.5,0-0.9-0.2-1.2-0.5l-4-4.4c-0.3-0.3-0.4-0.7-0.4-1.1v-7.1C536.7,52.8,537.5,52,538.4,52.1z"/>
	<path class="st26" d="M715.7,495.3h-40.6c-1.1,0-1.9-0.9-1.9-1.9v-52.5c0-1.1,0.9-1.9,1.9-1.9h40.6c1.1,0,1.9,0.9,1.9,1.9v52.5
		C717.6,494.5,716.8,495.3,715.7,495.3z"/>
	<polyline class="st28" points="686.4,167.4 707.7,188.2 708.8,189.3 715.4,189.3 682,211.3 706.3,232.6 708.8,234.8 715.4,234.8 
		686.4,254.6 706.6,272.9 711,272.9 703.9,272.9 686.4,291.2 715.4,319.5 719.8,319.5 711.6,319.5 686.4,340.6 711.6,366.3 
		714.9,366.3 708.8,366.3 686.4,390.2 707,404.2 708.8,405.5 713.2,405.5 673.2,439 	"/>
	<line class="st28" x1="673.2" y1="291.2" x2="701.7" y2="291.2"/>
	<line class="st28" x1="673.2" y1="377.8" x2="717.6" y2="377.8"/>
	<line class="st28" x1="673.2" y1="422.8" x2="714.3" y2="422.8"/>
	<line class="st28" x1="686.4" y1="390.2" x2="673.2" y2="390.2"/>
	<line class="st28" x1="580.6" y1="160.9" x2="594.3" y2="160.8"/>
	<line class="st28" x1="557.4" y1="82" x2="617.8" y2="24.4"/>
	<line class="st28" x1="557.4" y1="25.4" x2="618.5" y2="82"/>
	<path class="st26" d="M642.5,163.6L579.8,58.3L579,55c-1.8-7.6,6.5-13.5,13.1-9.4l2.8,1.7l57.9,116.2h-10.3V163.6z"/>
	<path class="st26" d="M589.5,44.3H624c0.8,0,1.5-0.7,1.5-1.5V6.1c0-0.8-0.7-1.5-1.5-1.5h-12.9c-0.8,0-1.5,0.7-1.5,1.5v28.8
		c0,0.8-0.7,1.5-1.5,1.5h-18.6c-0.8,0-1.5,0.7-1.5,1.5v4.9C588,43.6,588.6,44.3,589.5,44.3z"/>
	<path class="st26" d="M602.8,340.6H707c1.1,0,1.9,0.9,1.9,1.9v0.8c0,1.1-0.9,1.9-1.9,1.9H602.8c-1.1,0-1.9-0.9-1.9-1.9v-0.8
		C600.9,341.5,601.7,340.6,602.8,340.6z"/>
	<path class="st26" d="M619.2,254.6H685c0.7,0,1.3,0.6,1.3,1.3v0.6c0,0.7-0.6,1.3-1.3,1.3h-65.9c-0.7,0-1.3-0.6-1.3-1.3v-0.6
		C617.8,255.2,618.4,254.6,619.2,254.6z"/>
	<path class="st26" d="M707,211.3H596.6c-1,0-1.8,0.8-1.8,1.8v0.8c0,1,0.8,1.8,1.8,1.8H707c1,0,1.8-0.8,1.8-1.8v-0.8
		C708.8,212.1,708,211.3,707,211.3z"/>
	<path class="st2" d="M822.6,384.8v-14c0-0.9,0.7-1.6,1.6-1.6h205.9c0.3,0,0.6,0.1,0.9,0.2l22.6,14c1.4,0.9,0.8,3-0.9,3H824.2
		C823.3,386.4,822.6,385.7,822.6,384.8z"/>
	<path class="st2" d="M816,348.2h182.8c0.3,0,0.6,0.1,0.9,0.3l30.8,20.7H823.7c-0.7,0-1.2-0.4-1.5-1l-7.6-17.7
		C814.1,349.4,814.9,348.2,816,348.2z"/>
	<path class="st2" d="M808.3,323.5h176.9c0.2,0,0.3,0,0.4,0.1l15,4c0.9,0.2,1.5,1.2,1.2,2.1l-4.4,16.2c-0.3,1,0.4,2,1.4,2.2l0.6,0.1
		H814.8c-0.7,0-1.4-0.5-1.6-1.2l-6.5-18.3c-0.1-0.2-0.1-0.4-0.1-0.6v-2.9C806.5,324.3,807.3,323.5,808.3,323.5z"/>
	<line class="st3" x1="1000.6" y1="328.8" x2="806.5" y2="328.8"/>
	<path class="st2" d="M834.9,301.7h51.4c0.9,0,1.6,0.7,1.6,1.6v18.5c0,0.9-0.7,1.6-1.6,1.6h-51.4c-0.9,0-1.6-0.7-1.6-1.6v-18.5
		C833.3,302.4,834,301.7,834.9,301.7z"/>
	<path class="st2" d="M821.6,244.4l34.6,56.6c0.2,0.3,0,0.8-0.4,0.8h-22.1c-0.2,0-0.5-0.2-0.5-0.4l-12.7-56.5
		C820.3,244.1,821.2,243.8,821.6,244.4z"/>
	<path class="st24" d="M1297.9,382.7h-238.1c-1.1,0-2-0.9-2-2v-4.6c0-1.1,0.9-2,2-2h238.1c1.1,0,2,0.9,2,2v4.6
		C1299.9,381.8,1299,382.7,1297.9,382.7z"/>
	<path class="st24" d="M1119.6,402H1296c0.8,0,1.4,0.6,1.4,1.4v0.6c0,0.8-0.6,1.4-1.4,1.4h-176.4c-0.8,0-1.4-0.6-1.4-1.4v-0.6
		C1118.2,402.7,1118.8,402,1119.6,402z"/>
	<line class="st4" x1="1122.3" y1="382.7" x2="1176.1" y2="403.8"/>
	<line class="st4" x1="1177.4" y1="382.7" x2="1232" y2="403.8"/>
	<line class="st4" x1="1273.6" y1="382.7" x2="1232" y2="403.8"/>
	<line class="st4" x1="1231.6" y1="382.7" x2="1232" y2="403.8"/>
	<line class="st4" x1="1177.4" y1="382.7" x2="1177.4" y2="403.8"/>
	<line class="st4" x1="1122.3" y1="382.7" x2="1122.3" y2="403.8"/>
	<path class="st25" d="M10,497.4h68.5c0.5,0,0.9,0.2,1.2,0.6l7.4,11.1c0.3,0.4,0.7,0.6,1.2,0.6h415.9c0.6,0,1.1-0.4,1.3-0.9
		l4.2-10.5c0.2-0.5,0.7-0.9,1.3-0.9h111.4c0.2,0,0.4,0,0.6-0.1l24.1-10.5c0.2-0.1,0.4-0.1,0.6-0.1h124.9c0.8,0,1.4-0.6,1.4-1.4
		v-15.9c0-0.5-0.2-0.9-0.6-1.2l-11-7.4c-0.4-0.3-0.7-0.7-0.6-1.2l0.8-43.1c0-0.3,0.1-0.7,0.3-0.9l26.4-31.2c0.3-0.3,0.7-0.5,1.1-0.5
		h55.4c0.8,0,1.4-0.6,1.4-1.4V364c0-0.8,0.6-1.4,1.4-1.4h80.7h0.1l84.5,7.4c0.1,0,0.2,0,0.2,0l223,59c0.3,0.1,0.6,0.3,0.8,0.5
		l7.6,9.8c0.2,0.3,0.3,0.7,0.3,1.1l-10.5,75.1c-0.1,0.5-0.4,0.9-0.8,1.1c-5.4,2.4-39.5,18-48.6,30.1c-9.9,13.2,45.2-22.2,51,14
		c5.7,35.7-104.1,45-106.8,45.2h-0.1H309.6c-0.1,0-0.2,0-0.3,0L83.5,565.7c-0.1,0-0.1,0-0.2,0L24.2,564c-0.5,0-1-0.3-1.2-0.7
		L8.8,538c-0.1-0.2-0.2-0.5-0.2-0.7v-38.5C8.6,498,9.2,497.4,10,497.4z"/>
	<path class="st2" d="M949.2,398.7h63.4c1.1,0,1.9,1.1,1.5,2.2l-5,14c-0.2,0.7-0.9,1.1-1.5,1.1h-58.5c-0.9,0-1.6-0.7-1.6-1.6v-14
		C947.6,399.5,948.3,398.7,949.2,398.7z"/>
	<path class="st2" d="M857.1,424.6h148.4c1.2,0,2,1.2,1.5,2.3l-5.1,11.2c-0.3,0.6-0.9,1-1.5,1h-4.7c-0.9,0-1.6,0.7-1.6,1.6v2
		c0,0.9,0.7,1.6,1.6,1.6h2.4c1.2,0,2,1.2,1.5,2.3l-5.2,11.9c-0.3,0.6-0.9,1-1.5,1H857.1c-0.9,0-1.6-0.7-1.6-1.6v-31.7
		C855.4,425.4,856.2,424.6,857.1,424.6z"/>
	<path class="st2" d="M851.4,487.1h97.4c0.9,0,1.6-0.7,1.6-1.6v-16c0-0.9-0.7-1.6-1.6-1.6h-97.4c-0.9,0-1.6,0.7-1.6,1.6v16
		C849.7,486.4,850.4,487.1,851.4,487.1z"/>
	<rect x="904" y="402" class="st20" width="8.2" height="14"/>
	<rect x="918.4" y="402" class="st20" width="8.2" height="14"/>
	<rect x="931.2" y="402" class="st20" width="8.2" height="14"/>
	<rect x="1030.2" y="402" class="st20" width="8.2" height="7"/>
	<rect x="1057.7" y="402" class="st20" width="8.2" height="7"/>
	<rect x="1022.7" y="424.6" class="st20" width="4.1" height="7"/>
	<rect x="1041.6" y="424.6" class="st20" width="4.1" height="7"/>
	<rect x="1064.9" y="424.6" class="st20" width="4.1" height="7"/>
	<rect x="1083.2" y="424.6" class="st20" width="4.1" height="7"/>
	<rect x="1106" y="424.6" class="st20" width="4.1" height="7"/>
	<rect x="1129" y="424.6" class="st20" width="4.1" height="7"/>
	<rect x="1022.7" y="447.9" class="st20" width="4.1" height="7"/>
	<rect x="1041.6" y="447.9" class="st20" width="4.1" height="7"/>
	<rect x="1064.9" y="447.9" class="st20" width="4.1" height="7"/>
	<rect x="1083.2" y="447.9" class="st20" width="4.1" height="7"/>
	<rect x="1106" y="447.9" class="st20" width="4.1" height="7"/>
	<rect x="1129" y="447.9" class="st20" width="4.1" height="7"/>
	<rect x="963.6" y="471.5" class="st20" width="8.2" height="7"/>
	<rect x="979.4" y="471.5" class="st20" width="8.2" height="7"/>
	<rect x="995.7" y="471.5" class="st20" width="8.2" height="7"/>
	<rect x="1039.6" y="471.5" class="st20" width="8.2" height="7"/>
	<rect x="1062.8" y="471.5" class="st20" width="8.2" height="7"/>
	<rect x="884.8" y="495.3" class="st20" width="4.1" height="4.3"/>
	<rect x="906" y="495.3" class="st20" width="4.1" height="4.3"/>
	<rect x="928" y="495.3" class="st20" width="4.1" height="4.3"/>
	<rect x="944.5" y="495.3" class="st20" width="4.1" height="4.3"/>
	<rect x="959.5" y="495.3" class="st20" width="4.1" height="4.3"/>
	<rect x="976.8" y="495.3" class="st20" width="4.1" height="4.3"/>
	<rect x="992.6" y="495.3" class="st20" width="4.1" height="4.3"/>
	<rect x="1008.7" y="495.3" class="st20" width="4.1" height="4.3"/>
	<rect x="1023.5" y="495.3" class="st20" width="4.1" height="4.3"/>
	<path class="st2" d="M654.3,493.6h3.5c0.9,0,1.7,0.7,1.7,1.7v12.8c0,0.9-0.7,1.7-1.7,1.7h-3.5c-0.9,0-1.7-0.7-1.7-1.7v-12.8
		C652.7,494.3,653.4,493.6,654.3,493.6z"/>
	<path class="st2" d="M632.1,502.9h11.2c0.9,0,1.7,0.7,1.7,1.7v3.5c0,0.9-0.7,1.7-1.7,1.7h-11.2c-0.9,0-1.7-0.7-1.7-1.7v-3.5
		C630.5,503.6,631.2,502.9,632.1,502.9z"/>
	<circle class="st29" cx="820.8" cy="239" r="6.4"/>
	<circle class="st29" cx="846.6" cy="285.1" r="16.2"/>
	<circle class="st29" cx="870.1" cy="291.2" r="8"/>
	<polygon class="st20" points="810.8,331.7 826.3,331.7 831.2,345.3 815.6,345.3 	"/>
	<polygon class="st20" points="829.5,331.7 853.6,331.7 853.6,345.3 834.8,345.3 	"/>
	<polygon class="st20" points="879.9,331.7 855.5,331.7 855.5,345.3 874.5,345.3 	"/>
	<polygon class="st20" points="895.5,331.7 882.4,331.7 877.3,345.3 890.7,345.3 	"/>
	<polygon class="st20" points="912.6,331.7 898.7,331.7 896.1,340.6 912,340.6 	"/>
	<polygon class="st20" points="929.1,331.7 914.4,331.7 914.2,340.6 928.4,340.6 	"/>
	<polygon class="st20" points="945.3,331.7 930.5,331.7 930.4,340.6 944.6,340.6 	"/>
	<polygon class="st20" points="962.1,331.7 947.3,331.7 947.2,340.6 961.4,340.6 	"/>
	<polygon class="st20" points="978.4,331.7 963.7,331.7 963.6,340.6 977.8,340.6 	"/>
	<polygon class="st20" points="996.7,331.7 979.5,331.7 979.4,340.6 993.6,340.6 	"/>
	<polygon class="st20" points="818,351.5 834.3,351.5 839.2,366.3 824.4,366.3 	"/>
	<path class="st2" d="M899.9,375.7h76.8c0.1,0,0.2,0,0.3,0l41,6.7c1,0.2,1.6,1.2,1.3,2.2l-2.6,7.6c-0.2,0.7-0.9,1.1-1.6,1.1H899.9
		c-0.9,0-1.6-0.7-1.6-1.6v-14.2C898.2,376.4,899,375.7,899.9,375.7z"/>
	<rect x="953.3" y="402" class="st20" width="8.2" height="10.7"/>
	<rect x="968.6" y="402" class="st20" width="8.2" height="10.7"/>
	<rect x="995.7" y="402" class="st20" width="8.2" height="10.7"/>
	<rect x="917.6" y="379.4" class="st20" width="8.2" height="10.8"/>
	<rect x="953.3" y="379.4" class="st20" width="8.2" height="10.8"/>
	<rect x="984.4" y="380.9" class="st20" width="8.2" height="9.3"/>
	<rect x="1000.6" y="384.5" class="st20" width="8.2" height="5.8"/>
	<rect x="855.4" y="471.5" class="st20" width="8.2" height="7"/>
	<rect x="882.8" y="471.5" class="st20" width="8.2" height="7"/>
	<rect x="915.4" y="471.5" class="st20" width="8.2" height="7"/>
	<rect x="931.2" y="471.5" class="st20" width="8.2" height="7"/>
	<rect x="979.1" y="428.7" class="st20" width="4.1" height="7"/>
	<rect x="963" y="428.7" class="st20" width="4.1" height="7"/>
	<rect x="936.4" y="428.7" class="st20" width="4.1" height="7"/>
	<rect x="914.7" y="428.7" class="st20" width="4.1" height="7"/>
	<rect x="866.6" y="428.7" class="st20" width="4.1" height="7"/>
	<rect x="866.6" y="446.6" class="st20" width="4.1" height="7"/>
	<rect x="914.7" y="446.6" class="st20" width="4.1" height="7"/>
	<rect x="936.4" y="446.6" class="st20" width="4.1" height="7"/>
	<rect x="963" y="446.6" class="st20" width="4.1" height="7"/>
	<rect x="979.1" y="446.6" class="st20" width="4.1" height="7"/>
	<path class="st2" d="M887.9,301.7l15.1,0.4c0.4,0,0.7,0.1,1,0.4l21.7,18.2c1.1,1,0.5,2.8-1,2.8h-36.8c-0.9,0-1.6-0.7-1.6-1.6v-18.6
		C886.3,302.4,887,301.7,887.9,301.7z"/>
	<circle class="st2" cx="362.9" cy="290" r="14.8"/>
	<path class="st2" d="M370.9,354.2l45.1,4.5c0.1,0,0.1,0,0.2,0l185.7,0.2c0.9,0,1.7-0.8,1.7-1.7v-12.5c0-0.9-0.8-1.7-1.7-1.7H416.8
		c-0.1,0-0.1,0-0.2,0l-46.7,5c-1.1,0.1-1.8,1.2-1.4,2.3l1,2.8C369.7,353.7,370.3,354.1,370.9,354.2z"/>
	<path class="st30" d="M651,826.4l153.1-150.5c6.5-6.4,2-17.5-7.1-17.5H490.8c-9.1,0-13.7,11.1-7.1,17.5l153.1,150.5
		C640.7,830.3,647.1,830.3,651,826.4z"/>
</g>
</svg>
