<?xml version="1.0" encoding="UTF-8" standalone="no"?>
<!DOCTYPE svg PUBLIC "-//W3C//DTD SVG 1.1//EN"
 "http://www.w3.org/Graphics/SVG/1.1/DTD/svg11.dtd">
<!-- Generated by graphviz version 2.40.1 (20161225.0304)
 -->
<!-- Title: dependencies Pages: 1 -->
<svg width="666pt" height="211pt"
 viewBox="0.00 0.00 666.00 211.00" xmlns="http://www.w3.org/2000/svg" xmlns:xlink="http://www.w3.org/1999/xlink">
<g id="graph0" class="graph" transform="scale(1 1) rotate(0) translate(4 207)">
<title>dependencies</title>
<polygon fill="#ffffff" stroke="transparent" points="-4,4 -4,-207 662,-207 662,4 -4,4"/>
<text text-anchor="start" x="308.0091" y="-42.4" font-family="sans-serif" font-weight="bold" font-size="14.00" fill="#000000">Legend</text>
<polygon fill="#ffffb3" stroke="transparent" points="95,-10 95,-30 115,-30 115,-10 95,-10"/>
<text text-anchor="start" x="118.629" y="-15.4" font-family="sans-serif" font-size="14.00" fill="#000000"> &#160;Declarations</text>
<polygon fill="#8dd3c7" stroke="transparent" points="208,-10 208,-30 228,-30 228,-10 208,-10"/>
<text text-anchor="start" x="231.7251" y="-15.4" font-family="sans-serif" font-size="14.00" fill="#000000"> &#160;Module</text>
<polygon fill="#80b1d3" stroke="transparent" points="294,-10 294,-30 314,-30 314,-10 294,-10"/>
<text text-anchor="start" x="317.7812" y="-15.4" font-family="sans-serif" font-size="14.00" fill="#000000"> &#160;Bootstrap</text>
<polygon fill="#fdb462" stroke="transparent" points="391,-10 391,-30 411,-30 411,-10 391,-10"/>
<text text-anchor="start" x="414.6732" y="-15.4" font-family="sans-serif" font-size="14.00" fill="#000000"> &#160;Providers</text>
<polygon fill="#fb8072" stroke="transparent" points="487,-10 487,-30 507,-30 507,-10 487,-10"/>
<text text-anchor="start" x="510.7258" y="-15.4" font-family="sans-serif" font-size="14.00" fill="#000000"> &#160;Exports</text>
<g id="clust1" class="cluster">
<title>cluster_AdminApplicationsAccessesModule</title>
<polygon fill="none" stroke="#000000" stroke-dasharray="1,5" points="8,-70 8,-195 650,-195 650,-70 8,-70"/>
</g>
<g id="clust2" class="cluster">
<title>cluster_AdminApplicationsAccessesModule_declarations</title>
<polygon fill="none" stroke="#000000" points="422,-78 422,-130 642,-130 642,-78 422,-78"/>
</g>
<g id="clust4" class="cluster">
<title>cluster_AdminApplicationsAccessesModule_imports</title>
<polygon fill="none" stroke="#000000" points="16,-78 16,-130 414,-130 414,-78 16,-78"/>
</g>
<!-- ApplicationsAccessesComponent -->
<g id="node1" class="node">
<title>ApplicationsAccessesComponent</title>
<polygon fill="#ffffb3" stroke="#000000" points="634.1741,-122 429.8259,-122 429.8259,-86 634.1741,-86 634.1741,-122"/>
<text text-anchor="middle" x="532" y="-99.8" font-family="Times,serif" font-size="14.00" fill="#000000">ApplicationsAccessesComponent</text>
</g>
<!-- AdminApplicationsAccessesModule -->
<g id="node2" class="node">
<title>AdminApplicationsAccessesModule</title>
<polygon fill="#8dd3c7" stroke="#000000" points="383.7794,-187 380.7794,-191 359.7794,-191 356.7794,-187 162.2206,-187 162.2206,-151 383.7794,-151 383.7794,-187"/>
<text text-anchor="middle" x="273" y="-164.8" font-family="Times,serif" font-size="14.00" fill="#000000">AdminApplicationsAccessesModule</text>
</g>
<!-- ApplicationsAccessesComponent&#45;&gt;AdminApplicationsAccessesModule -->
<g id="edge1" class="edge">
<title>ApplicationsAccessesComponent&#45;&gt;AdminApplicationsAccessesModule</title>
<path fill="none" stroke="#000000" d="M532,-122.1061C532,-141.3391 532,-169 532,-169 532,-169 393.9664,-169 393.9664,-169"/>
<polygon fill="#000000" stroke="#000000" points="393.9665,-165.5001 383.9664,-169 393.9664,-172.5001 393.9665,-165.5001"/>
</g>
<!-- AdminApplicationsAccessesRoutingModule -->
<g id="node3" class="node">
<title>AdminApplicationsAccessesRoutingModule</title>
<polygon fill="#8dd3c7" stroke="#000000" points="406.3973,-122 403.3973,-126 382.3973,-126 379.3973,-122 139.6027,-122 139.6027,-86 406.3973,-86 406.3973,-122"/>
<text text-anchor="middle" x="273" y="-99.8" font-family="Times,serif" font-size="14.00" fill="#000000">AdminApplicationsAccessesRoutingModule</text>
</g>
<!-- AdminApplicationsAccessesRoutingModule&#45;&gt;AdminApplicationsAccessesModule -->
<g id="edge2" class="edge">
<title>AdminApplicationsAccessesRoutingModule&#45;&gt;AdminApplicationsAccessesModule</title>
<path fill="none" stroke="#000000" d="M273,-122.1061C273,-122.1061 273,-140.991 273,-140.991"/>
<polygon fill="#000000" stroke="#000000" points="269.5001,-140.9909 273,-150.991 276.5001,-140.991 269.5001,-140.9909"/>
</g>
<!-- SharedModule -->
<g id="node4" class="node">
<title>SharedModule</title>
<polygon fill="#8dd3c7" stroke="#000000" points="122.4231,-122 119.4231,-126 98.4231,-126 95.4231,-122 23.5769,-122 23.5769,-86 122.4231,-86 122.4231,-122"/>
<text text-anchor="middle" x="73" y="-99.8" font-family="Times,serif" font-size="14.00" fill="#000000">SharedModule</text>
</g>
<!-- SharedModule&#45;&gt;AdminApplicationsAccessesModule -->
<g id="edge3" class="edge">
<title>SharedModule&#45;&gt;AdminApplicationsAccessesModule</title>
<path fill="none" stroke="#000000" d="M73,-122.1061C73,-141.3391 73,-169 73,-169 73,-169 152.179,-169 152.179,-169"/>
<polygon fill="#000000" stroke="#000000" points="152.1791,-172.5001 162.179,-169 152.179,-165.5001 152.1791,-172.5001"/>
</g>
</g>
</svg>
