<?xml version="1.0" encoding="UTF-8" standalone="no"?>
<!DOCTYPE svg PUBLIC "-//W3C//DTD SVG 1.1//EN"
 "http://www.w3.org/Graphics/SVG/1.1/DTD/svg11.dtd">
<!-- Generated by graphviz version 2.40.1 (20161225.0304)
 -->
<!-- Title: dependencies Pages: 1 -->
<svg width="1830pt" height="211pt"
 viewBox="0.00 0.00 1830.00 211.00" xmlns="http://www.w3.org/2000/svg" xmlns:xlink="http://www.w3.org/1999/xlink">
<g id="graph0" class="graph" transform="scale(1 1) rotate(0) translate(4 207)">
<title>dependencies</title>
<polygon fill="#ffffff" stroke="transparent" points="-4,4 -4,-207 1826,-207 1826,4 -4,4"/>
<text text-anchor="start" x="890.0091" y="-42.4" font-family="sans-serif" font-weight="bold" font-size="14.00" fill="#000000">Legend</text>
<polygon fill="#ffffb3" stroke="transparent" points="677,-10 677,-30 697,-30 697,-10 677,-10"/>
<text text-anchor="start" x="700.629" y="-15.4" font-family="sans-serif" font-size="14.00" fill="#000000"> &#160;Declarations</text>
<polygon fill="#8dd3c7" stroke="transparent" points="790,-10 790,-30 810,-30 810,-10 790,-10"/>
<text text-anchor="start" x="813.7251" y="-15.4" font-family="sans-serif" font-size="14.00" fill="#000000"> &#160;Module</text>
<polygon fill="#80b1d3" stroke="transparent" points="876,-10 876,-30 896,-30 896,-10 876,-10"/>
<text text-anchor="start" x="899.7812" y="-15.4" font-family="sans-serif" font-size="14.00" fill="#000000"> &#160;Bootstrap</text>
<polygon fill="#fdb462" stroke="transparent" points="973,-10 973,-30 993,-30 993,-10 973,-10"/>
<text text-anchor="start" x="996.6732" y="-15.4" font-family="sans-serif" font-size="14.00" fill="#000000"> &#160;Providers</text>
<polygon fill="#fb8072" stroke="transparent" points="1069,-10 1069,-30 1089,-30 1089,-10 1069,-10"/>
<text text-anchor="start" x="1092.7258" y="-15.4" font-family="sans-serif" font-size="14.00" fill="#000000"> &#160;Exports</text>
<g id="clust1" class="cluster">
<title>cluster_AnalysisHistoryModule</title>
<polygon fill="none" stroke="#000000" stroke-dasharray="1,5" points="8,-70 8,-195 1814,-195 1814,-70 8,-70"/>
</g>
<g id="clust2" class="cluster">
<title>cluster_AnalysisHistoryModule_declarations</title>
<polygon fill="none" stroke="#000000" points="352,-78 352,-130 1806,-130 1806,-78 352,-78"/>
</g>
<g id="clust10" class="cluster">
<title>cluster_AnalysisHistoryModule_imports</title>
<polygon fill="none" stroke="#000000" points="16,-78 16,-130 344,-130 344,-78 16,-78"/>
</g>
<!-- HistoryComponent -->
<g id="node1" class="node">
<title>HistoryComponent</title>
<polygon fill="#ffffb3" stroke="#000000" points="1797.8258,-122 1674.1742,-122 1674.1742,-86 1797.8258,-86 1797.8258,-122"/>
<text text-anchor="middle" x="1736" y="-99.8" font-family="Times,serif" font-size="14.00" fill="#000000">HistoryComponent</text>
</g>
<!-- AnalysisHistoryModule -->
<g id="node8" class="node">
<title>AnalysisHistoryModule</title>
<polygon fill="#8dd3c7" stroke="#000000" points="947.0351,-187 944.0351,-191 923.0351,-191 920.0351,-187 796.9649,-187 796.9649,-151 947.0351,-151 947.0351,-187"/>
<text text-anchor="middle" x="872" y="-164.8" font-family="Times,serif" font-size="14.00" fill="#000000">AnalysisHistoryModule</text>
</g>
<!-- HistoryComponent&#45;&gt;AnalysisHistoryModule -->
<g id="edge1" class="edge">
<title>HistoryComponent&#45;&gt;AnalysisHistoryModule</title>
<path fill="none" stroke="#000000" d="M1736,-122.0109C1736,-144.4852 1736,-180 1736,-180 1736,-180 957.1629,-180 957.1629,-180"/>
<polygon fill="#000000" stroke="#000000" points="957.1629,-176.5001 947.1629,-180 957.1629,-183.5001 957.1629,-176.5001"/>
</g>
<!-- HistoryFeatureAnalysisComponent -->
<g id="node2" class="node">
<title>HistoryFeatureAnalysisComponent</title>
<polygon fill="#ffffb3" stroke="#000000" points="1656.2948,-122 1441.7052,-122 1441.7052,-86 1656.2948,-86 1656.2948,-122"/>
<text text-anchor="middle" x="1549" y="-99.8" font-family="Times,serif" font-size="14.00" fill="#000000">HistoryFeatureAnalysisComponent</text>
</g>
<!-- HistoryFeatureAnalysisComponent&#45;&gt;AnalysisHistoryModule -->
<g id="edge2" class="edge">
<title>HistoryFeatureAnalysisComponent&#45;&gt;AnalysisHistoryModule</title>
<path fill="none" stroke="#000000" d="M1549,-122.1289C1549,-142.5724 1549,-173 1549,-173 1549,-173 957.0375,-173 957.0375,-173"/>
<polygon fill="#000000" stroke="#000000" points="957.0376,-169.5001 947.0375,-173 957.0375,-176.5001 957.0376,-169.5001"/>
</g>
<!-- HistoryFeatureForecastsComponent -->
<g id="node3" class="node">
<title>HistoryFeatureForecastsComponent</title>
<polygon fill="#ffffb3" stroke="#000000" points="1424.1699,-122 1205.8301,-122 1205.8301,-86 1424.1699,-86 1424.1699,-122"/>
<text text-anchor="middle" x="1315" y="-99.8" font-family="Times,serif" font-size="14.00" fill="#000000">HistoryFeatureForecastsComponent</text>
</g>
<!-- HistoryFeatureForecastsComponent&#45;&gt;AnalysisHistoryModule -->
<g id="edge3" class="edge">
<title>HistoryFeatureForecastsComponent&#45;&gt;AnalysisHistoryModule</title>
<path fill="none" stroke="#000000" d="M1315,-122.2667C1315,-140.5552 1315,-166 1315,-166 1315,-166 957.1489,-166 957.1489,-166"/>
<polygon fill="#000000" stroke="#000000" points="957.1489,-162.5001 947.1489,-166 957.1489,-169.5001 957.1489,-162.5001"/>
</g>
<!-- HistoryFeatureInfoComponent -->
<g id="node4" class="node">
<title>HistoryFeatureInfoComponent</title>
<polygon fill="#ffffb3" stroke="#000000" points="1188.1246,-122 999.8754,-122 999.8754,-86 1188.1246,-86 1188.1246,-122"/>
<text text-anchor="middle" x="1094" y="-99.8" font-family="Times,serif" font-size="14.00" fill="#000000">HistoryFeatureInfoComponent</text>
</g>
<!-- HistoryFeatureInfoComponent&#45;&gt;AnalysisHistoryModule -->
<g id="edge4" class="edge">
<title>HistoryFeatureInfoComponent&#45;&gt;AnalysisHistoryModule</title>
<path fill="none" stroke="#000000" d="M1094,-122.0091C1094,-138.0494 1094,-159 1094,-159 1094,-159 957.1591,-159 957.1591,-159"/>
<polygon fill="#000000" stroke="#000000" points="957.1591,-155.5001 947.1591,-159 957.159,-162.5001 957.1591,-155.5001"/>
</g>
<!-- HistoryFeatureSummaryComponent -->
<g id="node5" class="node">
<title>HistoryFeatureSummaryComponent</title>
<polygon fill="#ffffb3" stroke="#000000" points="981.7422,-122 762.2578,-122 762.2578,-86 981.7422,-86 981.7422,-122"/>
<text text-anchor="middle" x="872" y="-99.8" font-family="Times,serif" font-size="14.00" fill="#000000">HistoryFeatureSummaryComponent</text>
</g>
<!-- HistoryFeatureSummaryComponent&#45;&gt;AnalysisHistoryModule -->
<g id="edge5" class="edge">
<title>HistoryFeatureSummaryComponent&#45;&gt;AnalysisHistoryModule</title>
<path fill="none" stroke="#000000" d="M872,-122.1061C872,-122.1061 872,-140.991 872,-140.991"/>
<polygon fill="#000000" stroke="#000000" points="868.5001,-140.9909 872,-150.991 875.5001,-140.991 868.5001,-140.9909"/>
</g>
<!-- HistoryFeatureViewComponent -->
<g id="node6" class="node">
<title>HistoryFeatureViewComponent</title>
<polygon fill="#ffffb3" stroke="#000000" points="743.6218,-122 548.3782,-122 548.3782,-86 743.6218,-86 743.6218,-122"/>
<text text-anchor="middle" x="646" y="-99.8" font-family="Times,serif" font-size="14.00" fill="#000000">HistoryFeatureViewComponent</text>
</g>
<!-- HistoryFeatureViewComponent&#45;&gt;AnalysisHistoryModule -->
<g id="edge6" class="edge">
<title>HistoryFeatureViewComponent&#45;&gt;AnalysisHistoryModule</title>
<path fill="none" stroke="#000000" d="M646,-122.0091C646,-138.0494 646,-159 646,-159 646,-159 786.7453,-159 786.7453,-159"/>
<polygon fill="#000000" stroke="#000000" points="786.7453,-162.5001 796.7453,-159 786.7452,-155.5001 786.7453,-162.5001"/>
</g>
<!-- HistoryFeaturesComponent -->
<g id="node7" class="node">
<title>HistoryFeaturesComponent</title>
<polygon fill="#ffffb3" stroke="#000000" points="530.2478,-122 359.7522,-122 359.7522,-86 530.2478,-86 530.2478,-122"/>
<text text-anchor="middle" x="445" y="-99.8" font-family="Times,serif" font-size="14.00" fill="#000000">HistoryFeaturesComponent</text>
</g>
<!-- HistoryFeaturesComponent&#45;&gt;AnalysisHistoryModule -->
<g id="edge7" class="edge">
<title>HistoryFeaturesComponent&#45;&gt;AnalysisHistoryModule</title>
<path fill="none" stroke="#000000" d="M445,-122.2667C445,-140.5552 445,-166 445,-166 445,-166 786.6439,-166 786.6439,-166"/>
<polygon fill="#000000" stroke="#000000" points="786.6439,-169.5001 796.6439,-166 786.6439,-162.5001 786.6439,-169.5001"/>
</g>
<!-- AnalysisHistoryRoutingModule -->
<g id="node9" class="node">
<title>AnalysisHistoryRoutingModule</title>
<polygon fill="#8dd3c7" stroke="#000000" points="335.6525,-122 332.6525,-126 311.6525,-126 308.6525,-122 140.3475,-122 140.3475,-86 335.6525,-86 335.6525,-122"/>
<text text-anchor="middle" x="238" y="-99.8" font-family="Times,serif" font-size="14.00" fill="#000000">AnalysisHistoryRoutingModule</text>
</g>
<!-- AnalysisHistoryRoutingModule&#45;&gt;AnalysisHistoryModule -->
<g id="edge8" class="edge">
<title>AnalysisHistoryRoutingModule&#45;&gt;AnalysisHistoryModule</title>
<path fill="none" stroke="#000000" d="M238,-122.1289C238,-142.5724 238,-173 238,-173 238,-173 786.7822,-173 786.7822,-173"/>
<polygon fill="#000000" stroke="#000000" points="786.7822,-176.5001 796.7822,-173 786.7822,-169.5001 786.7822,-176.5001"/>
</g>
<!-- SharedModule -->
<g id="node10" class="node">
<title>SharedModule</title>
<polygon fill="#8dd3c7" stroke="#000000" points="122.4231,-122 119.4231,-126 98.4231,-126 95.4231,-122 23.5769,-122 23.5769,-86 122.4231,-86 122.4231,-122"/>
<text text-anchor="middle" x="73" y="-99.8" font-family="Times,serif" font-size="14.00" fill="#000000">SharedModule</text>
</g>
<!-- SharedModule&#45;&gt;AnalysisHistoryModule -->
<g id="edge9" class="edge">
<title>SharedModule&#45;&gt;AnalysisHistoryModule</title>
<path fill="none" stroke="#000000" d="M73,-122.0109C73,-144.4852 73,-180 73,-180 73,-180 786.832,-180 786.832,-180"/>
<polygon fill="#000000" stroke="#000000" points="786.8321,-183.5001 796.832,-180 786.832,-176.5001 786.8321,-183.5001"/>
</g>
</g>
</svg>
