<?xml version="1.0" encoding="UTF-8" standalone="no"?>
<!DOCTYPE svg PUBLIC "-//W3C//DTD SVG 1.1//EN"
 "http://www.w3.org/Graphics/SVG/1.1/DTD/svg11.dtd">
<!-- Generated by graphviz version 2.40.1 (20161225.0304)
 -->
<!-- Title: dependencies Pages: 1 -->
<svg width="680pt" height="211pt"
 viewBox="0.00 0.00 680.00 211.00" xmlns="http://www.w3.org/2000/svg" xmlns:xlink="http://www.w3.org/1999/xlink">
<g id="graph0" class="graph" transform="scale(1 1) rotate(0) translate(4 207)">
<title>dependencies</title>
<polygon fill="#ffffff" stroke="transparent" points="-4,4 -4,-207 676,-207 676,4 -4,4"/>
<text text-anchor="start" x="315.0091" y="-42.4" font-family="sans-serif" font-weight="bold" font-size="14.00" fill="#000000">Legend</text>
<polygon fill="#ffffb3" stroke="transparent" points="102,-10 102,-30 122,-30 122,-10 102,-10"/>
<text text-anchor="start" x="125.629" y="-15.4" font-family="sans-serif" font-size="14.00" fill="#000000"> &#160;Declarations</text>
<polygon fill="#8dd3c7" stroke="transparent" points="215,-10 215,-30 235,-30 235,-10 215,-10"/>
<text text-anchor="start" x="238.7251" y="-15.4" font-family="sans-serif" font-size="14.00" fill="#000000"> &#160;Module</text>
<polygon fill="#80b1d3" stroke="transparent" points="301,-10 301,-30 321,-30 321,-10 301,-10"/>
<text text-anchor="start" x="324.7812" y="-15.4" font-family="sans-serif" font-size="14.00" fill="#000000"> &#160;Bootstrap</text>
<polygon fill="#fdb462" stroke="transparent" points="398,-10 398,-30 418,-30 418,-10 398,-10"/>
<text text-anchor="start" x="421.6732" y="-15.4" font-family="sans-serif" font-size="14.00" fill="#000000"> &#160;Providers</text>
<polygon fill="#fb8072" stroke="transparent" points="494,-10 494,-30 514,-30 514,-10 494,-10"/>
<text text-anchor="start" x="517.7258" y="-15.4" font-family="sans-serif" font-size="14.00" fill="#000000"> &#160;Exports</text>
<g id="clust1" class="cluster">
<title>cluster_AdminLogsModule</title>
<polygon fill="none" stroke="#000000" stroke-dasharray="1,5" points="8,-70 8,-195 664,-195 664,-70 8,-70"/>
</g>
<g id="clust2" class="cluster">
<title>cluster_AdminLogsModule_declarations</title>
<polygon fill="none" stroke="#000000" points="328,-78 328,-130 656,-130 656,-78 328,-78"/>
</g>
<g id="clust5" class="cluster">
<title>cluster_AdminLogsModule_imports</title>
<polygon fill="none" stroke="#000000" points="16,-78 16,-130 320,-130 320,-78 16,-78"/>
</g>
<!-- LogsComponent -->
<g id="node1" class="node">
<title>LogsComponent</title>
<polygon fill="#ffffb3" stroke="#000000" points="647.8301,-122 538.1699,-122 538.1699,-86 647.8301,-86 647.8301,-122"/>
<text text-anchor="middle" x="593" y="-99.8" font-family="Times,serif" font-size="14.00" fill="#000000">LogsComponent</text>
</g>
<!-- AdminLogsModule -->
<g id="node3" class="node">
<title>AdminLogsModule</title>
<polygon fill="#8dd3c7" stroke="#000000" points="390.4356,-187 387.4356,-191 366.4356,-191 363.4356,-187 263.5644,-187 263.5644,-151 390.4356,-151 390.4356,-187"/>
<text text-anchor="middle" x="327" y="-164.8" font-family="Times,serif" font-size="14.00" fill="#000000">AdminLogsModule</text>
</g>
<!-- LogsComponent&#45;&gt;AdminLogsModule -->
<g id="edge1" class="edge">
<title>LogsComponent&#45;&gt;AdminLogsModule</title>
<path fill="none" stroke="#000000" d="M593,-122.1061C593,-141.3391 593,-169 593,-169 593,-169 400.3757,-169 400.3757,-169"/>
<polygon fill="#000000" stroke="#000000" points="400.3757,-165.5001 390.3757,-169 400.3756,-172.5001 400.3757,-165.5001"/>
</g>
<!-- MapLocationLogsComponent -->
<g id="node2" class="node">
<title>MapLocationLogsComponent</title>
<polygon fill="#ffffb3" stroke="#000000" points="520.252,-122 335.748,-122 335.748,-86 520.252,-86 520.252,-122"/>
<text text-anchor="middle" x="428" y="-99.8" font-family="Times,serif" font-size="14.00" fill="#000000">MapLocationLogsComponent</text>
</g>
<!-- MapLocationLogsComponent&#45;&gt;AdminLogsModule -->
<g id="edge2" class="edge">
<title>MapLocationLogsComponent&#45;&gt;AdminLogsModule</title>
<path fill="none" stroke="#000000" d="M362.9208,-122.1061C362.9208,-122.1061 362.9208,-140.991 362.9208,-140.991"/>
<polygon fill="#000000" stroke="#000000" points="359.4208,-140.9909 362.9208,-150.991 366.4208,-140.991 359.4208,-140.9909"/>
</g>
<!-- AdminLogsRoutingModule -->
<g id="node4" class="node">
<title>AdminLogsRoutingModule</title>
<polygon fill="#8dd3c7" stroke="#000000" points="311.5532,-122 308.5532,-126 287.5532,-126 284.5532,-122 140.4468,-122 140.4468,-86 311.5532,-86 311.5532,-122"/>
<text text-anchor="middle" x="226" y="-99.8" font-family="Times,serif" font-size="14.00" fill="#000000">AdminLogsRoutingModule</text>
</g>
<!-- AdminLogsRoutingModule&#45;&gt;AdminLogsModule -->
<g id="edge3" class="edge">
<title>AdminLogsRoutingModule&#45;&gt;AdminLogsModule</title>
<path fill="none" stroke="#000000" d="M287.7795,-122.1061C287.7795,-122.1061 287.7795,-140.991 287.7795,-140.991"/>
<polygon fill="#000000" stroke="#000000" points="284.2795,-140.9909 287.7795,-150.991 291.2795,-140.991 284.2795,-140.9909"/>
</g>
<!-- SharedModule -->
<g id="node5" class="node">
<title>SharedModule</title>
<polygon fill="#8dd3c7" stroke="#000000" points="122.4231,-122 119.4231,-126 98.4231,-126 95.4231,-122 23.5769,-122 23.5769,-86 122.4231,-86 122.4231,-122"/>
<text text-anchor="middle" x="73" y="-99.8" font-family="Times,serif" font-size="14.00" fill="#000000">SharedModule</text>
</g>
<!-- SharedModule&#45;&gt;AdminLogsModule -->
<g id="edge4" class="edge">
<title>SharedModule&#45;&gt;AdminLogsModule</title>
<path fill="none" stroke="#000000" d="M73,-122.1061C73,-141.3391 73,-169 73,-169 73,-169 253.5603,-169 253.5603,-169"/>
<polygon fill="#000000" stroke="#000000" points="253.5603,-172.5001 263.5603,-169 253.5602,-165.5001 253.5603,-172.5001"/>
</g>
</g>
</svg>
