<?xml version="1.0" encoding="UTF-8" standalone="no"?>
<!DOCTYPE svg PUBLIC "-//W3C//DTD SVG 1.1//EN"
 "http://www.w3.org/Graphics/SVG/1.1/DTD/svg11.dtd">
<!-- Generated by graphviz version 2.40.1 (20161225.0304)
 -->
<!-- Title: dependencies Pages: 1 -->
<svg width="504pt" height="211pt"
 viewBox="0.00 0.00 504.00 211.00" xmlns="http://www.w3.org/2000/svg" xmlns:xlink="http://www.w3.org/1999/xlink">
<g id="graph0" class="graph" transform="scale(1 1) rotate(0) translate(4 207)">
<title>dependencies</title>
<polygon fill="#ffffff" stroke="transparent" points="-4,4 -4,-207 500,-207 500,4 -4,4"/>
<text text-anchor="start" x="227.0091" y="-42.4" font-family="sans-serif" font-weight="bold" font-size="14.00" fill="#000000">Legend</text>
<polygon fill="#ffffb3" stroke="transparent" points="14,-10 14,-30 34,-30 34,-10 14,-10"/>
<text text-anchor="start" x="37.629" y="-15.4" font-family="sans-serif" font-size="14.00" fill="#000000"> &#160;Declarations</text>
<polygon fill="#8dd3c7" stroke="transparent" points="127,-10 127,-30 147,-30 147,-10 127,-10"/>
<text text-anchor="start" x="150.7251" y="-15.4" font-family="sans-serif" font-size="14.00" fill="#000000"> &#160;Module</text>
<polygon fill="#80b1d3" stroke="transparent" points="213,-10 213,-30 233,-30 233,-10 213,-10"/>
<text text-anchor="start" x="236.7812" y="-15.4" font-family="sans-serif" font-size="14.00" fill="#000000"> &#160;Bootstrap</text>
<polygon fill="#fdb462" stroke="transparent" points="310,-10 310,-30 330,-30 330,-10 310,-10"/>
<text text-anchor="start" x="333.6732" y="-15.4" font-family="sans-serif" font-size="14.00" fill="#000000"> &#160;Providers</text>
<polygon fill="#fb8072" stroke="transparent" points="406,-10 406,-30 426,-30 426,-10 406,-10"/>
<text text-anchor="start" x="429.7258" y="-15.4" font-family="sans-serif" font-size="14.00" fill="#000000"> &#160;Exports</text>
<g id="clust1" class="cluster">
<title>cluster_AdminUsersModule</title>
<polygon fill="none" stroke="#000000" stroke-dasharray="1,5" points="17,-70 17,-195 479,-195 479,-70 17,-70"/>
</g>
<g id="clust2" class="cluster">
<title>cluster_AdminUsersModule_declarations</title>
<polygon fill="none" stroke="#000000" points="341,-78 341,-130 471,-130 471,-78 341,-78"/>
</g>
<g id="clust4" class="cluster">
<title>cluster_AdminUsersModule_imports</title>
<polygon fill="none" stroke="#000000" points="25,-78 25,-130 333,-130 333,-78 25,-78"/>
</g>
<!-- UsersComponent -->
<g id="node1" class="node">
<title>UsersComponent</title>
<polygon fill="#ffffb3" stroke="#000000" points="462.7036,-122 349.2964,-122 349.2964,-86 462.7036,-86 462.7036,-122"/>
<text text-anchor="middle" x="406" y="-99.8" font-family="Times,serif" font-size="14.00" fill="#000000">UsersComponent</text>
</g>
<!-- AdminUsersModule -->
<g id="node2" class="node">
<title>AdminUsersModule</title>
<polygon fill="#8dd3c7" stroke="#000000" points="302.309,-187 299.309,-191 278.309,-191 275.309,-187 171.691,-187 171.691,-151 302.309,-151 302.309,-187"/>
<text text-anchor="middle" x="237" y="-164.8" font-family="Times,serif" font-size="14.00" fill="#000000">AdminUsersModule</text>
</g>
<!-- UsersComponent&#45;&gt;AdminUsersModule -->
<g id="edge1" class="edge">
<title>UsersComponent&#45;&gt;AdminUsersModule</title>
<path fill="none" stroke="#000000" d="M406,-122.1061C406,-141.3391 406,-169 406,-169 406,-169 312.3398,-169 312.3398,-169"/>
<polygon fill="#000000" stroke="#000000" points="312.3398,-165.5001 302.3398,-169 312.3398,-172.5001 312.3398,-165.5001"/>
</g>
<!-- AdminUsersRoutingModule -->
<g id="node3" class="node">
<title>AdminUsersRoutingModule</title>
<polygon fill="#8dd3c7" stroke="#000000" points="324.9269,-122 321.9269,-126 300.9269,-126 297.9269,-122 149.0731,-122 149.0731,-86 324.9269,-86 324.9269,-122"/>
<text text-anchor="middle" x="237" y="-99.8" font-family="Times,serif" font-size="14.00" fill="#000000">AdminUsersRoutingModule</text>
</g>
<!-- AdminUsersRoutingModule&#45;&gt;AdminUsersModule -->
<g id="edge2" class="edge">
<title>AdminUsersRoutingModule&#45;&gt;AdminUsersModule</title>
<path fill="none" stroke="#000000" d="M237,-122.1061C237,-122.1061 237,-140.991 237,-140.991"/>
<polygon fill="#000000" stroke="#000000" points="233.5001,-140.9909 237,-150.991 240.5001,-140.991 233.5001,-140.9909"/>
</g>
<!-- SharedModule -->
<g id="node4" class="node">
<title>SharedModule</title>
<polygon fill="#8dd3c7" stroke="#000000" points="131.4231,-122 128.4231,-126 107.4231,-126 104.4231,-122 32.5769,-122 32.5769,-86 131.4231,-86 131.4231,-122"/>
<text text-anchor="middle" x="82" y="-99.8" font-family="Times,serif" font-size="14.00" fill="#000000">SharedModule</text>
</g>
<!-- SharedModule&#45;&gt;AdminUsersModule -->
<g id="edge3" class="edge">
<title>SharedModule&#45;&gt;AdminUsersModule</title>
<path fill="none" stroke="#000000" d="M82,-122.1061C82,-141.3391 82,-169 82,-169 82,-169 161.7153,-169 161.7153,-169"/>
<polygon fill="#000000" stroke="#000000" points="161.7153,-172.5001 171.7153,-169 161.7152,-165.5001 161.7153,-172.5001"/>
</g>
</g>
</svg>
