<?xml version="1.0" encoding="UTF-8" standalone="no"?>
<!DOCTYPE svg PUBLIC "-//W3C//DTD SVG 1.1//EN"
 "http://www.w3.org/Graphics/SVG/1.1/DTD/svg11.dtd">
<!-- Generated by graphviz version 2.40.1 (20161225.0304)
 -->
<!-- Title: dependencies Pages: 1 -->
<svg width="514pt" height="211pt"
 viewBox="0.00 0.00 514.00 211.00" xmlns="http://www.w3.org/2000/svg" xmlns:xlink="http://www.w3.org/1999/xlink">
<g id="graph0" class="graph" transform="scale(1 1) rotate(0) translate(4 207)">
<title>dependencies</title>
<polygon fill="#ffffff" stroke="transparent" points="-4,4 -4,-207 510,-207 510,4 -4,4"/>
<text text-anchor="start" x="232.0091" y="-42.4" font-family="sans-serif" font-weight="bold" font-size="14.00" fill="#000000">Legend</text>
<polygon fill="#ffffb3" stroke="transparent" points="19,-10 19,-30 39,-30 39,-10 19,-10"/>
<text text-anchor="start" x="42.629" y="-15.4" font-family="sans-serif" font-size="14.00" fill="#000000"> &#160;Declarations</text>
<polygon fill="#8dd3c7" stroke="transparent" points="132,-10 132,-30 152,-30 152,-10 132,-10"/>
<text text-anchor="start" x="155.7251" y="-15.4" font-family="sans-serif" font-size="14.00" fill="#000000"> &#160;Module</text>
<polygon fill="#80b1d3" stroke="transparent" points="218,-10 218,-30 238,-30 238,-10 218,-10"/>
<text text-anchor="start" x="241.7812" y="-15.4" font-family="sans-serif" font-size="14.00" fill="#000000"> &#160;Bootstrap</text>
<polygon fill="#fdb462" stroke="transparent" points="315,-10 315,-30 335,-30 335,-10 315,-10"/>
<text text-anchor="start" x="338.6732" y="-15.4" font-family="sans-serif" font-size="14.00" fill="#000000"> &#160;Providers</text>
<polygon fill="#fb8072" stroke="transparent" points="411,-10 411,-30 431,-30 431,-10 411,-10"/>
<text text-anchor="start" x="434.7258" y="-15.4" font-family="sans-serif" font-size="14.00" fill="#000000"> &#160;Exports</text>
<g id="clust1" class="cluster">
<title>cluster_AdminRegionsModule</title>
<polygon fill="none" stroke="#000000" stroke-dasharray="1,5" points="8,-70 8,-195 498,-195 498,-70 8,-70"/>
</g>
<g id="clust2" class="cluster">
<title>cluster_AdminRegionsModule_declarations</title>
<polygon fill="none" stroke="#000000" points="346,-78 346,-130 490,-130 490,-78 346,-78"/>
</g>
<g id="clust4" class="cluster">
<title>cluster_AdminRegionsModule_imports</title>
<polygon fill="none" stroke="#000000" points="16,-78 16,-130 338,-130 338,-78 16,-78"/>
</g>
<!-- RegionsComponent -->
<g id="node1" class="node">
<title>RegionsComponent</title>
<polygon fill="#ffffb3" stroke="#000000" points="481.719,-122 354.281,-122 354.281,-86 481.719,-86 481.719,-122"/>
<text text-anchor="middle" x="418" y="-99.8" font-family="Times,serif" font-size="14.00" fill="#000000">RegionsComponent</text>
</g>
<!-- AdminRegionsModule -->
<g id="node2" class="node">
<title>AdminRegionsModule</title>
<polygon fill="#8dd3c7" stroke="#000000" points="307.3244,-187 304.3244,-191 283.3244,-191 280.3244,-187 162.6756,-187 162.6756,-151 307.3244,-151 307.3244,-187"/>
<text text-anchor="middle" x="235" y="-164.8" font-family="Times,serif" font-size="14.00" fill="#000000">AdminRegionsModule</text>
</g>
<!-- RegionsComponent&#45;&gt;AdminRegionsModule -->
<g id="edge1" class="edge">
<title>RegionsComponent&#45;&gt;AdminRegionsModule</title>
<path fill="none" stroke="#000000" d="M418,-122.1061C418,-141.3391 418,-169 418,-169 418,-169 317.3264,-169 317.3264,-169"/>
<polygon fill="#000000" stroke="#000000" points="317.3265,-165.5001 307.3264,-169 317.3264,-172.5001 317.3265,-165.5001"/>
</g>
<!-- AdminRegionsRoutingModule -->
<g id="node3" class="node">
<title>AdminRegionsRoutingModule</title>
<polygon fill="#8dd3c7" stroke="#000000" points="329.9423,-122 326.9423,-126 305.9423,-126 302.9423,-122 140.0577,-122 140.0577,-86 329.9423,-86 329.9423,-122"/>
<text text-anchor="middle" x="235" y="-99.8" font-family="Times,serif" font-size="14.00" fill="#000000">AdminRegionsRoutingModule</text>
</g>
<!-- AdminRegionsRoutingModule&#45;&gt;AdminRegionsModule -->
<g id="edge2" class="edge">
<title>AdminRegionsRoutingModule&#45;&gt;AdminRegionsModule</title>
<path fill="none" stroke="#000000" d="M235,-122.1061C235,-122.1061 235,-140.991 235,-140.991"/>
<polygon fill="#000000" stroke="#000000" points="231.5001,-140.9909 235,-150.991 238.5001,-140.991 231.5001,-140.9909"/>
</g>
<!-- SharedModule -->
<g id="node4" class="node">
<title>SharedModule</title>
<polygon fill="#8dd3c7" stroke="#000000" points="122.4231,-122 119.4231,-126 98.4231,-126 95.4231,-122 23.5769,-122 23.5769,-86 122.4231,-86 122.4231,-122"/>
<text text-anchor="middle" x="73" y="-99.8" font-family="Times,serif" font-size="14.00" fill="#000000">SharedModule</text>
</g>
<!-- SharedModule&#45;&gt;AdminRegionsModule -->
<g id="edge3" class="edge">
<title>SharedModule&#45;&gt;AdminRegionsModule</title>
<path fill="none" stroke="#000000" d="M73,-122.1061C73,-141.3391 73,-169 73,-169 73,-169 152.5289,-169 152.5289,-169"/>
<polygon fill="#000000" stroke="#000000" points="152.5289,-172.5001 162.5289,-169 152.5289,-165.5001 152.5289,-172.5001"/>
</g>
</g>
</svg>
