<?xml version="1.0" encoding="UTF-8" standalone="no"?>
<!DOCTYPE svg PUBLIC "-//W3C//DTD SVG 1.1//EN"
 "http://www.w3.org/Graphics/SVG/1.1/DTD/svg11.dtd">
<!-- Generated by graphviz version 2.40.1 (20161225.0304)
 -->
<!-- Title: dependencies Pages: 1 -->
<svg width="506pt" height="211pt"
 viewBox="0.00 0.00 506.00 211.00" xmlns="http://www.w3.org/2000/svg" xmlns:xlink="http://www.w3.org/1999/xlink">
<g id="graph0" class="graph" transform="scale(1 1) rotate(0) translate(4 207)">
<title>dependencies</title>
<polygon fill="#ffffff" stroke="transparent" points="-4,4 -4,-207 502,-207 502,4 -4,4"/>
<text text-anchor="start" x="228.0091" y="-42.4" font-family="sans-serif" font-weight="bold" font-size="14.00" fill="#000000">Legend</text>
<polygon fill="#ffffb3" stroke="transparent" points="15,-10 15,-30 35,-30 35,-10 15,-10"/>
<text text-anchor="start" x="38.629" y="-15.4" font-family="sans-serif" font-size="14.00" fill="#000000"> &#160;Declarations</text>
<polygon fill="#8dd3c7" stroke="transparent" points="128,-10 128,-30 148,-30 148,-10 128,-10"/>
<text text-anchor="start" x="151.7251" y="-15.4" font-family="sans-serif" font-size="14.00" fill="#000000"> &#160;Module</text>
<polygon fill="#80b1d3" stroke="transparent" points="214,-10 214,-30 234,-30 234,-10 214,-10"/>
<text text-anchor="start" x="237.7812" y="-15.4" font-family="sans-serif" font-size="14.00" fill="#000000"> &#160;Bootstrap</text>
<polygon fill="#fdb462" stroke="transparent" points="311,-10 311,-30 331,-30 331,-10 311,-10"/>
<text text-anchor="start" x="334.6732" y="-15.4" font-family="sans-serif" font-size="14.00" fill="#000000"> &#160;Providers</text>
<polygon fill="#fb8072" stroke="transparent" points="407,-10 407,-30 427,-30 427,-10 407,-10"/>
<text text-anchor="start" x="430.7258" y="-15.4" font-family="sans-serif" font-size="14.00" fill="#000000"> &#160;Exports</text>
<g id="clust1" class="cluster">
<title>cluster_AdminVesselsModule</title>
<polygon fill="none" stroke="#000000" stroke-dasharray="1,5" points="8,-70 8,-195 490,-195 490,-70 8,-70"/>
</g>
<g id="clust2" class="cluster">
<title>cluster_AdminVesselsModule_declarations</title>
<polygon fill="none" stroke="#000000" points="342,-78 342,-130 482,-130 482,-78 342,-78"/>
</g>
<g id="clust4" class="cluster">
<title>cluster_AdminVesselsModule_imports</title>
<polygon fill="none" stroke="#000000" points="16,-78 16,-130 334,-130 334,-78 16,-78"/>
</g>
<!-- VesselsComponent -->
<g id="node1" class="node">
<title>VesselsComponent</title>
<polygon fill="#ffffb3" stroke="#000000" points="474.0926,-122 349.9074,-122 349.9074,-86 474.0926,-86 474.0926,-122"/>
<text text-anchor="middle" x="412" y="-99.8" font-family="Times,serif" font-size="14.00" fill="#000000">VesselsComponent</text>
</g>
<!-- AdminVesselsModule -->
<g id="node2" class="node">
<title>AdminVesselsModule</title>
<polygon fill="#8dd3c7" stroke="#000000" points="303.6979,-187 300.6979,-191 279.6979,-191 276.6979,-187 162.3021,-187 162.3021,-151 303.6979,-151 303.6979,-187"/>
<text text-anchor="middle" x="233" y="-164.8" font-family="Times,serif" font-size="14.00" fill="#000000">AdminVesselsModule</text>
</g>
<!-- VesselsComponent&#45;&gt;AdminVesselsModule -->
<g id="edge1" class="edge">
<title>VesselsComponent&#45;&gt;AdminVesselsModule</title>
<path fill="none" stroke="#000000" d="M412,-122.1061C412,-141.3391 412,-169 412,-169 412,-169 313.7455,-169 313.7455,-169"/>
<polygon fill="#000000" stroke="#000000" points="313.7456,-165.5001 303.7455,-169 313.7455,-172.5001 313.7456,-165.5001"/>
</g>
<!-- AdminVesselsRoutingModule -->
<g id="node3" class="node">
<title>AdminVesselsRoutingModule</title>
<polygon fill="#8dd3c7" stroke="#000000" points="326.3159,-122 323.3159,-126 302.3159,-126 299.3159,-122 139.6841,-122 139.6841,-86 326.3159,-86 326.3159,-122"/>
<text text-anchor="middle" x="233" y="-99.8" font-family="Times,serif" font-size="14.00" fill="#000000">AdminVesselsRoutingModule</text>
</g>
<!-- AdminVesselsRoutingModule&#45;&gt;AdminVesselsModule -->
<g id="edge2" class="edge">
<title>AdminVesselsRoutingModule&#45;&gt;AdminVesselsModule</title>
<path fill="none" stroke="#000000" d="M233,-122.1061C233,-122.1061 233,-140.991 233,-140.991"/>
<polygon fill="#000000" stroke="#000000" points="229.5001,-140.9909 233,-150.991 236.5001,-140.991 229.5001,-140.9909"/>
</g>
<!-- SharedModule -->
<g id="node4" class="node">
<title>SharedModule</title>
<polygon fill="#8dd3c7" stroke="#000000" points="122.4231,-122 119.4231,-126 98.4231,-126 95.4231,-122 23.5769,-122 23.5769,-86 122.4231,-86 122.4231,-122"/>
<text text-anchor="middle" x="73" y="-99.8" font-family="Times,serif" font-size="14.00" fill="#000000">SharedModule</text>
</g>
<!-- SharedModule&#45;&gt;AdminVesselsModule -->
<g id="edge3" class="edge">
<title>SharedModule&#45;&gt;AdminVesselsModule</title>
<path fill="none" stroke="#000000" d="M73,-122.1061C73,-141.3391 73,-169 73,-169 73,-169 152.3559,-169 152.3559,-169"/>
<polygon fill="#000000" stroke="#000000" points="152.356,-172.5001 162.3559,-169 152.3559,-165.5001 152.356,-172.5001"/>
</g>
</g>
</svg>
