<?xml version="1.0" encoding="UTF-8" standalone="no"?>
<!DOCTYPE svg PUBLIC "-//W3C//DTD SVG 1.1//EN"
 "http://www.w3.org/Graphics/SVG/1.1/DTD/svg11.dtd">
<!-- Generated by graphviz version 2.40.1 (20161225.0304)
 -->
<!-- Title: dependencies Pages: 1 -->
<svg width="518pt" height="211pt"
 viewBox="0.00 0.00 518.00 211.00" xmlns="http://www.w3.org/2000/svg" xmlns:xlink="http://www.w3.org/1999/xlink">
<g id="graph0" class="graph" transform="scale(1 1) rotate(0) translate(4 207)">
<title>dependencies</title>
<polygon fill="#ffffff" stroke="transparent" points="-4,4 -4,-207 514,-207 514,4 -4,4"/>
<text text-anchor="start" x="234.0091" y="-42.4" font-family="sans-serif" font-weight="bold" font-size="14.00" fill="#000000">Legend</text>
<polygon fill="#ffffb3" stroke="transparent" points="21,-10 21,-30 41,-30 41,-10 21,-10"/>
<text text-anchor="start" x="44.629" y="-15.4" font-family="sans-serif" font-size="14.00" fill="#000000"> &#160;Declarations</text>
<polygon fill="#8dd3c7" stroke="transparent" points="134,-10 134,-30 154,-30 154,-10 134,-10"/>
<text text-anchor="start" x="157.7251" y="-15.4" font-family="sans-serif" font-size="14.00" fill="#000000"> &#160;Module</text>
<polygon fill="#80b1d3" stroke="transparent" points="220,-10 220,-30 240,-30 240,-10 220,-10"/>
<text text-anchor="start" x="243.7812" y="-15.4" font-family="sans-serif" font-size="14.00" fill="#000000"> &#160;Bootstrap</text>
<polygon fill="#fdb462" stroke="transparent" points="317,-10 317,-30 337,-30 337,-10 317,-10"/>
<text text-anchor="start" x="340.6732" y="-15.4" font-family="sans-serif" font-size="14.00" fill="#000000"> &#160;Providers</text>
<polygon fill="#fb8072" stroke="transparent" points="413,-10 413,-30 433,-30 433,-10 413,-10"/>
<text text-anchor="start" x="436.7258" y="-15.4" font-family="sans-serif" font-size="14.00" fill="#000000"> &#160;Exports</text>
<g id="clust1" class="cluster">
<title>cluster_AdminProductsModule</title>
<polygon fill="none" stroke="#000000" stroke-dasharray="1,5" points="8,-70 8,-195 502,-195 502,-70 8,-70"/>
</g>
<g id="clust2" class="cluster">
<title>cluster_AdminProductsModule_declarations</title>
<polygon fill="none" stroke="#000000" points="348,-78 348,-130 494,-130 494,-78 348,-78"/>
</g>
<g id="clust4" class="cluster">
<title>cluster_AdminProductsModule_imports</title>
<polygon fill="none" stroke="#000000" points="16,-78 16,-130 340,-130 340,-78 16,-78"/>
</g>
<!-- ProductsComponent -->
<g id="node1" class="node">
<title>ProductsComponent</title>
<polygon fill="#ffffb3" stroke="#000000" points="486.3258,-122 355.6742,-122 355.6742,-86 486.3258,-86 486.3258,-122"/>
<text text-anchor="middle" x="421" y="-99.8" font-family="Times,serif" font-size="14.00" fill="#000000">ProductsComponent</text>
</g>
<!-- AdminProductsModule -->
<g id="node2" class="node">
<title>AdminProductsModule</title>
<polygon fill="#8dd3c7" stroke="#000000" points="309.9312,-187 306.9312,-191 285.9312,-191 282.9312,-187 162.0688,-187 162.0688,-151 309.9312,-151 309.9312,-187"/>
<text text-anchor="middle" x="236" y="-164.8" font-family="Times,serif" font-size="14.00" fill="#000000">AdminProductsModule</text>
</g>
<!-- ProductsComponent&#45;&gt;AdminProductsModule -->
<g id="edge1" class="edge">
<title>ProductsComponent&#45;&gt;AdminProductsModule</title>
<path fill="none" stroke="#000000" d="M421,-122.1061C421,-141.3391 421,-169 421,-169 421,-169 319.9145,-169 319.9145,-169"/>
<polygon fill="#000000" stroke="#000000" points="319.9145,-165.5001 309.9145,-169 319.9144,-172.5001 319.9145,-165.5001"/>
</g>
<!-- AdminProductsRoutingModule -->
<g id="node3" class="node">
<title>AdminProductsRoutingModule</title>
<polygon fill="#8dd3c7" stroke="#000000" points="332.0489,-122 329.0489,-126 308.0489,-126 305.0489,-122 139.9511,-122 139.9511,-86 332.0489,-86 332.0489,-122"/>
<text text-anchor="middle" x="236" y="-99.8" font-family="Times,serif" font-size="14.00" fill="#000000">AdminProductsRoutingModule</text>
</g>
<!-- AdminProductsRoutingModule&#45;&gt;AdminProductsModule -->
<g id="edge2" class="edge">
<title>AdminProductsRoutingModule&#45;&gt;AdminProductsModule</title>
<path fill="none" stroke="#000000" d="M236,-122.1061C236,-122.1061 236,-140.991 236,-140.991"/>
<polygon fill="#000000" stroke="#000000" points="232.5001,-140.9909 236,-150.991 239.5001,-140.991 232.5001,-140.9909"/>
</g>
<!-- SharedModule -->
<g id="node4" class="node">
<title>SharedModule</title>
<polygon fill="#8dd3c7" stroke="#000000" points="122.4231,-122 119.4231,-126 98.4231,-126 95.4231,-122 23.5769,-122 23.5769,-86 122.4231,-86 122.4231,-122"/>
<text text-anchor="middle" x="73" y="-99.8" font-family="Times,serif" font-size="14.00" fill="#000000">SharedModule</text>
</g>
<!-- SharedModule&#45;&gt;AdminProductsModule -->
<g id="edge3" class="edge">
<title>SharedModule&#45;&gt;AdminProductsModule</title>
<path fill="none" stroke="#000000" d="M73,-122.1061C73,-141.3391 73,-169 73,-169 73,-169 152.1307,-169 152.1307,-169"/>
<polygon fill="#000000" stroke="#000000" points="152.1307,-172.5001 162.1307,-169 152.1306,-165.5001 152.1307,-172.5001"/>
</g>
</g>
</svg>
