<?xml version="1.0" encoding="UTF-8" standalone="no"?>
<!DOCTYPE svg PUBLIC "-//W3C//DTD SVG 1.1//EN"
 "http://www.w3.org/Graphics/SVG/1.1/DTD/svg11.dtd">
<!-- Generated by graphviz version 2.40.1 (20161225.0304)
 -->
<!-- Title: dependencies Pages: 1 -->
<svg width="1936pt" height="211pt"
 viewBox="0.00 0.00 1936.00 211.00" xmlns="http://www.w3.org/2000/svg" xmlns:xlink="http://www.w3.org/1999/xlink">
<g id="graph0" class="graph" transform="scale(1 1) rotate(0) translate(4 207)">
<title>dependencies</title>
<polygon fill="#ffffff" stroke="transparent" points="-4,4 -4,-207 1932,-207 1932,4 -4,4"/>
<text text-anchor="start" x="943.0091" y="-42.4" font-family="sans-serif" font-weight="bold" font-size="14.00" fill="#000000">Legend</text>
<polygon fill="#ffffb3" stroke="transparent" points="730,-10 730,-30 750,-30 750,-10 730,-10"/>
<text text-anchor="start" x="753.629" y="-15.4" font-family="sans-serif" font-size="14.00" fill="#000000"> &#160;Declarations</text>
<polygon fill="#8dd3c7" stroke="transparent" points="843,-10 843,-30 863,-30 863,-10 843,-10"/>
<text text-anchor="start" x="866.7251" y="-15.4" font-family="sans-serif" font-size="14.00" fill="#000000"> &#160;Module</text>
<polygon fill="#80b1d3" stroke="transparent" points="929,-10 929,-30 949,-30 949,-10 929,-10"/>
<text text-anchor="start" x="952.7812" y="-15.4" font-family="sans-serif" font-size="14.00" fill="#000000"> &#160;Bootstrap</text>
<polygon fill="#fdb462" stroke="transparent" points="1026,-10 1026,-30 1046,-30 1046,-10 1026,-10"/>
<text text-anchor="start" x="1049.6732" y="-15.4" font-family="sans-serif" font-size="14.00" fill="#000000"> &#160;Providers</text>
<polygon fill="#fb8072" stroke="transparent" points="1122,-10 1122,-30 1142,-30 1142,-10 1122,-10"/>
<text text-anchor="start" x="1145.7258" y="-15.4" font-family="sans-serif" font-size="14.00" fill="#000000"> &#160;Exports</text>
<g id="clust1" class="cluster">
<title>cluster_FieldsModule</title>
<polygon fill="none" stroke="#000000" stroke-dasharray="1,5" points="8,-70 8,-195 1920,-195 1920,-70 8,-70"/>
</g>
<g id="clust2" class="cluster">
<title>cluster_FieldsModule_declarations</title>
<polygon fill="none" stroke="#000000" points="295,-78 295,-130 1912,-130 1912,-78 295,-78"/>
</g>
<g id="clust11" class="cluster">
<title>cluster_FieldsModule_imports</title>
<polygon fill="none" stroke="#000000" points="16,-78 16,-130 287,-130 287,-78 16,-78"/>
</g>
<!-- FieldFeatureChartsComponent -->
<g id="node1" class="node">
<title>FieldFeatureChartsComponent</title>
<polygon fill="#ffffb3" stroke="#000000" points="1904.1358,-122 1715.8642,-122 1715.8642,-86 1904.1358,-86 1904.1358,-122"/>
<text text-anchor="middle" x="1810" y="-99.8" font-family="Times,serif" font-size="14.00" fill="#000000">FieldFeatureChartsComponent</text>
</g>
<!-- ProjectsModule -->
<g id="node9" class="node">
<title>ProjectsModule</title>
<polygon fill="#8dd3c7" stroke="#000000" points="902.7731,-187 899.7731,-191 878.7731,-191 875.7731,-187 809.2269,-187 809.2269,-151 902.7731,-151 902.7731,-187"/>
<text text-anchor="middle" x="856" y="-164.8" font-family="Times,serif" font-size="14.00" fill="#000000">ProjectsModule</text>
</g>
<!-- FieldFeatureChartsComponent&#45;&gt;ProjectsModule -->
<g id="edge1" class="edge">
<title>FieldFeatureChartsComponent&#45;&gt;ProjectsModule</title>
<path fill="none" stroke="#000000" d="M1810,-122.0109C1810,-144.4852 1810,-180 1810,-180 1810,-180 912.9836,-180 912.9836,-180"/>
<polygon fill="#000000" stroke="#000000" points="912.9836,-176.5001 902.9836,-180 912.9836,-183.5001 912.9836,-176.5001"/>
</g>
<!-- ProjectFeatureCompareComponent -->
<g id="node2" class="node">
<title>ProjectFeatureCompareComponent</title>
<polygon fill="#ffffb3" stroke="#000000" points="1697.9058,-122 1494.0942,-122 1494.0942,-86 1697.9058,-86 1697.9058,-122"/>
<text text-anchor="middle" x="1596" y="-99.8" font-family="Times,serif" font-size="14.00" fill="#000000">ProjectFeatureCompareComponent</text>
</g>
<!-- ProjectFeatureCompareComponent&#45;&gt;ProjectsModule -->
<g id="edge2" class="edge">
<title>ProjectFeatureCompareComponent&#45;&gt;ProjectsModule</title>
<path fill="none" stroke="#000000" d="M1596,-122.1289C1596,-142.5724 1596,-173 1596,-173 1596,-173 912.8517,-173 912.8517,-173"/>
<polygon fill="#000000" stroke="#000000" points="912.8517,-169.5001 902.8517,-173 912.8517,-176.5001 912.8517,-169.5001"/>
</g>
<!-- ProjectFeatureComponent -->
<g id="node3" class="node">
<title>ProjectFeatureComponent</title>
<polygon fill="#ffffb3" stroke="#000000" points="1476.0884,-122 1323.9116,-122 1323.9116,-86 1476.0884,-86 1476.0884,-122"/>
<text text-anchor="middle" x="1400" y="-99.8" font-family="Times,serif" font-size="14.00" fill="#000000">ProjectFeatureComponent</text>
</g>
<!-- ProjectFeatureComponent&#45;&gt;ProjectsModule -->
<g id="edge3" class="edge">
<title>ProjectFeatureComponent&#45;&gt;ProjectsModule</title>
<path fill="none" stroke="#000000" d="M1400,-122.2667C1400,-140.5552 1400,-166 1400,-166 1400,-166 912.852,-166 912.852,-166"/>
<polygon fill="#000000" stroke="#000000" points="912.852,-162.5001 902.852,-166 912.8519,-169.5001 912.852,-162.5001"/>
</g>
<!-- FieldFeatureComputeComponent -->
<g id="node4" class="node">
<title>FieldFeatureComputeComponent</title>
<polygon fill="#ffffb3" stroke="#000000" points="1305.9212,-122 1102.0788,-122 1102.0788,-86 1305.9212,-86 1305.9212,-122"/>
<text text-anchor="middle" x="1204" y="-99.8" font-family="Times,serif" font-size="14.00" fill="#000000">FieldFeatureComputeComponent</text>
</g>
<!-- FieldFeatureComputeComponent&#45;&gt;ProjectsModule -->
<g id="edge4" class="edge">
<title>FieldFeatureComputeComponent&#45;&gt;ProjectsModule</title>
<path fill="none" stroke="#000000" d="M1204,-122.0091C1204,-138.0494 1204,-159 1204,-159 1204,-159 912.9328,-159 912.9328,-159"/>
<polygon fill="#000000" stroke="#000000" points="912.9329,-155.5001 902.9328,-159 912.9328,-162.5001 912.9329,-155.5001"/>
</g>
<!-- ProjectFeatureContactCardComponent -->
<g id="node5" class="node">
<title>ProjectFeatureContactCardComponent</title>
<polygon fill="#ffffb3" stroke="#000000" points="1084.3473,-122 861.6527,-122 861.6527,-86 1084.3473,-86 1084.3473,-122"/>
<text text-anchor="middle" x="973" y="-99.8" font-family="Times,serif" font-size="14.00" fill="#000000">ProjectFeatureContactCardComponent</text>
</g>
<!-- ProjectFeatureContactCardComponent&#45;&gt;ProjectsModule -->
<g id="edge5" class="edge">
<title>ProjectFeatureContactCardComponent&#45;&gt;ProjectsModule</title>
<path fill="none" stroke="#000000" d="M882.2314,-122.1061C882.2314,-122.1061 882.2314,-140.991 882.2314,-140.991"/>
<polygon fill="#000000" stroke="#000000" points="878.7315,-140.9909 882.2314,-150.991 885.7315,-140.991 878.7315,-140.9909"/>
</g>
<!-- ProjectFeatureSummaryComponent -->
<g id="node6" class="node">
<title>ProjectFeatureSummaryComponent</title>
<polygon fill="#ffffb3" stroke="#000000" points="843.0279,-122 636.9721,-122 636.9721,-86 843.0279,-86 843.0279,-122"/>
<text text-anchor="middle" x="740" y="-99.8" font-family="Times,serif" font-size="14.00" fill="#000000">ProjectFeatureSummaryComponent</text>
</g>
<!-- ProjectFeatureSummaryComponent&#45;&gt;ProjectsModule -->
<g id="edge6" class="edge">
<title>ProjectFeatureSummaryComponent&#45;&gt;ProjectsModule</title>
<path fill="none" stroke="#000000" d="M826.1887,-122.1061C826.1887,-122.1061 826.1887,-140.991 826.1887,-140.991"/>
<polygon fill="#000000" stroke="#000000" points="822.6887,-140.9909 826.1887,-150.991 829.6887,-140.991 822.6887,-140.9909"/>
</g>
<!-- ProjectFeatureViewComponent -->
<g id="node7" class="node">
<title>ProjectFeatureViewComponent</title>
<polygon fill="#ffffb3" stroke="#000000" points="619.4073,-122 436.5927,-122 436.5927,-86 619.4073,-86 619.4073,-122"/>
<text text-anchor="middle" x="528" y="-99.8" font-family="Times,serif" font-size="14.00" fill="#000000">ProjectFeatureViewComponent</text>
</g>
<!-- ProjectFeatureViewComponent&#45;&gt;ProjectsModule -->
<g id="edge7" class="edge">
<title>ProjectFeatureViewComponent&#45;&gt;ProjectsModule</title>
<path fill="none" stroke="#000000" d="M528,-122.0091C528,-138.0494 528,-159 528,-159 528,-159 799.0056,-159 799.0056,-159"/>
<polygon fill="#000000" stroke="#000000" points="799.0056,-162.5001 809.0056,-159 799.0056,-155.5001 799.0056,-162.5001"/>
</g>
<!-- ProjectsComponent -->
<g id="node8" class="node">
<title>ProjectsComponent</title>
<polygon fill="#ffffb3" stroke="#000000" points="418.5563,-122 303.4437,-122 303.4437,-86 418.5563,-86 418.5563,-122"/>
<text text-anchor="middle" x="361" y="-99.8" font-family="Times,serif" font-size="14.00" fill="#000000">ProjectsComponent</text>
</g>
<!-- ProjectsComponent&#45;&gt;ProjectsModule -->
<g id="edge8" class="edge">
<title>ProjectsComponent&#45;&gt;ProjectsModule</title>
<path fill="none" stroke="#000000" d="M361,-122.2667C361,-140.5552 361,-166 361,-166 361,-166 798.9853,-166 798.9853,-166"/>
<polygon fill="#000000" stroke="#000000" points="798.9854,-169.5001 808.9853,-166 798.9853,-162.5001 798.9854,-169.5001"/>
</g>
<!-- ProjectsRoutingModule -->
<g id="node10" class="node">
<title>ProjectsRoutingModule</title>
<polygon fill="#8dd3c7" stroke="#000000" points="279.3906,-122 276.3906,-126 255.3906,-126 252.3906,-122 140.6094,-122 140.6094,-86 279.3906,-86 279.3906,-122"/>
<text text-anchor="middle" x="210" y="-99.8" font-family="Times,serif" font-size="14.00" fill="#000000">ProjectsRoutingModule</text>
</g>
<!-- ProjectsRoutingModule&#45;&gt;ProjectsModule -->
<g id="edge9" class="edge">
<title>ProjectsRoutingModule&#45;&gt;ProjectsModule</title>
<path fill="none" stroke="#000000" d="M210,-122.1289C210,-142.5724 210,-173 210,-173 210,-173 799.0209,-173 799.0209,-173"/>
<polygon fill="#000000" stroke="#000000" points="799.0209,-176.5001 809.0209,-173 799.0209,-169.5001 799.0209,-176.5001"/>
</g>
<!-- SharedModule -->
<g id="node11" class="node">
<title>SharedModule</title>
<polygon fill="#8dd3c7" stroke="#000000" points="122.4231,-122 119.4231,-126 98.4231,-126 95.4231,-122 23.5769,-122 23.5769,-86 122.4231,-86 122.4231,-122"/>
<text text-anchor="middle" x="73" y="-99.8" font-family="Times,serif" font-size="14.00" fill="#000000">SharedModule</text>
</g>
<!-- SharedModule&#45;&gt;ProjectsModule -->
<g id="edge10" class="edge">
<title>SharedModule&#45;&gt;ProjectsModule</title>
<path fill="none" stroke="#000000" d="M73,-122.0109C73,-144.4852 73,-180 73,-180 73,-180 799.0743,-180 799.0743,-180"/>
<polygon fill="#000000" stroke="#000000" points="799.0743,-183.5001 809.0743,-180 799.0743,-176.5001 799.0743,-183.5001"/>
</g>
</g>
</svg>
