<?xml version="1.0" encoding="UTF-8" standalone="no"?>
<!DOCTYPE svg PUBLIC "-//W3C//DTD SVG 1.1//EN"
 "http://www.w3.org/Graphics/SVG/1.1/DTD/svg11.dtd">
<!-- Generated by graphviz version 2.40.1 (20161225.0304)
 -->
<!-- Title: dependencies Pages: 1 -->
<svg width="2252pt" height="211pt"
 viewBox="0.00 0.00 2252.00 211.00" xmlns="http://www.w3.org/2000/svg" xmlns:xlink="http://www.w3.org/1999/xlink">
<g id="graph0" class="graph" transform="scale(1 1) rotate(0) translate(4 207)">
<title>dependencies</title>
<polygon fill="#ffffff" stroke="transparent" points="-4,4 -4,-207 2248,-207 2248,4 -4,4"/>
<text text-anchor="start" x="1101.0091" y="-42.4" font-family="sans-serif" font-weight="bold" font-size="14.00" fill="#000000">Legend</text>
<polygon fill="#ffffb3" stroke="transparent" points="888,-10 888,-30 908,-30 908,-10 888,-10"/>
<text text-anchor="start" x="911.629" y="-15.4" font-family="sans-serif" font-size="14.00" fill="#000000"> &#160;Declarations</text>
<polygon fill="#8dd3c7" stroke="transparent" points="1001,-10 1001,-30 1021,-30 1021,-10 1001,-10"/>
<text text-anchor="start" x="1024.7251" y="-15.4" font-family="sans-serif" font-size="14.00" fill="#000000"> &#160;Module</text>
<polygon fill="#80b1d3" stroke="transparent" points="1087,-10 1087,-30 1107,-30 1107,-10 1087,-10"/>
<text text-anchor="start" x="1110.7812" y="-15.4" font-family="sans-serif" font-size="14.00" fill="#000000"> &#160;Bootstrap</text>
<polygon fill="#fdb462" stroke="transparent" points="1184,-10 1184,-30 1204,-30 1204,-10 1184,-10"/>
<text text-anchor="start" x="1207.6732" y="-15.4" font-family="sans-serif" font-size="14.00" fill="#000000"> &#160;Providers</text>
<polygon fill="#fb8072" stroke="transparent" points="1280,-10 1280,-30 1300,-30 1300,-10 1280,-10"/>
<text text-anchor="start" x="1303.7258" y="-15.4" font-family="sans-serif" font-size="14.00" fill="#000000"> &#160;Exports</text>
<g id="clust1" class="cluster">
<title>cluster_ProjectsModule</title>
<polygon fill="none" stroke="#000000" stroke-dasharray="1,5" points="8,-70 8,-195 2236,-195 2236,-70 8,-70"/>
</g>
<g id="clust2" class="cluster">
<title>cluster_ProjectsModule_declarations</title>
<polygon fill="none" stroke="#000000" points="306,-78 306,-130 2228,-130 2228,-78 306,-78"/>
</g>
<g id="clust12" class="cluster">
<title>cluster_ProjectsModule_imports</title>
<polygon fill="none" stroke="#000000" points="16,-78 16,-130 298,-130 298,-78 16,-78"/>
</g>
<!-- ProjectFeatureAnalysisComponent -->
<g id="node1" class="node">
<title>ProjectFeatureAnalysisComponent</title>
<polygon fill="#ffffb3" stroke="#000000" points="2219.9552,-122 2008.0448,-122 2008.0448,-86 2219.9552,-86 2219.9552,-122"/>
<text text-anchor="middle" x="2114" y="-99.8" font-family="Times,serif" font-size="14.00" fill="#000000">ProjectFeatureAnalysisComponent</text>
</g>
<!-- ProjectsModule -->
<g id="node10" class="node">
<title>ProjectsModule</title>
<polygon fill="#8dd3c7" stroke="#000000" points="1050.1486,-187 1047.1486,-191 1026.1486,-191 1023.1486,-187 945.8514,-187 945.8514,-151 1050.1486,-151 1050.1486,-187"/>
<text text-anchor="middle" x="998" y="-164.8" font-family="Times,serif" font-size="14.00" fill="#000000">ProjectsModule</text>
</g>
<!-- ProjectFeatureAnalysisComponent&#45;&gt;ProjectsModule -->
<g id="edge1" class="edge">
<title>ProjectFeatureAnalysisComponent&#45;&gt;ProjectsModule</title>
<path fill="none" stroke="#000000" d="M2114,-122.0908C2114,-145.1328 2114,-182 2114,-182 2114,-182 1060.3301,-182 1060.3301,-182"/>
<polygon fill="#000000" stroke="#000000" points="1060.3302,-178.5001 1050.3301,-182 1060.3301,-185.5001 1060.3302,-178.5001"/>
</g>
<!-- ProjectFeatureCompareComponent -->
<g id="node2" class="node">
<title>ProjectFeatureCompareComponent</title>
<polygon fill="#ffffb3" stroke="#000000" points="1990.2808,-122 1775.7192,-122 1775.7192,-86 1990.2808,-86 1990.2808,-122"/>
<text text-anchor="middle" x="1883" y="-99.8" font-family="Times,serif" font-size="14.00" fill="#000000">ProjectFeatureCompareComponent</text>
</g>
<!-- ProjectFeatureCompareComponent&#45;&gt;ProjectsModule -->
<g id="edge2" class="edge">
<title>ProjectFeatureCompareComponent&#45;&gt;ProjectsModule</title>
<path fill="none" stroke="#000000" d="M1883,-122.2843C1883,-143.3211 1883,-175 1883,-175 1883,-175 1060.3832,-175 1060.3832,-175"/>
<polygon fill="#000000" stroke="#000000" points="1060.3832,-171.5001 1050.3832,-175 1060.3831,-178.5001 1060.3832,-171.5001"/>
</g>
<!-- ProjectFeatureComponent -->
<g id="node3" class="node">
<title>ProjectFeatureComponent</title>
<polygon fill="#ffffb3" stroke="#000000" points="1757.4636,-122 1594.5364,-122 1594.5364,-86 1757.4636,-86 1757.4636,-122"/>
<text text-anchor="middle" x="1676" y="-99.8" font-family="Times,serif" font-size="14.00" fill="#000000">ProjectFeatureComponent</text>
</g>
<!-- ProjectFeatureComponent&#45;&gt;ProjectsModule -->
<g id="edge3" class="edge">
<title>ProjectFeatureComponent&#45;&gt;ProjectsModule</title>
<path fill="none" stroke="#000000" d="M1676,-122.1061C1676,-141.3391 1676,-169 1676,-169 1676,-169 1060.3562,-169 1060.3562,-169"/>
<polygon fill="#000000" stroke="#000000" points="1060.3563,-165.5001 1050.3562,-169 1060.3562,-172.5001 1060.3563,-165.5001"/>
</g>
<!-- ProjectFeatureContactCardComponent -->
<g id="node4" class="node">
<title>ProjectFeatureContactCardComponent</title>
<polygon fill="#ffffb3" stroke="#000000" points="1576.7226,-122 1343.2774,-122 1343.2774,-86 1576.7226,-86 1576.7226,-122"/>
<text text-anchor="middle" x="1460" y="-99.8" font-family="Times,serif" font-size="14.00" fill="#000000">ProjectFeatureContactCardComponent</text>
</g>
<!-- ProjectFeatureContactCardComponent&#45;&gt;ProjectsModule -->
<g id="edge4" class="edge">
<title>ProjectFeatureContactCardComponent&#45;&gt;ProjectsModule</title>
<path fill="none" stroke="#000000" d="M1460,-122.0225C1460,-139.3734 1460,-163 1460,-163 1460,-163 1060.5475,-163 1060.5475,-163"/>
<polygon fill="#000000" stroke="#000000" points="1060.5475,-159.5001 1050.5475,-163 1060.5474,-166.5001 1060.5475,-159.5001"/>
</g>
<!-- ProjectFeatureForecastsComponent -->
<g id="node5" class="node">
<title>ProjectFeatureForecastsComponent</title>
<polygon fill="#ffffb3" stroke="#000000" points="1324.8305,-122 1109.1695,-122 1109.1695,-86 1324.8305,-86 1324.8305,-122"/>
<text text-anchor="middle" x="1217" y="-99.8" font-family="Times,serif" font-size="14.00" fill="#000000">ProjectFeatureForecastsComponent</text>
</g>
<!-- ProjectFeatureForecastsComponent&#45;&gt;ProjectsModule -->
<g id="edge5" class="edge">
<title>ProjectFeatureForecastsComponent&#45;&gt;ProjectsModule</title>
<path fill="none" stroke="#000000" d="M1217,-122.2396C1217,-137.5706 1217,-157 1217,-157 1217,-157 1060.1777,-157 1060.1777,-157"/>
<polygon fill="#000000" stroke="#000000" points="1060.1778,-153.5001 1050.1777,-157 1060.1777,-160.5001 1060.1778,-153.5001"/>
</g>
<!-- ProjectFeatureInfoComponent -->
<g id="node6" class="node">
<title>ProjectFeatureInfoComponent</title>
<polygon fill="#ffffb3" stroke="#000000" points="1091.285,-122 904.715,-122 904.715,-86 1091.285,-86 1091.285,-122"/>
<text text-anchor="middle" x="998" y="-99.8" font-family="Times,serif" font-size="14.00" fill="#000000">ProjectFeatureInfoComponent</text>
</g>
<!-- ProjectFeatureInfoComponent&#45;&gt;ProjectsModule -->
<g id="edge6" class="edge">
<title>ProjectFeatureInfoComponent&#45;&gt;ProjectsModule</title>
<path fill="none" stroke="#000000" d="M998,-122.1061C998,-122.1061 998,-140.991 998,-140.991"/>
<polygon fill="#000000" stroke="#000000" points="994.5001,-140.9909 998,-150.991 1001.5001,-140.991 994.5001,-140.9909"/>
</g>
<!-- ProjectFeatureSummaryComponent -->
<g id="node7" class="node">
<title>ProjectFeatureSummaryComponent</title>
<polygon fill="#ffffb3" stroke="#000000" points="886.903,-122 669.097,-122 669.097,-86 886.903,-86 886.903,-122"/>
<text text-anchor="middle" x="778" y="-99.8" font-family="Times,serif" font-size="14.00" fill="#000000">ProjectFeatureSummaryComponent</text>
</g>
<!-- ProjectFeatureSummaryComponent&#45;&gt;ProjectsModule -->
<g id="edge7" class="edge">
<title>ProjectFeatureSummaryComponent&#45;&gt;ProjectsModule</title>
<path fill="none" stroke="#000000" d="M778,-122.2396C778,-137.5706 778,-157 778,-157 778,-157 935.584,-157 935.584,-157"/>
<polygon fill="#000000" stroke="#000000" points="935.5841,-160.5001 945.584,-157 935.584,-153.5001 935.5841,-160.5001"/>
</g>
<!-- ProjectFeatureViewComponent -->
<g id="node8" class="node">
<title>ProjectFeatureViewComponent</title>
<polygon fill="#ffffb3" stroke="#000000" points="651.7822,-122 458.2178,-122 458.2178,-86 651.7822,-86 651.7822,-122"/>
<text text-anchor="middle" x="555" y="-99.8" font-family="Times,serif" font-size="14.00" fill="#000000">ProjectFeatureViewComponent</text>
</g>
<!-- ProjectFeatureViewComponent&#45;&gt;ProjectsModule -->
<g id="edge8" class="edge">
<title>ProjectFeatureViewComponent&#45;&gt;ProjectsModule</title>
<path fill="none" stroke="#000000" d="M555,-122.0225C555,-139.3734 555,-163 555,-163 555,-163 935.4425,-163 935.4425,-163"/>
<polygon fill="#000000" stroke="#000000" points="935.4425,-166.5001 945.4425,-163 935.4424,-159.5001 935.4425,-166.5001"/>
</g>
<!-- ProjectsComponent -->
<g id="node9" class="node">
<title>ProjectsComponent</title>
<polygon fill="#ffffb3" stroke="#000000" points="440.4313,-122 313.5687,-122 313.5687,-86 440.4313,-86 440.4313,-122"/>
<text text-anchor="middle" x="377" y="-99.8" font-family="Times,serif" font-size="14.00" fill="#000000">ProjectsComponent</text>
</g>
<!-- ProjectsComponent&#45;&gt;ProjectsModule -->
<g id="edge9" class="edge">
<title>ProjectsComponent&#45;&gt;ProjectsModule</title>
<path fill="none" stroke="#000000" d="M377,-122.1061C377,-141.3391 377,-169 377,-169 377,-169 935.5891,-169 935.5891,-169"/>
<polygon fill="#000000" stroke="#000000" points="935.5891,-172.5001 945.5891,-169 935.5891,-165.5001 935.5891,-172.5001"/>
</g>
<!-- ProjectsRoutingModule -->
<g id="node11" class="node">
<title>ProjectsRoutingModule</title>
<polygon fill="#8dd3c7" stroke="#000000" points="289.766,-122 286.766,-126 265.766,-126 262.766,-122 140.234,-122 140.234,-86 289.766,-86 289.766,-122"/>
<text text-anchor="middle" x="215" y="-99.8" font-family="Times,serif" font-size="14.00" fill="#000000">ProjectsRoutingModule</text>
</g>
<!-- ProjectsRoutingModule&#45;&gt;ProjectsModule -->
<g id="edge10" class="edge">
<title>ProjectsRoutingModule&#45;&gt;ProjectsModule</title>
<path fill="none" stroke="#000000" d="M215,-122.2843C215,-143.3211 215,-175 215,-175 215,-175 935.7144,-175 935.7144,-175"/>
<polygon fill="#000000" stroke="#000000" points="935.7145,-178.5001 945.7144,-175 935.7144,-171.5001 935.7145,-178.5001"/>
</g>
<!-- SharedModule -->
<g id="node12" class="node">
<title>SharedModule</title>
<polygon fill="#8dd3c7" stroke="#000000" points="122.4231,-122 119.4231,-126 98.4231,-126 95.4231,-122 23.5769,-122 23.5769,-86 122.4231,-86 122.4231,-122"/>
<text text-anchor="middle" x="73" y="-99.8" font-family="Times,serif" font-size="14.00" fill="#000000">SharedModule</text>
</g>
<!-- SharedModule&#45;&gt;ProjectsModule -->
<g id="edge11" class="edge">
<title>SharedModule&#45;&gt;ProjectsModule</title>
<path fill="none" stroke="#000000" d="M73,-122.0908C73,-145.1328 73,-182 73,-182 73,-182 935.6177,-182 935.6177,-182"/>
<polygon fill="#000000" stroke="#000000" points="935.6177,-185.5001 945.6177,-182 935.6176,-178.5001 935.6177,-185.5001"/>
</g>
</g>
</svg>
