<?xml version="1.0" encoding="UTF-8" standalone="no"?>
<!DOCTYPE svg PUBLIC "-//W3C//DTD SVG 1.1//EN"
 "http://www.w3.org/Graphics/SVG/1.1/DTD/svg11.dtd">
<!-- Generated by graphviz version 2.40.1 (20161225.0304)
 -->
<!-- Title: dependencies Pages: 1 -->
<svg width="543pt" height="211pt"
 viewBox="0.00 0.00 543.00 211.00" xmlns="http://www.w3.org/2000/svg" xmlns:xlink="http://www.w3.org/1999/xlink">
<g id="graph0" class="graph" transform="scale(1 1) rotate(0) translate(4 207)">
<title>dependencies</title>
<polygon fill="#ffffff" stroke="transparent" points="-4,4 -4,-207 539,-207 539,4 -4,4"/>
<text text-anchor="start" x="246.5091" y="-42.4" font-family="sans-serif" font-weight="bold" font-size="14.00" fill="#000000">Legend</text>
<polygon fill="#ffffb3" stroke="transparent" points="33.5,-10 33.5,-30 53.5,-30 53.5,-10 33.5,-10"/>
<text text-anchor="start" x="57.129" y="-15.4" font-family="sans-serif" font-size="14.00" fill="#000000"> &#160;Declarations</text>
<polygon fill="#8dd3c7" stroke="transparent" points="146.5,-10 146.5,-30 166.5,-30 166.5,-10 146.5,-10"/>
<text text-anchor="start" x="170.2251" y="-15.4" font-family="sans-serif" font-size="14.00" fill="#000000"> &#160;Module</text>
<polygon fill="#80b1d3" stroke="transparent" points="232.5,-10 232.5,-30 252.5,-30 252.5,-10 232.5,-10"/>
<text text-anchor="start" x="256.2812" y="-15.4" font-family="sans-serif" font-size="14.00" fill="#000000"> &#160;Bootstrap</text>
<polygon fill="#fdb462" stroke="transparent" points="329.5,-10 329.5,-30 349.5,-30 349.5,-10 329.5,-10"/>
<text text-anchor="start" x="353.1732" y="-15.4" font-family="sans-serif" font-size="14.00" fill="#000000"> &#160;Providers</text>
<polygon fill="#fb8072" stroke="transparent" points="425.5,-10 425.5,-30 445.5,-30 445.5,-10 425.5,-10"/>
<text text-anchor="start" x="449.2258" y="-15.4" font-family="sans-serif" font-size="14.00" fill="#000000"> &#160;Exports</text>
<g id="clust1" class="cluster">
<title>cluster_AccessDeniedModule</title>
<polygon fill="none" stroke="#000000" stroke-dasharray="1,5" points="8,-70 8,-195 527,-195 527,-70 8,-70"/>
</g>
<g id="clust2" class="cluster">
<title>cluster_AccessDeniedModule_declarations</title>
<polygon fill="none" stroke="#000000" points="341,-78 341,-130 519,-130 519,-78 341,-78"/>
</g>
<g id="clust4" class="cluster">
<title>cluster_AccessDeniedModule_imports</title>
<polygon fill="none" stroke="#000000" points="16,-78 16,-130 333,-130 333,-78 16,-78"/>
</g>
<!-- AccessDeniedComponent -->
<g id="node1" class="node">
<title>AccessDeniedComponent</title>
<polygon fill="#ffffb3" stroke="#000000" points="510.8989,-122 349.1011,-122 349.1011,-86 510.8989,-86 510.8989,-122"/>
<text text-anchor="middle" x="430" y="-99.8" font-family="Times,serif" font-size="14.00" fill="#000000">AccessDeniedComponent</text>
</g>
<!-- AccessDeniedModule -->
<g id="node2" class="node">
<title>AccessDeniedModule</title>
<polygon fill="#8dd3c7" stroke="#000000" points="302.6163,-187 299.6163,-191 278.6163,-191 275.6163,-187 163.3837,-187 163.3837,-151 302.6163,-151 302.6163,-187"/>
<text text-anchor="middle" x="233" y="-164.8" font-family="Times,serif" font-size="14.00" fill="#000000">AccessDeniedModule</text>
</g>
<!-- AccessDeniedComponent&#45;&gt;AccessDeniedModule -->
<g id="edge1" class="edge">
<title>AccessDeniedComponent&#45;&gt;AccessDeniedModule</title>
<path fill="none" stroke="#000000" d="M430,-122.1061C430,-141.3391 430,-169 430,-169 430,-169 312.7321,-169 312.7321,-169"/>
<polygon fill="#000000" stroke="#000000" points="312.7321,-165.5001 302.7321,-169 312.732,-172.5001 312.7321,-165.5001"/>
</g>
<!-- AccessDeniedRoutingModule -->
<g id="node3" class="node">
<title>AccessDeniedRoutingModule</title>
<polygon fill="#8dd3c7" stroke="#000000" points="325.2338,-122 322.2338,-126 301.2338,-126 298.2338,-122 140.7662,-122 140.7662,-86 325.2338,-86 325.2338,-122"/>
<text text-anchor="middle" x="233" y="-99.8" font-family="Times,serif" font-size="14.00" fill="#000000">AccessDeniedRoutingModule</text>
</g>
<!-- AccessDeniedRoutingModule&#45;&gt;AccessDeniedModule -->
<g id="edge2" class="edge">
<title>AccessDeniedRoutingModule&#45;&gt;AccessDeniedModule</title>
<path fill="none" stroke="#000000" d="M233,-122.1061C233,-122.1061 233,-140.991 233,-140.991"/>
<polygon fill="#000000" stroke="#000000" points="229.5001,-140.9909 233,-150.991 236.5001,-140.991 229.5001,-140.9909"/>
</g>
<!-- SharedModule -->
<g id="node4" class="node">
<title>SharedModule</title>
<polygon fill="#8dd3c7" stroke="#000000" points="122.4231,-122 119.4231,-126 98.4231,-126 95.4231,-122 23.5769,-122 23.5769,-86 122.4231,-86 122.4231,-122"/>
<text text-anchor="middle" x="73" y="-99.8" font-family="Times,serif" font-size="14.00" fill="#000000">SharedModule</text>
</g>
<!-- SharedModule&#45;&gt;AccessDeniedModule -->
<g id="edge3" class="edge">
<title>SharedModule&#45;&gt;AccessDeniedModule</title>
<path fill="none" stroke="#000000" d="M73,-122.1061C73,-141.3391 73,-169 73,-169 73,-169 153.2871,-169 153.2871,-169"/>
<polygon fill="#000000" stroke="#000000" points="153.2871,-172.5001 163.2871,-169 153.2871,-165.5001 153.2871,-172.5001"/>
</g>
</g>
</svg>
