<?xml version="1.0" encoding="UTF-8" standalone="no"?>
<!DOCTYPE svg PUBLIC "-//W3C//DTD SVG 1.1//EN"
 "http://www.w3.org/Graphics/SVG/1.1/DTD/svg11.dtd">
<!-- Generated by graphviz version 2.40.1 (20161225.0304)
 -->
<!-- Title: dependencies Pages: 1 -->
<svg width="676pt" height="211pt"
 viewBox="0.00 0.00 676.00 211.00" xmlns="http://www.w3.org/2000/svg" xmlns:xlink="http://www.w3.org/1999/xlink">
<g id="graph0" class="graph" transform="scale(1 1) rotate(0) translate(4 207)">
<title>dependencies</title>
<polygon fill="#ffffff" stroke="transparent" points="-4,4 -4,-207 672,-207 672,4 -4,4"/>
<text text-anchor="start" x="313.0091" y="-42.4" font-family="sans-serif" font-weight="bold" font-size="14.00" fill="#000000">Legend</text>
<polygon fill="#ffffb3" stroke="transparent" points="100,-10 100,-30 120,-30 120,-10 100,-10"/>
<text text-anchor="start" x="123.629" y="-15.4" font-family="sans-serif" font-size="14.00" fill="#000000"> &#160;Declarations</text>
<polygon fill="#8dd3c7" stroke="transparent" points="213,-10 213,-30 233,-30 233,-10 213,-10"/>
<text text-anchor="start" x="236.7251" y="-15.4" font-family="sans-serif" font-size="14.00" fill="#000000"> &#160;Module</text>
<polygon fill="#80b1d3" stroke="transparent" points="299,-10 299,-30 319,-30 319,-10 299,-10"/>
<text text-anchor="start" x="322.7812" y="-15.4" font-family="sans-serif" font-size="14.00" fill="#000000"> &#160;Bootstrap</text>
<polygon fill="#fdb462" stroke="transparent" points="396,-10 396,-30 416,-30 416,-10 396,-10"/>
<text text-anchor="start" x="419.6732" y="-15.4" font-family="sans-serif" font-size="14.00" fill="#000000"> &#160;Providers</text>
<polygon fill="#fb8072" stroke="transparent" points="492,-10 492,-30 512,-30 512,-10 492,-10"/>
<text text-anchor="start" x="515.7258" y="-15.4" font-family="sans-serif" font-size="14.00" fill="#000000"> &#160;Exports</text>
<g id="clust1" class="cluster">
<title>cluster_RequestsModule</title>
<polygon fill="none" stroke="#000000" stroke-dasharray="1,5" points="8,-70 8,-195 660,-195 660,-70 8,-70"/>
</g>
<g id="clust2" class="cluster">
<title>cluster_RequestsModule_declarations</title>
<polygon fill="none" stroke="#000000" points="312,-78 312,-130 652,-130 652,-78 312,-78"/>
</g>
<g id="clust5" class="cluster">
<title>cluster_RequestsModule_imports</title>
<polygon fill="none" stroke="#000000" points="16,-78 16,-130 304,-130 304,-78 16,-78"/>
</g>
<!-- RequestsComponent -->
<g id="node1" class="node">
<title>RequestsComponent</title>
<polygon fill="#ffffb3" stroke="#000000" points="643.8781,-122 512.1219,-122 512.1219,-86 643.8781,-86 643.8781,-122"/>
<text text-anchor="middle" x="578" y="-99.8" font-family="Times,serif" font-size="14.00" fill="#000000">RequestsComponent</text>
</g>
<!-- RequestsModule -->
<g id="node3" class="node">
<title>RequestsModule</title>
<polygon fill="#8dd3c7" stroke="#000000" points="367.0954,-187 364.0954,-191 343.0954,-191 340.0954,-187 256.9046,-187 256.9046,-151 367.0954,-151 367.0954,-187"/>
<text text-anchor="middle" x="312" y="-164.8" font-family="Times,serif" font-size="14.00" fill="#000000">RequestsModule</text>
</g>
<!-- RequestsComponent&#45;&gt;RequestsModule -->
<g id="edge1" class="edge">
<title>RequestsComponent&#45;&gt;RequestsModule</title>
<path fill="none" stroke="#000000" d="M578,-122.1061C578,-141.3391 578,-169 578,-169 578,-169 377.1154,-169 377.1154,-169"/>
<polygon fill="#000000" stroke="#000000" points="377.1154,-165.5001 367.1154,-169 377.1153,-172.5001 377.1154,-165.5001"/>
</g>
<!-- RequestsFeatureComponent -->
<g id="node2" class="node">
<title>RequestsFeatureComponent</title>
<polygon fill="#ffffb3" stroke="#000000" points="493.8557,-122 320.1443,-122 320.1443,-86 493.8557,-86 493.8557,-122"/>
<text text-anchor="middle" x="407" y="-99.8" font-family="Times,serif" font-size="14.00" fill="#000000">RequestsFeatureComponent</text>
</g>
<!-- RequestsFeatureComponent&#45;&gt;RequestsModule -->
<g id="edge2" class="edge">
<title>RequestsFeatureComponent&#45;&gt;RequestsModule</title>
<path fill="none" stroke="#000000" d="M343.56,-122.1061C343.56,-122.1061 343.56,-140.991 343.56,-140.991"/>
<polygon fill="#000000" stroke="#000000" points="340.06,-140.9909 343.56,-150.991 347.06,-140.991 340.06,-140.9909"/>
</g>
<!-- RequestsRoutingModule -->
<g id="node4" class="node">
<title>RequestsRoutingModule</title>
<polygon fill="#8dd3c7" stroke="#000000" points="295.7133,-122 292.7133,-126 271.7133,-126 268.7133,-122 140.2867,-122 140.2867,-86 295.7133,-86 295.7133,-122"/>
<text text-anchor="middle" x="218" y="-99.8" font-family="Times,serif" font-size="14.00" fill="#000000">RequestsRoutingModule</text>
</g>
<!-- RequestsRoutingModule&#45;&gt;RequestsModule -->
<g id="edge3" class="edge">
<title>RequestsRoutingModule&#45;&gt;RequestsModule</title>
<path fill="none" stroke="#000000" d="M276.2795,-122.1061C276.2795,-122.1061 276.2795,-140.991 276.2795,-140.991"/>
<polygon fill="#000000" stroke="#000000" points="272.7795,-140.9909 276.2795,-150.991 279.7795,-140.991 272.7795,-140.9909"/>
</g>
<!-- SharedModule -->
<g id="node5" class="node">
<title>SharedModule</title>
<polygon fill="#8dd3c7" stroke="#000000" points="122.4231,-122 119.4231,-126 98.4231,-126 95.4231,-122 23.5769,-122 23.5769,-86 122.4231,-86 122.4231,-122"/>
<text text-anchor="middle" x="73" y="-99.8" font-family="Times,serif" font-size="14.00" fill="#000000">SharedModule</text>
</g>
<!-- SharedModule&#45;&gt;RequestsModule -->
<g id="edge4" class="edge">
<title>SharedModule&#45;&gt;RequestsModule</title>
<path fill="none" stroke="#000000" d="M73,-122.1061C73,-141.3391 73,-169 73,-169 73,-169 246.8685,-169 246.8685,-169"/>
<polygon fill="#000000" stroke="#000000" points="246.8685,-172.5001 256.8685,-169 246.8684,-165.5001 246.8685,-172.5001"/>
</g>
</g>
</svg>
