<?xml version="1.0" encoding="UTF-8" standalone="no"?>
<!DOCTYPE svg PUBLIC "-//W3C//DTD SVG 1.1//EN"
 "http://www.w3.org/Graphics/SVG/1.1/DTD/svg11.dtd">
<!-- Generated by graphviz version 2.40.1 (20161225.0304)
 -->
<!-- Title: dependencies Pages: 1 -->
<svg width="574pt" height="211pt"
 viewBox="0.00 0.00 574.00 211.00" xmlns="http://www.w3.org/2000/svg" xmlns:xlink="http://www.w3.org/1999/xlink">
<g id="graph0" class="graph" transform="scale(1 1) rotate(0) translate(4 207)">
<title>dependencies</title>
<polygon fill="#ffffff" stroke="transparent" points="-4,4 -4,-207 570,-207 570,4 -4,4"/>
<text text-anchor="start" x="262.0091" y="-42.4" font-family="sans-serif" font-weight="bold" font-size="14.00" fill="#000000">Legend</text>
<polygon fill="#ffffb3" stroke="transparent" points="49,-10 49,-30 69,-30 69,-10 49,-10"/>
<text text-anchor="start" x="72.629" y="-15.4" font-family="sans-serif" font-size="14.00" fill="#000000"> &#160;Declarations</text>
<polygon fill="#8dd3c7" stroke="transparent" points="162,-10 162,-30 182,-30 182,-10 162,-10"/>
<text text-anchor="start" x="185.7251" y="-15.4" font-family="sans-serif" font-size="14.00" fill="#000000"> &#160;Module</text>
<polygon fill="#80b1d3" stroke="transparent" points="248,-10 248,-30 268,-30 268,-10 248,-10"/>
<text text-anchor="start" x="271.7812" y="-15.4" font-family="sans-serif" font-size="14.00" fill="#000000"> &#160;Bootstrap</text>
<polygon fill="#fdb462" stroke="transparent" points="345,-10 345,-30 365,-30 365,-10 345,-10"/>
<text text-anchor="start" x="368.6732" y="-15.4" font-family="sans-serif" font-size="14.00" fill="#000000"> &#160;Providers</text>
<polygon fill="#fb8072" stroke="transparent" points="441,-10 441,-30 461,-30 461,-10 441,-10"/>
<text text-anchor="start" x="464.7258" y="-15.4" font-family="sans-serif" font-size="14.00" fill="#000000"> &#160;Exports</text>
<g id="clust1" class="cluster">
<title>cluster_AdminVesselsTypesModule</title>
<polygon fill="none" stroke="#000000" stroke-dasharray="1,5" points="8,-70 8,-195 558,-195 558,-70 8,-70"/>
</g>
<g id="clust2" class="cluster">
<title>cluster_AdminVesselsTypesModule_declarations</title>
<polygon fill="none" stroke="#000000" points="376,-78 376,-130 550,-130 550,-78 376,-78"/>
</g>
<g id="clust4" class="cluster">
<title>cluster_AdminVesselsTypesModule_imports</title>
<polygon fill="none" stroke="#000000" points="16,-78 16,-130 368,-130 368,-78 16,-78"/>
</g>
<!-- VesselsTypesComponent -->
<g id="node1" class="node">
<title>VesselsTypesComponent</title>
<polygon fill="#ffffb3" stroke="#000000" points="542.3047,-122 383.6953,-122 383.6953,-86 542.3047,-86 542.3047,-122"/>
<text text-anchor="middle" x="463" y="-99.8" font-family="Times,serif" font-size="14.00" fill="#000000">VesselsTypesComponent</text>
</g>
<!-- AdminVesselsTypesModule -->
<g id="node2" class="node">
<title>AdminVesselsTypesModule</title>
<polygon fill="#8dd3c7" stroke="#000000" points="337.9101,-187 334.9101,-191 313.9101,-191 310.9101,-187 162.0899,-187 162.0899,-151 337.9101,-151 337.9101,-187"/>
<text text-anchor="middle" x="250" y="-164.8" font-family="Times,serif" font-size="14.00" fill="#000000">AdminVesselsTypesModule</text>
</g>
<!-- VesselsTypesComponent&#45;&gt;AdminVesselsTypesModule -->
<g id="edge1" class="edge">
<title>VesselsTypesComponent&#45;&gt;AdminVesselsTypesModule</title>
<path fill="none" stroke="#000000" d="M463,-122.1061C463,-141.3391 463,-169 463,-169 463,-169 347.865,-169 347.865,-169"/>
<polygon fill="#000000" stroke="#000000" points="347.865,-165.5001 337.865,-169 347.865,-172.5001 347.865,-165.5001"/>
</g>
<!-- AdminVesselsTypesRoutingModule -->
<g id="node3" class="node">
<title>AdminVesselsTypesRoutingModule</title>
<polygon fill="#8dd3c7" stroke="#000000" points="360.0279,-122 357.0279,-126 336.0279,-126 333.0279,-122 139.9721,-122 139.9721,-86 360.0279,-86 360.0279,-122"/>
<text text-anchor="middle" x="250" y="-99.8" font-family="Times,serif" font-size="14.00" fill="#000000">AdminVesselsTypesRoutingModule</text>
</g>
<!-- AdminVesselsTypesRoutingModule&#45;&gt;AdminVesselsTypesModule -->
<g id="edge2" class="edge">
<title>AdminVesselsTypesRoutingModule&#45;&gt;AdminVesselsTypesModule</title>
<path fill="none" stroke="#000000" d="M250,-122.1061C250,-122.1061 250,-140.991 250,-140.991"/>
<polygon fill="#000000" stroke="#000000" points="246.5001,-140.9909 250,-150.991 253.5001,-140.991 246.5001,-140.9909"/>
</g>
<!-- SharedModule -->
<g id="node4" class="node">
<title>SharedModule</title>
<polygon fill="#8dd3c7" stroke="#000000" points="122.4231,-122 119.4231,-126 98.4231,-126 95.4231,-122 23.5769,-122 23.5769,-86 122.4231,-86 122.4231,-122"/>
<text text-anchor="middle" x="73" y="-99.8" font-family="Times,serif" font-size="14.00" fill="#000000">SharedModule</text>
</g>
<!-- SharedModule&#45;&gt;AdminVesselsTypesModule -->
<g id="edge3" class="edge">
<title>SharedModule&#45;&gt;AdminVesselsTypesModule</title>
<path fill="none" stroke="#000000" d="M73,-122.1061C73,-141.3391 73,-169 73,-169 73,-169 152.2778,-169 152.2778,-169"/>
<polygon fill="#000000" stroke="#000000" points="152.2779,-172.5001 162.2778,-169 152.2778,-165.5001 152.2779,-172.5001"/>
</g>
</g>
</svg>
