<?xml version="1.0" encoding="UTF-8" standalone="no"?>
<!DOCTYPE svg PUBLIC "-//W3C//DTD SVG 1.1//EN"
 "http://www.w3.org/Graphics/SVG/1.1/DTD/svg11.dtd">
<!-- Generated by graphviz version 2.40.1 (20161225.0304)
 -->
<!-- Title: dependencies Pages: 1 -->
<svg width="534pt" height="211pt"
 viewBox="0.00 0.00 534.00 211.00" xmlns="http://www.w3.org/2000/svg" xmlns:xlink="http://www.w3.org/1999/xlink">
<g id="graph0" class="graph" transform="scale(1 1) rotate(0) translate(4 207)">
<title>dependencies</title>
<polygon fill="#ffffff" stroke="transparent" points="-4,4 -4,-207 530,-207 530,4 -4,4"/>
<text text-anchor="start" x="242.0091" y="-42.4" font-family="sans-serif" font-weight="bold" font-size="14.00" fill="#000000">Legend</text>
<polygon fill="#ffffb3" stroke="transparent" points="29,-10 29,-30 49,-30 49,-10 29,-10"/>
<text text-anchor="start" x="52.629" y="-15.4" font-family="sans-serif" font-size="14.00" fill="#000000"> &#160;Declarations</text>
<polygon fill="#8dd3c7" stroke="transparent" points="142,-10 142,-30 162,-30 162,-10 142,-10"/>
<text text-anchor="start" x="165.7251" y="-15.4" font-family="sans-serif" font-size="14.00" fill="#000000"> &#160;Module</text>
<polygon fill="#80b1d3" stroke="transparent" points="228,-10 228,-30 248,-30 248,-10 228,-10"/>
<text text-anchor="start" x="251.7812" y="-15.4" font-family="sans-serif" font-size="14.00" fill="#000000"> &#160;Bootstrap</text>
<polygon fill="#fdb462" stroke="transparent" points="325,-10 325,-30 345,-30 345,-10 325,-10"/>
<text text-anchor="start" x="348.6732" y="-15.4" font-family="sans-serif" font-size="14.00" fill="#000000"> &#160;Providers</text>
<polygon fill="#fb8072" stroke="transparent" points="421,-10 421,-30 441,-30 441,-10 421,-10"/>
<text text-anchor="start" x="444.7258" y="-15.4" font-family="sans-serif" font-size="14.00" fill="#000000"> &#160;Exports</text>
<g id="clust1" class="cluster">
<title>cluster_AdminSchedulerModule</title>
<polygon fill="none" stroke="#000000" stroke-dasharray="1,5" points="8,-70 8,-195 518,-195 518,-70 8,-70"/>
</g>
<g id="clust2" class="cluster">
<title>cluster_AdminSchedulerModule_declarations</title>
<polygon fill="none" stroke="#000000" points="356,-78 356,-130 510,-130 510,-78 356,-78"/>
</g>
<g id="clust4" class="cluster">
<title>cluster_AdminSchedulerModule_imports</title>
<polygon fill="none" stroke="#000000" points="16,-78 16,-130 348,-130 348,-78 16,-78"/>
</g>
<!-- SchedulerComponent -->
<g id="node1" class="node">
<title>SchedulerComponent</title>
<polygon fill="#ffffb3" stroke="#000000" points="501.8104,-122 364.1896,-122 364.1896,-86 501.8104,-86 501.8104,-122"/>
<text text-anchor="middle" x="433" y="-99.8" font-family="Times,serif" font-size="14.00" fill="#000000">SchedulerComponent</text>
</g>
<!-- AdminSchedulerModule -->
<g id="node2" class="node">
<title>AdminSchedulerModule</title>
<polygon fill="#8dd3c7" stroke="#000000" points="317.4158,-187 314.4158,-191 293.4158,-191 290.4158,-187 162.5842,-187 162.5842,-151 317.4158,-151 317.4158,-187"/>
<text text-anchor="middle" x="240" y="-164.8" font-family="Times,serif" font-size="14.00" fill="#000000">AdminSchedulerModule</text>
</g>
<!-- SchedulerComponent&#45;&gt;AdminSchedulerModule -->
<g id="edge1" class="edge">
<title>SchedulerComponent&#45;&gt;AdminSchedulerModule</title>
<path fill="none" stroke="#000000" d="M433,-122.1061C433,-141.3391 433,-169 433,-169 433,-169 327.3884,-169 327.3884,-169"/>
<polygon fill="#000000" stroke="#000000" points="327.3885,-165.5001 317.3884,-169 327.3884,-172.5001 327.3885,-165.5001"/>
</g>
<!-- AdminSchedulerRoutingModule -->
<g id="node3" class="node">
<title>AdminSchedulerRoutingModule</title>
<polygon fill="#8dd3c7" stroke="#000000" points="339.5335,-122 336.5335,-126 315.5335,-126 312.5335,-122 140.4665,-122 140.4665,-86 339.5335,-86 339.5335,-122"/>
<text text-anchor="middle" x="240" y="-99.8" font-family="Times,serif" font-size="14.00" fill="#000000">AdminSchedulerRoutingModule</text>
</g>
<!-- AdminSchedulerRoutingModule&#45;&gt;AdminSchedulerModule -->
<g id="edge2" class="edge">
<title>AdminSchedulerRoutingModule&#45;&gt;AdminSchedulerModule</title>
<path fill="none" stroke="#000000" d="M240,-122.1061C240,-122.1061 240,-140.991 240,-140.991"/>
<polygon fill="#000000" stroke="#000000" points="236.5001,-140.9909 240,-150.991 243.5001,-140.991 236.5001,-140.9909"/>
</g>
<!-- SharedModule -->
<g id="node4" class="node">
<title>SharedModule</title>
<polygon fill="#8dd3c7" stroke="#000000" points="122.4231,-122 119.4231,-126 98.4231,-126 95.4231,-122 23.5769,-122 23.5769,-86 122.4231,-86 122.4231,-122"/>
<text text-anchor="middle" x="73" y="-99.8" font-family="Times,serif" font-size="14.00" fill="#000000">SharedModule</text>
</g>
<!-- SharedModule&#45;&gt;AdminSchedulerModule -->
<g id="edge3" class="edge">
<title>SharedModule&#45;&gt;AdminSchedulerModule</title>
<path fill="none" stroke="#000000" d="M73,-122.1061C73,-141.3391 73,-169 73,-169 73,-169 152.3668,-169 152.3668,-169"/>
<polygon fill="#000000" stroke="#000000" points="152.3668,-172.5001 162.3668,-169 152.3668,-165.5001 152.3668,-172.5001"/>
</g>
</g>
</svg>
