<?xml version="1.0" encoding="UTF-8" standalone="no"?>
<!DOCTYPE svg PUBLIC "-//W3C//DTD SVG 1.1//EN"
 "http://www.w3.org/Graphics/SVG/1.1/DTD/svg11.dtd">
<!-- Generated by graphviz version 2.40.1 (20161225.0304)
 -->
<!-- Title: dependencies Pages: 1 -->
<svg width="1841pt" height="284pt"
 viewBox="0.00 0.00 1841.00 284.00" xmlns="http://www.w3.org/2000/svg" xmlns:xlink="http://www.w3.org/1999/xlink">
<g id="graph0" class="graph" transform="scale(1 1) rotate(0) translate(4 280)">
<title>dependencies</title>
<polygon fill="#ffffff" stroke="transparent" points="-4,4 -4,-280 1837,-280 1837,4 -4,4"/>
<text text-anchor="start" x="895.5091" y="-42.4" font-family="sans-serif" font-weight="bold" font-size="14.00" fill="#000000">Legend</text>
<polygon fill="#ffffb3" stroke="transparent" points="682.5,-10 682.5,-30 702.5,-30 702.5,-10 682.5,-10"/>
<text text-anchor="start" x="706.129" y="-15.4" font-family="sans-serif" font-size="14.00" fill="#000000"> &#160;Declarations</text>
<polygon fill="#8dd3c7" stroke="transparent" points="795.5,-10 795.5,-30 815.5,-30 815.5,-10 795.5,-10"/>
<text text-anchor="start" x="819.2251" y="-15.4" font-family="sans-serif" font-size="14.00" fill="#000000"> &#160;Module</text>
<polygon fill="#80b1d3" stroke="transparent" points="881.5,-10 881.5,-30 901.5,-30 901.5,-10 881.5,-10"/>
<text text-anchor="start" x="905.2812" y="-15.4" font-family="sans-serif" font-size="14.00" fill="#000000"> &#160;Bootstrap</text>
<polygon fill="#fdb462" stroke="transparent" points="978.5,-10 978.5,-30 998.5,-30 998.5,-10 978.5,-10"/>
<text text-anchor="start" x="1002.1732" y="-15.4" font-family="sans-serif" font-size="14.00" fill="#000000"> &#160;Providers</text>
<polygon fill="#fb8072" stroke="transparent" points="1074.5,-10 1074.5,-30 1094.5,-30 1094.5,-10 1074.5,-10"/>
<text text-anchor="start" x="1098.2258" y="-15.4" font-family="sans-serif" font-size="14.00" fill="#000000"> &#160;Exports</text>
<g id="clust1" class="cluster">
<title>cluster_SharedModule</title>
<polygon fill="none" stroke="#000000" stroke-dasharray="1,5" points="8,-70 8,-268 1825,-268 1825,-70 8,-70"/>
</g>
<g id="clust2" class="cluster">
<title>cluster_SharedModule_declarations</title>
<polygon fill="none" stroke="#000000" points="578,-78 578,-130 1800,-130 1800,-78 578,-78"/>
</g>
<g id="clust11" class="cluster">
<title>cluster_SharedModule_imports</title>
<polygon fill="none" stroke="#000000" points="34,-78 34,-130 570,-130 570,-78 34,-78"/>
</g>
<g id="clust12" class="cluster">
<title>cluster_SharedModule_exports</title>
<polygon fill="none" stroke="#000000" points="16,-208 16,-260 1817,-260 1817,-208 16,-208"/>
</g>
<!-- FooterComponent -->
<g id="node1" class="node">
<title>FooterComponent</title>
<polygon fill="#ffffb3" stroke="#000000" points="1791.8809,-122 1674.1191,-122 1674.1191,-86 1791.8809,-86 1791.8809,-122"/>
<text text-anchor="middle" x="1733" y="-99.8" font-family="Times,serif" font-size="14.00" fill="#000000">FooterComponent</text>
</g>
<!-- SharedModule -->
<g id="node9" class="node">
<title>SharedModule</title>
<polygon fill="#8dd3c7" stroke="#000000" points="972.4231,-187 969.4231,-191 948.4231,-191 945.4231,-187 873.5769,-187 873.5769,-151 972.4231,-151 972.4231,-187"/>
<text text-anchor="middle" x="923" y="-164.8" font-family="Times,serif" font-size="14.00" fill="#000000">SharedModule</text>
</g>
<!-- FooterComponent&#45;&gt;SharedModule -->
<g id="edge1" class="edge">
<title>FooterComponent&#45;&gt;SharedModule</title>
<path fill="none" stroke="#000000" d="M1680.6846,-122.1686C1680.6846,-141.0898 1680.6846,-168 1680.6846,-168 1680.6846,-168 982.4215,-168 982.4215,-168"/>
<polygon fill="#000000" stroke="#000000" points="982.4216,-164.5001 972.4215,-168 982.4215,-171.5001 982.4216,-164.5001"/>
</g>
<!-- LoaderComponent -->
<g id="node2" class="node">
<title>LoaderComponent</title>
<polygon fill="#ffffb3" stroke="#000000" points="1656.4748,-122 1535.5252,-122 1535.5252,-86 1656.4748,-86 1656.4748,-122"/>
<text text-anchor="middle" x="1596" y="-99.8" font-family="Times,serif" font-size="14.00" fill="#000000">LoaderComponent</text>
</g>
<!-- LoaderComponent&#45;&gt;SharedModule -->
<g id="edge2" class="edge">
<title>LoaderComponent&#45;&gt;SharedModule</title>
<path fill="none" stroke="#000000" d="M1540.1376,-122.302C1540.1376,-140.2699 1540.1376,-165 1540.1376,-165 1540.1376,-165 982.4597,-165 982.4597,-165"/>
<polygon fill="#000000" stroke="#000000" points="982.4598,-161.5001 972.4597,-165 982.4597,-168.5001 982.4598,-161.5001"/>
</g>
<!-- MomentDatePipe -->
<g id="node3" class="node">
<title>MomentDatePipe</title>
<polygon fill="#ffffb3" stroke="#000000" points="1517.2549,-122 1402.7451,-122 1402.7451,-86 1517.2549,-86 1517.2549,-122"/>
<text text-anchor="middle" x="1460" y="-99.8" font-family="Times,serif" font-size="14.00" fill="#000000">MomentDatePipe</text>
</g>
<!-- MomentDatePipe&#45;&gt;SharedModule -->
<g id="edge3" class="edge">
<title>MomentDatePipe&#45;&gt;SharedModule</title>
<path fill="none" stroke="#000000" d="M1481.2091,-122.0352C1481.2091,-138.7344 1481.2091,-161 1481.2091,-161 1481.2091,-161 982.5373,-161 982.5373,-161"/>
<polygon fill="#000000" stroke="#000000" points="982.5374,-157.5001 972.5373,-161 982.5373,-164.5001 982.5374,-157.5001"/>
</g>
<!-- NavbarComponent -->
<g id="node4" class="node">
<title>NavbarComponent</title>
<polygon fill="#ffffb3" stroke="#000000" points="1384.0297,-122 1261.9703,-122 1261.9703,-86 1384.0297,-86 1384.0297,-122"/>
<text text-anchor="middle" x="1323" y="-99.8" font-family="Times,serif" font-size="14.00" fill="#000000">NavbarComponent</text>
</g>
<!-- NavbarComponent&#45;&gt;SharedModule -->
<g id="edge4" class="edge">
<title>NavbarComponent&#45;&gt;SharedModule</title>
<path fill="none" stroke="#000000" d="M1344.5048,-122.2819C1344.5048,-137.9478 1344.5048,-158 1344.5048,-158 1344.5048,-158 982.5914,-158 982.5914,-158"/>
<polygon fill="#000000" stroke="#000000" points="982.5915,-154.5001 972.5914,-158 982.5914,-161.5001 982.5915,-154.5001"/>
</g>
<!-- NotificationsCenterComponent -->
<g id="node5" class="node">
<title>NotificationsCenterComponent</title>
<polygon fill="#ffffb3" stroke="#000000" points="1243.7436,-122 1052.2564,-122 1052.2564,-86 1243.7436,-86 1243.7436,-122"/>
<text text-anchor="middle" x="1148" y="-99.8" font-family="Times,serif" font-size="14.00" fill="#000000">NotificationsCenterComponent</text>
</g>
<!-- NotificationsCenterComponent&#45;&gt;SharedModule -->
<g id="edge5" class="edge">
<title>NotificationsCenterComponent&#45;&gt;SharedModule</title>
<path fill="none" stroke="#000000" d="M1073.5128,-122.1243C1073.5128,-136.7832 1073.5128,-155 1073.5128,-155 1073.5128,-155 982.2835,-155 982.2835,-155"/>
<polygon fill="#000000" stroke="#000000" points="982.2836,-151.5001 972.2835,-155 982.2835,-158.5001 982.2836,-151.5001"/>
</g>
<!-- RisksProgressbarDirective -->
<g id="node6" class="node">
<title>RisksProgressbarDirective</title>
<polygon fill="#ffffb3" stroke="#000000" points="1033.7822,-122 868.2178,-122 868.2178,-86 1033.7822,-86 1033.7822,-122"/>
<text text-anchor="middle" x="951" y="-99.8" font-family="Times,serif" font-size="14.00" fill="#000000">RisksProgressbarDirective</text>
</g>
<!-- RisksProgressbarDirective&#45;&gt;SharedModule -->
<g id="edge6" class="edge">
<title>RisksProgressbarDirective&#45;&gt;SharedModule</title>
<path fill="none" stroke="#000000" d="M923,-122.1061C923,-122.1061 923,-140.991 923,-140.991"/>
<polygon fill="#000000" stroke="#000000" points="919.5001,-140.9909 923,-150.991 926.5001,-140.991 919.5001,-140.9909"/>
</g>
<!-- SidebarComponent -->
<g id="node7" class="node">
<title>SidebarComponent</title>
<polygon fill="#ffffb3" stroke="#000000" points="850.0954,-122 725.9046,-122 725.9046,-86 850.0954,-86 850.0954,-122"/>
<text text-anchor="middle" x="788" y="-99.8" font-family="Times,serif" font-size="14.00" fill="#000000">SidebarComponent</text>
</g>
<!-- SidebarComponent&#45;&gt;SharedModule -->
<g id="edge7" class="edge">
<title>SidebarComponent&#45;&gt;SharedModule</title>
<path fill="none" stroke="#000000" d="M841.598,-122.0511C841.598,-136.373 841.598,-154 841.598,-154 841.598,-154 863.7702,-154 863.7702,-154"/>
<polygon fill="#000000" stroke="#000000" points="863.7703,-157.5001 873.7702,-154 863.7702,-150.5001 863.7703,-157.5001"/>
</g>
<!-- UploadComponent -->
<g id="node8" class="node">
<title>UploadComponent</title>
<polygon fill="#ffffb3" stroke="#000000" points="708.045,-122 585.955,-122 585.955,-86 708.045,-86 708.045,-122"/>
<text text-anchor="middle" x="647" y="-99.8" font-family="Times,serif" font-size="14.00" fill="#000000">UploadComponent</text>
</g>
<!-- UploadComponent&#45;&gt;SharedModule -->
<g id="edge8" class="edge">
<title>UploadComponent&#45;&gt;SharedModule</title>
<path fill="none" stroke="#000000" d="M664.3252,-122.2396C664.3252,-137.5706 664.3252,-157 664.3252,-157 664.3252,-157 863.7364,-157 863.7364,-157"/>
<polygon fill="#000000" stroke="#000000" points="863.7364,-160.5001 873.7364,-157 863.7363,-153.5001 863.7364,-160.5001"/>
</g>
<!-- FooterComponent  -->
<g id="node14" class="node">
<title>FooterComponent </title>
<polygon fill="#fb8072" stroke="#000000" points="1808.8814,-252 1687.1186,-252 1687.1186,-216 1808.8814,-216 1808.8814,-252"/>
<text text-anchor="middle" x="1748" y="-229.8" font-family="Times,serif" font-size="14.00" fill="#000000">FooterComponent </text>
</g>
<!-- SharedModule&#45;&gt;FooterComponent  -->
<g id="edge13" class="edge">
<title>SharedModule&#45;&gt;FooterComponent </title>
<path fill="none" stroke="#000000" stroke-dasharray="5,2" d="M972.2445,-171C1148.7997,-171 1739.625,-171 1739.625,-171 1739.625,-171 1739.625,-205.7778 1739.625,-205.7778"/>
<polygon fill="#000000" stroke="#000000" points="1736.1251,-205.7778 1739.625,-215.7778 1743.1251,-205.7778 1736.1251,-205.7778"/>
</g>
<!-- LoaderComponent  -->
<g id="node15" class="node">
<title>LoaderComponent </title>
<polygon fill="#fb8072" stroke="#000000" points="1669.4757,-252 1544.5243,-252 1544.5243,-216 1669.4757,-216 1669.4757,-252"/>
<text text-anchor="middle" x="1607" y="-229.8" font-family="Times,serif" font-size="14.00" fill="#000000">LoaderComponent </text>
</g>
<!-- SharedModule&#45;&gt;LoaderComponent  -->
<g id="edge14" class="edge">
<title>SharedModule&#45;&gt;LoaderComponent </title>
<path fill="none" stroke="#000000" stroke-dasharray="5,2" d="M972.279,-174C1128.2121,-174 1600.625,-174 1600.625,-174 1600.625,-174 1600.625,-205.998 1600.625,-205.998"/>
<polygon fill="#000000" stroke="#000000" points="1597.1251,-205.998 1600.625,-215.998 1604.1251,-205.9981 1597.1251,-205.998"/>
</g>
<!-- MomentDatePipe  -->
<g id="node16" class="node">
<title>MomentDatePipe </title>
<polygon fill="#fb8072" stroke="#000000" points="1527.2549,-252 1408.7451,-252 1408.7451,-216 1527.2549,-216 1527.2549,-252"/>
<text text-anchor="middle" x="1468" y="-229.8" font-family="Times,serif" font-size="14.00" fill="#000000">MomentDatePipe </text>
</g>
<!-- SharedModule&#45;&gt;MomentDatePipe  -->
<g id="edge15" class="edge">
<title>SharedModule&#45;&gt;MomentDatePipe </title>
<path fill="none" stroke="#000000" stroke-dasharray="5,2" d="M972.583,-178C1102.8932,-178 1445.0409,-178 1445.0409,-178 1445.0409,-178 1445.0409,-205.973 1445.0409,-205.973"/>
<polygon fill="#000000" stroke="#000000" points="1441.541,-205.973 1445.0409,-215.973 1448.541,-205.973 1441.541,-205.973"/>
</g>
<!-- NavbarComponent  -->
<g id="node17" class="node">
<title>NavbarComponent </title>
<polygon fill="#fb8072" stroke="#000000" points="1391.0288,-252 1264.9712,-252 1264.9712,-216 1391.0288,-216 1391.0288,-252"/>
<text text-anchor="middle" x="1328" y="-229.8" font-family="Times,serif" font-size="14.00" fill="#000000">NavbarComponent </text>
</g>
<!-- SharedModule&#45;&gt;NavbarComponent  -->
<g id="edge16" class="edge">
<title>SharedModule&#45;&gt;NavbarComponent </title>
<path fill="none" stroke="#000000" stroke-dasharray="5,2" d="M972.5152,-181C1075.8061,-181 1304.7452,-181 1304.7452,-181 1304.7452,-181 1304.7452,-205.7604 1304.7452,-205.7604"/>
<polygon fill="#000000" stroke="#000000" points="1301.2453,-205.7604 1304.7452,-215.7604 1308.2453,-205.7604 1301.2453,-205.7604"/>
</g>
<!-- NgBootstrapModule  -->
<g id="node18" class="node">
<title>NgBootstrapModule </title>
<polygon fill="#fb8072" stroke="#000000" points="1247.0946,-252 1112.9054,-252 1112.9054,-216 1247.0946,-216 1247.0946,-252"/>
<text text-anchor="middle" x="1180" y="-229.8" font-family="Times,serif" font-size="14.00" fill="#000000">NgBootstrapModule </text>
</g>
<!-- SharedModule&#45;&gt;NgBootstrapModule  -->
<g id="edge17" class="edge">
<title>SharedModule&#45;&gt;NgBootstrapModule </title>
<path fill="none" stroke="#000000" stroke-dasharray="5,2" d="M972.222,-184C1046.4055,-184 1178.2874,-184 1178.2874,-184 1178.2874,-184 1178.2874,-205.9489 1178.2874,-205.9489"/>
<polygon fill="#000000" stroke="#000000" points="1174.7874,-205.9488 1178.2874,-215.9489 1181.7874,-205.9489 1174.7874,-205.9488"/>
</g>
<!-- NgLeafletModule  -->
<g id="node19" class="node">
<title>NgLeafletModule </title>
<polygon fill="#fb8072" stroke="#000000" points="1094.7948,-252 975.2052,-252 975.2052,-216 1094.7948,-216 1094.7948,-252"/>
<text text-anchor="middle" x="1035" y="-229.8" font-family="Times,serif" font-size="14.00" fill="#000000">NgLeafletModule </text>
</g>
<!-- SharedModule&#45;&gt;NgLeafletModule  -->
<g id="edge18" class="edge">
<title>SharedModule&#45;&gt;NgLeafletModule </title>
<path fill="none" stroke="#000000" stroke-dasharray="5,2" d="M964.5314,-187.1061C964.5314,-206.3391 964.5314,-234 964.5314,-234 964.5314,-234 965.5712,-234 965.5712,-234"/>
<polygon fill="#000000" stroke="#000000" points="964.9293,-237.5001 974.9293,-234 964.9292,-230.5001 964.9293,-237.5001"/>
</g>
<!-- NgSocketsModule  -->
<g id="node20" class="node">
<title>NgSocketsModule </title>
<polygon fill="#fb8072" stroke="#000000" points="956.7038,-252 833.2962,-252 833.2962,-216 956.7038,-216 956.7038,-252"/>
<text text-anchor="middle" x="895" y="-229.8" font-family="Times,serif" font-size="14.00" fill="#000000">NgSocketsModule </text>
</g>
<!-- SharedModule&#45;&gt;NgSocketsModule  -->
<g id="edge19" class="edge">
<title>SharedModule&#45;&gt;NgSocketsModule </title>
<path fill="none" stroke="#000000" stroke-dasharray="5,2" d="M915.3203,-187.1061C915.3203,-187.1061 915.3203,-205.991 915.3203,-205.991"/>
<polygon fill="#000000" stroke="#000000" points="911.8204,-205.9909 915.3203,-215.991 918.8204,-205.991 911.8204,-205.9909"/>
</g>
<!-- NotificationsCenterComponent  -->
<g id="node21" class="node">
<title>NotificationsCenterComponent </title>
<polygon fill="#fb8072" stroke="#000000" points="815.7436,-252 620.2564,-252 620.2564,-216 815.7436,-216 815.7436,-252"/>
<text text-anchor="middle" x="718" y="-229.8" font-family="Times,serif" font-size="14.00" fill="#000000">NotificationsCenterComponent </text>
</g>
<!-- SharedModule&#45;&gt;NotificationsCenterComponent  -->
<g id="edge20" class="edge">
<title>SharedModule&#45;&gt;NotificationsCenterComponent </title>
<path fill="none" stroke="#000000" stroke-dasharray="5,2" d="M873.5808,-184C829.1356,-184 770.787,-184 770.787,-184 770.787,-184 770.787,-205.9489 770.787,-205.9489"/>
<polygon fill="#000000" stroke="#000000" points="767.2871,-205.9488 770.787,-215.9489 774.2871,-205.9489 767.2871,-205.9488"/>
</g>
<!-- RisksProgressbarDirective  -->
<g id="node22" class="node">
<title>RisksProgressbarDirective </title>
<polygon fill="#fb8072" stroke="#000000" points="602.2821,-252 433.7179,-252 433.7179,-216 602.2821,-216 602.2821,-252"/>
<text text-anchor="middle" x="518" y="-229.8" font-family="Times,serif" font-size="14.00" fill="#000000">RisksProgressbarDirective </text>
</g>
<!-- SharedModule&#45;&gt;RisksProgressbarDirective  -->
<g id="edge21" class="edge">
<title>SharedModule&#45;&gt;RisksProgressbarDirective </title>
<path fill="none" stroke="#000000" stroke-dasharray="5,2" d="M873.7543,-181C781.9909,-181 594.0595,-181 594.0595,-181 594.0595,-181 594.0595,-205.7604 594.0595,-205.7604"/>
<polygon fill="#000000" stroke="#000000" points="590.5595,-205.7604 594.0595,-215.7604 597.5595,-205.7604 590.5595,-205.7604"/>
</g>
<!-- SidebarComponent  -->
<g id="node23" class="node">
<title>SidebarComponent </title>
<polygon fill="#fb8072" stroke="#000000" points="415.596,-252 288.404,-252 288.404,-216 415.596,-216 415.596,-252"/>
<text text-anchor="middle" x="352" y="-229.8" font-family="Times,serif" font-size="14.00" fill="#000000">SidebarComponent </text>
</g>
<!-- SharedModule&#45;&gt;SidebarComponent  -->
<g id="edge22" class="edge">
<title>SharedModule&#45;&gt;SidebarComponent </title>
<path fill="none" stroke="#000000" stroke-dasharray="5,2" d="M873.5947,-178C731.9628,-178 334.6176,-178 334.6176,-178 334.6176,-178 334.6176,-205.973 334.6176,-205.973"/>
<polygon fill="#000000" stroke="#000000" points="331.1177,-205.973 334.6176,-215.973 338.1177,-205.973 331.1177,-205.973"/>
</g>
<!-- UploadComponent  -->
<g id="node24" class="node">
<title>UploadComponent </title>
<polygon fill="#fb8072" stroke="#000000" points="270.0442,-252 143.9558,-252 143.9558,-216 270.0442,-216 270.0442,-252"/>
<text text-anchor="middle" x="207" y="-229.8" font-family="Times,serif" font-size="14.00" fill="#000000">UploadComponent </text>
</g>
<!-- SharedModule&#45;&gt;UploadComponent  -->
<g id="edge23" class="edge">
<title>SharedModule&#45;&gt;UploadComponent </title>
<path fill="none" stroke="#000000" stroke-dasharray="5,2" d="M873.7046,-175C712.9102,-175 213.9602,-175 213.9602,-175 213.9602,-175 213.9602,-205.9775 213.9602,-205.9775"/>
<polygon fill="#000000" stroke="#000000" points="210.4603,-205.9774 213.9602,-215.9775 217.4603,-205.9775 210.4603,-205.9774"/>
</g>
<!-- WindyModule  -->
<g id="node25" class="node">
<title>WindyModule </title>
<polygon fill="#fb8072" stroke="#000000" points="125.6551,-252 24.3449,-252 24.3449,-216 125.6551,-216 125.6551,-252"/>
<text text-anchor="middle" x="75" y="-229.8" font-family="Times,serif" font-size="14.00" fill="#000000">WindyModule </text>
</g>
<!-- SharedModule&#45;&gt;WindyModule  -->
<g id="edge24" class="edge">
<title>SharedModule&#45;&gt;WindyModule </title>
<path fill="none" stroke="#000000" stroke-dasharray="5,2" d="M873.6417,-172C693.7702,-172 83.875,-172 83.875,-172 83.875,-172 83.875,-205.7333 83.875,-205.7333"/>
<polygon fill="#000000" stroke="#000000" points="80.3751,-205.7333 83.875,-215.7333 87.3751,-205.7333 80.3751,-205.7333"/>
</g>
<!-- NgBootstrapModule -->
<g id="node10" class="node">
<title>NgBootstrapModule</title>
<polygon fill="#8dd3c7" stroke="#000000" points="561.594,-122 558.594,-126 537.594,-126 534.594,-122 430.406,-122 430.406,-86 561.594,-86 561.594,-122"/>
<text text-anchor="middle" x="496" y="-99.8" font-family="Times,serif" font-size="14.00" fill="#000000">NgBootstrapModule</text>
</g>
<!-- NgBootstrapModule&#45;&gt;SharedModule -->
<g id="edge9" class="edge">
<title>NgBootstrapModule&#45;&gt;SharedModule</title>
<path fill="none" stroke="#000000" d="M497.578,-122.027C497.578,-138.3976 497.578,-160 497.578,-160 497.578,-160 863.7831,-160 863.7831,-160"/>
<polygon fill="#000000" stroke="#000000" points="863.7831,-163.5001 873.7831,-160 863.7831,-156.5001 863.7831,-163.5001"/>
</g>
<!-- NgLeafletModule -->
<g id="node11" class="node">
<title>NgLeafletModule</title>
<polygon fill="#8dd3c7" stroke="#000000" points="412.295,-122 409.295,-126 388.295,-126 385.295,-122 295.705,-122 295.705,-86 412.295,-86 412.295,-122"/>
<text text-anchor="middle" x="354" y="-99.8" font-family="Times,serif" font-size="14.00" fill="#000000">NgLeafletModule</text>
</g>
<!-- NgLeafletModule&#45;&gt;SharedModule -->
<g id="edge10" class="edge">
<title>NgLeafletModule&#45;&gt;SharedModule</title>
<path fill="none" stroke="#000000" d="M373.3824,-122.0225C373.3824,-139.3734 373.3824,-163 373.3824,-163 373.3824,-163 863.7414,-163 863.7414,-163"/>
<polygon fill="#000000" stroke="#000000" points="863.7414,-166.5001 873.7414,-163 863.7414,-159.5001 863.7414,-166.5001"/>
</g>
<!-- NgSocketsModule -->
<g id="node12" class="node">
<title>NgSocketsModule</title>
<polygon fill="#8dd3c7" stroke="#000000" points="278.2036,-122 275.2036,-126 254.2036,-126 251.2036,-122 157.7964,-122 157.7964,-86 278.2036,-86 278.2036,-122"/>
<text text-anchor="middle" x="218" y="-99.8" font-family="Times,serif" font-size="14.00" fill="#000000">NgSocketsModule</text>
</g>
<!-- NgSocketsModule&#45;&gt;SharedModule -->
<g id="edge11" class="edge">
<title>NgSocketsModule&#45;&gt;SharedModule</title>
<path fill="none" stroke="#000000" d="M274.0619,-122.2667C274.0619,-140.5552 274.0619,-166 274.0619,-166 274.0619,-166 863.6915,-166 863.6915,-166"/>
<polygon fill="#000000" stroke="#000000" points="863.6916,-169.5001 873.6915,-166 863.6915,-162.5001 863.6916,-169.5001"/>
</g>
<!-- WindyModule -->
<g id="node13" class="node">
<title>WindyModule</title>
<polygon fill="#8dd3c7" stroke="#000000" points="139.6556,-122 136.6556,-126 115.6556,-126 112.6556,-122 42.3444,-122 42.3444,-86 139.6556,-86 139.6556,-122"/>
<text text-anchor="middle" x="91" y="-99.8" font-family="Times,serif" font-size="14.00" fill="#000000">WindyModule</text>
</g>
<!-- WindyModule&#45;&gt;SharedModule -->
<g id="edge12" class="edge">
<title>WindyModule&#45;&gt;SharedModule</title>
<path fill="none" stroke="#000000" d="M132.7025,-122.1061C132.7025,-141.3391 132.7025,-169 132.7025,-169 132.7025,-169 863.5634,-169 863.5634,-169"/>
<polygon fill="#000000" stroke="#000000" points="863.5634,-172.5001 873.5634,-169 863.5633,-165.5001 863.5634,-172.5001"/>
</g>
</g>
</svg>
