<?xml version="1.0" encoding="UTF-8" standalone="no"?>
<!DOCTYPE svg PUBLIC "-//W3C//DTD SVG 1.1//EN"
 "http://www.w3.org/Graphics/SVG/1.1/DTD/svg11.dtd">
<!-- Generated by graphviz version 2.40.1 (20161225.0304)
 -->
<!-- Title: dependencies Pages: 1 -->
<svg width="567pt" height="211pt"
 viewBox="0.00 0.00 567.00 211.00" xmlns="http://www.w3.org/2000/svg" xmlns:xlink="http://www.w3.org/1999/xlink">
<g id="graph0" class="graph" transform="scale(1 1) rotate(0) translate(4 207)">
<title>dependencies</title>
<polygon fill="#ffffff" stroke="transparent" points="-4,4 -4,-207 563,-207 563,4 -4,4"/>
<text text-anchor="start" x="258.5091" y="-42.4" font-family="sans-serif" font-weight="bold" font-size="14.00" fill="#000000">Legend</text>
<polygon fill="#ffffb3" stroke="transparent" points="45.5,-10 45.5,-30 65.5,-30 65.5,-10 45.5,-10"/>
<text text-anchor="start" x="69.129" y="-15.4" font-family="sans-serif" font-size="14.00" fill="#000000"> &#160;Declarations</text>
<polygon fill="#8dd3c7" stroke="transparent" points="158.5,-10 158.5,-30 178.5,-30 178.5,-10 158.5,-10"/>
<text text-anchor="start" x="182.2251" y="-15.4" font-family="sans-serif" font-size="14.00" fill="#000000"> &#160;Module</text>
<polygon fill="#80b1d3" stroke="transparent" points="244.5,-10 244.5,-30 264.5,-30 264.5,-10 244.5,-10"/>
<text text-anchor="start" x="268.2812" y="-15.4" font-family="sans-serif" font-size="14.00" fill="#000000"> &#160;Bootstrap</text>
<polygon fill="#fdb462" stroke="transparent" points="341.5,-10 341.5,-30 361.5,-30 361.5,-10 341.5,-10"/>
<text text-anchor="start" x="365.1732" y="-15.4" font-family="sans-serif" font-size="14.00" fill="#000000"> &#160;Providers</text>
<polygon fill="#fb8072" stroke="transparent" points="437.5,-10 437.5,-30 457.5,-30 457.5,-10 437.5,-10"/>
<text text-anchor="start" x="461.2258" y="-15.4" font-family="sans-serif" font-size="14.00" fill="#000000"> &#160;Exports</text>
<g id="clust1" class="cluster">
<title>cluster_AdminExplanationsModule</title>
<polygon fill="none" stroke="#000000" stroke-dasharray="1,5" points="8,-70 8,-195 551,-195 551,-70 8,-70"/>
</g>
<g id="clust2" class="cluster">
<title>cluster_AdminExplanationsModule_declarations</title>
<polygon fill="none" stroke="#000000" points="373,-78 373,-130 543,-130 543,-78 373,-78"/>
</g>
<g id="clust4" class="cluster">
<title>cluster_AdminExplanationsModule_imports</title>
<polygon fill="none" stroke="#000000" points="16,-78 16,-130 365,-130 365,-78 16,-78"/>
</g>
<!-- ExplanationsComponent -->
<g id="node1" class="node">
<title>ExplanationsComponent</title>
<polygon fill="#ffffb3" stroke="#000000" points="535.4312,-122 380.5688,-122 380.5688,-86 535.4312,-86 535.4312,-122"/>
<text text-anchor="middle" x="458" y="-99.8" font-family="Times,serif" font-size="14.00" fill="#000000">ExplanationsComponent</text>
</g>
<!-- AdminExplanationsModule -->
<g id="node2" class="node">
<title>AdminExplanationsModule</title>
<polygon fill="#8dd3c7" stroke="#000000" points="334.5364,-187 331.5364,-191 310.5364,-191 307.5364,-187 163.4636,-187 163.4636,-151 334.5364,-151 334.5364,-187"/>
<text text-anchor="middle" x="249" y="-164.8" font-family="Times,serif" font-size="14.00" fill="#000000">AdminExplanationsModule</text>
</g>
<!-- ExplanationsComponent&#45;&gt;AdminExplanationsModule -->
<g id="edge1" class="edge">
<title>ExplanationsComponent&#45;&gt;AdminExplanationsModule</title>
<path fill="none" stroke="#000000" d="M458,-122.1061C458,-141.3391 458,-169 458,-169 458,-169 344.6113,-169 344.6113,-169"/>
<polygon fill="#000000" stroke="#000000" points="344.6114,-165.5001 334.6113,-169 344.6113,-172.5001 344.6114,-165.5001"/>
</g>
<!-- AdminExplanationsRoutingModule -->
<g id="node3" class="node">
<title>AdminExplanationsRoutingModule</title>
<polygon fill="#8dd3c7" stroke="#000000" points="357.1539,-122 354.1539,-126 333.1539,-126 330.1539,-122 140.8461,-122 140.8461,-86 357.1539,-86 357.1539,-122"/>
<text text-anchor="middle" x="249" y="-99.8" font-family="Times,serif" font-size="14.00" fill="#000000">AdminExplanationsRoutingModule</text>
</g>
<!-- AdminExplanationsRoutingModule&#45;&gt;AdminExplanationsModule -->
<g id="edge2" class="edge">
<title>AdminExplanationsRoutingModule&#45;&gt;AdminExplanationsModule</title>
<path fill="none" stroke="#000000" d="M249,-122.1061C249,-122.1061 249,-140.991 249,-140.991"/>
<polygon fill="#000000" stroke="#000000" points="245.5001,-140.9909 249,-150.991 252.5001,-140.991 245.5001,-140.9909"/>
</g>
<!-- SharedModule -->
<g id="node4" class="node">
<title>SharedModule</title>
<polygon fill="#8dd3c7" stroke="#000000" points="122.4231,-122 119.4231,-126 98.4231,-126 95.4231,-122 23.5769,-122 23.5769,-86 122.4231,-86 122.4231,-122"/>
<text text-anchor="middle" x="73" y="-99.8" font-family="Times,serif" font-size="14.00" fill="#000000">SharedModule</text>
</g>
<!-- SharedModule&#45;&gt;AdminExplanationsModule -->
<g id="edge3" class="edge">
<title>SharedModule&#45;&gt;AdminExplanationsModule</title>
<path fill="none" stroke="#000000" d="M73,-122.1061C73,-141.3391 73,-169 73,-169 73,-169 153.3201,-169 153.3201,-169"/>
<polygon fill="#000000" stroke="#000000" points="153.3201,-172.5001 163.3201,-169 153.32,-165.5001 153.3201,-172.5001"/>
</g>
</g>
</svg>
